<?xml version="1.0" encoding="UTF-8" standalone="no"?><svg xmlns="http://www.w3.org/2000/svg" xmlns:xlink="http://www.w3.org/1999/xlink" contentScriptType="text/ecmascript" fill="#ff3131" zoomAndPan="magnify" contentStyleType="text/css" viewBox="0.0 0.0 500.0 470.2" preserveAspectRatio="xMidYMid meet" version="1"><defs><clipPath id="a"><path d="M 0 0 L 500 0 L 500 470.238281 L 0 470.238281 Z M 0 0"/></clipPath></defs><g><g id="change1_1" clip-path="url(#a)"><path fill="inherit" d="M 117.570312 0 C 159.382812 48.757812 201.191406 97.519531 248.964844 153.230469 C 297.117188 99.113281 338.671875 52.414062 377.351562 8.941406 C 413.640625 19.554688 441 30.527344 469.394531 35.175781 C 513.789062 42.4375 498.425781 63.433594 482.097656 83.265625 C 438.902344 135.726562 394.460938 187.160156 348.625 241.230469 C 393.199219 307.59375 465.632812 351.613281 500 422.882812 C 495.496094 427.101562 490.992188 431.320312 486.488281 435.542969 C 471.320312 427.894531 456.15625 420.25 440.992188 412.621094 C 408.183594 477.28125 368.730469 484.363281 322.34375 433.617188 C 298.796875 407.859375 275.796875 381.605469 248.917969 351.503906 C 225.507812 377.855469 203.910156 402.078125 182.414062 426.390625 C 129.066406 486.722656 108.664062 485.707031 52.585938 417.699219 C 40.011719 424.445312 26.847656 431.503906 13.683594 438.566406 C 9.121094 434.558594 4.5625 430.550781 0 426.542969 C 26.488281 350.699219 105.109375 311.316406 146.703125 241.1875 C 104.367188 192.144531 60.230469 142.992188 18.84375 91.617188 C 9.179688 79.617188 8.855469 60.09375 4.234375 44.027344 C 26.023438 38.171875 47.75 32.074219 69.625 26.558594 C 80.699219 23.765625 92.039062 22.011719 103.257812 19.789062 C 108.027344 13.195312 112.800781 6.597656 117.570312 0"/></g></g></svg>