<?xml version="1.0" encoding="UTF-8" standalone="no"?><svg xmlns="http://www.w3.org/2000/svg" xmlns:xlink="http://www.w3.org/1999/xlink" contentScriptType="text/ecmascript" fill="#000000" zoomAndPan="magnify" contentStyleType="text/css" viewBox="0.0 0.0 500.0 392.1" preserveAspectRatio="xMidYMid meet" version="1"><g id="change1_1"><path d="M492.2,250.1h-55.4v-62.4c0-4.3-3.5-7.8-7.8-7.8H257.8v-54.6h92.2c4.3,0,7.8-3.5,7.8-7.8V7.8c0-4.3-3.5-7.8-7.8-7.8H149.9 c-4.3,0-7.8,3.5-7.8,7.8v109.6c0,4.3,3.5,7.8,7.8,7.8h92.2v54.6H71.1c-4.3,0-7.8,3.5-7.8,7.8v62.4H7.8c-4.3,0-7.8,3.5-7.8,7.8v126.4 c0,4.3,3.5,7.8,7.8,7.8h126.4c4.3,0,7.8-3.5,7.8-7.8V257.9c0-4.3-3.5-7.8-7.8-7.8H78.9v-54.6h163.3v54.6h-55.4 c-4.3,0-7.8,3.5-7.8,7.8v126.4c0,4.3,3.5,7.8,7.8,7.8h126.4c4.3,0,7.8-3.5,7.8-7.8V257.9c0-4.3-3.5-7.8-7.8-7.8h-55.4v-54.6h163.3 v54.6h-55.4c-4.3,0-7.8,3.5-7.8,7.8v126.4c0,4.3,3.5,7.8,7.8,7.8h126.4c4.3,0,7.8-3.5,7.8-7.8V257.9 C500,253.6,496.5,250.1,492.2,250.1z M157.8,15.7h184.5v93.9H157.8V15.7z M126.4,376.5H15.7V265.8h110.8V376.5z M305.4,376.5H194.6 V265.8h110.8V376.5z M484.3,376.5H373.6V265.8h110.8V376.5z"/></g></svg>