<?xml version="1.0" encoding="UTF-8" standalone="no"?><svg xmlns="http://www.w3.org/2000/svg" xmlns:xlink="http://www.w3.org/1999/xlink" contentScriptType="text/ecmascript" fill="#000000" zoomAndPan="magnify" contentStyleType="text/css" viewBox="-0.5 -18.6 349.1 520.6" preserveAspectRatio="xMidYMid meet" version="1"><g id="Layer_2"><g><g id="change1_1"><path fill="#ffffff" d="M183.758255,416.8321838c6.0182037,8.3125305,18.5487671,32.387207-0.0950775,56.4465332 c-22.211792,28.6636963-83.1379471,24.632782-83.1146469-33.4887085v-11.1226807 C118.6236343,387.6391602,167.0451813,390.4463806,183.758255,416.8321838z M291.0163879,57.4410515 C224.1237335-14.0789471,49.7393875-18.6189728,9.0846558,108.2103195 c-9.3093863,29.0421524-9.0770435,60.8834457-9.0770435,60.8834457l78.5235367-1.1421967 c5.4893341-50.6957626,32.2467575-85.2235947,87.099205-77.1987228 c31.9009857,4.6670761,59.5802307,29.9392548,47.0258942,61.988945 c-12.0480652,30.7573242-48.684082,22.3042755-84.8330612,66.8615265 c-31.4411316,38.7543488-21.7816696,120.5792389-20.8287659,147.261734l72.013176,1.937439 c0.9141541-21.3751526,4.0563507-56.0768127,11.7462311-83.3197937 c9.566452-33.891098,51.2200928-47.4120178,78.2348175-59.8036804 C330.861908,197.2976837,348.5978088,119.0056,291.0163879,57.4410515z"/></g><g id="change2_1"><path fill="#141313" d="M199.2280579,428.1402283c2.4455109,7.2598877,3.7360535,15.1939697,3.1069183,23.2322388 c-0.5671387,8.0341187-3.194809,15.9572449-7.1767273,22.7688293l-1.5466461,2.5143127l-1.6603088,2.4116516 c-0.5564728,0.8006897-1.2603912,1.6176147-1.8946686,2.4197083l-0.9837494,1.2035217 c-0.3401642,0.3878784-0.7035675,0.7503967-1.0569,1.1250916c-2.7826843,3.0612183-6.0175323,5.5926208-9.3931427,7.8143311 l-2.5852051,1.5751648c-0.8811646,0.4816589-1.7805176,0.9237976-2.6750336,1.3768311 c-0.4495239,0.220459-0.8939056,0.4553528-1.3496857,0.658844l-1.3809662,0.573822 c-0.925415,0.3674622-1.8383331,0.7756348-2.7799072,1.0881348c-3.7505646,1.3132629-7.6203461,2.1706543-11.5136566,2.6462097 c-8.9981232,0.9325562-18.1462555,0.5281372-26.8909149-2.245575c-4.3486176-1.3717651-8.6092911-3.2360229-12.4514618-5.821106 c-3.8453598-2.5550232-7.3442993-5.6607056-10.2030716-9.2452087c-1.301506-1.7204895-3.0932999-3.9507141-4.8173752-6.7860107 c-0.4712296-0.6863708-0.8700333-1.4410095-1.2782059-2.2204285c-0.4087067-0.7781372-0.8298035-1.5798645-1.2616959-2.4020081 c-0.4203873-0.8256836-0.7438583-1.7104492-1.1240768-2.5945129c-0.3497238-0.8930359-0.7741776-1.787262-1.0626144-2.7301941 c-0.287735-0.9421082-0.5801239-1.8994446-0.8762894-2.8690186c-0.1400833-0.4855957-0.2952194-0.9718628-0.4190826-1.4650879 c-0.1024628-0.4959412-0.205452-0.9945984-0.3089676-1.495636c-0.1924057-1.0008545-0.3866501-2.0110168-0.5820618-3.0270996 c-0.1657486-1.0159607-0.2308121-2.0422974-0.3346863-3.06604c-0.0772705-1.0244751-0.2056198-2.0498657-0.2074509-3.0701904 c0.0010605-1.0203247,0.0144501-2.0372314,0.0414658-3.0463562c-0.0032425-2.0221252,0.3097305-3.993988,0.588913-5.9100647 c0.1279907-0.8277893-0.0411148-1.7369995,2.0354538-1.7648315c2.2462769-0.0263062,3.0891113,0.8440857,3.2796936,1.7750854 c0.3161011,1.4298096,0.5473251,2.853363,0.9242935,4.2522583c0.3707275,1.399231,0.6855316,2.7896423,0.9222336,4.1849976 c0.9316101,4.3645325,2.2175446,8.6116943,4.0053864,12.6051025c1.8509521,3.9619141,4.2230988,7.6245422,7.0846481,10.7911072 c5.701561,6.3708496,13.4880066,10.5037231,21.6727295,11.8995361c8.6250305,1.488678,17.5887146,0.6300659,25.582962-2.4304199 c3.9890442-1.5307922,7.7229309-3.6235657,10.9447021-6.2275391l1.2032928-0.9764404l1.1106873-1.0672607 c0.3629913-0.3606567,0.7544708-0.6923828,1.0931702-1.072113l1.0002136-1.1471558 c0.6988525-0.7347107,1.2622223-1.5707703,1.847168-2.3791199c0.5990601-0.7658386,1.1336365-1.718811,1.6867981-2.597229 c4.708847-7.9277039,6.6011505-16.4964905,5.3248901-24.9509277c-0.6091461-4.2218018-1.9465637-8.4194336-3.8840485-12.3763733 c-0.9570923-1.9789734-2.0764008-3.89505-3.2913818-5.6784973c-0.307251-0.4407654-0.6148529-0.8771362-0.9299011-1.2941589 l-1.1350403-1.5005798l-1.0058746-1.3331604c-0.3352661-0.4196167-0.6704865-0.7441711-0.9998016-1.1226196 c-3.954422-4.3125305-9.2519989-7.4984131-15.0417328-9.3650513c-5.7959442-1.8742065-12.0539093-2.4448242-18.1297913-1.7338257 c-2.5834351,0.278656-6.1545105,0.7235107-10.042099,1.8645325c-3.8854065,1.1159973-8.0792542,2.9480591-11.8320618,5.3659973 c-3.7611847,2.3943176-7.0350418,5.3512268-9.432251,7.8873596c-0.6353912,0.6077881-1.1764603,1.2175598-1.666626,1.7799377 c-0.5096893,0.5559998-0.9683609,1.056427-1.368454,1.4929199c-0.8037949,0.8811035-1.3458099,1.5361938-1.6958237,1.7924194 c-0.7212143,0.5583801-1.518631,1.7181396-3.9420929,0.3686829c-2.2000885-1.2315063-2.0308609-2.7730103-1.7244949-3.8454895 l0.4261093-1.4483337l0.5350571-1.4107971c0.3718414-0.9367981,0.7300568-1.8887024,1.1557541-2.8107605 c0.903656-1.8170776,1.8227005-3.6532898,2.9771576-5.3592529c6.4515533-10.2644958,17.2158127-18.4012451,29.5181046-21.6307983 c12.2622986-3.3614502,25.705246-2.1778564,37.4541321,3.3760681c3.3521271,1.5738525,6.5952454,3.4749451,9.5996552,5.7791138 c3.0068359,2.290863,5.8301544,4.9163208,8.2726135,7.9296265c0.5874939,0.7271729,1.0912781,1.4418335,1.6377106,2.1680603 l0.757782,1.0146484l0.3410034,0.4474792l0.4086456,0.5726013c1.0842133,1.5286865,2.0653076,3.0830383,2.9719086,4.6801147 C196.6117096,421.2503967,198.1108093,424.612915,199.2280579,428.1402283z M336.0561523,164.9802551 c-1.3010864,6.0441437-3.3557739,11.9157104-5.7141418,17.646637l-1.9115906,4.244278 c-0.6370239,1.4159393-1.4161072,2.7606812-2.1246338,4.1425323c-1.3851929,2.7856903-3.1114502,5.3724213-4.7159729,8.0352478 c-6.8757935,10.342514-15.4392395,19.6052399-25.3554688,26.9972534 c-4.8930664,3.7913818-10.1764832,6.9976349-15.5727844,9.9280243c-2.7097778,1.3499298-5.5794067,2.8345947-8.0761108,3.9243927 c-2.5570068,1.1503296-5.0984497,2.2675171-7.5864563,3.3444672c-9.9685974,4.3149872-19.5055389,8.3813019-28.2855988,13.0414886 c-3.7265625,1.97052-8.0460358,4.3292847-12.4419708,7.1890564c-2.2036743,1.4252014-4.43013,2.9734802-6.565979,4.6775208 c-2.1476593,1.696167-4.2621002,3.51828-6.1729126,5.5180359c-3.8624115,3.9804993-7.1334381,8.5527344-9.2476349,13.8135071 l-0.4113007,0.9841003c-0.139267,0.3414612-0.2804718,0.7996521-0.4210358,1.1941528l-0.8480988,2.459259 c-0.5875397,1.6287231-1.0764771,3.319458-1.6207886,4.9759521c-1.0450897,3.3370667-2.0274353,6.7021179-2.9388733,10.0505676 c-3.649704,13.4003601-6.3616028,26.4139099-8.3088226,36.5494385 c-1.9657898,10.1424866-3.2071991,17.4279785-3.8642273,19.6196289c-0.7108917,2.3391113-1.1787567,6.2992554-4.997757,5.3874817 c-0.605011-0.1453552-1.1157684-0.3905945-1.5551453-0.7044067c-0.6705322,0.3259583-1.4661255,0.4908752-2.2867889,0.5386353 c-6.4589386,0.3760986-12.9268799,0.8361816-19.3916016,0.841156l-24.3845673-0.0197144l-12.1917496-0.0292664 l-7.0234222-0.0415039l-3.6933517-0.0258484l-1.8610382-0.0133362l-0.9340897-0.0067139l-0.4679871-0.003418l-0.2341766-0.00177 c-0.0675354-0.0112-0.1847382,0.027832-0.1919327-0.0445862c-0.216713-3.618866-0.4843903-7.3093262-0.7710571-11.0372009 l-0.7894516-9.4737244c-0.5047989-6.1016541-0.9665375-12.2212219-1.3285294-18.3566284 c-0.7150116-12.2711487-1.0898056-24.6064758-0.7242737-37.0063171 c0.3237686-10.8943176,1.3007355-21.8447876,3.3711166-32.7363281c1.069397-5.438385,2.3180542-10.8756409,4.0449677-16.234848 c1.7166443-5.3577881,3.7888489-10.657135,6.3604813-15.8014069l2.0602875-3.80867 c0.7002182-1.2645874,1.5193405-2.4775543,2.278244-3.7183075c0.7371979-1.2536011,1.6446838-2.4173279,2.4970779-3.6120148 l1.2972565-1.7812195l1.3216248-1.6342468c3.4843063-4.3880768,7.2658463-8.5805054,11.3107529-12.5341034 c8.0488129-7.9431152,17.2931366-14.8248596,26.9628601-20.5418091c5.298996-3.175705,10.7118835-5.9548492,15.9065857-8.656662 c2.5810089-1.3464508,5.1097565-2.6804504,7.5108185-4.0359344c2.3804016-1.362854,4.6299133-2.7594452,6.6711578-4.2240448 c4.0738678-2.9519043,7.1430969-6.1667175,9.292984-10.046875c0.3034821-0.4589691,0.5129852-0.9943695,0.7693939-1.4915009 c0.2497559-0.5023804,0.5089264-0.9979706,0.7039948-1.546936l0.6454773-1.5996857l0.5553436-1.7037201 c0.6878815-2.269455,1.230072-4.540741,1.4149933-6.7845306c0.2054443-2.2411346,0.2346954-4.4594574-0.0724335-6.6191406 c-0.3001709-2.1594391-0.8392944-4.269165-1.6165466-6.3157654c-1.5574493-4.0923309-4.1677094-7.8981705-7.4538269-11.2636871 c-6.6342926-6.7356873-15.9897614-11.4785614-25.7746124-13.8094177 c-1.8206482-0.4244003-3.6547852-0.7959442-5.5034332-1.0557175l-1.3849182-0.2006073 c-0.4706421-0.0623474-0.9791565-0.1026917-1.4665985-0.1557236l-2.9516144-0.305954 c-3.9149017-0.2632523-7.8213806-0.4708786-11.6177216-0.2318726c-7.625824,0.3182831-14.8758698,1.8739014-21.4015121,4.6399536 c-6.4861832,2.8513336-12.2233124,6.9680862-17.0518341,12.259346 c-4.7795029,5.3357925-8.7562256,11.6960373-11.788765,18.7696609c-1.6105881,3.6905823-3.4538727,8.3834381-5.1285248,13.8902283 c-0.4400864,1.3669281-0.834404,2.7982483-1.22789,4.2689972c-0.4250488,1.4585114-0.7686386,2.9863434-1.1499176,4.5328827 l-0.1423874,0.5817108l-0.0716705,0.2918549l-0.0359192,0.1461639c-0.0006485-0.0255432-0.0546188,0.305069-0.0754395,0.4125519 c-0.1344299,0.8121033-0.2693863,1.6273956-0.4048157,2.445816c-0.2701569,1.6200256-0.5422516,3.2521973-0.8161774,4.89505 c-0.5037918,3.2164612-1.0141296,6.4746857-1.5292511,9.7634583c-3.7474442-0.0653534-7.530983-0.1313629-11.3338699-0.1976624 c-1.8544922-0.0383911-3.713707-0.0769196-5.5756302-0.1154327l-1.380722-0.0299072l-0.5632553-0.016922l-0.3828659-0.0196381 l-1.5322571-0.0792847c-4.0869064-0.2249603-8.178997-0.4501801-12.20438-0.6717224 c-8.0504646-0.4662781-15.8333168-0.9626312-22.7725639-1.4481964 c-13.8784332-0.9712524-24.382328-1.8995667-26.9036484-2.4588013c-1.9450936-0.4314728-5.1893344-0.6270142-4.623785-3.7469635 c0.1406795-0.7761841,0.4817905-1.3816223,0.944234-1.8634644c-0.4542445-0.8440704-0.6773262-1.8790283-0.7285843-2.9443054 c-0.4047559-7.9882355-0.4871582-16.0635376,0.3399312-24.0776062c1.3701066-12.5842972,3.6894021-25.169426,7.7092381-37.3388824 c2.0210667-6.0669174,4.3646641-12.0461197,7.1290016-17.8492584c2.7945395-5.786438,5.9595041-11.4094315,9.5016203-16.8047409 c7.0592804-10.8146286,15.7915573-20.5633354,25.6224289-29.0488777 c9.8345909-8.5048294,20.9029732-15.5591564,32.5872231-21.3189945 c12.3540192-6.0620203,25.5100021-10.4811859,38.9672852-13.346447 c13.4617004-2.8785925,27.2184448-4.2790174,40.9793854-4.3818283c13.7654724-0.1083557,27.5419312,1.110218,41.1345215,3.5584548 c13.5925903,2.4513628,27.0145416,6.1233044,40.0562592,11.1343861 c14.3139343,5.5376415,28.1624451,12.8566341,40.6593933,22.4978733c1.5516663,1.2179222,3.1197205,2.4153214,4.6166382,3.7164154 l2.2685852,1.9203796l2.2046204,2.0086212c1.4881897,1.3176079,2.8903809,2.7432785,4.3139343,4.144825 c1.4325256,1.4021339,2.6905518,2.8558235,4.0423889,4.2860947c2.7189636,2.8130608,5.1462097,5.9216347,7.6829224,8.9267502 c2.3538513,3.1687965,4.8079834,6.2639275,6.9447937,9.6178169c2.2693787,3.2529755,4.2321777,6.7330399,6.2419128,10.1790085 l2.7685242,5.330368c0.9303284,1.7738571,1.6842651,3.6465149,2.5296326,5.4698639 c3.2178955,7.376091,5.7984924,15.0964203,7.5745239,23.0633087 C339.6651001,131.7989349,339.8000488,148.7282562,336.0561523,164.9802551z M308.9553223,109.3612976 c-5.2086487-15.512619-14.4355469-29.811615-26.0936279-41.9566574 c-11.2524719-11.9537468-25.4507751-21.1766624-40.7787628-28.2039146 c-7.6969757-3.45924-15.6476898-6.4493141-23.8113556-8.8319607c-4.0640106-1.241518-8.2030029-2.2564754-12.3414612-3.252203 c-4.1620483-0.9089622-8.3307648-1.8008747-12.5438843-2.4713001 c-16.8240356-2.8330555-33.9852905-3.7124653-51.0145874-2.7152042 c-19.6962585,1.1790543-39.1129837,6.169136-56.5573654,14.6947899 c-17.4749298,8.5084267-32.8555412,20.5790253-45.2221832,35.4189758 c-2.9182892,3.4966354-6.5236969,8.4177094-10.0958958,14.6167526 c-3.5822849,6.1898346-7.1233978,13.6479721-10.1858463,21.9762039c-1.599205,4.1477737-2.8925133,8.5063019-4.2220383,13.0344772 c-1.2198124,4.5600204-2.4140253,9.2494583-3.4197216,14.0497208c-2.0469608,9.5786591-3.6988392,19.4983063-5.0002871,29.0191498 c-0.0181675,0.129303-0.0345063,0.2591248-0.0498424,0.3890076c7.9100823-0.7996063,15.8466492-1.3861542,23.7850437-1.846344 c7.8484421-0.4549561,15.6982422-0.8693237,23.5498123-1.2497864l11.7786827-0.5460815l1.4725647-0.0649414 c0.3110275-0.011734,0.307663-0.0188141,0.4400864-0.0279083l0.3111496-0.0258331l1.2183304-0.1012115 c0.7853317-0.0811615,1.5998001-0.0976257,2.2878036-0.2257385c0.0628738-0.909317,0.0946121-1.7903748,0.1832047-2.6342773 l0.1214523-1.2736664l0.5378876-3.3242188c0.7816086-4.4272461,1.6975327-8.8560944,2.9577484-13.2377472 c2.4320755-8.7682495,5.9552536-17.4213715,10.8953781-25.4859314 c5.0022888-7.9964371,11.4701309-15.4521561,19.4949341-21.0643005c3.9820328-2.8208466,8.2774429-5.2113953,12.7522354-7.1347198 c4.4785614-1.9288177,9.1457596-3.2864761,13.8354874-4.2899933c7.8169556-1.6053391,15.7259674-2.1494141,23.4555511-1.8092499 c1.9219818,0.1288834,3.8665924,0.1843338,5.7746429,0.3827591l2.864151,0.2965775 c0.9500122,0.0933151,1.9075165,0.1960602,2.9095001,0.3574448c3.9590149,0.5646057,7.8852539,1.3945847,11.7370911,2.5350647 c7.6954346,2.288681,15.1484985,5.6926575,21.9370422,10.4440842c6.7602234,4.7417526,12.912674,10.9166107,17.2430573,18.6129913 c2.267868,3.9702911,4.0456848,8.3208008,5.1455231,12.8746262c1.1069031,4.5502853,1.522522,9.2869797,1.2639313,13.921669 c-0.2521057,4.6395416-1.1633148,9.1622772-2.5279846,13.4260254c-1.3297729,4.2035065-3.2494965,8.5517731-5.8713837,12.5164032 c-2.598114,3.9871521-5.8863678,7.5430145-9.3681946,10.4729309c-3.488266,2.9452972-7.1313629,5.3107147-10.6685791,7.3704834 c-7.1070557,4.0939178-13.8109589,7.154953-20.0343628,10.4972839 c-6.242218,3.3028107-12.0462341,6.7758026-17.4562988,10.7451477 c-5.4326477,3.9264679-10.4440765,8.3466339-15.1362915,13.1697845c-1.1930237,1.1820679-2.3213501,2.4402161-3.4571686,3.6910553 c-1.1603546,1.2232971-2.2252197,2.5544128-3.3361969,3.8360291l-0.8282166,0.9673615l-0.6946106,0.9120331l-1.396759,1.8096008 c-0.902832,1.2415161-1.7411346,2.5617218-2.6141663,3.8506622c-3.3105469,5.3475952-6.0551224,11.3423767-8.3591919,17.6737213 c-2.6784592,7.3239899-4.542511,15.1587067-5.8306808,23.1714325c-1.298439,8.0151367-2.0850677,16.2046204-2.5190811,24.4648438 c-0.8696136,16.5443115-0.4446869,33.2697754-0.1147232,50.2284851c0.0289001,1.0787048,0.0603409,2.2536926,0.0942001,3.519165 c0.0229416,0.6344604,0.0466537,1.2914124,0.0711365,1.9705811c0.013443,0.3408203,0.0270691,0.6870422,0.0409317,1.0388489 c0.0053101,0.1173706,0.0031891,0.1109009,0.0027695,0.1321106l-0.001709,0.0573425l-0.003006,0.1169128 c-0.0067215,0.6685486-0.0142136,1.4159851-0.0224152,2.2319946c0.4802017,0.0681763,1.0463409,0.0956726,1.6335907,0.1525269 l0.4533005,0.0396423l0.2332306,0.020874l0.1183243,0.0106201l0.4075241,0.0186462 c1.3197937,0.0574646,2.6620026,0.1159668,4.024025,0.175293c5.4478683,0.2440796,11.2118378,0.5311279,17.1248016,0.88797 c11.6337585,0.7020569,23.8405457,1.6769409,35.3549805,3.1232605c-0.0497284-0.5252075-0.0778046-1.0422668-0.0911407-1.5301819 c-0.311264-10.5835876,0.0322723-21.2058716,0.889267-31.8162231c0.637207-7.8164673,1.505127-15.6358948,2.6848297-23.4572144 l0.9489441-5.8661194l1.0869751-5.8664856c0.4128418-1.9544678,0.8011475-3.9110107,1.2416992-5.8664856l0.6939087-2.9328003 c0.2395325-0.9873657,0.4321747-1.9134827,0.775528-3.0368652c1.1903839-4.3270264,2.874115-8.5558472,5.0345612-12.4867249 c2.14711-3.9399719,4.7085419-7.6082458,7.5335236-10.9690552c5.6671143-6.7251282,12.3003998-12.2467194,19.1820221-16.9139252 c13.7996216-9.3484955,28.6000519-15.7196503,42.554184-22.0273438c7.1521606-3.184967,13.1813965-6.1474915,19.0100708-10.023819 c5.7858582-3.828537,11.1018372-8.2927704,15.7832336-13.3109283 c10.6664124-11.4550934,17.8131714-25.8855133,20.3985901-41.1017914 C315.307312,140.0919037,313.81604,124.2942657,308.9553223,109.3612976z"/></g></g></g></svg>