<svg xmlns="http://www.w3.org/2000/svg" xmlns:xlink="http://www.w3.org/1999/xlink" width="1080" zoomAndPan="magnify" viewBox="0 0 810 809.999993" height="1080" preserveAspectRatio="xMidYMid meet" version="1.0"><path fill="#ffd326" d="M 224.632812 797.375 L 12.605469 585.347656 C 4.53125 577.273438 0 566.328125 0 554.914062 L 0 255.066406 C 0 243.652344 4.53125 232.707031 12.605469 224.632812 L 224.632812 12.605469 C 232.707031 4.53125 243.652344 0 255.066406 0 L 554.914062 0 C 566.335938 0 577.273438 4.53125 585.347656 12.605469 L 797.375 224.632812 C 805.449219 232.707031 809.980469 243.652344 809.980469 255.066406 L 809.980469 554.914062 C 809.980469 566.328125 805.449219 577.273438 797.375 585.347656 L 585.347656 797.375 C 577.273438 805.441406 566.335938 809.980469 554.914062 809.980469 L 255.066406 809.980469 C 243.652344 809.980469 232.707031 805.441406 224.632812 797.375 " fill-opacity="1" fill-rule="nonzero"/><path fill="#000000" d="M 759.960938 538.308594 C 759.960938 547.109375 756.460938 555.476562 750.28125 561.703125 L 561.695312 750.289062 C 560.914062 751.070312 560.140625 751.75 559.3125 752.429688 C 553.476562 757.292969 546.035156 759.96875 538.347656 759.96875 L 271.65625 759.96875 C 262.902344 759.96875 254.492188 756.46875 248.269531 750.289062 L 195.746094 697.765625 L 97.707031 599.679688 L 59.722656 561.703125 C 53.503906 555.476562 50.046875 547.109375 50.046875 538.308594 L 50.046875 271.664062 C 50.046875 263.15625 53.257812 255.035156 59.136719 248.902344 C 59.335938 248.664062 59.53125 248.46875 59.722656 248.269531 L 97.707031 210.292969 L 171.328125 136.664062 L 213.109375 94.890625 L 248.269531 59.730469 C 254.492188 53.503906 262.902344 50.054688 271.65625 50.054688 L 538.347656 50.054688 C 546.035156 50.054688 553.476562 52.730469 559.3125 57.589844 C 560.140625 58.222656 560.914062 58.957031 561.695312 59.730469 L 638.628906 136.664062 L 674.714844 172.703125 L 750.28125 248.269531 C 750.480469 248.46875 750.667969 248.664062 750.867188 248.902344 C 756.707031 255.035156 759.960938 263.15625 759.960938 271.664062 Z M 768.03125 248.902344 C 766.769531 246.714844 765.167969 244.71875 763.320312 242.871094 L 567.09375 46.652344 C 564.757812 44.316406 562.128906 42.367188 559.3125 40.859375 C 554.542969 38.332031 549.246094 36.976562 543.746094 36.976562 L 266.257812 36.976562 C 257.457031 36.976562 249.09375 40.472656 242.863281 46.652344 L 213.109375 76.414062 L 152.851562 136.664062 L 46.644531 242.871094 C 44.796875 244.71875 43.242188 246.714844 41.925781 248.902344 C 38.710938 254.054688 36.96875 260.039062 36.96875 266.21875 L 36.96875 543.753906 C 36.96875 552.507812 40.464844 560.921875 46.644531 567.101562 L 213.109375 733.558594 L 242.863281 763.320312 C 249.09375 769.5 257.457031 773.003906 266.257812 773.003906 L 543.746094 773.003906 C 549.246094 773.003906 554.542969 771.640625 559.3125 769.105469 C 562.128906 767.605469 564.757812 765.65625 567.09375 763.320312 L 744.835938 585.578125 L 763.320312 567.101562 C 769.539062 560.921875 772.996094 552.507812 772.996094 543.753906 L 772.996094 266.21875 C 772.996094 260.039062 771.292969 254.054688 768.03125 248.902344 " fill-opacity="1" fill-rule="nonzero"/><path fill="#000000" d="M 340.839844 285.878906 L 313.257812 524.09375 L 235.917969 524.09375 C 228.839844 487.496094 222.589844 445.855469 217.167969 399.175781 C 214.695312 419.195312 208.933594 460.828125 199.890625 524.09375 L 122.996094 524.09375 L 95.269531 285.878906 L 155.449219 285.878906 L 161.992188 369 L 168.320312 449.355469 C 170.601562 407.769531 176.316406 353.28125 185.449219 285.878906 L 249.769531 285.878906 C 250.632812 292.847656 252.878906 319.035156 256.527344 364.457031 L 263.371094 455.089844 C 266.898438 397.421875 272.660156 341.023438 280.660156 285.878906 L 340.839844 285.878906 " fill-opacity="1" fill-rule="nonzero"/><path fill="#000000" d="M 424.359375 439.054688 C 421.226562 412.070312 418.074219 378.726562 414.917969 338.996094 C 408.613281 384.613281 404.652344 417.964844 403.03125 439.054688 Z M 457.183594 285.878906 L 492.613281 524.09375 L 429.308594 524.09375 L 425.984375 481.277344 L 403.824219 481.277344 L 400.097656 524.09375 L 336.058594 524.09375 L 367.652344 285.878906 L 457.183594 285.878906 " fill-opacity="1" fill-rule="nonzero"/><path fill="#000000" d="M 565.078125 285.878906 L 565.078125 524.09375 L 503.132812 524.09375 L 503.132812 285.878906 L 565.078125 285.878906 " fill-opacity="1" fill-rule="nonzero"/><path fill="#000000" d="M 714.710938 285.878906 L 714.710938 333.554688 L 677.925781 333.554688 L 677.925781 524.09375 L 615.984375 524.09375 L 615.984375 333.554688 L 579.347656 333.554688 L 579.347656 285.878906 L 714.710938 285.878906 " fill-opacity="1" fill-rule="nonzero"/></svg>