<svg xmlns="http://www.w3.org/2000/svg" xmlns:xlink="http://www.w3.org/1999/xlink" width="1920" zoomAndPan="magnify" viewBox="0 0 1440 809.999993" height="1080" preserveAspectRatio="xMidYMid meet" version="1.0"><defs><g/></defs><g fill="#dd130e" fill-opacity="1"><g transform="translate(557.75153, 183.750011)"><g><path d="M 24.453125 0 L 24.453125 -23.796875 L 1.734375 -70.53125 L 18.828125 -70.53125 L 25.96875 -53.546875 C 27.039062 -50.878906 28.097656 -48.226562 29.140625 -45.59375 C 30.191406 -42.957031 31.257812 -40.234375 32.34375 -37.421875 L 32.78125 -37.421875 C 33.925781 -40.234375 35.054688 -42.957031 36.171875 -45.59375 C 37.296875 -48.226562 38.363281 -50.878906 39.375 -53.546875 L 46.515625 -70.53125 L 63.171875 -70.53125 L 40.453125 -23.796875 L 40.453125 0 Z M 24.453125 0 "/></g></g></g><g fill="#000000" fill-opacity="1"><g transform="translate(622.638246, 183.750011)"><g><path d="M 32.453125 1.296875 C 26.828125 1.296875 21.882812 -0.109375 17.625 -2.921875 C 13.375 -5.734375 10.054688 -9.859375 7.671875 -15.296875 C 5.296875 -20.742188 4.109375 -27.507812 4.109375 -35.59375 C 4.109375 -43.445312 5.296875 -50.0625 7.671875 -55.4375 C 10.054688 -60.8125 13.375 -64.882812 17.625 -67.65625 C 21.882812 -70.4375 26.828125 -71.828125 32.453125 -71.828125 C 38.078125 -71.828125 43.015625 -70.4375 47.265625 -67.65625 C 51.523438 -64.882812 54.84375 -60.8125 57.21875 -55.4375 C 59.601562 -50.0625 60.796875 -43.445312 60.796875 -35.59375 C 60.796875 -27.507812 59.601562 -20.742188 57.21875 -15.296875 C 54.84375 -9.859375 51.523438 -5.734375 47.265625 -2.921875 C 43.015625 -0.109375 38.078125 1.296875 32.453125 1.296875 Z M 32.453125 -12.4375 C 34.898438 -12.4375 37.023438 -13.316406 38.828125 -15.078125 C 40.628906 -16.847656 42.015625 -19.445312 42.984375 -22.875 C 43.960938 -26.300781 44.453125 -30.539062 44.453125 -35.59375 C 44.453125 -40.488281 43.960938 -44.59375 42.984375 -47.90625 C 42.015625 -51.226562 40.628906 -53.753906 38.828125 -55.484375 C 37.023438 -57.222656 34.898438 -58.09375 32.453125 -58.09375 C 30.003906 -58.09375 27.875 -57.222656 26.0625 -55.484375 C 24.257812 -53.753906 22.867188 -51.226562 21.890625 -47.90625 C 20.921875 -44.59375 20.4375 -40.488281 20.4375 -35.59375 C 20.4375 -30.539062 20.921875 -26.300781 21.890625 -22.875 C 22.867188 -19.445312 24.257812 -16.847656 26.0625 -15.078125 C 27.875 -13.316406 30.003906 -12.4375 32.453125 -12.4375 Z M 32.453125 -12.4375 "/></g></g></g><g fill="#000000" fill-opacity="1"><g transform="translate(687.536645, 183.750011)"><g><path d="M 32.671875 1.296875 C 28.335938 1.296875 24.566406 0.664062 21.359375 -0.59375 C 18.148438 -1.851562 15.484375 -3.691406 13.359375 -6.109375 C 11.234375 -8.523438 9.628906 -11.484375 8.546875 -14.984375 C 7.460938 -18.484375 6.921875 -22.539062 6.921875 -27.15625 L 6.921875 -70.53125 L 22.828125 -70.53125 L 22.828125 -25.53125 C 22.828125 -22.71875 23.1875 -20.335938 23.90625 -18.390625 C 24.625 -16.441406 25.703125 -14.960938 27.140625 -13.953125 C 28.585938 -12.941406 30.429688 -12.4375 32.671875 -12.4375 C 34.898438 -12.4375 36.753906 -12.941406 38.234375 -13.953125 C 39.710938 -14.960938 40.8125 -16.441406 41.53125 -18.390625 C 42.257812 -20.335938 42.625 -22.71875 42.625 -25.53125 L 42.625 -70.53125 L 57.984375 -70.53125 L 57.984375 -27.15625 C 57.984375 -22.539062 57.476562 -18.484375 56.46875 -14.984375 C 55.457031 -11.484375 53.882812 -8.523438 51.75 -6.109375 C 49.625 -3.691406 46.972656 -1.851562 43.796875 -0.59375 C 40.628906 0.664062 36.921875 1.296875 32.671875 1.296875 Z M 32.671875 1.296875 "/></g></g></g><g fill="#dd130e" fill-opacity="1"><g transform="translate(557.75153, 313.500004)"><g><path d="M 0.96875 0 L 22.9375 -70.53125 L 41.96875 -70.53125 L 63.921875 0 L 47.0625 0 L 37.96875 -35.703125 C 37.101562 -39.234375 36.164062 -42.976562 35.15625 -46.9375 C 34.144531 -50.90625 33.207031 -54.726562 32.34375 -58.40625 L 31.90625 -58.40625 C 31.039062 -54.726562 30.140625 -50.90625 29.203125 -46.9375 C 28.265625 -42.976562 27.328125 -39.234375 26.390625 -35.703125 L 17.203125 0 Z M 15.46875 -16.765625 L 15.46875 -29.203125 L 49.21875 -29.203125 L 49.21875 -16.765625 Z M 15.46875 -16.765625 "/></g></g></g><g fill="#000000" fill-opacity="1"><g transform="translate(622.638246, 313.500004)"><g><path d="M 8 0 L 8 -13.40625 L 24.453125 -13.40625 L 24.453125 -57.109375 L 8 -57.109375 L 8 -70.53125 L 56.90625 -70.53125 L 56.90625 -57.109375 L 40.453125 -57.109375 L 40.453125 -13.40625 L 56.90625 -13.40625 L 56.90625 0 Z M 8 0 "/></g></g></g><g fill="#000000" fill-opacity="1"><g transform="translate(687.536645, 313.500004)"><g><path d="M 7.140625 0 L 7.140625 -70.53125 L 23.46875 -70.53125 L 38.296875 -35.484375 L 44.34375 -19.90625 L 44.78125 -19.90625 C 44.425781 -23.65625 43.957031 -27.835938 43.375 -32.453125 C 42.800781 -37.066406 42.515625 -41.429688 42.515625 -45.546875 L 42.515625 -70.53125 L 57.765625 -70.53125 L 57.765625 0 L 41.4375 0 L 26.609375 -35.15625 L 20.546875 -50.515625 L 20.125 -50.515625 C 20.476562 -46.691406 20.941406 -42.523438 21.515625 -38.015625 C 22.097656 -33.515625 22.390625 -29.171875 22.390625 -24.984375 L 22.390625 0 Z M 7.140625 0 "/></g></g></g><g fill="#000000" fill-opacity="1"><g transform="translate(752.435045, 313.500004)"><g><path d="M 27.578125 -32.78125 L 23.796875 -58.40625 L 23.25 -74.09375 L 41.640625 -74.09375 L 41.109375 -58.40625 L 37.3125 -32.78125 Z M 27.578125 -32.78125 "/></g></g></g><g fill="#000000" fill-opacity="1"><g transform="translate(817.333456, 313.500004)"><g><path d="M 24.453125 0 L 24.453125 -57.109375 L 3.359375 -57.109375 L 3.359375 -70.53125 L 61.546875 -70.53125 L 61.546875 -57.109375 L 40.453125 -57.109375 L 40.453125 0 Z M 24.453125 0 "/></g></g></g><g fill="#dd130e" fill-opacity="1"><g transform="translate(557.75153, 443.249998)"><g><path d="M 37.109375 1.296875 C 31.117188 1.296875 25.671875 -0.0507812 20.765625 -2.75 C 15.859375 -5.457031 11.960938 -9.5 9.078125 -14.875 C 6.203125 -20.25 4.765625 -26.898438 4.765625 -34.828125 C 4.765625 -42.691406 6.203125 -49.378906 9.078125 -54.890625 C 11.960938 -60.410156 15.875 -64.613281 20.8125 -67.5 C 25.757812 -70.382812 31.257812 -71.828125 37.3125 -71.828125 C 42.070312 -71.828125 46.144531 -70.90625 49.53125 -69.0625 C 52.925781 -67.226562 55.742188 -65.15625 57.984375 -62.84375 L 49.21875 -53 C 47.707031 -54.519531 46.046875 -55.75 44.234375 -56.6875 C 42.429688 -57.625 40.125 -58.09375 37.3125 -58.09375 C 34.289062 -58.09375 31.550781 -57.171875 29.09375 -55.328125 C 26.644531 -53.492188 24.71875 -50.878906 23.3125 -47.484375 C 21.90625 -44.097656 21.203125 -40.0625 21.203125 -35.375 C 21.203125 -30.539062 21.8125 -26.410156 23.03125 -22.984375 C 24.257812 -19.554688 26.132812 -16.941406 28.65625 -15.140625 C 31.1875 -13.335938 34.289062 -12.4375 37.96875 -12.4375 C 39.34375 -12.4375 40.660156 -12.613281 41.921875 -12.96875 C 43.179688 -13.332031 44.171875 -13.878906 44.890625 -14.609375 L 44.890625 -26.71875 L 34.609375 -26.71875 L 34.609375 -39.703125 L 59.171875 -39.703125 L 59.171875 -7.25 C 56.785156 -5.007812 53.628906 -3.023438 49.703125 -1.296875 C 45.773438 0.429688 41.578125 1.296875 37.109375 1.296875 Z M 37.109375 1.296875 "/></g></g></g><g fill="#000000" fill-opacity="1"><g transform="translate(622.638246, 443.249998)"><g><path d="M 32.453125 1.296875 C 26.828125 1.296875 21.882812 -0.109375 17.625 -2.921875 C 13.375 -5.734375 10.054688 -9.859375 7.671875 -15.296875 C 5.296875 -20.742188 4.109375 -27.507812 4.109375 -35.59375 C 4.109375 -43.445312 5.296875 -50.0625 7.671875 -55.4375 C 10.054688 -60.8125 13.375 -64.882812 17.625 -67.65625 C 21.882812 -70.4375 26.828125 -71.828125 32.453125 -71.828125 C 38.078125 -71.828125 43.015625 -70.4375 47.265625 -67.65625 C 51.523438 -64.882812 54.84375 -60.8125 57.21875 -55.4375 C 59.601562 -50.0625 60.796875 -43.445312 60.796875 -35.59375 C 60.796875 -27.507812 59.601562 -20.742188 57.21875 -15.296875 C 54.84375 -9.859375 51.523438 -5.734375 47.265625 -2.921875 C 43.015625 -0.109375 38.078125 1.296875 32.453125 1.296875 Z M 32.453125 -12.4375 C 34.898438 -12.4375 37.023438 -13.316406 38.828125 -15.078125 C 40.628906 -16.847656 42.015625 -19.445312 42.984375 -22.875 C 43.960938 -26.300781 44.453125 -30.539062 44.453125 -35.59375 C 44.453125 -40.488281 43.960938 -44.59375 42.984375 -47.90625 C 42.015625 -51.226562 40.628906 -53.753906 38.828125 -55.484375 C 37.023438 -57.222656 34.898438 -58.09375 32.453125 -58.09375 C 30.003906 -58.09375 27.875 -57.222656 26.0625 -55.484375 C 24.257812 -53.753906 22.867188 -51.226562 21.890625 -47.90625 C 20.921875 -44.59375 20.4375 -40.488281 20.4375 -35.59375 C 20.4375 -30.539062 20.921875 -26.300781 21.890625 -22.875 C 22.867188 -19.445312 24.257812 -16.847656 26.0625 -15.078125 C 27.875 -13.316406 30.003906 -12.4375 32.453125 -12.4375 Z M 32.453125 -12.4375 "/></g></g></g><g fill="#000000" fill-opacity="1"><g transform="translate(687.536645, 443.249998)"><g><path d="M 7.140625 0 L 7.140625 -70.53125 L 23.46875 -70.53125 L 38.296875 -35.484375 L 44.34375 -19.90625 L 44.78125 -19.90625 C 44.425781 -23.65625 43.957031 -27.835938 43.375 -32.453125 C 42.800781 -37.066406 42.515625 -41.429688 42.515625 -45.546875 L 42.515625 -70.53125 L 57.765625 -70.53125 L 57.765625 0 L 41.4375 0 L 26.609375 -35.15625 L 20.546875 -50.515625 L 20.125 -50.515625 C 20.476562 -46.691406 20.941406 -42.523438 21.515625 -38.015625 C 22.097656 -33.515625 22.390625 -29.171875 22.390625 -24.984375 L 22.390625 0 Z M 7.140625 0 "/></g></g></g><g fill="#000000" fill-opacity="1"><g transform="translate(752.435045, 443.249998)"><g><path d="M 7.140625 0 L 7.140625 -70.53125 L 23.46875 -70.53125 L 38.296875 -35.484375 L 44.34375 -19.90625 L 44.78125 -19.90625 C 44.425781 -23.65625 43.957031 -27.835938 43.375 -32.453125 C 42.800781 -37.066406 42.515625 -41.429688 42.515625 -45.546875 L 42.515625 -70.53125 L 57.765625 -70.53125 L 57.765625 0 L 41.4375 0 L 26.609375 -35.15625 L 20.546875 -50.515625 L 20.125 -50.515625 C 20.476562 -46.691406 20.941406 -42.523438 21.515625 -38.015625 C 22.097656 -33.515625 22.390625 -29.171875 22.390625 -24.984375 L 22.390625 0 Z M 7.140625 0 "/></g></g></g><g fill="#000000" fill-opacity="1"><g transform="translate(817.333456, 443.249998)"><g><path d="M 0.96875 0 L 22.9375 -70.53125 L 41.96875 -70.53125 L 63.921875 0 L 47.0625 0 L 37.96875 -35.703125 C 37.101562 -39.234375 36.164062 -42.976562 35.15625 -46.9375 C 34.144531 -50.90625 33.207031 -54.726562 32.34375 -58.40625 L 31.90625 -58.40625 C 31.039062 -54.726562 30.140625 -50.90625 29.203125 -46.9375 C 28.265625 -42.976562 27.328125 -39.234375 26.390625 -35.703125 L 17.203125 0 Z M 15.46875 -16.765625 L 15.46875 -29.203125 L 49.21875 -29.203125 L 49.21875 -16.765625 Z M 15.46875 -16.765625 "/></g></g></g><g fill="#dd130e" fill-opacity="1"><g transform="translate(557.75153, 572.999991)"><g><path d="M 7.140625 0 L 7.140625 -70.53125 L 23.46875 -70.53125 L 38.296875 -35.484375 L 44.34375 -19.90625 L 44.78125 -19.90625 C 44.425781 -23.65625 43.957031 -27.835938 43.375 -32.453125 C 42.800781 -37.066406 42.515625 -41.429688 42.515625 -45.546875 L 42.515625 -70.53125 L 57.765625 -70.53125 L 57.765625 0 L 41.4375 0 L 26.609375 -35.15625 L 20.546875 -50.515625 L 20.125 -50.515625 C 20.476562 -46.691406 20.941406 -42.523438 21.515625 -38.015625 C 22.097656 -33.515625 22.390625 -29.171875 22.390625 -24.984375 L 22.390625 0 Z M 7.140625 0 "/></g></g></g><g fill="#000000" fill-opacity="1"><g transform="translate(622.638246, 572.999991)"><g><path d="M 9.953125 0 L 9.953125 -70.53125 L 56.6875 -70.53125 L 56.6875 -57.109375 L 25.96875 -57.109375 L 25.96875 -42.9375 L 52.03125 -42.9375 L 52.03125 -29.640625 L 25.96875 -29.640625 L 25.96875 -13.40625 L 57.765625 -13.40625 L 57.765625 0 Z M 9.953125 0 "/></g></g></g><g fill="#000000" fill-opacity="1"><g transform="translate(687.536645, 572.999991)"><g><path d="M 9.953125 0 L 9.953125 -70.53125 L 56.6875 -70.53125 L 56.6875 -57.109375 L 25.96875 -57.109375 L 25.96875 -42.9375 L 52.03125 -42.9375 L 52.03125 -29.640625 L 25.96875 -29.640625 L 25.96875 -13.40625 L 57.765625 -13.40625 L 57.765625 0 Z M 9.953125 0 "/></g></g></g><g fill="#000000" fill-opacity="1"><g transform="translate(752.435045, 572.999991)"><g><path d="M 7.578125 0 L 7.578125 -70.53125 L 27.046875 -70.53125 C 33.890625 -70.53125 39.851562 -69.300781 44.9375 -66.84375 C 50.03125 -64.394531 53.984375 -60.59375 56.796875 -55.4375 C 59.609375 -50.28125 61.015625 -43.664062 61.015625 -35.59375 C 61.015625 -27.507812 59.625 -20.835938 56.84375 -15.578125 C 54.070312 -10.316406 50.195312 -6.40625 45.21875 -3.84375 C 40.238281 -1.28125 34.503906 0 28.015625 0 Z M 23.578125 -12.875 L 26.171875 -12.875 C 29.921875 -12.875 33.164062 -13.59375 35.90625 -15.03125 C 38.65625 -16.476562 40.800781 -18.859375 42.34375 -22.171875 C 43.894531 -25.492188 44.671875 -29.96875 44.671875 -35.59375 C 44.671875 -41.21875 43.894531 -45.632812 42.34375 -48.84375 C 40.800781 -52.050781 38.65625 -54.320312 35.90625 -55.65625 C 33.164062 -56.988281 29.921875 -57.65625 26.171875 -57.65625 L 23.578125 -57.65625 Z M 23.578125 -12.875 "/></g></g></g><g fill="#dd130e" fill-opacity="1"><g transform="translate(557.75153, 702.749985)"><g><path d="M 7.140625 0 L 7.140625 -15.578125 L 23.15625 -15.578125 L 23.15625 -54.734375 L 7.140625 -54.734375 L 7.140625 -70.3125 L 57.765625 -70.3125 L 57.765625 -54.734375 L 41.75 -54.734375 L 41.75 -15.578125 L 57.765625 -15.578125 L 57.765625 0 Z M 7.140625 0 "/></g></g></g><g fill="#000000" fill-opacity="1"><g transform="translate(622.638246, 702.749985)"><g><path d="M 23.15625 0 L 23.15625 -54.734375 L 2.921875 -54.734375 L 2.921875 -70.3125 L 61.984375 -70.3125 L 61.984375 -54.734375 L 41.75 -54.734375 L 41.75 0 Z M 23.15625 0 "/></g></g></g></svg>