<?xml version="1.0" encoding="UTF-8" standalone="no"?>
<svg
   version="1.1"
   viewBox="0 0 213.36978 213.37167"
   id="svg254"
   sodipodi:docname="clock.svg"
   inkscape:version="1.2.2 (b0a8486, 2022-12-01)"
   xmlns:inkscape="http://www.inkscape.org/namespaces/inkscape"
   xmlns:sodipodi="http://sodipodi.sourceforge.net/DTD/sodipodi-0.dtd"
   xmlns="http://www.w3.org/2000/svg"
   xmlns:svg="http://www.w3.org/2000/svg">
  <defs
     id="defs258" />
  <sodipodi:namedview
     id="namedview256"
     pagecolor="#ffffff"
     bordercolor="#000000"
     borderopacity="0.25"
     inkscape:showpageshadow="2"
     inkscape:pageopacity="0.0"
     inkscape:pagecheckerboard="0"
     inkscape:deskcolor="#d1d1d1"
     showgrid="false"
     inkscape:zoom="0.98333333"
     inkscape:cx="73.220339"
     inkscape:cy="95.59322"
     inkscape:window-width="1309"
     inkscape:window-height="456"
     inkscape:window-x="0"
     inkscape:window-y="25"
     inkscape:window-maximized="0"
     inkscape:current-layer="svg254" />
  <g
     stroke-width="2"
     fill="none"
     stroke-linecap="butt"
     id="g208"
     transform="translate(-15.864274,-23.526955)">
    <path
       stroke="#747273"
       vector-effect="non-scaling-stroke"
       d="M 214.82,129.7 A 92.29,92.29 0 0 0 122.53,37.41 92.29,92.29 0 0 0 30.24,129.7 92.29,92.29 0 0 0 122.53,221.99 92.29,92.29 0 0 0 214.82,129.7"
       id="path132" />
    <path
       stroke="#989697"
       vector-effect="non-scaling-stroke"
       d="m 117.08,61.4 q -0.65,28.89 -0.23,58.36"
       id="path134" />
    <path
       stroke="#8f7729"
       vector-effect="non-scaling-stroke"
       d="m 116.85,119.76 c -9.44,6.12 -7,18.75 3.55,21.92"
       id="path136" />
    <path
       stroke="#252224"
       vector-effect="non-scaling-stroke"
       d="m 120.4,141.68 q 5.58,4.44 12.91,-0.49"
       id="path138" />
    <path
       stroke="#8f7729"
       vector-effect="non-scaling-stroke"
       d="m 133.31,141.19 50.47,31.69"
       id="path140" />
    <path
       stroke="#252224"
       vector-effect="non-scaling-stroke"
       d="m 183.78,172.88 3.82,1.88 q 0.42,0.21 0.76,-0.13 4.11,-4.13 0.84,-5.63"
       id="path142" />
    <path
       stroke="#4b494a"
       vector-effect="non-scaling-stroke"
       d="m 189.2,169 c 10.16,-8.61 -8.23,-17.69 -9.04,-4.97"
       id="path144" />
    <path
       stroke="#8f7729"
       vector-effect="non-scaling-stroke"
       d="M 180.16,164.03 137.72,137.27"
       id="path146" />
    <path
       stroke="#252224"
       vector-effect="non-scaling-stroke"
       d="m 137.72,137.27 q -0.07,-0.78 0.2,-1.46 a 0.67,0.67 0 0 1 0.73,-0.41 c 4.74,0.81 10.35,0.06 13.78,0.08 q 17.78,0.1 35.59,0.06 0.49,0 0.61,-0.48 c 0.78,-3.08 1.96,-7.82 0.14,-10.26 q -0.28,-0.38 -0.75,-0.38 l -9.48,-0.01"
       id="path148" />
    <path
       stroke="#989697"
       vector-effect="non-scaling-stroke"
       d="m 178.54,124.41 -42.66,0.58"
       id="path150" />
    <path
       stroke="#252224"
       vector-effect="non-scaling-stroke"
       d="m 135.88,124.99 q -3.53,-2.06 -3.51,-3.8 0.29,-32.1 0.09,-64.21 0,-0.53 -0.53,-0.49 -0.35,0.03 -0.65,0.26"
       id="path152" />
    <path
       stroke="#6c6a6b"
       vector-effect="non-scaling-stroke"
       d="m 131.28,56.75 c 2.27,-10.72 -11.35,-16.34 -16.54,-6.7 q -3.08,5.7 2.34,11.35"
       id="path154" />
    <path
       stroke="#616061"
       vector-effect="non-scaling-stroke"
       d="m 131.28,56.75 q -1.36,2.87 -3.39,4.84"
       id="path156" />
    <path
       stroke="#d4d4d4"
       vector-effect="non-scaling-stroke"
       d="M 127.89,61.59 Q 122.24,53.97 117.08,61.4"
       id="path158" />
    <path
       stroke="#f7e091"
       vector-effect="non-scaling-stroke"
       d="m 128.14,119.64 q -5.92,-2.37 -11.29,0.12"
       id="path160" />
    <path
       stroke="#8c8b8c"
       vector-effect="non-scaling-stroke"
       d="m 135.88,124.99 q -0.34,0.04 -0.68,0.09"
       id="path162" />
    <path
       stroke="#616061"
       vector-effect="non-scaling-stroke"
       d="m 135.2,125.08 -2.11,-0.03"
       id="path164" />
    <path
       stroke="#846c1e"
       vector-effect="non-scaling-stroke"
       d="m 133.09,125.05 q -1.83,-3.2 -4.95,-5.41"
       id="path166" />
    <path
       stroke="#8c8b8c"
       vector-effect="non-scaling-stroke"
       d="m 128.14,119.64 q 0.45,-29.41 -0.25,-58.05"
       id="path168" />
    <path
       stroke="#cbb566"
       vector-effect="non-scaling-stroke"
       d="m 133.09,125.05 q 1.79,4.44 0.25,8.94"
       id="path170" />
    <path
       stroke="#846c1e"
       vector-effect="non-scaling-stroke"
       d="m 133.34,133.99 q 1.36,1.79 4.38,3.28"
       id="path172" />
    <path
       stroke="#aa9445"
       vector-effect="non-scaling-stroke"
       d="m 180.16,164.03 6.72,4.47"
       id="path174" />
    <path
       stroke="#846c1e"
       vector-effect="non-scaling-stroke"
       d="m 186.88,168.5 -3.1,4.38"
       id="path176" />
    <path
       stroke="#846c1e"
       vector-effect="non-scaling-stroke"
       d="m 133.31,141.19 -2.93,-1.8 q -0.47,-0.29 -0.93,0.01 -3.67,2.37 -9.05,2.28"
       id="path178" />
    <path
       stroke="#d4d4d4"
       vector-effect="non-scaling-stroke"
       d="m 137.39,133.76 q 0.56,-4.95 -2.19,-8.68"
       id="path180" />
    <path
       stroke="#616061"
       vector-effect="non-scaling-stroke"
       d="m 133.34,133.99 4.05,-0.23"
       id="path182" />
    <path
       stroke="#8c8b8c"
       vector-effect="non-scaling-stroke"
       d="m 137.39,133.76 q 19.16,-0.53 38.04,-1 c 5.31,-0.13 11.17,-4.68 3.11,-8.35"
       id="path184" />
    <path
       stroke="#403f40"
       vector-effect="non-scaling-stroke"
       d="m 189.2,169 q -0.72,0.17 -1.74,-0.79 -0.23,-0.22 -0.41,0.04 l -0.17,0.25"
       id="path186" />
    <path
       stroke="#4b494a"
       vector-effect="non-scaling-stroke"
       d="m 89.91,68.9 a 5.92,5.92 0 0 0 -5.92,-5.92 5.92,5.92 0 0 0 -5.92,5.92 5.92,5.92 0 0 0 5.92,5.92 5.92,5.92 0 0 0 5.92,-5.92"
       id="path188" />
    <path
       stroke="#4b494a"
       vector-effect="non-scaling-stroke"
       d="m 167.81,69.02 a 5.93,5.93 0 0 0 -5.93,-5.93 5.93,5.93 0 0 0 -5.93,5.93 5.93,5.93 0 0 0 5.93,5.93 5.93,5.93 0 0 0 5.93,-5.93"
       id="path190" />
    <path
       stroke="#4b494a"
       vector-effect="non-scaling-stroke"
       d="m 64.06,93.28 a 5.93,5.93 0 0 0 -5.93,-5.93 5.93,5.93 0 0 0 -5.93,5.93 5.93,5.93 0 0 0 5.93,5.93 5.93,5.93 0 0 0 5.93,-5.93"
       id="path192" />
    <path
       stroke="#4b494a"
       vector-effect="non-scaling-stroke"
       d="m 192.06,93.27 a 5.93,5.93 0 0 0 -5.93,-5.93 5.93,5.93 0 0 0 -5.93,5.93 5.93,5.93 0 0 0 5.93,5.93 5.93,5.93 0 0 0 5.93,-5.93"
       id="path194" />
    <path
       stroke="#6c6a6b"
       vector-effect="non-scaling-stroke"
       d="m 54.44,129.01 a 8.94,8.94 0 0 0 -8.94,-8.94 8.94,8.94 0 0 0 -8.94,8.94 8.94,8.94 0 0 0 8.94,8.94 8.94,8.94 0 0 0 8.94,-8.94"
       id="path196" />
    <path
       stroke="#6c6a6b"
       vector-effect="non-scaling-stroke"
       d="m 208.43,129.01 a 8.94,8.94 0 0 0 -8.94,-8.94 8.94,8.94 0 0 0 -8.94,8.94 8.94,8.94 0 0 0 8.94,8.94 8.94,8.94 0 0 0 8.94,-8.94"
       id="path198" />
    <path
       stroke="#4b494a"
       vector-effect="non-scaling-stroke"
       d="m 64.07,163.66 a 5.93,5.93 0 0 0 -5.93,-5.93 5.93,5.93 0 0 0 -5.93,5.93 5.93,5.93 0 0 0 5.93,5.93 5.93,5.93 0 0 0 5.93,-5.93"
       id="path200" />
    <path
       stroke="#4b494a"
       vector-effect="non-scaling-stroke"
       d="m 89.93,191.4 a 5.92,5.92 0 0 0 -5.92,-5.92 5.92,5.92 0 0 0 -5.92,5.92 5.92,5.92 0 0 0 5.92,5.92 5.92,5.92 0 0 0 5.92,-5.92"
       id="path202" />
    <path
       stroke="#4b494a"
       vector-effect="non-scaling-stroke"
       d="m 167.82,191.41 a 5.93,5.93 0 0 0 -5.93,-5.93 5.93,5.93 0 0 0 -5.93,5.93 5.93,5.93 0 0 0 5.93,5.93 5.93,5.93 0 0 0 5.93,-5.93"
       id="path204" />
    <path
       stroke="#6c6a6b"
       vector-effect="non-scaling-stroke"
       d="m 131.79,207.02 a 8.92,8.92 0 0 0 -8.92,-8.92 8.92,8.92 0 0 0 -8.92,8.92 8.92,8.92 0 0 0 8.92,8.92 8.92,8.92 0 0 0 8.92,-8.92"
       id="path206" />
  </g>
  <path
     fill="#b8b8b8"
     d="m 113.61573,0.22304463 c 50.43,2.01999997 92.84,42.90000037 98.9,92.42000037 3.26,26.689995 -2.8,53.389995 -18.4,75.119995 -40.53,56.46 -121.170004,61.57 -167.580004,9.34 -20.6800002,-23.28 -28.9800002,-51.11 -25.9200002,-82.899995 4.96,-51.53 51.1500002,-94.62000037 103.5300042,-94.20000037 q 4.72,0.03 9.47,0.22 z m 85.34,105.94999537 a 92.29,92.29 0 0 0 -92.29,-92.289995 92.29,92.29 0 0 0 -92.290004,92.289995 92.29,92.29 0 0 0 92.290004,92.29 92.29,92.29 0 0 0 92.29,-92.29 z"
     id="path210" />
  <path
     fill="#302c2e"
     d="m 198.95573,106.17304 a 92.29,92.29 0 0 1 -92.29,92.29 92.29,92.29 0 0 1 -92.290004,-92.29 92.29,92.29 0 0 1 92.290004,-92.289995 92.29,92.29 0 0 1 92.29,92.289995 z m -97.74,-68.299995 q -0.65,28.89 -0.23,58.36 c -9.440004,6.119995 -7.000004,18.749995 3.55,21.919995 q 5.58,4.44 12.91,-0.49 l 50.47,31.69 3.82,1.88 q 0.42,0.21 0.76,-0.13 4.11,-4.13 0.84,-5.63 c 10.16,-8.61 -8.23,-17.69 -9.04,-4.97 l -42.44,-26.76 q -0.07,-0.78 0.2,-1.46 a 0.67,0.67 0 0 1 0.73,-0.41 c 4.74,0.81 10.35,0.06 13.78,0.08 q 17.78,0.1 35.59,0.06 0.49,0 0.61,-0.48 c 0.78,-3.08 1.96,-7.82 0.14,-10.26 q -0.28,-0.38 -0.75,-0.38 l -9.48,-0.01 -42.66,0.58 q -3.53,-2.059995 -3.51,-3.799995 0.29,-32.1 0.09,-64.21 0,-0.53 -0.53,-0.49 -0.35,0.03 -0.65,0.26 c 2.27,-10.72 -11.35,-16.34 -16.540004,-6.7 q -3.08,5.7 2.340004,11.35 z m -27.170004,7.5 a 5.92,5.92 0 0 0 -5.92,-5.92 5.92,5.92 0 0 0 -5.92,5.92 5.92,5.92 0 0 0 5.92,5.92 5.92,5.92 0 0 0 5.92,-5.92 z m 77.900004,0.12 a 5.93,5.93 0 0 0 -5.93,-5.93 5.93,5.93 0 0 0 -5.93,5.93 5.93,5.93 0 0 0 5.93,5.93 5.93,5.93 0 0 0 5.93,-5.93 z m -103.750004,24.26 a 5.93,5.93 0 0 0 -5.93,-5.93 5.93,5.93 0 0 0 -5.93,5.93 5.93,5.93 0 0 0 5.93,5.93 5.93,5.93 0 0 0 5.93,-5.93 z m 128.000004,-0.01 a 5.93,5.93 0 0 0 -5.93,-5.93 5.93,5.93 0 0 0 -5.93,5.93 5.93,5.93 0 0 0 5.93,5.93 5.93,5.93 0 0 0 5.93,-5.93 z M 38.575726,105.48304 a 8.94,8.94 0 0 0 -8.94,-8.939995 8.94,8.94 0 0 0 -8.94,8.939995 8.94,8.94 0 0 0 8.94,8.94 8.94,8.94 0 0 0 8.94,-8.94 z m 153.990004,0 a 8.94,8.94 0 0 0 -8.94,-8.939995 8.94,8.94 0 0 0 -8.94,8.939995 8.94,8.94 0 0 0 8.94,8.94 8.94,8.94 0 0 0 8.94,-8.94 z m -144.360004,34.65 a 5.93,5.93 0 0 0 -5.93,-5.93 5.93,5.93 0 0 0 -5.93,5.93 5.93,5.93 0 0 0 5.93,5.93 5.93,5.93 0 0 0 5.93,-5.93 z m 25.86,27.74 a 5.92,5.92 0 0 0 -5.92,-5.92 5.92,5.92 0 0 0 -5.92,5.92 5.92,5.92 0 0 0 5.92,5.92 5.92,5.92 0 0 0 5.92,-5.92 z m 77.890004,0.01 a 5.93,5.93 0 0 0 -5.93,-5.93 5.93,5.93 0 0 0 -5.93,5.93 5.93,5.93 0 0 0 5.93,5.93 5.93,5.93 0 0 0 5.93,-5.93 z m -36.03,15.61 a 8.92,8.92 0 0 0 -8.92,-8.92 8.92,8.92 0 0 0 -8.920004,8.92 8.92,8.92 0 0 0 8.920004,8.92 8.92,8.92 0 0 0 8.92,-8.92 z"
     id="path212" />
  <path
     fill="#a8a8a8"
     d="m 115.41573,33.223045 q -1.36,2.87 -3.39,4.84 -5.65,-7.62 -10.81,-0.19 -5.420004,-5.65 -2.340004,-11.35 c 5.190004,-9.64 18.810004,-4.02 16.540004,6.7 z"
     id="path214" />
  <path
     fill="#191719"
     d="m 120.01573,101.46304 q -0.34,0.04 -0.68,0.09 l -2.11,-0.03 q -1.83,-3.199995 -4.95,-5.409995 0.45,-29.41 -0.25,-58.05 2.03,-1.97 3.39,-4.84 0.3,-0.23 0.65,-0.26 0.53,-0.04 0.53,0.49 0.2,32.11 -0.09,64.21 -0.02,1.74 3.51,3.799995 z"
     id="path216" />
  <path
     fill="#ffffff"
     d="m 112.02573,38.063045 q 0.7,28.64 0.25,58.05 -5.92,-2.37 -11.29,0.12 -0.42,-29.47 0.23,-58.36 5.16,-7.43 10.81,0.19 z"
     id="path218" />
  <circle
     fill="#666666"
     cx="68.125725"
     cy="45.373047"
     r="5.9200001"
     id="circle220" />
  <circle
     fill="#666666"
     cx="146.01573"
     cy="45.493042"
     r="5.9299998"
     id="circle222" />
  <circle
     fill="#666666"
     cx="42.265728"
     cy="69.753044"
     r="5.9299998"
     id="circle224" />
  <circle
     fill="#666666"
     cx="170.26573"
     cy="69.743042"
     r="5.9299998"
     id="circle226" />
  <path
     fill="#eec123"
     d="m 112.27573,96.113045 q 3.12,2.21 4.95,5.409995 1.79,4.44 0.25,8.94 1.36,1.79 4.38,3.28 l 42.44,26.76 6.72,4.47 -3.1,4.38 -50.47,-31.69 -2.93,-1.8 q -0.47,-0.29 -0.93,0.01 -3.67,2.37 -9.05,2.28 c -10.550004,-3.17 -12.990004,-15.8 -3.55,-21.919995 q 5.37,-2.49 11.29,-0.12 z"
     id="path228" />
  <circle
     fill="#a8a8a8"
     cx="29.635725"
     cy="105.48304"
     r="8.9399996"
     id="circle230" />
  <circle
     fill="#a8a8a8"
     cx="183.62573"
     cy="105.48304"
     r="8.9399996"
     id="circle232" />
  <path
     fill="#191719"
     d="m 121.85573,113.74304 q -3.02,-1.49 -4.38,-3.28 l 4.05,-0.23 q 19.16,-0.53 38.04,-1 c 5.31,-0.13 11.17,-4.68 3.11,-8.35 l 9.48,0.01 q 0.47,0 0.75,0.38 c 1.82,2.44 0.64,7.18 -0.14,10.26 q -0.12,0.48 -0.61,0.48 -17.81,0.04 -35.59,-0.06 c -3.43,-0.02 -9.04,0.73 -13.78,-0.08 a 0.67,0.67 0 0 0 -0.73,0.41 q -0.27,0.68 -0.2,1.46 z"
     id="path234" />
  <path
     fill="#ffffff"
     d="m 162.67573,100.88304 c 8.06,3.67 2.2,8.22 -3.11,8.35 q -18.88,0.47 -38.04,1 0.56,-4.95 -2.19,-8.68 0.34,-0.05 0.68,-0.09 z"
     id="path236" />
  <path
     fill="#a8a8a8"
     d="m 117.22573,101.52304 2.11,0.03 q 2.75,3.73 2.19,8.68 l -4.05,0.23 q 1.54,-4.5 -0.25,-8.94 z"
     id="path238" />
  <path
     fill="#191719"
     d="m 117.44573,117.66304 q -7.33,4.93 -12.91,0.49 5.38,0.09 9.05,-2.28 0.46,-0.3 0.93,-0.01 z"
     id="path240" />
  <circle
     fill="#666666"
     cx="42.275726"
     cy="140.13304"
     r="5.9299998"
     id="circle242" />
  <path
     fill="#666666"
     d="m 173.33573,145.47304 q -0.72,0.17 -1.74,-0.79 -0.23,-0.22 -0.41,0.04 l -0.17,0.25 -6.72,-4.47 c 0.81,-12.72 19.2,-3.64 9.04,4.97 z"
     id="path244" />
  <path
     fill="#191719"
     d="m 173.33573,145.47304 q 3.27,1.5 -0.84,5.63 -0.34,0.34 -0.76,0.13 l -3.82,-1.88 3.1,-4.38 0.17,-0.25 q 0.18,-0.26 0.41,-0.04 1.02,0.96 1.74,0.79 z"
     id="path246" />
  <circle
     fill="#666666"
     cx="68.145729"
     cy="167.87303"
     r="5.9200001"
     id="circle248" />
  <circle
     fill="#666666"
     cx="146.02573"
     cy="167.88304"
     r="5.9299998"
     id="circle250" />
  <circle
     fill="#a8a8a8"
     cx="107.00573"
     cy="183.49304"
     r="8.9200001"
     id="circle252" />
</svg>
