<?xml version="1.0" encoding="UTF-8" standalone="no"?><svg xmlns="http://www.w3.org/2000/svg" xmlns:xlink="http://www.w3.org/1999/xlink" contentScriptType="text/ecmascript" fill="none" zoomAndPan="magnify" style="fill: none" contentStyleType="text/css" viewBox="2.5 1.6 19.7 19.9" preserveAspectRatio="xMidYMid meet" version="1"><g id="change1_1"><path fill="#000000" d="M17 19.5C17 20.3284 13.866 21 10 21C6.13401 21 3 20.3284 3 19.5C3 18.6716 6.13401 18 10 18C13.866 18 17 18.6716 17 19.5Z"/></g><g id="change2_1"><path fill="#ffbd59" d="M5 16V20.5C8.8758 21.2417 11.0712 21.1281 15 20.5V16C15 13.2386 12.7614 11 10 11C7.23858 11 5 13.2386 5 16Z"/></g><g id="change3_1"><path fill="#000000" clip-rule="evenodd" d="M3.55181 19.5002C3.59717 19.4641 3.66565 19.419 3.76466 19.3681C4.0542 19.2193 4.50604 19.0702 5.10681 18.9388L4.89319 17.9619C4.25677 18.1011 3.70862 18.2725 3.30745 18.4788C3.10755 18.5815 2.91907 18.7055 2.77457 18.8589C2.62785 19.0147 2.5 19.231 2.5 19.5002C2.5 19.773 2.6313 19.9914 2.78061 20.1478C2.92786 20.302 3.11999 20.4266 3.32413 20.53C3.73394 20.7377 4.29437 20.9102 4.94549 21.0497C6.2559 21.3305 8.04268 21.5002 10 21.5002C11.9573 21.5002 13.7441 21.3305 15.0545 21.0497C15.7056 20.9102 16.2661 20.7377 16.6759 20.53C16.88 20.4266 17.0721 20.302 17.2194 20.1478C17.3687 19.9914 17.5 19.773 17.5 19.5002C17.5 19.231 17.3722 19.0147 17.2254 18.8589C17.0809 18.7055 16.8925 18.5815 16.6925 18.4788C16.2914 18.2725 15.7432 18.1011 15.1068 17.9619L14.8932 18.9388C15.494 19.0702 15.9458 19.2193 16.2353 19.3681C16.3344 19.419 16.4028 19.4641 16.4482 19.5002C16.4009 19.5377 16.3288 19.5849 16.2239 19.638C15.9253 19.7893 15.4606 19.94 14.845 20.0719C13.6219 20.334 11.9087 20.5002 10 20.5002C8.09133 20.5002 6.37811 20.334 5.15502 20.0719C4.53938 19.94 4.07469 19.7893 3.77606 19.638C3.67119 19.5849 3.59911 19.5377 3.55181 19.5002ZM16.5137 19.564C16.5137 19.564 16.5136 19.5639 16.5135 19.5636L16.5137 19.564Z" fill-rule="evenodd"/></g><g id="change3_2"><path fill="#000000" clip-rule="evenodd" d="M10 11.5C7.51472 11.5 5.5 13.5147 5.5 16V20.5H4.5V16C4.5 12.9624 6.96243 10.5 10 10.5C10.1762 10.5 10.3507 10.5083 10.523 10.5246L10.4289 11.5201C10.2879 11.5068 10.1448 11.5 10 11.5ZM14.5 16C14.5 14.9864 14.1655 14.0523 13.6006 13.3003L14.4001 12.6997C15.0906 13.619 15.5 14.7624 15.5 16V20.5H14.5V16Z" fill-rule="evenodd"/></g><g id="change3_3"><path fill="#000000" d="M11 16.5C11 17.0523 10.5523 17.5 10 17.5C9.44772 17.5 9 17.0523 9 16.5C9 15.9477 9.44772 15.5 10 15.5C10.5523 15.5 11 15.9477 11 16.5Z"/></g><g id="change3_4"><path fill="#000000" d="M13 14C13 14.5523 12.5523 15 12 15C11.4477 15 11 14.5523 11 14C11 13.4477 11.4477 13 12 13C12.5523 13 13 13.4477 13 14Z"/></g><g id="change3_5"><path fill="#000000" d="M9 14C9 14.5523 8.55228 15 8 15C7.44772 15 7 14.5523 7 14C7 13.4477 7.44772 13 8 13C8.55228 13 9 13.4477 9 14Z"/></g><g id="change3_6"><path fill="#000000" clip-rule="evenodd" d="M13 16.5C13.2761 16.5 13.5 16.7239 13.5 17V17.5C13.5 18.6046 12.6046 19.5 11.5 19.5C10.3954 19.5 9.5 18.6046 9.5 17.5V17H10.5V17.5C10.5 18.0523 10.9477 18.5 11.5 18.5C12.0523 18.5 12.5 18.0523 12.5 17.5V17C12.5 16.7239 12.7239 16.5 13 16.5Z" fill-rule="evenodd"/></g><g id="change4_1"><path fill="#545454" d="M15.2719 2.58393C14.6969 2.25199 13.9618 2.44898 13.6299 3.0239C13.2979 3.59882 13.4949 4.33397 14.0698 4.6659L17.1928 6.46895C17.7677 6.80088 18.5029 6.6039 18.8348 6.02898C19.1667 5.45405 18.9697 4.7189 18.3948 4.38697L15.2719 2.58393Z"/></g><g id="change4_2"><path fill="#545454" d="M11.6657 8.82953C11.0908 8.4976 10.3556 8.69458 10.0237 9.2695C9.69175 9.84443 9.88873 10.5796 10.4637 10.9115L13.5866 12.7146C14.1615 13.0465 14.8967 12.8495 15.2286 12.2746C15.5606 11.6997 15.3636 10.9645 14.7887 10.6326L11.6657 8.82953Z"/></g><g id="change2_2"><path fill="#ffbd59" d="M11.6657 8.82959L14.0698 4.66563L17.1928 6.46868L14.7887 10.6326L11.6657 8.82959Z"/></g><g id="change5_1"><path fill="#65471b" d="M19.5536 11.9954L15.3896 9.59131L16.5917 7.50933L20.7556 9.91339C21.3306 10.2453 21.5275 10.9805 21.1956 11.5554C20.8637 12.1303 20.1285 12.3273 19.5536 11.9954Z"/></g><g id="change3_7"><path fill="#000000" clip-rule="evenodd" d="M7 16.5C6.72386 16.5 6.5 16.7239 6.5 17V17.5C6.5 18.6046 7.39543 19.5 8.5 19.5C9.60457 19.5 10.5 18.6046 10.5 17.5V17H9.5V17.5C9.5 18.0523 9.05228 18.5 8.5 18.5C7.94772 18.5 7.5 18.0523 7.5 17.5V17C7.5 16.7239 7.27614 16.5 7 16.5Z" fill-rule="evenodd"/></g><g id="change3_8"><path fill="#000000" clip-rule="evenodd" d="M10.8447 9.0498L13.8498 3.84486L18.0138 6.24892L15.0087 11.4539L10.8447 9.0498ZM12.4867 8.60983L14.5687 9.81186L16.3718 6.68889L14.2898 5.48686L12.4867 8.60983Z" fill-rule="evenodd"/></g><g id="change3_9"><path fill="#000000" clip-rule="evenodd" d="M15.5723 2.06314C14.71 1.56525 13.6072 1.86072 13.1093 2.7231C12.6114 3.58549 12.9069 4.68821 13.7693 5.18611L16.8923 6.98916C17.7547 7.48705 18.8574 7.19158 19.3553 6.3292C19.8532 5.46681 19.5577 4.36409 18.6953 3.86619L15.5723 2.06314ZM14.1503 3.32412C14.3163 3.03666 14.6839 2.93817 14.9713 3.10413L18.0943 4.90718C18.3818 5.07314 18.4803 5.44072 18.3143 5.72818C18.1483 6.01564 17.7807 6.11413 17.4933 5.94817L14.3703 4.14512C14.0829 3.97916 13.9844 3.61158 14.1503 3.32412Z" fill-rule="evenodd"/></g><g id="change3_10"><path fill="#000000" clip-rule="evenodd" d="M11.9662 8.30924C11.1038 7.81134 10.0011 8.10681 9.5032 8.9692C9.0053 9.83158 9.30078 10.9343 10.1632 11.4322L13.2861 13.2353C14.1485 13.7331 15.2512 13.4377 15.7491 12.5753C16.247 11.7129 15.9516 10.6102 15.0892 10.1123L11.9662 8.30924ZM10.5442 9.57021C10.7102 9.28275 11.0777 9.18426 11.3652 9.35023L14.4882 11.1533C14.7756 11.3192 14.8741 11.6868 14.7081 11.9743C14.5422 12.2617 14.1746 12.3602 13.8871 12.1943L10.7642 10.3912C10.4767 10.2253 10.3782 9.85767 10.5442 9.57021Z" fill-rule="evenodd"/></g><g id="change3_11"><path fill="#000000" clip-rule="evenodd" d="M19.2531 12.5159L15.0891 10.1118L15.6902 9.07083L19.8541 11.4749C20.1416 11.6409 20.5091 11.5424 20.6751 11.2549C20.8411 10.9674 20.7426 10.5999 20.4551 10.4339L16.2912 8.02984L16.8922 6.98885L21.0561 9.39291C21.9185 9.89081 22.214 10.9935 21.7161 11.8559C21.2182 12.7183 20.1155 13.0138 19.2531 12.5159Z" fill-rule="evenodd"/></g></svg>