<svg xmlns="http://www.w3.org/2000/svg" xmlns:xlink="http://www.w3.org/1999/xlink" width="1920" zoomAndPan="magnify" viewBox="0 0 1440 809.999993" height="1080" preserveAspectRatio="xMidYMid meet" version="1.0"><defs><g/></defs><g fill="#dd130e" fill-opacity="1"><g transform="translate(436.063928, 209.250009)"><g><path d="M 7.578125 0 L 7.578125 -87.875 L 31.09375 -87.875 L 31.09375 -55.15625 L 31.640625 -55.15625 L 53.265625 -87.875 L 78.953125 -87.875 L 31.09375 -22.4375 L 31.09375 0 Z M 55.4375 0 L 37.59375 -37.59375 L 51.109375 -55.703125 L 81.125 0 Z M 55.4375 0 "/></g></g></g><g fill="#000000" fill-opacity="1"><g transform="translate(517.181112, 209.250009)"><g><path d="M 11.359375 0 L 11.359375 -87.875 L 71.109375 -87.875 L 71.109375 -68.40625 L 34.609375 -68.40625 L 34.609375 -54.625 L 65.703125 -54.625 L 65.703125 -35.15625 L 34.609375 -35.15625 L 34.609375 -19.46875 L 72.46875 -19.46875 L 72.46875 0 Z M 11.359375 0 "/></g></g></g><g fill="#000000" fill-opacity="1"><g transform="translate(598.300652, 209.250009)"><g><path d="M 11.359375 0 L 11.359375 -87.875 L 71.109375 -87.875 L 71.109375 -68.40625 L 34.609375 -68.40625 L 34.609375 -54.625 L 65.703125 -54.625 L 65.703125 -35.15625 L 34.609375 -35.15625 L 34.609375 -19.46875 L 72.46875 -19.46875 L 72.46875 0 Z M 11.359375 0 "/></g></g></g><g fill="#000000" fill-opacity="1"><g transform="translate(679.420193, 209.250009)"><g><path d="M 8.65625 0 L 8.65625 -87.875 L 41.640625 -87.875 C 47.953125 -87.875 53.765625 -86.972656 59.078125 -85.171875 C 64.398438 -83.367188 68.679688 -80.347656 71.921875 -76.109375 C 75.171875 -71.878906 76.796875 -66.066406 76.796875 -58.671875 C 76.796875 -51.554688 75.148438 -45.722656 71.859375 -41.171875 C 68.566406 -36.617188 64.238281 -33.257812 58.875 -31.09375 C 53.519531 -28.9375 47.773438 -27.859375 41.640625 -27.859375 L 31.90625 -27.859375 L 31.90625 0 Z M 31.90625 -46.234375 L 40.5625 -46.234375 C 45.15625 -46.234375 48.554688 -47.335938 50.765625 -49.546875 C 52.972656 -51.753906 54.078125 -54.796875 54.078125 -58.671875 C 54.078125 -62.640625 52.90625 -65.4375 50.5625 -67.0625 C 48.21875 -68.6875 44.882812 -69.5 40.5625 -69.5 L 31.90625 -69.5 Z M 31.90625 -46.234375 "/></g></g></g><g fill="#dd130e" fill-opacity="1"><g transform="translate(436.063928, 371.250001)"><g><path d="M 8.921875 0 L 8.921875 -19.46875 L 28.9375 -19.46875 L 28.9375 -68.40625 L 8.921875 -68.40625 L 8.921875 -87.875 L 72.203125 -87.875 L 72.203125 -68.40625 L 52.1875 -68.40625 L 52.1875 -19.46875 L 72.203125 -19.46875 L 72.203125 0 Z M 8.921875 0 "/></g></g></g><g fill="#000000" fill-opacity="1"><g transform="translate(517.181112, 371.250001)"><g><path d="M 28.9375 0 L 28.9375 -68.40625 L 3.65625 -68.40625 L 3.65625 -87.875 L 77.46875 -87.875 L 77.46875 -68.40625 L 52.1875 -68.40625 L 52.1875 0 Z M 28.9375 0 "/></g></g></g><g fill="#dd130e" fill-opacity="1"><g transform="translate(436.063928, 533.249993)"><g><path d="M 40.015625 1.625 C 34.242188 1.625 28.363281 0.585938 22.375 -1.484375 C 16.382812 -3.554688 10.910156 -6.710938 5.953125 -10.953125 L 19.203125 -26.90625 C 22.535156 -24.382812 26.113281 -22.332031 29.9375 -20.75 C 33.769531 -19.175781 37.671875 -18.390625 41.640625 -18.390625 C 45.160156 -18.390625 47.660156 -18.882812 49.140625 -19.875 C 50.628906 -20.863281 51.375 -22.082031 51.375 -23.53125 C 51.375 -25.238281 50.878906 -26.585938 49.890625 -27.578125 C 48.898438 -28.566406 47.457031 -29.46875 45.5625 -30.28125 C 43.664062 -31.09375 41.367188 -32.039062 38.671875 -33.125 L 27.71875 -37.71875 C 24.382812 -38.976562 21.296875 -40.710938 18.453125 -42.921875 C 15.617188 -45.128906 13.363281 -47.832031 11.6875 -51.03125 C 10.019531 -54.238281 9.1875 -57.957031 9.1875 -62.1875 C 9.1875 -67.238281 10.582031 -71.8125 13.375 -75.90625 C 16.175781 -80.007812 20.097656 -83.300781 25.140625 -85.78125 C 30.191406 -88.257812 36.050781 -89.5 42.71875 -89.5 C 47.945312 -89.5 53.195312 -88.53125 58.46875 -86.59375 C 63.75 -84.65625 68.503906 -81.703125 72.734375 -77.734375 L 61.109375 -63.140625 C 57.953125 -65.210938 54.929688 -66.789062 52.046875 -67.875 C 49.171875 -68.957031 45.613281 -69.5 41.375 -69.5 C 38.851562 -69.5 36.78125 -69.023438 35.15625 -68.078125 C 33.53125 -67.128906 32.71875 -65.617188 32.71875 -63.546875 C 32.71875 -62.191406 33.257812 -61.0625 34.34375 -60.15625 C 35.425781 -59.257812 37.003906 -58.40625 39.078125 -57.59375 C 41.148438 -56.78125 43.628906 -55.832031 46.515625 -54.75 L 56.65625 -50.5625 C 60.613281 -49.125 63.96875 -47.300781 66.71875 -45.09375 C 69.46875 -42.882812 71.5625 -40.242188 73 -37.171875 C 74.445312 -34.109375 75.171875 -30.550781 75.171875 -26.5 C 75.171875 -21.539062 73.816406 -16.921875 71.109375 -12.640625 C 68.410156 -8.359375 64.445312 -4.910156 59.21875 -2.296875 C 53.988281 0.316406 47.585938 1.625 40.015625 1.625 Z M 40.015625 1.625 "/></g></g></g><g fill="#000000" fill-opacity="1"><g transform="translate(517.181112, 533.249993)"><g><path d="M 8.921875 0 L 8.921875 -19.46875 L 28.9375 -19.46875 L 28.9375 -68.40625 L 8.921875 -68.40625 L 8.921875 -87.875 L 72.203125 -87.875 L 72.203125 -68.40625 L 52.1875 -68.40625 L 52.1875 -19.46875 L 72.203125 -19.46875 L 72.203125 0 Z M 8.921875 0 "/></g></g></g><g fill="#000000" fill-opacity="1"><g transform="translate(598.300652, 533.249993)"><g><path d="M 7.03125 0 L 7.03125 -87.875 L 30.6875 -87.875 L 37.859375 -59.21875 L 40.296875 -47.859375 L 40.828125 -47.859375 L 43.265625 -59.21875 L 50.4375 -87.875 L 74.09375 -87.875 L 74.09375 0 L 54.890625 0 L 54.890625 -20.6875 C 54.890625 -23.300781 55 -26.585938 55.21875 -30.546875 C 55.445312 -34.515625 55.695312 -38.6875 55.96875 -43.0625 C 56.238281 -47.4375 56.554688 -51.601562 56.921875 -55.5625 C 57.285156 -59.53125 57.597656 -62.773438 57.859375 -65.296875 L 57.46875 -65.296875 L 50.03125 -39.203125 L 45.421875 -23.25 L 35.15625 -23.25 L 30.28125 -39.203125 L 23.53125 -65.296875 L 22.984375 -65.296875 C 23.253906 -62.773438 23.566406 -59.53125 23.921875 -55.5625 C 24.285156 -51.601562 24.601562 -47.4375 24.875 -43.0625 C 25.144531 -38.6875 25.390625 -34.515625 25.609375 -30.546875 C 25.835938 -26.585938 25.953125 -23.300781 25.953125 -20.6875 L 25.953125 0 Z M 7.03125 0 "/></g></g></g><g fill="#000000" fill-opacity="1"><g transform="translate(679.420193, 533.249993)"><g><path d="M 8.65625 0 L 8.65625 -87.875 L 41.640625 -87.875 C 47.953125 -87.875 53.765625 -86.972656 59.078125 -85.171875 C 64.398438 -83.367188 68.679688 -80.347656 71.921875 -76.109375 C 75.171875 -71.878906 76.796875 -66.066406 76.796875 -58.671875 C 76.796875 -51.554688 75.148438 -45.722656 71.859375 -41.171875 C 68.566406 -36.617188 64.238281 -33.257812 58.875 -31.09375 C 53.519531 -28.9375 47.773438 -27.859375 41.640625 -27.859375 L 31.90625 -27.859375 L 31.90625 0 Z M 31.90625 -46.234375 L 40.5625 -46.234375 C 45.15625 -46.234375 48.554688 -47.335938 50.765625 -49.546875 C 52.972656 -51.753906 54.078125 -54.796875 54.078125 -58.671875 C 54.078125 -62.640625 52.90625 -65.4375 50.5625 -67.0625 C 48.21875 -68.6875 44.882812 -69.5 40.5625 -69.5 L 31.90625 -69.5 Z M 31.90625 -46.234375 "/></g></g></g><g fill="#000000" fill-opacity="1"><g transform="translate(760.539734, 533.249993)"><g><path d="M 12.984375 0 L 12.984375 -87.875 L 36.234375 -87.875 L 36.234375 -19.46875 L 73.6875 -19.46875 L 73.6875 0 Z M 12.984375 0 "/></g></g></g><g fill="#000000" fill-opacity="1"><g transform="translate(841.659274, 533.249993)"><g><path d="M 11.359375 0 L 11.359375 -87.875 L 71.109375 -87.875 L 71.109375 -68.40625 L 34.609375 -68.40625 L 34.609375 -54.625 L 65.703125 -54.625 L 65.703125 -35.15625 L 34.609375 -35.15625 L 34.609375 -19.46875 L 72.46875 -19.46875 L 72.46875 0 Z M 11.359375 0 "/></g></g></g><g fill="#000000" fill-opacity="1"><g transform="translate(922.778838, 533.249993)"><g><path d="M 29.46875 29.46875 L 23.9375 16.21875 C 30.0625 14.238281 34.585938 11.671875 37.515625 8.515625 C 40.441406 5.359375 41.816406 1.890625 41.640625 -1.890625 L 41.640625 -19.46875 L 50.03125 -4.734375 C 48.675781 -3.742188 47.207031 -2.976562 45.625 -2.4375 C 44.050781 -1.894531 42.363281 -1.625 40.5625 -1.625 C 37.769531 -1.625 35.132812 -2.226562 32.65625 -3.4375 C 30.175781 -4.65625 28.171875 -6.390625 26.640625 -8.640625 C 25.109375 -10.898438 24.34375 -13.65625 24.34375 -16.90625 C 24.34375 -21.40625 25.984375 -25.070312 29.265625 -27.90625 C 32.554688 -30.75 36.546875 -32.171875 41.234375 -32.171875 C 47.367188 -32.171875 51.988281 -29.941406 55.09375 -25.484375 C 58.207031 -21.023438 59.765625 -14.785156 59.765625 -6.765625 C 59.765625 2.066406 57.238281 9.59375 52.1875 15.8125 C 47.132812 22.03125 39.5625 26.582031 29.46875 29.46875 Z M 29.46875 29.46875 "/></g></g></g><g fill="#dd130e" fill-opacity="1"><g transform="translate(436.063928, 695.249985)"><g><path d="M 40.015625 1.625 C 34.242188 1.625 28.363281 0.585938 22.375 -1.484375 C 16.382812 -3.554688 10.910156 -6.710938 5.953125 -10.953125 L 19.203125 -26.90625 C 22.535156 -24.382812 26.113281 -22.332031 29.9375 -20.75 C 33.769531 -19.175781 37.671875 -18.390625 41.640625 -18.390625 C 45.160156 -18.390625 47.660156 -18.882812 49.140625 -19.875 C 50.628906 -20.863281 51.375 -22.082031 51.375 -23.53125 C 51.375 -25.238281 50.878906 -26.585938 49.890625 -27.578125 C 48.898438 -28.566406 47.457031 -29.46875 45.5625 -30.28125 C 43.664062 -31.09375 41.367188 -32.039062 38.671875 -33.125 L 27.71875 -37.71875 C 24.382812 -38.976562 21.296875 -40.710938 18.453125 -42.921875 C 15.617188 -45.128906 13.363281 -47.832031 11.6875 -51.03125 C 10.019531 -54.238281 9.1875 -57.957031 9.1875 -62.1875 C 9.1875 -67.238281 10.582031 -71.8125 13.375 -75.90625 C 16.175781 -80.007812 20.097656 -83.300781 25.140625 -85.78125 C 30.191406 -88.257812 36.050781 -89.5 42.71875 -89.5 C 47.945312 -89.5 53.195312 -88.53125 58.46875 -86.59375 C 63.75 -84.65625 68.503906 -81.703125 72.734375 -77.734375 L 61.109375 -63.140625 C 57.953125 -65.210938 54.929688 -66.789062 52.046875 -67.875 C 49.171875 -68.957031 45.613281 -69.5 41.375 -69.5 C 38.851562 -69.5 36.78125 -69.023438 35.15625 -68.078125 C 33.53125 -67.128906 32.71875 -65.617188 32.71875 -63.546875 C 32.71875 -62.191406 33.257812 -61.0625 34.34375 -60.15625 C 35.425781 -59.257812 37.003906 -58.40625 39.078125 -57.59375 C 41.148438 -56.78125 43.628906 -55.832031 46.515625 -54.75 L 56.65625 -50.5625 C 60.613281 -49.125 63.96875 -47.300781 66.71875 -45.09375 C 69.46875 -42.882812 71.5625 -40.242188 73 -37.171875 C 74.445312 -34.109375 75.171875 -30.550781 75.171875 -26.5 C 75.171875 -21.539062 73.816406 -16.921875 71.109375 -12.640625 C 68.410156 -8.359375 64.445312 -4.910156 59.21875 -2.296875 C 53.988281 0.316406 47.585938 1.625 40.015625 1.625 Z M 40.015625 1.625 "/></g></g></g><g fill="#000000" fill-opacity="1"><g transform="translate(517.181112, 695.249985)"><g><path d="M 28.9375 0 L 28.9375 -68.40625 L 3.65625 -68.40625 L 3.65625 -87.875 L 77.46875 -87.875 L 77.46875 -68.40625 L 52.1875 -68.40625 L 52.1875 0 Z M 28.9375 0 "/></g></g></g><g fill="#000000" fill-opacity="1"><g transform="translate(598.300652, 695.249985)"><g><path d="M 40.828125 1.625 C 35.054688 1.625 30.097656 0.789062 25.953125 -0.875 C 21.804688 -2.539062 18.40625 -4.925781 15.75 -8.03125 C 13.09375 -11.144531 11.109375 -14.890625 9.796875 -19.265625 C 8.492188 -23.640625 7.84375 -28.578125 7.84375 -34.078125 L 7.84375 -87.875 L 31.09375 -87.875 L 31.09375 -31.359375 C 31.09375 -28.835938 31.382812 -26.609375 31.96875 -24.671875 C 32.5625 -22.734375 33.578125 -21.203125 35.015625 -20.078125 C 36.460938 -18.953125 38.398438 -18.390625 40.828125 -18.390625 C 43.347656 -18.390625 45.328125 -18.953125 46.765625 -20.078125 C 48.210938 -21.203125 49.253906 -22.734375 49.890625 -24.671875 C 50.523438 -26.609375 50.84375 -28.835938 50.84375 -31.359375 L 50.84375 -87.875 L 73.28125 -87.875 L 73.28125 -34.078125 C 73.28125 -28.578125 72.671875 -23.640625 71.453125 -19.265625 C 70.234375 -14.890625 68.316406 -11.144531 65.703125 -8.03125 C 63.085938 -4.925781 59.726562 -2.539062 55.625 -0.875 C 51.53125 0.789062 46.597656 1.625 40.828125 1.625 Z M 40.828125 1.625 "/></g></g></g><g fill="#000000" fill-opacity="1"><g transform="translate(679.420193, 695.249985)"><g><path d="M 8.65625 0 L 8.65625 -87.875 L 41.640625 -87.875 C 47.953125 -87.875 53.765625 -86.972656 59.078125 -85.171875 C 64.398438 -83.367188 68.679688 -80.347656 71.921875 -76.109375 C 75.171875 -71.878906 76.796875 -66.066406 76.796875 -58.671875 C 76.796875 -51.554688 75.148438 -45.722656 71.859375 -41.171875 C 68.566406 -36.617188 64.238281 -33.257812 58.875 -31.09375 C 53.519531 -28.9375 47.773438 -27.859375 41.640625 -27.859375 L 31.90625 -27.859375 L 31.90625 0 Z M 31.90625 -46.234375 L 40.5625 -46.234375 C 45.15625 -46.234375 48.554688 -47.335938 50.765625 -49.546875 C 52.972656 -51.753906 54.078125 -54.796875 54.078125 -58.671875 C 54.078125 -62.640625 52.90625 -65.4375 50.5625 -67.0625 C 48.21875 -68.6875 44.882812 -69.5 40.5625 -69.5 L 31.90625 -69.5 Z M 31.90625 -46.234375 "/></g></g></g><g fill="#000000" fill-opacity="1"><g transform="translate(760.539734, 695.249985)"><g><path d="M 8.921875 0 L 8.921875 -19.46875 L 28.9375 -19.46875 L 28.9375 -68.40625 L 8.921875 -68.40625 L 8.921875 -87.875 L 72.203125 -87.875 L 72.203125 -68.40625 L 52.1875 -68.40625 L 52.1875 -19.46875 L 72.203125 -19.46875 L 72.203125 0 Z M 8.921875 0 "/></g></g></g><g fill="#000000" fill-opacity="1"><g transform="translate(841.659274, 695.249985)"><g><path d="M 8.65625 0 L 8.65625 -87.875 L 33.9375 -87.875 C 42.320312 -87.875 49.734375 -86.410156 56.171875 -83.484375 C 62.617188 -80.554688 67.664062 -75.890625 71.3125 -69.484375 C 74.96875 -63.085938 76.796875 -54.707031 76.796875 -44.34375 C 76.796875 -33.976562 74.992188 -25.523438 71.390625 -18.984375 C 67.785156 -12.453125 62.847656 -7.65625 56.578125 -4.59375 C 50.316406 -1.53125 43.21875 0 35.28125 0 Z M 31.90625 -18.65625 L 32.71875 -18.65625 C 36.5 -18.65625 39.921875 -19.375 42.984375 -20.8125 C 46.054688 -22.257812 48.492188 -24.832031 50.296875 -28.53125 C 52.097656 -32.226562 53 -37.5 53 -44.34375 C 53 -51.195312 52.097656 -56.398438 50.296875 -59.953125 C 48.492188 -63.515625 46.054688 -65.945312 42.984375 -67.25 C 39.921875 -68.5625 36.5 -69.21875 32.71875 -69.21875 L 31.90625 -69.21875 Z M 31.90625 -18.65625 "/></g></g></g></svg>