<?xml version="1.0" encoding="UTF-8" standalone="no"?>
<svg
   contentScriptType="text/ecmascript"
   fill="black"
   width="2197.3538"
   zoomAndPan="magnify"
   contentStyleType="text/css"
   viewBox="915.6 393 2197.3538 2737.0144"
   height="2737.0144"
   preserveAspectRatio="xMidYMid"
   version="1"
   id="svg55"
   sodipodi:docname="lost.svg"
   inkscape:version="1.3 (1:1.3+202307231459+0e150ed6c4)"
   xmlns:inkscape="http://www.inkscape.org/namespaces/inkscape"
   xmlns:sodipodi="http://sodipodi.sourceforge.net/DTD/sodipodi-0.dtd"
   xmlns="http://www.w3.org/2000/svg"
   xmlns:svg="http://www.w3.org/2000/svg">
  <defs
     id="defs55" />
  <sodipodi:namedview
     id="namedview55"
     pagecolor="white"
     bordercolor="#111"
     borderopacity="1"
     inkscape:showpageshadow="0"
     inkscape:pageopacity="0"
     inkscape:pagecheckerboard="1"
     inkscape:deskcolor="#d1d1d1"
     inkscape:zoom="0.20305103"
     inkscape:cx="1110.5583"
     inkscape:cy="1580.8834"
     inkscape:window-width="1920"
     inkscape:window-height="1021"
     inkscape:window-x="0"
     inkscape:window-y="0"
     inkscape:window-maximized="1"
     inkscape:current-layer="g24" />
  <g
     id="g55"
     transform="translate(-302.54539,-1064.966)">
    <g
       id="g1"
       style="stroke:none;stroke-width:2.2;stroke-dasharray:none;stroke-opacity:1">
      <path
         fill="#1c1a4a"
         d="M 2866.5313,2983.3398 H 1751.7305 c -40.961,0 -74.1602,-33.1992 -74.1602,-74.1601 v -123.4609 c 0,-40.9493 33.1992,-74.1524 74.1602,-74.1524 h 1114.8008 c 40.9726,0 74.1679,33.2031 74.1679,74.1524 v 123.4609 c 0,40.9609 -33.1953,74.1601 -74.1679,74.1601"
         id="path1"
         style="stroke:none;stroke-width:2.2;stroke-dasharray:none;stroke-opacity:1" />
    </g>
    <g
       id="g2"
       style="stroke:none;stroke-width:2.2;stroke-dasharray:none;stroke-opacity:1">
      <path
         fill="#f79c7f"
         d="m 2773.4492,2453 c 0,0 87.6953,-11.2734 88.5586,35.1641 0.8594,46.4179 -99.832,143.1054 -132.7305,133.7461 C 2696.3828,2612.5664 2773.4492,2453 2773.4492,2453"
         id="path2"
         style="stroke:none;stroke-width:2.2;stroke-dasharray:none;stroke-opacity:1" />
    </g>
    <g
       id="g3"
       style="stroke:none;stroke-width:2.2;stroke-dasharray:none;stroke-opacity:1">
      <path
         fill="#390308"
         d="m 1779.5039,3101.293 c 0,0 -44.8789,-208.2891 123.7188,-280.2891 168.5703,-72 864.9765,-122.7226 958.7656,96.6406 93.8047,219.3594 -29.3047,347.3594 -29.3047,347.3594 l -964.043,20 -89.1367,-183.7109"
         id="path3"
         style="stroke:none;stroke-width:2.2;stroke-dasharray:none;stroke-opacity:1" />
    </g>
    <path
       fill="none"
       stroke-width="5.515"
       stroke-miterlimit="10"
       d="m 9813.2422,7955.9441 c 0,0 -247.4889,1148.6297 682.2588,1545.6805 929.597,397.0508 4769.995,676.7654 5287.203,-532.9339 517.295,-1209.678 -161.603,-1915.546 -161.603,-1915.546 l -5316.306,-110.2919 z m 0,0"
       transform="matrix(0.18134,0,0,-0.18134,0,4544)"
       stroke="#231f20"
       id="path4"
       style="stroke:none;stroke-width:12.1319;stroke-dasharray:none;stroke-opacity:1" />
    <g
       id="g5"
       style="stroke:none;stroke-width:2.2;stroke-dasharray:none;stroke-opacity:1">
      <path
         fill="#f69576"
         d="m 2631.9414,1794.7109 c 0,0 122.3125,-47.1015 187.418,-19.0937 65.1211,28.0039 144.8437,133.0234 144.8437,133.0234 l -144.2617,-7.6914 c 0,0 -26.1172,-80.3086 -90.3633,-66.25 -80.4336,17.6211 -111.6406,-8 -97.6367,-39.9883"
         id="path5"
         style="stroke:none;stroke-width:2.2;stroke-dasharray:none;stroke-opacity:1" />
    </g>
    <g
       id="g11"
       style="stroke:none;stroke-width:2.2;stroke-dasharray:none;stroke-opacity:1">
      <path
         fill="#1b75bc"
         d="m 1611.7969,3329.5117 c 0,0 104.4687,-186.5273 242.3594,-298.5078 98.082,-79.6601 290.6601,-96.7031 433.6367,-110 344.0039,-32 574.207,168.5469 692.0586,432.5391 79.0234,177.0195 -1304.0547,207.9687 -1368.0547,-24.0313"
         id="path11"
         style="stroke:none;stroke-width:2.2;stroke-dasharray:none;stroke-opacity:1" />
    </g>
    <path
       fill="none"
       stroke-width="5.329"
       stroke-miterlimit="10"
       d="m 8588.875,6471.7138 c 0,0 556.6887,993.959 1291.4744,1590.6758 522.6556,424.4897 1548.8576,515.3075 2310.7446,586.1633 1833.114,170.5203 3059.811,-898.1454 3687.813,-2304.8958 421.097,-943.2942 -6948.9915,-1108.2151 -7290.032,128.0567 z m 0,0"
       transform="matrix(0.18766,0,0,-0.18766,0,4544)"
       stroke="#231f20"
       id="path12"
       style="stroke:none;stroke-width:11.7233;stroke-dasharray:none;stroke-opacity:1" />
    <g
       id="g13"
       style="stroke:none;stroke-width:2.2;stroke-dasharray:none;stroke-opacity:1">
      <path
         fill="#603913"
         d="m 1961.6445,2020.8633 c 0,0 112.1602,-124.2969 42.4375,-160.6758 -69.7226,-36.3789 -97.0273,130.3672 -97.0273,130.3672 0,0 -151.4141,-35.3438 -124.293,48.5 16.6875,51.5469 178.8828,-18.1914 178.8828,-18.1914"
         id="path13"
         style="stroke:none;stroke-width:2.2;stroke-dasharray:none;stroke-opacity:1" />
    </g>
    <g
       id="g14"
       style="stroke:none;stroke-width:2.2;stroke-dasharray:none;stroke-opacity:1">
      <path
         fill="#f47b54"
         d="m 2139.7891,2821.0078 -23.2071,144.461 c 0,0 52.9219,98.2148 247.8555,83.5351 159.3555,-12 136.6406,-94.2656 136.6406,-94.2656 l -21.289,-101.7266 -340,-32.0039"
         id="path14"
         style="stroke:none;stroke-width:2.2;stroke-dasharray:none;stroke-opacity:1" />
    </g>
    <g
       id="g15"
       style="stroke:none;stroke-width:2.2;stroke-dasharray:none;stroke-opacity:1">
      <path
         fill="#f79c7f"
         d="m 1875.043,2488.1406 c 0,0 -143.461,-420.332 321.5742,-486.3554 465.0547,-65.9922 608.2226,227.8437 571.293,486.3711 -28.1172,196.8398 -217.711,474.9257 -425.6993,494.9257 -208.0039,19.9961 -459.1679,-318.9453 -467.1679,-494.9414"
         id="path15"
         style="stroke:none;stroke-width:2.2;stroke-dasharray:none;stroke-opacity:1" />
    </g>
    <g
       id="g16"
       style="stroke:none;stroke-width:2.2;stroke-dasharray:none;stroke-opacity:1">
      <path
         fill="#482b0e"
         d="m 2832.6953,2217.8008 c 0,0 -7.2461,265.875 -83.1211,348.9609 0,0 -0.8867,-222.9336 -42.8906,-312.9531 l 126.0117,-36.0078"
         id="path16"
         style="stroke:none;stroke-width:2.2;stroke-dasharray:none;stroke-opacity:1" />
    </g>
    <g
       id="g17"
       style="stroke:none;stroke-width:2.2;stroke-dasharray:none;stroke-opacity:1">
      <path
         fill="#603913"
         d="m 1827.5898,2397.8281 c 0,0 -114.0117,-366.0351 252.0274,-450.0312 366.0351,-84.0117 702.0703,-75.0235 828.0898,195.0156 126,270.0156 -936.1132,129.1836 -936.1132,129.1836 0,0 -32.5899,256.6914 -80.8125,294.7695 0,0 -48.8321,-91.457 -63.1915,-168.9375"
         id="path17"
         style="stroke:none;stroke-width:2.2;stroke-dasharray:none;stroke-opacity:1" />
    </g>
    <g
       id="g18"
       style="stroke:none;stroke-width:2.2;stroke-dasharray:none;stroke-opacity:1">
      <path
         fill="#f79c7f"
         d="m 2629.75,3030.4492 c 24.5039,19.6289 262.0508,92.4102 370.043,-46.5234 65.8008,-84.6094 -9.1055,-672.6992 -102.5313,-738.9336 -141.3281,-100.168 -123.7969,-235.9883 -123.7969,-235.9883 0,0 -35.6562,-30.0078 -95.6484,0 -60.0195,29.9883 -102.1211,-53.25 -48.0664,-86.6328 54.0547,-33.3789 133.5742,-130.7031 232.3867,-90.6914 130.1992,52.7226 175.6953,205.5664 189.8516,274.1211 4.8398,23.4023 14.3164,45.5625 27.9922,65.1328 119.7812,171.293 659.6953,995.1641 51.8281,1114.0625 -374.3828,73.2344 -383.9961,0 -383.9961,0 L 2629.75,3030.4492"
         id="path18"
         style="stroke:none;stroke-width:2.2;stroke-dasharray:none;stroke-opacity:1" />
    </g>
    <g
       id="g19"
       style="stroke:none;stroke-width:2.2;stroke-dasharray:none;stroke-opacity:1">
      <path
         fill="#1b75bc"
         d="m 2661.8594,2990.832 c 0,0 118.9414,83.168 214.9375,48.168 96,-35 106.0117,-48.1289 106.0117,-48.1289 l 130.5898,299.0508 c 0,0 -177.1601,89.1679 -339.9531,39.5898 -162.7734,-49.5898 -210.375,-342.7109 -111.5859,-338.6797"
         id="path19"
         style="stroke:none;stroke-width:2.2;stroke-dasharray:none;stroke-opacity:1" />
    </g>
    <g
       id="g20"
       style="stroke:none;stroke-width:2.2;stroke-dasharray:none;stroke-opacity:1">
      <path
         fill="#55050c"
         d="m 2577.2539,2954.0469 c 0,0 -26.5898,-41.4414 96.4258,-18.3008 123.0117,23.1406 135.0078,114.75 135.0078,114.75 l -116.9336,442.1523 -189.543,-50.7109 75.043,-487.8906"
         id="path20"
         style="stroke:none;stroke-width:2.2;stroke-dasharray:none;stroke-opacity:1" />
    </g>
    <path
       fill="none"
       stroke-width="5.803"
       stroke-miterlimit="10"
       d="m 14956.903,9227.1759 c 0,0 -154.312,240.5021 559.6,106.2072 713.89,-134.2949 783.508,-665.9432 783.508,-665.9432 l -678.615,-2565.9985 -1099.999,294.2971 z m 0,0"
       transform="matrix(0.17231,0,0,-0.17231,0,4544)"
       stroke="#231f20"
       id="path21"
       style="stroke:none;stroke-width:12.7677;stroke-dasharray:none;stroke-opacity:1" />
    <g
       id="g22"
       style="stroke:none;stroke-width:2.2;stroke-dasharray:none;stroke-opacity:1">
      <path
         fill="#55050c"
         d="m 1868.9414,3019.9492 c 0,0 -7.1406,-59.082 49.8594,-74.9414 57.0039,-15.8633 147.9961,-51 169.8047,7.8828 25.8906,69.8828 71.1953,576.1094 71.1953,576.1094 l -112.1641,28 -178.6953,-537.0508"
         id="path22"
         style="stroke:none;stroke-width:2.2;stroke-dasharray:none;stroke-opacity:1" />
    </g>
    <path
       fill="none"
       stroke-width="7.547"
       stroke-miterlimit="10"
       d="m 14104.899,11502.01 c 0,0 -53.89,445.892 376.288,565.582 430.209,119.721 1116.927,384.897 1281.516,-59.491 195.397,-527.406 537.311,-4347.8971 537.311,-4347.8971 l -846.502,-211.316 z m 0,0"
       transform="matrix(0.1325,0,0,-0.1325,0,4544)"
       stroke="#231f20"
       id="path23"
       style="stroke:none;stroke-width:16.6038;stroke-dasharray:none;stroke-opacity:1" />
    <g
       id="g24">
      <path
         fill="#fddfb3"
         d="m 1565.2656,4039.7109 -252.9101,-882.5273 538.3008,146.6797 499.1367,-122.6797 423.6523,197.75 440.5078,-211.2813 -203.8008,904.3204 L 2631.793,4189.9805 2335.6563,4039 1998.5078,4194.9805 1565.2656,4039.7109"
         id="path24"
         style="stroke:none;stroke-width:2.2;stroke-dasharray:none;stroke-opacity:1" />
    </g>
    <g
       id="g25"
       style="stroke:none;stroke-width:2.2;stroke-dasharray:none;stroke-opacity:1">
      <path
         fill="#cfab76"
         d="M 2349.7891,3181.1836 2335.668,4039 l 296.1289,150.9805 141.6484,-811.0469 -423.6562,-197.75"
         id="path25"
         style="stroke:none;stroke-width:2.2;stroke-dasharray:none;stroke-opacity:1" />
    </g>
    <g
       id="g26"
       style="stroke:none;stroke-width:2.2;stroke-dasharray:none;stroke-opacity:1">
      <path
         fill="#cfab76"
         d="m 1850.6563,3303.8555 147.8554,886.125 -433.2383,-150.2696 -252.914,-882.5312 538.2969,146.6758"
         id="path26"
         style="stroke:none;stroke-width:2.2;stroke-dasharray:none;stroke-opacity:1" />
    </g>
    <g
       id="g27"
       style="stroke:none;stroke-width:2.2;stroke-dasharray:none;stroke-opacity:1">
      <path
         fill="#9b8059"
         d="m 1446.4648,3617.6719 c 0,0 -32.7539,-106.8281 38.4493,-97.3203 40.3359,5.3906 26.8828,81.6484 73.0039,74.6718 24.1484,-3.6523 164.9961,-66.0195 193.4883,163.2774 C 1771.3359,3918.6016 1654.7969,3901 1623.793,3912 c -30.9922,11 -77.1211,65.9805 -77.1211,65.9805 l -100.2071,-360.3086"
         id="path27"
         style="stroke:none;stroke-width:2.2;stroke-dasharray:none;stroke-opacity:1" />
    </g>
    <g
       id="g28"
       style="stroke:none;stroke-width:2.2;stroke-dasharray:none;stroke-opacity:1">
      <path
         fill="#f79c7f"
         d="m 1398.7656,3632.3555 c -3.9609,23.0429 -17.9609,43.1718 -35.7226,58.3789 -30.8164,26.3711 -82.3672,82.3906 -123.5039,186.2422 -63.0196,159.0234 21,270.0312 150.0117,246.0234 129.0195,-24.0039 144.0156,-169.9414 144.0156,-169.9414 0,0 36.3828,-88.082 112.6953,-85.082 76.3242,3 98.5547,-224.9805 23.5508,-266.9805 -75.0078,-42 -165.4687,73.3906 -162,-20 0.4922,-13.5 -4.6914,-33.7891 -12.5039,-42.25 -40.5039,-43.832 -83.1523,15.75 -96.543,93.6094"
         id="path28"
         style="stroke:none;stroke-width:2.2;stroke-dasharray:none;stroke-opacity:1" />
    </g>
    <g
       id="g29"
       style="stroke:none;stroke-width:2.2;stroke-dasharray:none;stroke-opacity:1">
      <path
         fill="#3c2415"
         d="m 2199.8008,2509.875 c 0,31.4297 -12.9844,56.8984 -29.0039,56.8984 -16.0078,0 -29.0039,-25.4687 -29.0039,-56.8984 0,-31.4062 12.9961,-56.8711 29.0039,-56.8711 16.0195,0 29.0039,25.4649 29.0039,56.8711"
         id="path29"
         style="stroke:none;stroke-width:2.2;stroke-dasharray:none;stroke-opacity:1" />
    </g>
    <g
       id="g30"
       style="stroke:none;stroke-width:2.2;stroke-dasharray:none;stroke-opacity:1">
      <path
         fill="#3c2415"
         d="m 2502.1953,2509.8828 c 0,31.4219 -12.9844,56.8906 -28.9961,56.8906 -16.0273,0 -29,-25.4687 -29,-56.8906 0,-31.4062 12.9727,-56.875 29,-56.875 16.0117,0 28.9961,25.4688 28.9961,56.875"
         id="path30"
         style="stroke:none;stroke-width:2.2;stroke-dasharray:none;stroke-opacity:1" />
    </g>
    <g
       id="g31"
       style="stroke:none;stroke-width:2.2;stroke-dasharray:none;stroke-opacity:1">
      <path
         fill="#fcd9d7"
         d="m 2504.3477,2479.3242 c 0,16.8711 -6.9766,30.5469 -15.5625,30.5469 -8.6055,0 -15.5782,-13.6758 -15.5782,-30.5469 0,-16.8672 6.9727,-30.5586 15.5782,-30.5586 8.5859,0 15.5625,13.6914 15.5625,30.5586"
         id="path31"
         style="stroke:none;stroke-width:2.2;stroke-dasharray:none;stroke-opacity:1" />
    </g>
    <g
       id="g32"
       style="stroke:none;stroke-width:2.2;stroke-dasharray:none;stroke-opacity:1">
      <path
         fill="#fcd9d7"
         d="m 2201.9492,2479.3281 c 0,16.8828 -6.9687,30.5547 -15.5742,30.5547 -8.5898,0 -15.5742,-13.6719 -15.5742,-30.5547 0,-16.875 6.9844,-30.5468 15.5742,-30.5468 8.6055,0 15.5742,13.6718 15.5742,30.5468"
         id="path32"
         style="stroke:none;stroke-width:2.2;stroke-dasharray:none;stroke-opacity:1" />
    </g>
    <g
       id="g33"
       style="stroke:none;stroke-width:2.2;stroke-dasharray:none;stroke-opacity:1">
      <path
         fill="#f79c7f"
         d="m 1868.6523,2416.0703 c 0,0 -85.7343,-26.9961 -79.7343,46.5117 6.0039,73.4922 63.9218,129.6758 123.4531,159.3321 l -43.7188,-205.8438"
         id="path33"
         style="stroke:none;stroke-width:2.2;stroke-dasharray:none;stroke-opacity:1" />
    </g>
    <g
       id="g34"
       style="stroke:none;stroke-width:2.2;stroke-dasharray:none;stroke-opacity:1">
      <path
         fill="#f47b54"
         d="m 2342.332,2516.5859 c 0,0 2.043,42.7813 54.5313,83.2774 52.5039,40.4961 -34.9805,111.707 -34.9805,111.707 0,0 39.9102,-69.7969 21.9102,-89.6484 -17.9883,-19.8516 -47.3203,-39.5039 -41.461,-105.336"
         id="path34"
         style="stroke:none;stroke-width:2.2;stroke-dasharray:none;stroke-opacity:1" />
    </g>
    <g
       id="g35"
       style="stroke:none;stroke-width:2.2;stroke-dasharray:none;stroke-opacity:1">
      <path
         fill="#f2675e"
         d="m 2249.3438,2794.4766 c 0,0 61.2968,-59.4453 143.457,-40.4805 82.1601,18.9805 43.9258,44.6719 43.9258,44.6719 0,0 -62.543,-44.4297 -187.3828,-4.1914"
         id="path35"
         style="stroke:none;stroke-width:2.2;stroke-dasharray:none;stroke-opacity:1" />
    </g>
    <g
       id="g36"
       style="stroke:none;stroke-width:2.2;stroke-dasharray:none;stroke-opacity:1">
      <path
         fill="#603913"
         d="m 2441.2422,2405.8867 c 0,0 -0.4453,17.1211 23.5547,11.1133 24,-5.9922 73.3945,-11.4297 99.3398,6.6719 14.3321,10.0039 19.6563,-1.9961 2.6641,-12.6641 -13.4883,-8.4648 -60.5039,-40.5039 -125.5586,-5.1211"
         id="path36"
         style="stroke:none;stroke-width:2.2;stroke-dasharray:none;stroke-opacity:1" />
    </g>
    <g
       id="g37"
       style="stroke:none;stroke-width:2.2;stroke-dasharray:none;stroke-opacity:1">
      <path
         fill="#603913"
         d="m 2085.1289,2442.332 c 0,0 45.668,-28.7578 93.6641,-25.0468 48.0078,3.7148 54.5039,-7.7696 49.5,-19.0586 -5,-11.2891 -95.9219,-16.6055 -135.5039,24.4297 -19.6485,20.3867 -7.6602,19.6757 -7.6602,19.6757"
         id="path37"
         style="stroke:none;stroke-width:2.2;stroke-dasharray:none;stroke-opacity:1" />
    </g>
    <g
       id="g39"
       style="stroke:none;stroke-width:2.2;stroke-dasharray:none;stroke-opacity:1">
      <path
         fill="#ef4136"
         d="m 3026.0195,1535.7539 c -9.4179,-4.9062 -13.1054,-16.5508 -8.1757,-25.9492 11.4609,-21.8399 40.6757,-54.4219 111.7109,-51.6758 124.418,4.8086 136.6406,152.4297 44.2226,190.7813 -67.8867,28.1914 -92.1718,61.6171 -99.9687,80.5507 -4.207,10.2422 -16.25,15.0508 -26.1289,10.0625 -7.2539,-3.6484 -12.5625,-12.2851 -8.7969,-31.3398 8.7149,-44.2852 71.3164,-71.4961 113.957,-91.8164 20.4375,-9.7383 46.2461,-33.6836 36.0469,-75.543 -5.832,-23.8437 -28.5547,-44.4453 -61.0742,-46.0859 -43.6055,-2.1641 -64.043,18.8164 -73.2187,34.8633 -5.1915,9.039 -16.5313,12.4648 -25.7696,7.6367 l -2.8047,-1.4844"
         id="path39"
         style="stroke:none;stroke-width:2.2;stroke-dasharray:none;stroke-opacity:1" />
    </g>
    <g
       id="g40"
       style="stroke:none;stroke-width:2.2;stroke-dasharray:none;stroke-opacity:1">
      <path
         fill="#ef4136"
         d="m 3065.1328,1790.3438 c 0,17.6015 -14.2539,31.8554 -31.8359,31.8554 -17.6016,0 -31.8555,-14.2539 -31.8555,-31.8554 0,-17.5821 14.2539,-31.8555 31.8555,-31.8555 17.582,0 31.8359,14.2734 31.8359,31.8555"
         id="path40"
         style="stroke:none;stroke-width:2.2;stroke-dasharray:none;stroke-opacity:1" />
    </g>
  </g>
</svg>
