<?xml version="1.0" encoding="UTF-8" standalone="no"?>
<svg
   version="1.1"
   viewBox="0.00 0.00 232.00 218.00"
   id="svg312"
   sodipodi:docname="pat_on_back.svg"
   inkscape:version="1.2.2 (b0a8486, 2022-12-01)"
   xmlns:inkscape="http://www.inkscape.org/namespaces/inkscape"
   xmlns:sodipodi="http://sodipodi.sourceforge.net/DTD/sodipodi-0.dtd"
   xmlns="http://www.w3.org/2000/svg"
   xmlns:svg="http://www.w3.org/2000/svg">
  <defs
     id="defs316" />
  <sodipodi:namedview
     id="namedview314"
     pagecolor="#ffffff"
     bordercolor="#000000"
     borderopacity="0.25"
     inkscape:showpageshadow="2"
     inkscape:pageopacity="0.0"
     inkscape:pagecheckerboard="0"
     inkscape:deskcolor="#d1d1d1"
     showgrid="false"
     inkscape:zoom="1.418387"
     inkscape:cx="139.59519"
     inkscape:cy="92.358436"
     inkscape:window-width="1309"
     inkscape:window-height="456"
     inkscape:window-x="0"
     inkscape:window-y="25"
     inkscape:window-maximized="0"
     inkscape:current-layer="svg312" />
  <g
     stroke-width="2.00"
     fill="none"
     stroke-linecap="butt"
     id="g224">
    <path
       stroke="#83bbfd"
       vector-effect="non-scaling-stroke"
       d="   M 96.13 216.65   Q 102.47 214.74 108.01 211.71   C 111.98 209.54 114.09 205.79 116.33 202.03   Q 116.59 201.60 117.04 201.38   C 122.29 198.79 127.46 195.03 132.13 192.79   Q 140.80 188.62 149.92 185.51   C 158.22 182.68 165.61 173.80 170.11 166.81   C 173.84 161.03 182.24 158.00 180.94 150.18"
       id="path134" />
    <path
       stroke="#808080"
       vector-effect="non-scaling-stroke"
       d="   M 180.94 150.18   Q 181.49 147.12 185.00 144.27   C 191.09 139.31 184.87 133.47 179.96 131.27   Q 179.46 131.04 179.64 130.53   C 182.28 122.62 180.41 118.23 172.49 115.74   Q 172.02 115.59 172.01 115.10   C 171.90 110.66 165.98 104.47 162.68 101.82   C 160.62 100.16 154.07 94.21 151.50 94.71   Q 147.83 95.41 144.13 95.50   Q 143.66 95.51 143.52 95.05   Q 142.33 90.93 138.87 88.36   A 0.92 0.92 0.0 0 1 139.09 86.76   Q 145.70 84.19 152.55 82.27   C 162.94 79.35 167.44 73.79 175.70 64.87   C 178.56 61.79 176.75 60.16 174.12 57.71   A 0.59 0.59 0.0 0 1 174.09 56.88   C 175.90 54.89 177.75 50.60 175.59 48.24   Q 174.53 47.08 173.29 47.12   Q 171.21 47.20 170.40 46.51   Q 168.71 45.08 166.98 46.47   L 156.18 55.13   A 0.54 0.54 0.0 0 1 155.36 54.46   C 157.04 51.18 158.64 47.27 153.51 45.91   A 1.06 1.06 0.0 0 0 152.56 46.12   C 149.35 48.74 146.12 52.00 143.10 54.19   Q 137.00 58.60 130.28 62.00   C 126.51 63.91 121.65 64.50 117.42 66.51   A 0.61 0.60 -15.1 0 1 116.56 66.02   C 116.00 60.40 114.98 54.08 115.80 48.42   C 116.64 42.58 115.00 38.39 111.53 33.68   Q 102.45 21.32 87.46 22.01   C 85.58 22.10 82.06 23.55 80.51 23.13   C 67.18 19.50 59.95 29.13 54.19 39.10   Q 53.93 39.54 53.49 39.29   C 50.85 37.79 49.50 35.35 46.89 34.18   C 35.87 29.26 22.51 25.97 12.10 32.88   C 7.67 35.83 5.56 49.34 4.57 54.65   C 2.62 65.06 1.93 77.34 0.95 88.67   C -1.66 118.86 9.92 148.13 30.48 169.93   Q 30.83 170.30 30.88 170.80   C 31.78 178.99 36.83 205.60 48.01 206.09"
       id="path136" />
    <path
       stroke="#83bbfd"
       vector-effect="non-scaling-stroke"
       d="   M 48.01 206.09   Q 54.53 213.02 67.58 216.66"
       id="path138" />
    <path
       stroke="#808080"
       vector-effect="non-scaling-stroke"
       d="   M 154.51 1.83   L 151.42 0.94   A 0.15 0.15 0.0 0 0 151.23 1.04   L 151.19 1.20   A 44.72 1.73 -74.0 0 0 140.52 44.67   L 140.58 44.69   A 44.72 1.73 -74.0 0 0 154.57 2.18   L 154.62 2.01   A 0.15 0.15 0.0 0 0 154.51 1.83"
       id="path142" />
    <path
       stroke="#808080"
       vector-effect="non-scaling-stroke"
       d="   M 187.24 3.09   C 180.71 12.26 176.11 21.93 171.75 31.86   A 0.27 0.26 -87.9 0 0 172.08 32.22   Q 172.72 31.98 173.12 31.39   C 179.04 22.64 185.21 13.75 188.47 3.72   A 0.70 0.70 0.0 0 0 187.24 3.09"
       id="path144" />
    <path
       stroke="#808080"
       vector-effect="non-scaling-stroke"
       d="   M 128.6791 11.2451   A 0.66 0.66 0.0 0 0 128.0238 10.5805   L 127.9438 10.5799   A 0.66 0.66 0.0 0 0 127.2792 11.2353   L 127.1809 25.3149   A 0.66 0.66 0.0 0 0 127.8362 25.9795   L 127.9162 25.9801   A 0.66 0.66 0.0 0 0 128.5808 25.3247   L 128.6791 11.2451"
       id="path146" />
    <path
       stroke="#808080"
       vector-effect="non-scaling-stroke"
       d="   M 230.8212 64.3869   A 0.81 0.81 0.0 0 0 229.9686 63.6218   L 193.8016 65.5806   A 0.81 0.81 0.0 0 0 193.0366 66.4332   L 193.0388 66.4731   A 0.81 0.81 0.0 0 0 193.8914 67.2382   L 230.0584 65.2794   A 0.81 0.81 0.0 0 0 230.8234 64.4268   L 230.8212 64.3869"
       id="path148" />
    <path
       stroke="#808080"
       vector-effect="non-scaling-stroke"
       d="   M 224.99 98.68   C 224.58 94.55 214.03 91.71 210.76 90.51   Q 194.25 84.51 177.54 79.13   Q 174.97 78.30 172.70 78.69   A 0.87 0.87 0.0 0 0 172.38 80.28   C 173.64 81.09 175.00 82.17 176.39 82.69   Q 199.93 91.39 223.27 100.00   A 1.28 1.28 0.0 0 0 224.99 98.68"
       id="path150" />
    <path
       stroke="#808080"
       vector-effect="non-scaling-stroke"
       d="   M 214.24 119.64   Q 189.91 104.06 164.79 91.38   C 163.16 90.55 161.01 90.27 159.26 89.72   A 0.57 0.57 0.0 0 0 158.76 90.72   C 162.89 93.70 167.12 95.88 170.79 99.57   C 175.33 104.12 181.87 107.31 187.24 110.91   Q 193.40 115.04 200.77 116.25   C 203.27 116.66 212.97 121.05 214.21 120.39   A 0.43 0.43 0.0 0 0 214.24 119.64"
       id="path152" />
    <path
       stroke="#043c7e"
       vector-effect="non-scaling-stroke"
       d="   M 180.94 150.18   Q 178.84 149.69 176.19 151.04   A 0.31 0.31 0.0 0 1 175.74 150.73   L 176.01 148.54   Q 176.09 147.92 175.47 148.01   Q 174.09 148.19 173.36 149.32   A 0.57 0.57 0.0 0 1 172.46 149.41   L 171.57 148.48   A 1.42 1.41 -52.9 0 0 169.30 148.80   Q 168.47 150.35 166.79 150.55   Q 166.18 150.61 166.21 150.00   C 166.40 146.97 166.43 144.06 167.41 141.11   C 169.62 134.46 171.74 129.11 171.73 121.97   A 0.98 0.98 0.0 0 0 170.45 121.04   C 168.74 121.60 168.01 123.09 168.07 124.92   Q 168.38 134.57 163.76 142.94   C 163.31 143.74 162.85 145.31 162.96 146.01   C 164.14 153.46 162.29 161.91 161.47 168.52   C 160.68 174.91 151.46 172.91 152.83 164.80   Q 156.20 144.91 155.56 124.77   Q 155.37 118.82 153.08 112.98   A 0.44 0.43 34.7 0 0 152.24 113.13   C 152.27 121.56 152.59 129.84 151.34 138.28   C 150.69 142.66 149.18 145.28 145.51 147.35   Q 145.03 147.62 144.83 148.14   Q 143.32 152.14 139.18 150.04   A 1.53 1.53 0.0 0 0 137.01 150.99   L 133.69 162.75   A 0.37 0.37 0.0 0 0 134.35 163.05   Q 136.40 159.99 138.11 156.73   A 1.49 1.49 0.0 0 1 140.81 156.85   L 142.04 159.82   A 0.95 0.95 0.0 0 0 143.54 160.18   L 149.00 155.45   A 1.67 1.67 0.0 0 1 151.76 156.61   Q 152.14 163.08 150.90 169.69   C 150.02 174.39 148.09 177.34 143.12 177.42   A 1.81 1.79 -61.1 0 0 142.21 177.69   C 137.93 180.34 130.70 185.39 124.48 183.78   Q 123.99 183.65 123.65 184.03   Q 116.77 191.56 112.57 198.31   Q 110.03 202.38 105.85 203.53   A 0.90 0.90 0.0 0 1 104.82 203.09   L 103.39 200.43   A 0.76 0.76 0.0 0 0 102.19 200.24   C 97.62 204.60 93.40 208.92 87.32 211.05   A 0.52 0.52 0.0 0 1 86.69 210.30   Q 91.88 201.07 94.57 190.50   Q 95.65 186.28 97.12 182.16   C 97.73 180.45 97.69 179.26 95.87 178.58   Q 94.12 177.93 93.57 179.70   L 91.91 184.98   Q 91.73 185.58 91.22 185.94   Q 89.27 187.34 86.72 187.40   A 0.98 0.98 0.0 0 0 86.10 189.11   Q 90.65 193.09 86.03 196.53   A 1.25 1.23 75.2 0 0 85.54 197.39   Q 85.41 198.54 86.36 199.23   A 0.89 0.89 0.0 0 1 86.70 200.21   Q 85.21 205.23 79.56 205.88   C 74.12 206.51 56.98 209.39 54.55 204.45   C 52.21 199.70 67.82 197.42 70.76 197.00   A 0.58 0.58 0.0 0 0 70.92 195.89   Q 63.27 192.53 56.39 187.54   C 51.36 183.89 47.57 178.01 43.52 173.10   A 0.52 0.52 0.0 0 0 42.66 173.17   Q 41.17 175.78 38.05 175.21   Q 37.22 175.06 37.46 175.87   C 40.50 186.17 43.13 196.03 48.01 206.09"
       id="path154" />
    <path
       stroke="#7b791a"
       vector-effect="non-scaling-stroke"
       d="   M 86.15 25.20   L 91.04 28.22   A 1.62 1.58 6.2 0 1 91.70 29.02   L 92.19 30.34   A 0.39 0.39 0.0 0 0 92.85 30.46   Q 96.58 26.27 101.37 28.92   A 0.28 0.28 0.0 0 0 101.66 28.44   C 99.73 27.13 87.41 21.62 85.95 24.47   A 0.56 0.55 -60.5 0 0 86.15 25.20"
       id="path156" />
    <path
       stroke="#7b791a"
       vector-effect="non-scaling-stroke"
       d="   M 57.18 60.12   Q 57.30 56.36 60.42 54.47   Q 60.93 54.16 60.93 53.57   L 60.93 52.86   A 0.50 0.50 0.0 0 0 60.18 52.43   L 57.54 53.99   A 0.37 0.37 0.0 0 1 57.00 53.79   C 55.90 50.70 59.00 49.61 60.71 47.92   Q 61.31 47.32 60.47 47.17   L 59.12 46.93   A 0.47 0.47 0.0 0 1 58.84 46.17   L 61.27 43.30   Q 61.52 42.99 61.23 42.73   C 59.74 41.44 62.26 39.79 62.93 38.85   Q 63.16 38.52 62.81 38.32   L 62.09 37.88   A 0.43 0.43 0.0 0 1 62.02 37.20   Q 66.80 32.59 73.77 31.75   Q 74.29 31.69 74.52 31.21   Q 74.75 30.75 74.23 30.75   L 67.01 30.75   A 0.30 0.30 0.0 0 1 66.92 30.16   Q 69.92 29.25 73.00 28.42   C 76.19 27.56 79.03 28.73 82.42 28.20   Q 82.91 28.12 83.39 28.23   L 85.94 28.82   Q 86.79 29.02 86.30 28.30   C 83.69 24.57 72.65 23.10 67.86 26.33   Q 67.45 26.60 67.73 27.00   Q 68.31 27.83 67.57 28.32   C 57.58 35.02 53.92 45.52 54.16 57.21   C 54.23 61.01 55.21 65.93 55.46 70.37   Q 55.49 70.86 55.84 71.21   L 58.35 73.72   Q 58.81 74.19 59.09 73.59   L 60.73 70.03   Q 60.91 69.66 60.58 69.39   C 57.51 66.90 59.26 62.63 60.94 59.94   A 0.47 0.46 -88.0 0 0 60.33 59.28   L 57.92 60.58   A 0.51 0.50 76.6 0 1 57.18 60.12"
       id="path158" />
    <path
       stroke="#7f6d59"
       vector-effect="non-scaling-stroke"
       d="   M 64.00 45.84   L 63.72 47.71   A 1.20 1.20 0.0 0 0 63.92 48.57   Q 64.35 49.18 65.25 48.97   A 1.13 1.13 0.0 0 1 66.23 50.94   Q 64.37 52.46 63.49 53.98   A 0.43 0.43 0.0 0 0 64.22 54.44   Q 65.32 52.78 67.10 53.51   A 1.13 1.12 -57.6 0 1 67.50 55.31   Q 63.90 59.27 61.11 63.82   Q 60.73 64.42 61.39 64.70   Q 61.78 64.86 62.28 64.68   A 1.63 1.50 -77.5 0 1 63.80 67.29   Q 60.36 71.42 60.23 76.81   Q 60.21 77.50 59.67 77.07   C 56.50 74.56 53.55 70.19 48.77 72.23   Q 48.35 72.41 48.10 72.80   C 45.05 77.55 45.54 82.02 48.70 86.63   C 51.93 91.34 54.85 94.53 61.08 92.37   A 0.65 0.64 68.8 0 1 61.88 92.73   C 66.46 103.59 81.63 114.59 91.51 120.76   Q 91.88 120.99 92.22 120.73   L 98.07 116.34   A 0.49 0.48 26.8 0 0 97.78 115.47   Q 88.23 115.45 83.01 107.46   A 0.32 0.31 -38.6 0 1 83.06 107.07   L 83.28 106.84   Q 83.54 106.58 83.80 106.85   C 89.07 112.48 99.57 116.01 105.15 108.44   C 112.14 98.97 116.20 87.42 115.09 75.56   Q 113.88 62.52 113.65 49.50   A 1.29 1.29 0.0 0 0 112.42 48.23   L 105.93 47.92   A 1.03 1.03 0.0 0 1 105.18 46.24   C 107.97 42.84 110.60 45.34 114.03 45.52   Q 114.70 45.56 114.54 44.91   C 112.45 36.35 105.77 28.20 95.80 31.55   Q 91.16 33.11 86.16 30.48   A 1.44 1.44 0.0 0 0 84.07 31.97   Q 84.38 33.94 82.84 34.96   Q 82.39 35.26 81.88 35.11   C 76.61 33.64 64.48 34.11 64.90 41.84   Q 64.93 42.43 64.38 42.66   Q 63.40 43.08 62.72 43.93   Q 62.32 44.43 62.90 44.71   L 63.57 45.03   Q 64.08 45.27 64.00 45.84"
       id="path160" />
    <path
       stroke="#043c7e"
       vector-effect="non-scaling-stroke"
       d="   M 23.68 38.56   C 24.16 36.06 32.33 39.98 33.52 40.58   C 36.71 42.18 38.63 42.92 41.81 42.73   A 1.08 1.08 0.0 0 0 42.55 40.92   C 38.72 36.67 13.68 29.93 11.06 37.82   C 4.56 57.42 3.68 81.21 4.53 101.69   Q 4.99 112.88 6.75 117.76   Q 15.35 141.61 30.10 160.55   Q 31.75 162.66 31.85 159.98   Q 32.31 147.19 37.46 135.29   C 37.99 134.07 37.91 133.05 37.01 132.14   A 0.81 0.80 -59.5 0 0 35.67 132.49   C 35.17 134.24 33.43 139.81 31.04 139.77   C 29.48 139.75 28.53 137.66 26.73 139.18   A 0.78 0.77 57.7 0 1 25.52 138.90   C 23.88 135.28 23.19 132.15 24.60 128.13   C 26.21 123.51 29.72 116.40 30.21 111.77   A 0.67 0.67 0.0 0 0 28.97 111.35   C 26.69 115.13 23.74 121.34 20.61 123.31   C 15.88 126.31 9.98 123.18 9.22 117.55   Q 9.15 117.04 9.39 116.59   Q 12.26 111.11 15.82 106.05   C 18.16 102.74 16.64 101.80 16.31 98.39   Q 16.25 97.80 16.60 97.32   L 18.67 94.54   A 0.63 0.63 0.0 0 0 18.67 93.78   C 16.17 90.46 12.66 84.31 13.88 80.06   Q 14.02 79.58 13.87 79.10   C 12.47 74.56 9.12 69.83 12.86 65.55   C 16.40 61.52 21.87 57.52 26.41 54.77   A 1.32 1.32 0.0 0 0 26.91 53.08   Q 25.14 49.40 21.90 46.59   C 20.79 45.64 14.37 40.76 14.31 39.78   A 0.54 0.54 0.0 0 1 15.06 39.25   Q 23.37 42.74 30.34 48.42   C 32.83 50.45 35.04 53.59 37.67 56.01   Q 38.23 56.52 38.11 55.78   C 36.68 46.98 31.56 43.12 23.99 39.21   A 0.60 0.60 0.0 0 1 23.68 38.56"
       id="path162" />
    <path
       stroke="#808080"
       vector-effect="non-scaling-stroke"
       d="   M 52.81 41.44   Q 51.80 40.61 50.74 40.91   A 0.72 0.72 0.0 0 0 50.22 41.64   Q 50.34 44.28 51.24 46.75   Q 51.46 47.36 51.69 46.75   L 53.38 42.20   Q 53.54 41.79 53.17 41.56   Q 53.01 41.46 52.81 41.44"
       id="path164" />
    <path
       stroke="#808080"
       vector-effect="non-scaling-stroke"
       d="   M 50.59 48.06   C 49.60 48.55 49.29 62.10 49.28 62.47   C 49.22 64.03 49.97 65.45 50.24 67.04   Q 50.35 67.71 49.73 68.01   L 49.21 68.26   Q 47.62 69.02 49.32 69.47   C 51.28 69.99 52.62 70.02 52.12 67.49   Q 50.24 58.05 51.15 48.45   A 0.39 0.39 0.0 0 0 50.59 48.06"
       id="path166" />
    <path
       stroke="#7f6d59"
       vector-effect="non-scaling-stroke"
       d="   M 153.47 71.94   A 0.45 0.45 0.0 0 1 153.10 71.12   C 160.69 66.47 169.97 59.33 173.84 51.08   A 1.31 1.31 0.0 0 0 172.51 49.22   Q 171.08 49.38 169.94 50.16   Q 169.41 50.53 169.22 49.91   L 168.83 48.67   Q 168.66 48.13 168.21 48.47   L 155.33 58.33   Q 154.90 58.65 154.37 58.68   L 151.46 58.85   A 1.71 1.66 21.3 0 0 150.44 59.28   C 148.60 60.95 137.14 70.62 135.17 69.30   A 0.41 0.40 43.5 0 1 135.15 68.64   C 137.31 66.98 157.97 51.29 153.90 48.26   A 1.14 1.14 0.0 0 0 152.32 48.47   Q 144.68 58.12 134.08 64.02   C 129.28 66.69 123.38 67.20 117.95 68.72   Q 116.96 69.00 117.14 70.01   Q 118.70 78.91 117.31 87.76   Q 117.22 88.33 117.76 88.53   Q 119.89 89.32 122.18 89.25   A 1.88 1.88 0.0 0 1 123.14 89.47   C 125.34 90.64 127.19 91.97 129.57 92.78   C 133.00 93.96 138.54 97.83 141.84 95.88   Q 142.22 95.65 142.06 95.24   Q 140.81 92.00 138.16 90.59   C 131.66 87.13 133.12 79.57 128.68 77.57   Q 128.11 77.31 128.55 76.87   L 128.76 76.67   A 0.84 0.84 0.0 0 1 129.83 76.56   Q 134.51 79.69 135.56 85.24   A 0.93 0.93 0.0 0 0 136.99 85.84   C 141.23 83.05 145.43 81.66 150.11 79.84   C 159.30 76.26 167.40 69.74 174.17 62.66   C 175.55 61.21 175.12 60.27 173.25 59.81   A 1.80 1.79 -59.2 0 0 171.61 60.23   C 165.75 65.53 161.22 69.59 153.47 71.94"
       id="path168" />
    <path
       stroke="#808080"
       vector-effect="non-scaling-stroke"
       d="   M 46.50 71.29   C 44.47 69.79 39.62 66.56 37.93 69.47   Q 34.39 75.55 37.17 81.81   Q 40.66 89.66 44.11 97.06   A 2.76 2.75 83.8 0 0 45.98 98.57   Q 56.45 101.01 64.79 107.76   Q 65.37 108.23 65.39 107.48   Q 65.46 101.88 61.88 97.65   Q 61.54 97.25 61.02 97.25   C 54.80 97.25 53.44 95.67 49.75 90.76   C 45.41 85.01 40.92 78.55 46.58 72.02   A 0.50 0.50 0.0 0 0 46.50 71.29"
       id="path170" />
    <path
       stroke="#808080"
       vector-effect="non-scaling-stroke"
       d="   M 132.72 98.03   Q 125.65 92.85 117.23 90.37   A 0.63 0.62 -72.0 0 0 116.47 90.76   C 114.95 94.92 114.38 98.81 111.59 102.83   Q 111.29 103.26 111.82 103.25   C 114.34 103.23 116.71 103.48 119.16 102.72   Q 126.02 100.59 132.61 98.62   Q 133.26 98.43 132.72 98.03"
       id="path172" />
    <path
       stroke="#043c7e"
       vector-effect="non-scaling-stroke"
       d="   M 134.47 104.79   C 132.28 102.50 128.16 104.30 125.87 105.32   A 0.43 0.43 0.0 0 0 125.85 106.09   Q 133.52 110.06 139.92 115.81   Q 140.47 116.30 140.30 115.58   Q 138.79 109.32 134.47 104.79"
       id="path174" />
    <path
       stroke="#043c7e"
       vector-effect="non-scaling-stroke"
       d="   M 128.31 139.94   C 125.84 138.37 112.67 130.03 110.43 125.36   A 0.62 0.62 0.0 0 1 111.37 124.61   L 118.41 130.05   A 1.34 1.34 0.0 0 0 120.38 129.67   L 125.06 121.66   Q 125.30 121.25 125.10 120.81   Q 124.30 119.12 123.32 118.15   Q 117.08 111.96 111.18 105.21   Q 110.78 104.75 110.43 105.25   L 106.58 110.72   A 1.17 1.15 58.0 0 0 106.38 111.61   C 109.58 129.76 109.98 151.42 104.60 169.19   C 101.47 179.52 98.42 194.35 91.00 206.30   A 0.25 0.25 0.0 0 0 91.35 206.64   C 98.74 201.46 102.46 196.20 107.58 187.46   Q 110.50 182.48 115.67 173.92   Q 122.90 161.97 129.74 143.70   Q 130.60 141.39 128.31 139.94"
       id="path176" />
    <path
       stroke="#808080"
       vector-effect="non-scaling-stroke"
       d="   M 88.85 122.03   Q 85.37 119.93 82.27 117.70   C 77.57 114.32 73.38 109.24 68.44 105.41   Q 67.90 104.99 67.80 105.67   C 67.44 108.21 68.53 109.56 69.47 111.69   Q 75.53 125.53 83.28 139.43   A 0.74 0.74 0.0 0 0 84.62 139.34   Q 86.05 135.70 86.54 131.47   C 86.93 128.18 87.92 125.81 89.16 122.99   A 0.77 0.76 27.5 0 0 88.85 122.03"
       id="path178" />
    <path
       stroke="#043c7e"
       vector-effect="non-scaling-stroke"
       d="   M 140.04 117.29   C 132.54 116.90 128.43 112.31 122.52 108.61   C 120.19 107.15 118.41 105.49 115.45 105.27   A 0.39 0.38 64.8 0 0 115.20 105.97   C 123.38 111.78 131.63 117.31 138.01 125.24   Q 138.48 125.83 138.77 125.14   Q 140.24 121.63 140.51 117.82   Q 140.54 117.32 140.04 117.29"
       id="path180" />
    <path
       stroke="#043c7e"
       vector-effect="non-scaling-stroke"
       d="   M 68.17 138.35   C 66.24 137.21 60.12 133.93 60.53 131.75   Q 62.18 122.80 63.19 113.74   C 63.37 112.11 62.98 110.59 61.02 110.81   A 0.65 0.65 0.0 0 0 60.44 111.50   Q 61.07 121.65 56.87 130.84   Q 56.62 131.39 56.15 131.78   L 54.23 133.40   Q 53.67 133.87 54.34 134.18   C 57.97 135.85 63.50 137.45 65.47 141.10   A 0.53 0.52 -34.0 0 0 66.27 141.25   L 68.27 139.57   Q 69.08 138.89 68.17 138.35"
       id="path182" />
    <path
       stroke="#808080"
       vector-effect="non-scaling-stroke"
       d="   M 99.60 118.64   L 94.95 121.59   Q 94.50 121.88 94.66 122.38   Q 95.26 124.40 95.95 125.05   Q 100.51 129.36 104.08 134.79   A 0.70 0.70 0.0 0 0 105.36 134.46   Q 106.23 124.09 104.08 113.99   A 0.55 0.54 56.1 0 0 103.09 113.79   L 100.26 118.00   Q 100.00 118.39 99.60 118.64"
       id="path184" />
    <path
       stroke="#740503"
       vector-effect="non-scaling-stroke"
       d="   M 90.17 133.31   Q 91.27 134.43 92.63 135.20   Q 93.24 135.54 93.37 134.86   L 94.89 127.17   Q 95.02 126.49 94.58 125.95   L 93.09 124.17   Q 91.83 122.65 90.96 124.43   Q 89.10 128.24 89.27 132.57   A 0.33 0.29 -73.7 0 0 89.37 132.78   Q 89.53 132.92 89.71 133.00   A 1.19 1.14 -10.0 0 1 90.17 133.31"
       id="path186" />
    <path
       stroke="#043c7e"
       vector-effect="non-scaling-stroke"
       d="   M 62.95 154.04   Q 75.11 161.68 87.36 168.26   C 91.48 170.48 94.55 172.85 97.70 175.93   A 0.62 0.62 0.0 0 0 98.72 175.69   L 100.94 169.50   Q 101.11 169.02 100.80 168.62   C 96.77 163.42 91.97 158.14 88.84 152.38   C 86.77 148.55 83.40 144.09 81.78 141.33   Q 78.55 135.85 75.51 130.45   A 0.66 0.66 0.0 0 0 74.28 130.78   C 74.27 139.15 68.17 146.84 62.78 152.69   Q 62.05 153.48 62.95 154.04"
       id="path188" />
    <path
       stroke="#808080"
       vector-effect="non-scaling-stroke"
       d="   M 98.58 131.29   Q 97.52 130.21 97.68 131.72   Q 98.01 134.91 96.95 137.97   A 0.67 0.67 0.0 0 0 97.46 138.84   Q 101.24 139.55 104.01 142.15   A 0.50 0.50 0.0 0 0 104.82 141.95   L 105.58 139.67   A 0.72 0.72 0.0 0 0 105.27 138.82   C 102.06 136.90 101.21 133.95 98.58 131.29"
       id="path190" />
    <path
       stroke="#808080"
       vector-effect="non-scaling-stroke"
       d="   M 89.47 147.43   Q 90.02 147.85 90.13 147.16   Q 90.73 143.22 92.29 139.55   A 0.93 0.92 -54.5 0 0 92.13 138.56   L 88.98 135.06   A 0.88 0.88 0.0 0 0 87.44 135.67   Q 87.51 138.89 86.13 141.71   Q 85.94 142.11 86.07 142.53   Q 86.98 145.55 89.47 147.43"
       id="path192" />
    <path
       stroke="#740503"
       vector-effect="non-scaling-stroke"
       d="   M 102.15 147.15   C 102.68 142.04 98.83 141.93 95.16 142.15   A 1.04 1.03 0.9 0 0 94.18 143.09   L 93.43 151.56   Q 93.39 151.95 93.59 152.29   C 95.94 156.48 99.22 159.31 101.58 162.66   Q 101.91 163.12 102.23 162.66   Q 103.51 160.82 103.02 158.73   Q 101.58 152.63 102.15 147.15"
       id="path194" />
    <path
       stroke="#043c7e"
       vector-effect="non-scaling-stroke"
       d="   M 49.66 159.75   C 52.67 156.00 47.63 151.92 44.92 149.66   Q 44.37 149.20 44.35 149.92   Q 44.15 155.58 43.40 161.21   Q 42.98 164.30 43.51 165.90   C 45.23 171.20 64.17 182.20 69.80 182.25   A 0.68 0.67 58.2 0 0 70.10 180.97   Q 66.13 179.02 63.31 176.69   C 62.29 175.85 54.43 168.15 54.29 165.12   A 1.24 1.24 0.0 0 1 56.09 163.96   L 62.17 167.07   Q 65.48 168.76 63.21 165.81   L 57.28 158.15   A 0.61 0.61 0.0 0 0 56.42 158.04   Q 53.85 160.09 50.88 161.36   A 1.04 1.04 0.0 0 1 49.66 159.75"
       id="path196" />
    <path
       stroke="#808080"
       vector-effect="non-scaling-stroke"
       d="   M 142.22 167.49   C 139.08 166.16 140.64 162.47 139.97 159.84   A 0.70 0.69 44.5 0 0 138.62 159.85   C 136.82 167.45 131.74 174.92 127.74 181.61   Q 127.36 182.24 128.10 182.29   C 132.07 182.55 147.70 171.99 148.50 168.01   Q 149.56 162.77 150.42 157.71   A 0.49 0.48 -21.7 0 0 149.55 157.34   Q 146.23 161.64 144.19 166.67   A 1.50 1.50 0.0 0 1 142.22 167.49"
       id="path198" />
    <path
       stroke="#7f6d59"
       vector-effect="non-scaling-stroke"
       d="   M 90.90 48.81   C 84.16 44.30 76.77 50.55 75.07 56.61   A 1.17 1.17 0.0 0 0 77.22 57.48   Q 79.99 52.30 85.68 50.52   Q 86.15 50.37 86.62 50.54   Q 88.90 51.38 90.59 50.87   A 1.15 1.15 0.0 0 0 90.90 48.81"
       id="path200" />
    <path
       stroke="#7f6d59"
       vector-effect="non-scaling-stroke"
       d="   M 110.8627 60.8529   A 1.14 1.14 0.0 0 0 109.8285 59.6161   L 108.2946 59.4792   A 1.14 1.14 0.0 0 0 107.0578 60.5133   L 106.9173 62.0871   A 1.14 1.14 0.0 0 0 107.9515 63.3239   L 109.4854 63.4608   A 1.14 1.14 0.0 0 0 110.7222 62.4267   L 110.8627 60.8529"
       id="path202" />
    <path
       stroke="#7f6d59"
       vector-effect="non-scaling-stroke"
       d="   M 87.2748 62.4754   A 1.38 1.38 0.0 0 0 85.9216 61.0691   L 85.0217 61.0519   A 1.38 1.38 0.0 0 0 83.6155 62.4051   L 83.5652 65.0246   A 1.38 1.38 0.0 0 0 84.9184 66.4309   L 85.8183 66.4481   A 1.38 1.38 0.0 0 0 87.2245 65.0949   L 87.2748 62.4754"
       id="path204" />
    <path
       stroke="#7f6d59"
       vector-effect="non-scaling-stroke"
       d="   M 106.36 74.40   A 0.90 0.89 -10.4 0 1 105.55 75.57   C 104.76 75.62 96.17 76.73 96.50 77.85   A 2.00 1.53 76.8 0 0 98.29 79.32   L 106.75 78.22   Q 107.26 78.15 107.45 77.67   C 109.91 71.34 103.05 65.52 98.73 62.23   A 0.51 0.51 0.0 0 0 98.03 62.95   C 100.78 66.34 105.01 70.30 106.36 74.40"
       id="path206" />
    <path
       stroke="#7f6d59"
       vector-effect="non-scaling-stroke"
       d="   M 72.06 74.33   Q 68.90 83.35 73.23 91.73   A 0.36 0.35 -68.7 0 0 73.88 91.44   Q 70.94 83.09 73.35 74.51   Q 73.50 73.95 72.92 73.99   L 72.44 74.03   Q 72.15 74.05 72.06 74.33"
       id="path208" />
    <path
       stroke="#7f6d59"
       vector-effect="non-scaling-stroke"
       d="   M 57.20 79.90   L 55.39 81.75   A 1.38 1.34 69.4 0 0 55.01 82.62   Q 54.83 86.22 58.32 87.22   A 0.78 0.78 0.0 0 0 58.97 85.82   Q 57.99 85.17 57.75 84.02   A 1.23 1.21 60.5 0 1 58.03 82.97   L 59.28 81.55   A 2.18 2.18 0.0 0 0 58.81 78.27   C 57.64 77.53 53.15 74.43 52.19 75.05   A 0.51 0.51 0.0 0 0 52.21 75.92   L 57.03 78.66   A 0.79 0.78 -53.1 0 1 57.20 79.90"
       id="path210" />
    <path
       stroke="#7f6d59"
       vector-effect="non-scaling-stroke"
       d="   M 86.13 76.12   L 85.07 74.45   A 0.12 0.12 0.0 0 0 84.91 74.41   L 84.25 74.83   A 6.00 1.04 -32.4 0 0 79.74 78.92   L 79.81 79.04   A 6.00 1.04 -32.4 0 0 85.44 76.70   L 86.10 76.28   A 0.12 0.12 0.0 0 0 86.13 76.12"
       id="path212" />
    <path
       stroke="#7f6d59"
       vector-effect="non-scaling-stroke"
       d="   M 102.18 85.29   C 96.96 88.79 89.53 85.36 85.18 81.99   A 0.29 0.29 0.0 0 0 84.77 82.39   C 88.68 87.41 97.98 92.75 103.72 87.18   A 1.23 1.22 5.9 0 0 102.18 85.29"
       id="path214" />
    <path
       stroke="#3e90ba"
       vector-effect="non-scaling-stroke"
       d="   M 96.13 216.65   L 67.58 216.66"
       id="path216" />
    <path
       stroke="#bad4bc"
       vector-effect="non-scaling-stroke"
       d="   M 33.23 218.00   Q 30.56 217.40 27.90 218.00"
       id="path222" />
  </g>
  <path
     fill="#000000"
     d="   M 154.51 1.83   A 0.15 0.15 0.0 0 1 154.62 2.01   L 154.57 2.18   A 44.72 1.73 -74.0 0 1 140.58 44.69   L 140.52 44.67   A 44.72 1.73 -74.0 0 1 151.19 1.20   L 151.23 1.04   A 0.15 0.15 0.0 0 1 151.42 0.94   L 154.51 1.83   Z"
     id="path228" />
  <path
     fill="#000000"
     d="   M 171.75 31.86   C 176.11 21.93 180.71 12.26 187.24 3.09   A 0.70 0.70 0.0 0 1 188.47 3.72   C 185.21 13.75 179.04 22.64 173.12 31.39   Q 172.72 31.98 172.08 32.22   A 0.27 0.26 -87.9 0 1 171.75 31.86   Z"
     id="path230" />
  <rect
     fill="#000000"
     x="-0.70"
     y="-7.70"
     transform="translate(127.93,18.28) rotate(0.4)"
     width="1.40"
     height="15.40"
     rx="0.66"
     id="rect232" />
  <path
     fill="#000000"
     d="   M 180.94 150.18   Q 178.84 149.69 176.19 151.04   A 0.31 0.31 0.0 0 1 175.74 150.73   L 176.01 148.54   Q 176.09 147.92 175.47 148.01   Q 174.09 148.19 173.36 149.32   A 0.57 0.57 0.0 0 1 172.46 149.41   L 171.57 148.48   A 1.42 1.41 -52.9 0 0 169.30 148.80   Q 168.47 150.35 166.79 150.55   Q 166.18 150.61 166.21 150.00   C 166.40 146.97 166.43 144.06 167.41 141.11   C 169.62 134.46 171.74 129.11 171.73 121.97   A 0.98 0.98 0.0 0 0 170.45 121.04   C 168.74 121.60 168.01 123.09 168.07 124.92   Q 168.38 134.57 163.76 142.94   C 163.31 143.74 162.85 145.31 162.96 146.01   C 164.14 153.46 162.29 161.91 161.47 168.52   C 160.68 174.91 151.46 172.91 152.83 164.80   Q 156.20 144.91 155.56 124.77   Q 155.37 118.82 153.08 112.98   A 0.44 0.43 34.7 0 0 152.24 113.13   C 152.27 121.56 152.59 129.84 151.34 138.28   C 150.69 142.66 149.18 145.28 145.51 147.35   Q 145.03 147.62 144.83 148.14   Q 143.32 152.14 139.18 150.04   A 1.53 1.53 0.0 0 0 137.01 150.99   L 133.69 162.75   A 0.37 0.37 0.0 0 0 134.35 163.05   Q 136.40 159.99 138.11 156.73   A 1.49 1.49 0.0 0 1 140.81 156.85   L 142.04 159.82   A 0.95 0.95 0.0 0 0 143.54 160.18   L 149.00 155.45   A 1.67 1.67 0.0 0 1 151.76 156.61   Q 152.14 163.08 150.90 169.69   C 150.02 174.39 148.09 177.34 143.12 177.42   A 1.81 1.79 -61.1 0 0 142.21 177.69   C 137.93 180.34 130.70 185.39 124.48 183.78   Q 123.99 183.65 123.65 184.03   Q 116.77 191.56 112.57 198.31   Q 110.03 202.38 105.85 203.53   A 0.90 0.90 0.0 0 1 104.82 203.09   L 103.39 200.43   A 0.76 0.76 0.0 0 0 102.19 200.24   C 97.62 204.60 93.40 208.92 87.32 211.05   A 0.52 0.52 0.0 0 1 86.69 210.30   Q 91.88 201.07 94.57 190.50   Q 95.65 186.28 97.12 182.16   C 97.73 180.45 97.69 179.26 95.87 178.58   Q 94.12 177.93 93.57 179.70   L 91.91 184.98   Q 91.73 185.58 91.22 185.94   Q 89.27 187.34 86.72 187.40   A 0.98 0.98 0.0 0 0 86.10 189.11   Q 90.65 193.09 86.03 196.53   A 1.25 1.23 75.2 0 0 85.54 197.39   Q 85.41 198.54 86.36 199.23   A 0.89 0.89 0.0 0 1 86.70 200.21   Q 85.21 205.23 79.56 205.88   C 74.12 206.51 56.98 209.39 54.55 204.45   C 52.21 199.70 67.82 197.42 70.76 197.00   A 0.58 0.58 0.0 0 0 70.92 195.89   Q 63.27 192.53 56.39 187.54   C 51.36 183.89 47.57 178.01 43.52 173.10   A 0.52 0.52 0.0 0 0 42.66 173.17   Q 41.17 175.78 38.05 175.21   Q 37.22 175.06 37.46 175.87   C 40.50 186.17 43.13 196.03 48.01 206.09   C 36.83 205.60 31.78 178.99 30.88 170.80   Q 30.83 170.30 30.48 169.93   C 9.92 148.13 -1.66 118.86 0.95 88.67   C 1.93 77.34 2.62 65.06 4.57 54.65   C 5.56 49.34 7.67 35.83 12.10 32.88   C 22.51 25.97 35.87 29.26 46.89 34.18   C 49.50 35.35 50.85 37.79 53.49 39.29   Q 53.93 39.54 54.19 39.10   C 59.95 29.13 67.18 19.50 80.51 23.13   C 82.06 23.55 85.58 22.10 87.46 22.01   Q 102.45 21.32 111.53 33.68   C 115.00 38.39 116.64 42.58 115.80 48.42   C 114.98 54.08 116.00 60.40 116.56 66.02   A 0.61 0.60 -15.1 0 0 117.42 66.51   C 121.65 64.50 126.51 63.91 130.28 62.00   Q 137.00 58.60 143.10 54.19   C 146.12 52.00 149.35 48.74 152.56 46.12   A 1.06 1.06 0.0 0 1 153.51 45.91   C 158.64 47.27 157.04 51.18 155.36 54.46   A 0.54 0.54 0.0 0 0 156.18 55.13   L 166.98 46.47   Q 168.71 45.08 170.40 46.51   Q 171.21 47.20 173.29 47.12   Q 174.53 47.08 175.59 48.24   C 177.75 50.60 175.90 54.89 174.09 56.88   A 0.59 0.59 0.0 0 0 174.12 57.71   C 176.75 60.16 178.56 61.79 175.70 64.87   C 167.44 73.79 162.94 79.35 152.55 82.27   Q 145.70 84.19 139.09 86.76   A 0.92 0.92 0.0 0 0 138.87 88.36   Q 142.33 90.93 143.52 95.05   Q 143.66 95.51 144.13 95.50   Q 147.83 95.41 151.50 94.71   C 154.07 94.21 160.62 100.16 162.68 101.82   C 165.98 104.47 171.90 110.66 172.01 115.10   Q 172.02 115.59 172.49 115.74   C 180.41 118.23 182.28 122.62 179.64 130.53   Q 179.46 131.04 179.96 131.27   C 184.87 133.47 191.09 139.31 185.00 144.27   Q 181.49 147.12 180.94 150.18   Z   M 86.15 25.20   L 91.04 28.22   A 1.62 1.58 6.2 0 1 91.70 29.02   L 92.19 30.34   A 0.39 0.39 0.0 0 0 92.85 30.46   Q 96.58 26.27 101.37 28.92   A 0.28 0.28 0.0 0 0 101.66 28.44   C 99.73 27.13 87.41 21.62 85.95 24.47   A 0.56 0.55 -60.5 0 0 86.15 25.20   Z   M 57.18 60.12   Q 57.30 56.36 60.42 54.47   Q 60.93 54.16 60.93 53.57   L 60.93 52.86   A 0.50 0.50 0.0 0 0 60.18 52.43   L 57.54 53.99   A 0.37 0.37 0.0 0 1 57.00 53.79   C 55.90 50.70 59.00 49.61 60.71 47.92   Q 61.31 47.32 60.47 47.17   L 59.12 46.93   A 0.47 0.47 0.0 0 1 58.84 46.17   L 61.27 43.30   Q 61.52 42.99 61.23 42.73   C 59.74 41.44 62.26 39.79 62.93 38.85   Q 63.16 38.52 62.81 38.32   L 62.09 37.88   A 0.43 0.43 0.0 0 1 62.02 37.20   Q 66.80 32.59 73.77 31.75   Q 74.29 31.69 74.52 31.21   Q 74.75 30.75 74.23 30.75   L 67.01 30.75   A 0.30 0.30 0.0 0 1 66.92 30.16   Q 69.92 29.25 73.00 28.42   C 76.19 27.56 79.03 28.73 82.42 28.20   Q 82.91 28.12 83.39 28.23   L 85.94 28.82   Q 86.79 29.02 86.30 28.30   C 83.69 24.57 72.65 23.10 67.86 26.33   Q 67.45 26.60 67.73 27.00   Q 68.31 27.83 67.57 28.32   C 57.58 35.02 53.92 45.52 54.16 57.21   C 54.23 61.01 55.21 65.93 55.46 70.37   Q 55.49 70.86 55.84 71.21   L 58.35 73.72   Q 58.81 74.19 59.09 73.59   L 60.73 70.03   Q 60.91 69.66 60.58 69.39   C 57.51 66.90 59.26 62.63 60.94 59.94   A 0.47 0.46 -88.0 0 0 60.33 59.28   L 57.92 60.58   A 0.51 0.50 76.6 0 1 57.18 60.12   Z   M 64.00 45.84   L 63.72 47.71   A 1.20 1.20 0.0 0 0 63.92 48.57   Q 64.35 49.18 65.25 48.97   A 1.13 1.13 0.0 0 1 66.23 50.94   Q 64.37 52.46 63.49 53.98   A 0.43 0.43 0.0 0 0 64.22 54.44   Q 65.32 52.78 67.10 53.51   A 1.13 1.12 -57.6 0 1 67.50 55.31   Q 63.90 59.27 61.11 63.82   Q 60.73 64.42 61.39 64.70   Q 61.78 64.86 62.28 64.68   A 1.63 1.50 -77.5 0 1 63.80 67.29   Q 60.36 71.42 60.23 76.81   Q 60.21 77.50 59.67 77.07   C 56.50 74.56 53.55 70.19 48.77 72.23   Q 48.35 72.41 48.10 72.80   C 45.05 77.55 45.54 82.02 48.70 86.63   C 51.93 91.34 54.85 94.53 61.08 92.37   A 0.65 0.64 68.8 0 1 61.88 92.73   C 66.46 103.59 81.63 114.59 91.51 120.76   Q 91.88 120.99 92.22 120.73   L 98.07 116.34   A 0.49 0.48 26.8 0 0 97.78 115.47   Q 88.23 115.45 83.01 107.46   A 0.32 0.31 -38.6 0 1 83.06 107.07   L 83.28 106.84   Q 83.54 106.58 83.80 106.85   C 89.07 112.48 99.57 116.01 105.15 108.44   C 112.14 98.97 116.20 87.42 115.09 75.56   Q 113.88 62.52 113.65 49.50   A 1.29 1.29 0.0 0 0 112.42 48.23   L 105.93 47.92   A 1.03 1.03 0.0 0 1 105.18 46.24   C 107.97 42.84 110.60 45.34 114.03 45.52   Q 114.70 45.56 114.54 44.91   C 112.45 36.35 105.77 28.20 95.80 31.55   Q 91.16 33.11 86.16 30.48   A 1.44 1.44 0.0 0 0 84.07 31.97   Q 84.38 33.94 82.84 34.96   Q 82.39 35.26 81.88 35.11   C 76.61 33.64 64.48 34.11 64.90 41.84   Q 64.93 42.43 64.38 42.66   Q 63.40 43.08 62.72 43.93   Q 62.32 44.43 62.90 44.71   L 63.57 45.03   Q 64.08 45.27 64.00 45.84   Z   M 23.68 38.56   C 24.16 36.06 32.33 39.98 33.52 40.58   C 36.71 42.18 38.63 42.92 41.81 42.73   A 1.08 1.08 0.0 0 0 42.55 40.92   C 38.72 36.67 13.68 29.93 11.06 37.82   C 4.56 57.42 3.68 81.21 4.53 101.69   Q 4.99 112.88 6.75 117.76   Q 15.35 141.61 30.10 160.55   Q 31.75 162.66 31.85 159.98   Q 32.31 147.19 37.46 135.29   C 37.99 134.07 37.91 133.05 37.01 132.14   A 0.81 0.80 -59.5 0 0 35.67 132.49   C 35.17 134.24 33.43 139.81 31.04 139.77   C 29.48 139.75 28.53 137.66 26.73 139.18   A 0.78 0.77 57.7 0 1 25.52 138.90   C 23.88 135.28 23.19 132.15 24.60 128.13   C 26.21 123.51 29.72 116.40 30.21 111.77   A 0.67 0.67 0.0 0 0 28.97 111.35   C 26.69 115.13 23.74 121.34 20.61 123.31   C 15.88 126.31 9.98 123.18 9.22 117.55   Q 9.15 117.04 9.39 116.59   Q 12.26 111.11 15.82 106.05   C 18.16 102.74 16.64 101.80 16.31 98.39   Q 16.25 97.80 16.60 97.32   L 18.67 94.54   A 0.63 0.63 0.0 0 0 18.67 93.78   C 16.17 90.46 12.66 84.31 13.88 80.06   Q 14.02 79.58 13.87 79.10   C 12.47 74.56 9.12 69.83 12.86 65.55   C 16.40 61.52 21.87 57.52 26.41 54.77   A 1.32 1.32 0.0 0 0 26.91 53.08   Q 25.14 49.40 21.90 46.59   C 20.79 45.64 14.37 40.76 14.31 39.78   A 0.54 0.54 0.0 0 1 15.06 39.25   Q 23.37 42.74 30.34 48.42   C 32.83 50.45 35.04 53.59 37.67 56.01   Q 38.23 56.52 38.11 55.78   C 36.68 46.98 31.56 43.12 23.99 39.21   A 0.60 0.60 0.0 0 1 23.68 38.56   Z   M 52.81 41.44   Q 51.80 40.61 50.74 40.91   A 0.72 0.72 0.0 0 0 50.22 41.64   Q 50.34 44.28 51.24 46.75   Q 51.46 47.36 51.69 46.75   L 53.38 42.20   Q 53.54 41.79 53.17 41.56   Q 53.01 41.46 52.81 41.44   Z   M 50.59 48.06   C 49.60 48.55 49.29 62.10 49.28 62.47   C 49.22 64.03 49.97 65.45 50.24 67.04   Q 50.35 67.71 49.73 68.01   L 49.21 68.26   Q 47.62 69.02 49.32 69.47   C 51.28 69.99 52.62 70.02 52.12 67.49   Q 50.24 58.05 51.15 48.45   A 0.39 0.39 0.0 0 0 50.59 48.06   Z   M 153.47 71.94   A 0.45 0.45 0.0 0 1 153.10 71.12   C 160.69 66.47 169.97 59.33 173.84 51.08   A 1.31 1.31 0.0 0 0 172.51 49.22   Q 171.08 49.38 169.94 50.16   Q 169.41 50.53 169.22 49.91   L 168.83 48.67   Q 168.66 48.13 168.21 48.47   L 155.33 58.33   Q 154.90 58.65 154.37 58.68   L 151.46 58.85   A 1.71 1.66 21.3 0 0 150.44 59.28   C 148.60 60.95 137.14 70.62 135.17 69.30   A 0.41 0.40 43.5 0 1 135.15 68.64   C 137.31 66.98 157.97 51.29 153.90 48.26   A 1.14 1.14 0.0 0 0 152.32 48.47   Q 144.68 58.12 134.08 64.02   C 129.28 66.69 123.38 67.20 117.95 68.72   Q 116.96 69.00 117.14 70.01   Q 118.70 78.91 117.31 87.76   Q 117.22 88.33 117.76 88.53   Q 119.89 89.32 122.18 89.25   A 1.88 1.88 0.0 0 1 123.14 89.47   C 125.34 90.64 127.19 91.97 129.57 92.78   C 133.00 93.96 138.54 97.83 141.84 95.88   Q 142.22 95.65 142.06 95.24   Q 140.81 92.00 138.16 90.59   C 131.66 87.13 133.12 79.57 128.68 77.57   Q 128.11 77.31 128.55 76.87   L 128.76 76.67   A 0.84 0.84 0.0 0 1 129.83 76.56   Q 134.51 79.69 135.56 85.24   A 0.93 0.93 0.0 0 0 136.99 85.84   C 141.23 83.05 145.43 81.66 150.11 79.84   C 159.30 76.26 167.40 69.74 174.17 62.66   C 175.55 61.21 175.12 60.27 173.25 59.81   A 1.80 1.79 -59.2 0 0 171.61 60.23   C 165.75 65.53 161.22 69.59 153.47 71.94   Z   M 46.50 71.29   C 44.47 69.79 39.62 66.56 37.93 69.47   Q 34.39 75.55 37.17 81.81   Q 40.66 89.66 44.11 97.06   A 2.76 2.75 83.8 0 0 45.98 98.57   Q 56.45 101.01 64.79 107.76   Q 65.37 108.23 65.39 107.48   Q 65.46 101.88 61.88 97.65   Q 61.54 97.25 61.02 97.25   C 54.80 97.25 53.44 95.67 49.75 90.76   C 45.41 85.01 40.92 78.55 46.58 72.02   A 0.50 0.50 0.0 0 0 46.50 71.29   Z   M 132.72 98.03   Q 125.65 92.85 117.23 90.37   A 0.63 0.62 -72.0 0 0 116.47 90.76   C 114.95 94.92 114.38 98.81 111.59 102.83   Q 111.29 103.26 111.82 103.25   C 114.34 103.23 116.71 103.48 119.16 102.72   Q 126.02 100.59 132.61 98.62   Q 133.26 98.43 132.72 98.03   Z   M 134.47 104.79   C 132.28 102.50 128.16 104.30 125.87 105.32   A 0.43 0.43 0.0 0 0 125.85 106.09   Q 133.52 110.06 139.92 115.81   Q 140.47 116.30 140.30 115.58   Q 138.79 109.32 134.47 104.79   Z   M 128.31 139.94   C 125.84 138.37 112.67 130.03 110.43 125.36   A 0.62 0.62 0.0 0 1 111.37 124.61   L 118.41 130.05   A 1.34 1.34 0.0 0 0 120.38 129.67   L 125.06 121.66   Q 125.30 121.25 125.10 120.81   Q 124.30 119.12 123.32 118.15   Q 117.08 111.96 111.18 105.21   Q 110.78 104.75 110.43 105.25   L 106.58 110.72   A 1.17 1.15 58.0 0 0 106.38 111.61   C 109.58 129.76 109.98 151.42 104.60 169.19   C 101.47 179.52 98.42 194.35 91.00 206.30   A 0.25 0.25 0.0 0 0 91.35 206.64   C 98.74 201.46 102.46 196.20 107.58 187.46   Q 110.50 182.48 115.67 173.92   Q 122.90 161.97 129.74 143.70   Q 130.60 141.39 128.31 139.94   Z   M 88.85 122.03   Q 85.37 119.93 82.27 117.70   C 77.57 114.32 73.38 109.24 68.44 105.41   Q 67.90 104.99 67.80 105.67   C 67.44 108.21 68.53 109.56 69.47 111.69   Q 75.53 125.53 83.28 139.43   A 0.74 0.74 0.0 0 0 84.62 139.34   Q 86.05 135.70 86.54 131.47   C 86.93 128.18 87.92 125.81 89.16 122.99   A 0.77 0.76 27.5 0 0 88.85 122.03   Z   M 140.04 117.29   C 132.54 116.90 128.43 112.31 122.52 108.61   C 120.19 107.15 118.41 105.49 115.45 105.27   A 0.39 0.38 64.8 0 0 115.20 105.97   C 123.38 111.78 131.63 117.31 138.01 125.24   Q 138.48 125.83 138.77 125.14   Q 140.24 121.63 140.51 117.82   Q 140.54 117.32 140.04 117.29   Z   M 68.17 138.35   C 66.24 137.21 60.12 133.93 60.53 131.75   Q 62.18 122.80 63.19 113.74   C 63.37 112.11 62.98 110.59 61.02 110.81   A 0.65 0.65 0.0 0 0 60.44 111.50   Q 61.07 121.65 56.87 130.84   Q 56.62 131.39 56.15 131.78   L 54.23 133.40   Q 53.67 133.87 54.34 134.18   C 57.97 135.85 63.50 137.45 65.47 141.10   A 0.53 0.52 -34.0 0 0 66.27 141.25   L 68.27 139.57   Q 69.08 138.89 68.17 138.35   Z   M 99.60 118.64   L 94.95 121.59   Q 94.50 121.88 94.66 122.38   Q 95.26 124.40 95.95 125.05   Q 100.51 129.36 104.08 134.79   A 0.70 0.70 0.0 0 0 105.36 134.46   Q 106.23 124.09 104.08 113.99   A 0.55 0.54 56.1 0 0 103.09 113.79   L 100.26 118.00   Q 100.00 118.39 99.60 118.64   Z   M 90.17 133.31   Q 91.27 134.43 92.63 135.20   Q 93.24 135.54 93.37 134.86   L 94.89 127.17   Q 95.02 126.49 94.58 125.95   L 93.09 124.17   Q 91.83 122.65 90.96 124.43   Q 89.10 128.24 89.27 132.57   A 0.33 0.29 -73.7 0 0 89.37 132.78   Q 89.53 132.92 89.71 133.00   A 1.19 1.14 -10.0 0 1 90.17 133.31   Z   M 62.95 154.04   Q 75.11 161.68 87.36 168.26   C 91.48 170.48 94.55 172.85 97.70 175.93   A 0.62 0.62 0.0 0 0 98.72 175.69   L 100.94 169.50   Q 101.11 169.02 100.80 168.62   C 96.77 163.42 91.97 158.14 88.84 152.38   C 86.77 148.55 83.40 144.09 81.78 141.33   Q 78.55 135.85 75.51 130.45   A 0.66 0.66 0.0 0 0 74.28 130.78   C 74.27 139.15 68.17 146.84 62.78 152.69   Q 62.05 153.48 62.95 154.04   Z   M 98.58 131.29   Q 97.52 130.21 97.68 131.72   Q 98.01 134.91 96.95 137.97   A 0.67 0.67 0.0 0 0 97.46 138.84   Q 101.24 139.55 104.01 142.15   A 0.50 0.50 0.0 0 0 104.82 141.95   L 105.58 139.67   A 0.72 0.72 0.0 0 0 105.27 138.82   C 102.06 136.90 101.21 133.95 98.58 131.29   Z   M 89.47 147.43   Q 90.02 147.85 90.13 147.16   Q 90.73 143.22 92.29 139.55   A 0.93 0.92 -54.5 0 0 92.13 138.56   L 88.98 135.06   A 0.88 0.88 0.0 0 0 87.44 135.67   Q 87.51 138.89 86.13 141.71   Q 85.94 142.11 86.07 142.53   Q 86.98 145.55 89.47 147.43   Z   M 102.15 147.15   C 102.68 142.04 98.83 141.93 95.16 142.15   A 1.04 1.03 0.9 0 0 94.18 143.09   L 93.43 151.56   Q 93.39 151.95 93.59 152.29   C 95.94 156.48 99.22 159.31 101.58 162.66   Q 101.91 163.12 102.23 162.66   Q 103.51 160.82 103.02 158.73   Q 101.58 152.63 102.15 147.15   Z   M 49.66 159.75   C 52.67 156.00 47.63 151.92 44.92 149.66   Q 44.37 149.20 44.35 149.92   Q 44.15 155.58 43.40 161.21   Q 42.98 164.30 43.51 165.90   C 45.23 171.20 64.17 182.20 69.80 182.25   A 0.68 0.67 58.2 0 0 70.10 180.97   Q 66.13 179.02 63.31 176.69   C 62.29 175.85 54.43 168.15 54.29 165.12   A 1.24 1.24 0.0 0 1 56.09 163.96   L 62.17 167.07   Q 65.48 168.76 63.21 165.81   L 57.28 158.15   A 0.61 0.61 0.0 0 0 56.42 158.04   Q 53.85 160.09 50.88 161.36   A 1.04 1.04 0.0 0 1 49.66 159.75   Z   M 142.22 167.49   C 139.08 166.16 140.64 162.47 139.97 159.84   A 0.70 0.69 44.5 0 0 138.62 159.85   C 136.82 167.45 131.74 174.92 127.74 181.61   Q 127.36 182.24 128.10 182.29   C 132.07 182.55 147.70 171.99 148.50 168.01   Q 149.56 162.77 150.42 157.71   A 0.49 0.48 -21.7 0 0 149.55 157.34   Q 146.23 161.64 144.19 166.67   A 1.50 1.50 0.0 0 1 142.22 167.49   Z"
     id="path234" />
  <path
     fill="#f6f234"
     d="   M 86.15 25.20   A 0.56 0.55 -60.5 0 1 85.95 24.47   C 87.41 21.62 99.73 27.13 101.66 28.44   A 0.28 0.28 0.0 0 1 101.37 28.92   Q 96.58 26.27 92.85 30.46   A 0.39 0.39 0.0 0 1 92.19 30.34   L 91.70 29.02   A 1.62 1.58 6.2 0 0 91.04 28.22   L 86.15 25.20   Z"
     id="path236" />
  <path
     fill="#f6f234"
     d="   M 57.92 60.58   L 60.33 59.28   A 0.47 0.46 -88.0 0 1 60.94 59.94   C 59.26 62.63 57.51 66.90 60.58 69.39   Q 60.91 69.66 60.73 70.03   L 59.09 73.59   Q 58.81 74.19 58.35 73.72   L 55.84 71.21   Q 55.49 70.86 55.46 70.37   C 55.21 65.93 54.23 61.01 54.16 57.21   C 53.92 45.52 57.58 35.02 67.57 28.32   Q 68.31 27.83 67.73 27.00   Q 67.45 26.60 67.86 26.33   C 72.65 23.10 83.69 24.57 86.30 28.30   Q 86.79 29.02 85.94 28.82   L 83.39 28.23   Q 82.91 28.12 82.42 28.20   C 79.03 28.73 76.19 27.56 73.00 28.42   Q 69.92 29.25 66.92 30.16   A 0.30 0.30 0.0 0 0 67.01 30.75   L 74.23 30.75   Q 74.75 30.75 74.52 31.21   Q 74.29 31.69 73.77 31.75   Q 66.80 32.59 62.02 37.20   A 0.43 0.43 0.0 0 0 62.09 37.88   L 62.81 38.32   Q 63.16 38.52 62.93 38.85   C 62.26 39.79 59.74 41.44 61.23 42.73   Q 61.52 42.99 61.27 43.30   L 58.84 46.17   A 0.47 0.47 0.0 0 0 59.12 46.93   L 60.47 47.17   Q 61.31 47.32 60.71 47.92   C 59.00 49.61 55.90 50.70 57.00 53.79   A 0.37 0.37 0.0 0 0 57.54 53.99   L 60.18 52.43   A 0.50 0.50 0.0 0 1 60.93 52.86   L 60.93 53.57   Q 60.93 54.16 60.42 54.47   Q 57.30 56.36 57.18 60.12   A 0.51 0.50 76.6 0 0 57.92 60.58   Z"
     id="path238" />
  <path
     fill="#fdd9b2"
     d="   M 63.57 45.03   L 62.90 44.71   Q 62.32 44.43 62.72 43.93   Q 63.40 43.08 64.38 42.66   Q 64.93 42.43 64.90 41.84   C 64.48 34.11 76.61 33.64 81.88 35.11   Q 82.39 35.26 82.84 34.96   Q 84.38 33.94 84.07 31.97   A 1.44 1.44 0.0 0 1 86.16 30.48   Q 91.16 33.11 95.80 31.55   C 105.77 28.20 112.45 36.35 114.54 44.91   Q 114.70 45.56 114.03 45.52   C 110.60 45.34 107.97 42.84 105.18 46.24   A 1.03 1.03 0.0 0 0 105.93 47.92   L 112.42 48.23   A 1.29 1.29 0.0 0 1 113.65 49.50   Q 113.88 62.52 115.09 75.56   C 116.20 87.42 112.14 98.97 105.15 108.44   C 99.57 116.01 89.07 112.48 83.80 106.85   Q 83.54 106.58 83.28 106.84   L 83.06 107.07   A 0.32 0.31 -38.6 0 0 83.01 107.46   Q 88.23 115.45 97.78 115.47   A 0.49 0.48 26.8 0 1 98.07 116.34   L 92.22 120.73   Q 91.88 120.99 91.51 120.76   C 81.63 114.59 66.46 103.59 61.88 92.73   A 0.65 0.64 68.8 0 0 61.08 92.37   C 54.85 94.53 51.93 91.34 48.70 86.63   C 45.54 82.02 45.05 77.55 48.10 72.80   Q 48.35 72.41 48.77 72.23   C 53.55 70.19 56.50 74.56 59.67 77.07   Q 60.21 77.50 60.23 76.81   Q 60.36 71.42 63.80 67.29   A 1.63 1.50 -77.5 0 0 62.28 64.68   Q 61.78 64.86 61.39 64.70   Q 60.73 64.42 61.11 63.82   Q 63.90 59.27 67.50 55.31   A 1.13 1.12 -57.6 0 0 67.10 53.51   Q 65.32 52.78 64.22 54.44   A 0.43 0.43 0.0 0 1 63.49 53.98   Q 64.37 52.46 66.23 50.94   A 1.13 1.13 0.0 0 0 65.25 48.97   Q 64.35 49.18 63.92 48.57   A 1.20 1.20 0.0 0 1 63.72 47.71   L 64.00 45.84   Q 64.08 45.27 63.57 45.03   Z   M 90.90 48.81   C 84.16 44.30 76.77 50.55 75.07 56.61   A 1.17 1.17 0.0 0 0 77.22 57.48   Q 79.99 52.30 85.68 50.52   Q 86.15 50.37 86.62 50.54   Q 88.90 51.38 90.59 50.87   A 1.15 1.15 0.0 0 0 90.90 48.81   Z   M 110.8627 60.8529   A 1.14 1.14 0.0 0 0 109.8285 59.6161   L 108.2946 59.4792   A 1.14 1.14 0.0 0 0 107.0578 60.5133   L 106.9173 62.0871   A 1.14 1.14 0.0 0 0 107.9515 63.3239   L 109.4854 63.4608   A 1.14 1.14 0.0 0 0 110.7222 62.4267   L 110.8627 60.8529   Z   M 87.2748 62.4754   A 1.38 1.38 0.0 0 0 85.9216 61.0691   L 85.0217 61.0519   A 1.38 1.38 0.0 0 0 83.6155 62.4051   L 83.5652 65.0246   A 1.38 1.38 0.0 0 0 84.9184 66.4309   L 85.8183 66.4481   A 1.38 1.38 0.0 0 0 87.2245 65.0949   L 87.2748 62.4754   Z   M 106.36 74.40   A 0.90 0.89 -10.4 0 1 105.55 75.57   C 104.76 75.62 96.17 76.73 96.50 77.85   A 2.00 1.53 76.8 0 0 98.29 79.32   L 106.75 78.22   Q 107.26 78.15 107.45 77.67   C 109.91 71.34 103.05 65.52 98.73 62.23   A 0.51 0.51 0.0 0 0 98.03 62.95   C 100.78 66.34 105.01 70.30 106.36 74.40   Z   M 72.06 74.33   Q 68.90 83.35 73.23 91.73   A 0.36 0.35 -68.7 0 0 73.88 91.44   Q 70.94 83.09 73.35 74.51   Q 73.50 73.95 72.92 73.99   L 72.44 74.03   Q 72.15 74.05 72.06 74.33   Z   M 57.20 79.90   L 55.39 81.75   A 1.38 1.34 69.4 0 0 55.01 82.62   Q 54.83 86.22 58.32 87.22   A 0.78 0.78 0.0 0 0 58.97 85.82   Q 57.99 85.17 57.75 84.02   A 1.23 1.21 60.5 0 1 58.03 82.97   L 59.28 81.55   A 2.18 2.18 0.0 0 0 58.81 78.27   C 57.64 77.53 53.15 74.43 52.19 75.05   A 0.51 0.51 0.0 0 0 52.21 75.92   L 57.03 78.66   A 0.79 0.78 -53.1 0 1 57.20 79.90   Z   M 86.13 76.12   L 85.07 74.45   A 0.12 0.12 0.0 0 0 84.91 74.41   L 84.25 74.83   A 6.00 1.04 -32.4 0 0 79.74 78.92   L 79.81 79.04   A 6.00 1.04 -32.4 0 0 85.44 76.70   L 86.10 76.28   A 0.12 0.12 0.0 0 0 86.13 76.12   Z   M 102.18 85.29   C 96.96 88.79 89.53 85.36 85.18 81.99   A 0.29 0.29 0.0 0 0 84.77 82.39   C 88.68 87.41 97.98 92.75 103.72 87.18   A 1.23 1.22 5.9 0 0 102.18 85.29   Z"
     id="path240" />
  <path
     fill="#0777fb"
     d="   M 23.68 38.56   A 0.60 0.60 0.0 0 0 23.99 39.21   C 31.56 43.12 36.68 46.98 38.11 55.78   Q 38.23 56.52 37.67 56.01   C 35.04 53.59 32.83 50.45 30.34 48.42   Q 23.37 42.74 15.06 39.25   A 0.54 0.54 0.0 0 0 14.31 39.78   C 14.37 40.76 20.79 45.64 21.90 46.59   Q 25.14 49.40 26.91 53.08   A 1.32 1.32 0.0 0 1 26.41 54.77   C 21.87 57.52 16.40 61.52 12.86 65.55   C 9.12 69.83 12.47 74.56 13.87 79.10   Q 14.02 79.58 13.88 80.06   C 12.66 84.31 16.17 90.46 18.67 93.78   A 0.63 0.63 0.0 0 1 18.67 94.54   L 16.60 97.32   Q 16.25 97.80 16.31 98.39   C 16.64 101.80 18.16 102.74 15.82 106.05   Q 12.26 111.11 9.39 116.59   Q 9.15 117.04 9.22 117.55   C 9.98 123.18 15.88 126.31 20.61 123.31   C 23.74 121.34 26.69 115.13 28.97 111.35   A 0.67 0.67 0.0 0 1 30.21 111.77   C 29.72 116.40 26.21 123.51 24.60 128.13   C 23.19 132.15 23.88 135.28 25.52 138.90   A 0.78 0.77 57.7 0 0 26.73 139.18   C 28.53 137.66 29.48 139.75 31.04 139.77   C 33.43 139.81 35.17 134.24 35.67 132.49   A 0.81 0.80 -59.5 0 1 37.01 132.14   C 37.91 133.05 37.99 134.07 37.46 135.29   Q 32.31 147.19 31.85 159.98   Q 31.75 162.66 30.10 160.55   Q 15.35 141.61 6.75 117.76   Q 4.99 112.88 4.53 101.69   C 3.68 81.21 4.56 57.42 11.06 37.82   C 13.68 29.93 38.72 36.67 42.55 40.92   A 1.08 1.08 0.0 0 1 41.81 42.73   C 38.63 42.92 36.71 42.18 33.52 40.58   C 32.33 39.98 24.16 36.06 23.68 38.56   Z"
     id="path242" />
  <path
     fill="#ffffff"
     d="   M 52.81 41.44   Q 53.01 41.46 53.17 41.56   Q 53.54 41.79 53.38 42.20   L 51.69 46.75   Q 51.46 47.36 51.24 46.75   Q 50.34 44.28 50.22 41.64   A 0.72 0.72 0.0 0 1 50.74 40.91   Q 51.80 40.61 52.81 41.44   Z"
     id="path244" />
  <path
     fill="#000000"
     d="   M 90.90 48.81   A 1.15 1.15 0.0 0 1 90.59 50.87   Q 88.90 51.38 86.62 50.54   Q 86.15 50.37 85.68 50.52   Q 79.99 52.30 77.22 57.48   A 1.17 1.17 0.0 0 1 75.07 56.61   C 76.77 50.55 84.16 44.30 90.90 48.81   Z"
     id="path246" />
  <path
     fill="#ffffff"
     d="   M 49.28 62.47   C 49.29 62.10 49.60 48.55 50.59 48.06   A 0.39 0.39 0.0 0 1 51.15 48.45   Q 50.24 58.05 52.12 67.49   C 52.62 70.02 51.28 69.99 49.32 69.47   Q 47.62 69.02 49.21 68.26   L 49.73 68.01   Q 50.35 67.71 50.24 67.04   C 49.97 65.45 49.22 64.03 49.28 62.47   Z"
     id="path248" />
  <path
     fill="#fdd9b2"
     d="   M 153.47 71.94   C 161.22 69.59 165.75 65.53 171.61 60.23   A 1.80 1.79 -59.2 0 1 173.25 59.81   C 175.12 60.27 175.55 61.21 174.17 62.66   C 167.40 69.74 159.30 76.26 150.11 79.84   C 145.43 81.66 141.23 83.05 136.99 85.84   A 0.93 0.93 0.0 0 1 135.56 85.24   Q 134.51 79.69 129.83 76.56   A 0.84 0.84 0.0 0 0 128.76 76.67   L 128.55 76.87   Q 128.11 77.31 128.68 77.57   C 133.12 79.57 131.66 87.13 138.16 90.59   Q 140.81 92.00 142.06 95.24   Q 142.22 95.65 141.84 95.88   C 138.54 97.83 133.00 93.96 129.57 92.78   C 127.19 91.97 125.34 90.64 123.14 89.47   A 1.88 1.88 0.0 0 0 122.18 89.25   Q 119.89 89.32 117.76 88.53   Q 117.22 88.33 117.31 87.76   Q 118.70 78.91 117.14 70.01   Q 116.96 69.00 117.95 68.72   C 123.38 67.20 129.28 66.69 134.08 64.02   Q 144.68 58.12 152.32 48.47   A 1.14 1.14 0.0 0 1 153.90 48.26   C 157.97 51.29 137.31 66.98 135.15 68.64   A 0.41 0.40 43.5 0 0 135.17 69.30   C 137.14 70.62 148.60 60.95 150.44 59.28   A 1.71 1.66 21.3 0 1 151.46 58.85   L 154.37 58.68   Q 154.90 58.65 155.33 58.33   L 168.21 48.47   Q 168.66 48.13 168.83 48.67   L 169.22 49.91   Q 169.41 50.53 169.94 50.16   Q 171.08 49.38 172.51 49.22   A 1.31 1.31 0.0 0 1 173.84 51.08   C 169.97 59.33 160.69 66.47 153.10 71.12   A 0.45 0.45 0.0 0 0 153.47 71.94   Z"
     id="path250" />
  <rect
     fill="#000000"
     x="-1.91"
     y="-1.93"
     transform="translate(108.89,61.47) rotate(5.1)"
     width="3.82"
     height="3.86"
     rx="1.14"
     id="rect252" />
  <rect
     fill="#000000"
     x="-1.83"
     y="-2.69"
     transform="translate(85.42,63.75) rotate(1.1)"
     width="3.66"
     height="5.38"
     rx="1.38"
     id="rect254" />
  <path
     fill="#000000"
     d="   M 106.36 74.40   C 105.01 70.30 100.78 66.34 98.03 62.95   A 0.51 0.51 0.0 0 1 98.73 62.23   C 103.05 65.52 109.91 71.34 107.45 77.67   Q 107.26 78.15 106.75 78.22   L 98.29 79.32   A 2.00 1.53 76.8 0 1 96.50 77.85   C 96.17 76.73 104.76 75.62 105.55 75.57   A 0.90 0.89 -10.4 0 0 106.36 74.40   Z"
     id="path256" />
  <rect
     fill="#000000"
     x="-18.92"
     y="-0.83"
     transform="translate(211.93,65.43) rotate(-3.1)"
     width="37.84"
     height="1.66"
     rx="0.81"
     id="rect258" />
  <path
     fill="#ffffff"
     d="   M 46.50 71.29   A 0.50 0.50 0.0 0 1 46.58 72.02   C 40.92 78.55 45.41 85.01 49.75 90.76   C 53.44 95.67 54.80 97.25 61.02 97.25   Q 61.54 97.25 61.88 97.65   Q 65.46 101.88 65.39 107.48   Q 65.37 108.23 64.79 107.76   Q 56.45 101.01 45.98 98.57   A 2.76 2.75 83.8 0 1 44.11 97.06   Q 40.66 89.66 37.17 81.81   Q 34.39 75.55 37.93 69.47   C 39.62 66.56 44.47 69.79 46.50 71.29   Z"
     id="path260" />
  <path
     fill="#000000"
     d="   M 72.06 74.33   Q 72.15 74.05 72.44 74.03   L 72.92 73.99   Q 73.50 73.95 73.35 74.51   Q 70.94 83.09 73.88 91.44   A 0.36 0.35 -68.7 0 1 73.23 91.73   Q 68.90 83.35 72.06 74.33   Z"
     id="path262" />
  <path
     fill="#000000"
     d="   M 57.20 79.90   A 0.79 0.78 -53.1 0 0 57.03 78.66   L 52.21 75.92   A 0.51 0.51 0.0 0 1 52.19 75.05   C 53.15 74.43 57.64 77.53 58.81 78.27   A 2.18 2.18 0.0 0 1 59.28 81.55   L 58.03 82.97   A 1.23 1.21 60.5 0 0 57.75 84.02   Q 57.99 85.17 58.97 85.82   A 0.78 0.78 0.0 0 1 58.32 87.22   Q 54.83 86.22 55.01 82.62   A 1.38 1.34 69.4 0 1 55.39 81.75   L 57.20 79.90   Z"
     id="path264" />
  <path
     fill="#000000"
     d="   M 86.13 76.12   A 0.12 0.12 0.0 0 1 86.10 76.28   L 85.44 76.70   A 6.00 1.04 -32.4 0 1 79.81 79.04   L 79.74 78.92   A 6.00 1.04 -32.4 0 1 84.25 74.83   L 84.91 74.41   A 0.12 0.12 0.0 0 1 85.07 74.45   L 86.13 76.12   Z"
     id="path266" />
  <path
     fill="#000000"
     d="   M 210.76 90.51   C 214.03 91.71 224.58 94.55 224.99 98.68   A 1.28 1.28 0.0 0 1 223.27 100.00   Q 199.93 91.39 176.39 82.69   C 175.00 82.17 173.64 81.09 172.38 80.28   A 0.87 0.87 0.0 0 1 172.70 78.69   Q 174.97 78.30 177.54 79.13   Q 194.25 84.51 210.76 90.51   Z"
     id="path268" />
  <path
     fill="#000000"
     d="   M 85.18 81.99   C 89.53 85.36 96.96 88.79 102.18 85.29   A 1.23 1.22 5.9 0 1 103.72 87.18   C 97.98 92.75 88.68 87.41 84.77 82.39   A 0.29 0.29 0.0 0 1 85.18 81.99   Z"
     id="path270" />
  <path
     fill="#000000"
     d="   M 214.24 119.64   A 0.43 0.43 0.0 0 1 214.21 120.39   C 212.97 121.05 203.27 116.66 200.77 116.25   Q 193.40 115.04 187.24 110.91   C 181.87 107.31 175.33 104.12 170.79 99.57   C 167.12 95.88 162.89 93.70 158.76 90.72   A 0.57 0.57 0.0 0 1 159.26 89.72   C 161.01 90.27 163.16 90.55 164.79 91.38   Q 189.91 104.06 214.24 119.64   Z"
     id="path272" />
  <path
     fill="#ffffff"
     d="   M 132.72 98.03   Q 133.26 98.43 132.61 98.62   Q 126.02 100.59 119.16 102.72   C 116.71 103.48 114.34 103.23 111.82 103.25   Q 111.29 103.26 111.59 102.83   C 114.38 98.81 114.95 94.92 116.47 90.76   A 0.63 0.62 -72.0 0 1 117.23 90.37   Q 125.65 92.85 132.72 98.03   Z"
     id="path274" />
  <path
     fill="#0777fb"
     d="   M 134.47 104.79   Q 138.79 109.32 140.30 115.58   Q 140.47 116.30 139.92 115.81   Q 133.52 110.06 125.85 106.09   A 0.43 0.43 0.0 0 1 125.87 105.32   C 128.16 104.30 132.28 102.50 134.47 104.79   Z"
     id="path276" />
  <path
     fill="#0777fb"
     d="   M 128.31 139.94   Q 130.60 141.39 129.74 143.70   Q 122.90 161.97 115.67 173.92   Q 110.50 182.48 107.58 187.46   C 102.46 196.20 98.74 201.46 91.35 206.64   A 0.25 0.25 0.0 0 1 91.00 206.30   C 98.42 194.35 101.47 179.52 104.60 169.19   C 109.98 151.42 109.58 129.76 106.38 111.61   A 1.17 1.15 58.0 0 1 106.58 110.72   L 110.43 105.25   Q 110.78 104.75 111.18 105.21   Q 117.08 111.96 123.32 118.15   Q 124.30 119.12 125.10 120.81   Q 125.30 121.25 125.06 121.66   L 120.38 129.67   A 1.34 1.34 0.0 0 1 118.41 130.05   L 111.37 124.61   A 0.62 0.62 0.0 0 0 110.43 125.36   C 112.67 130.03 125.84 138.37 128.31 139.94   Z"
     id="path278" />
  <path
     fill="#ffffff"
     d="   M 88.85 122.03   A 0.77 0.76 27.5 0 1 89.16 122.99   C 87.92 125.81 86.93 128.18 86.54 131.47   Q 86.05 135.70 84.62 139.34   A 0.74 0.74 0.0 0 1 83.28 139.43   Q 75.53 125.53 69.47 111.69   C 68.53 109.56 67.44 108.21 67.80 105.67   Q 67.90 104.99 68.44 105.41   C 73.38 109.24 77.57 114.32 82.27 117.70   Q 85.37 119.93 88.85 122.03   Z"
     id="path280" />
  <path
     fill="#0777fb"
     d="   M 122.52 108.61   C 128.43 112.31 132.54 116.90 140.04 117.29   Q 140.54 117.32 140.51 117.82   Q 140.24 121.63 138.77 125.14   Q 138.48 125.83 138.01 125.24   C 131.63 117.31 123.38 111.78 115.20 105.97   A 0.39 0.38 64.8 0 1 115.45 105.27   C 118.41 105.49 120.19 107.15 122.52 108.61   Z"
     id="path282" />
  <path
     fill="#0777fb"
     d="   M 68.17 138.35   Q 69.08 138.89 68.27 139.57   L 66.27 141.25   A 0.53 0.52 -34.0 0 1 65.47 141.10   C 63.50 137.45 57.97 135.85 54.34 134.18   Q 53.67 133.87 54.23 133.40   L 56.15 131.78   Q 56.62 131.39 56.87 130.84   Q 61.07 121.65 60.44 111.50   A 0.65 0.65 0.0 0 1 61.02 110.81   C 62.98 110.59 63.37 112.11 63.19 113.74   Q 62.18 122.80 60.53 131.75   C 60.12 133.93 66.24 137.21 68.17 138.35   Z"
     id="path284" />
  <path
     fill="#0777fb"
     d="   M 180.94 150.18   C 182.24 158.00 173.84 161.03 170.11 166.81   C 165.61 173.80 158.22 182.68 149.92 185.51   Q 140.80 188.62 132.13 192.79   C 127.46 195.03 122.29 198.79 117.04 201.38   Q 116.59 201.60 116.33 202.03   C 114.09 205.79 111.98 209.54 108.01 211.71   Q 102.47 214.74 96.13 216.65   L 67.58 216.66   Q 54.53 213.02 48.01 206.09   C 43.13 196.03 40.50 186.17 37.46 175.87   Q 37.22 175.06 38.05 175.21   Q 41.17 175.78 42.66 173.17   A 0.52 0.52 0.0 0 1 43.52 173.10   C 47.57 178.01 51.36 183.89 56.39 187.54   Q 63.27 192.53 70.92 195.89   A 0.58 0.58 0.0 0 1 70.76 197.00   C 67.82 197.42 52.21 199.70 54.55 204.45   C 56.98 209.39 74.12 206.51 79.56 205.88   Q 85.21 205.23 86.70 200.21   A 0.89 0.89 0.0 0 0 86.36 199.23   Q 85.41 198.54 85.54 197.39   A 1.25 1.23 75.2 0 1 86.03 196.53   Q 90.65 193.09 86.10 189.11   A 0.98 0.98 0.0 0 1 86.72 187.40   Q 89.27 187.34 91.22 185.94   Q 91.73 185.58 91.91 184.98   L 93.57 179.70   Q 94.12 177.93 95.87 178.58   C 97.69 179.26 97.73 180.45 97.12 182.16   Q 95.65 186.28 94.57 190.50   Q 91.88 201.07 86.69 210.30   A 0.52 0.52 0.0 0 0 87.32 211.05   C 93.40 208.92 97.62 204.60 102.19 200.24   A 0.76 0.76 0.0 0 1 103.39 200.43   L 104.82 203.09   A 0.90 0.90 0.0 0 0 105.85 203.53   Q 110.03 202.38 112.57 198.31   Q 116.77 191.56 123.65 184.03   Q 123.99 183.65 124.48 183.78   C 130.70 185.39 137.93 180.34 142.21 177.69   A 1.81 1.79 -61.1 0 1 143.12 177.42   C 148.09 177.34 150.02 174.39 150.90 169.69   Q 152.14 163.08 151.76 156.61   A 1.67 1.67 0.0 0 0 149.00 155.45   L 143.54 160.18   A 0.95 0.95 0.0 0 1 142.04 159.82   L 140.81 156.85   A 1.49 1.49 0.0 0 0 138.11 156.73   Q 136.40 159.99 134.35 163.05   A 0.37 0.37 0.0 0 1 133.69 162.75   L 137.01 150.99   A 1.53 1.53 0.0 0 1 139.18 150.04   Q 143.32 152.14 144.83 148.14   Q 145.03 147.62 145.51 147.35   C 149.18 145.28 150.69 142.66 151.34 138.28   C 152.59 129.84 152.27 121.56 152.24 113.13   A 0.44 0.43 34.7 0 1 153.08 112.98   Q 155.37 118.82 155.56 124.77   Q 156.20 144.91 152.83 164.80   C 151.46 172.91 160.68 174.91 161.47 168.52   C 162.29 161.91 164.14 153.46 162.96 146.01   C 162.85 145.31 163.31 143.74 163.76 142.94   Q 168.38 134.57 168.07 124.92   C 168.01 123.09 168.74 121.60 170.45 121.04   A 0.98 0.98 0.0 0 1 171.73 121.97   C 171.74 129.11 169.62 134.46 167.41 141.11   C 166.43 144.06 166.40 146.97 166.21 150.00   Q 166.18 150.61 166.79 150.55   Q 168.47 150.35 169.30 148.80   A 1.42 1.41 -52.9 0 1 171.57 148.48   L 172.46 149.41   A 0.57 0.57 0.0 0 0 173.36 149.32   Q 174.09 148.19 175.47 148.01   Q 176.09 147.92 176.01 148.54   L 175.74 150.73   A 0.31 0.31 0.0 0 0 176.19 151.04   Q 178.84 149.69 180.94 150.18   Z"
     id="path286" />
  <path
     fill="#ffffff"
     d="   M 100.26 118.00   L 103.09 113.79   A 0.55 0.54 56.1 0 1 104.08 113.99   Q 106.23 124.09 105.36 134.46   A 0.70 0.70 0.0 0 1 104.08 134.79   Q 100.51 129.36 95.95 125.05   Q 95.26 124.40 94.66 122.38   Q 94.50 121.88 94.95 121.59   L 99.60 118.64   Q 100.00 118.39 100.26 118.00   Z"
     id="path288" />
  <path
     fill="#e80906"
     d="   M 89.71 133.00   Q 89.53 132.92 89.37 132.78   A 0.33 0.29 -73.7 0 1 89.27 132.57   Q 89.10 128.24 90.96 124.43   Q 91.83 122.65 93.09 124.17   L 94.58 125.95   Q 95.02 126.49 94.89 127.17   L 93.37 134.86   Q 93.24 135.54 92.63 135.20   Q 91.27 134.43 90.17 133.31   A 1.19 1.14 -10.0 0 0 89.71 133.00   Z"
     id="path290" />
  <path
     fill="#0777fb"
     d="   M 62.95 154.04   Q 62.05 153.48 62.78 152.69   C 68.17 146.84 74.27 139.15 74.28 130.78   A 0.66 0.66 0.0 0 1 75.51 130.45   Q 78.55 135.85 81.78 141.33   C 83.40 144.09 86.77 148.55 88.84 152.38   C 91.97 158.14 96.77 163.42 100.80 168.62   Q 101.11 169.02 100.94 169.50   L 98.72 175.69   A 0.62 0.62 0.0 0 1 97.70 175.93   C 94.55 172.85 91.48 170.48 87.36 168.26   Q 75.11 161.68 62.95 154.04   Z"
     id="path292" />
  <path
     fill="#ffffff"
     d="   M 98.58 131.29   C 101.21 133.95 102.06 136.90 105.27 138.82   A 0.72 0.72 0.0 0 1 105.58 139.67   L 104.82 141.95   A 0.50 0.50 0.0 0 1 104.01 142.15   Q 101.24 139.55 97.46 138.84   A 0.67 0.67 0.0 0 1 96.95 137.97   Q 98.01 134.91 97.68 131.72   Q 97.52 130.21 98.58 131.29   Z"
     id="path294" />
  <path
     fill="#ffffff"
     d="   M 89.47 147.43   Q 86.98 145.55 86.07 142.53   Q 85.94 142.11 86.13 141.71   Q 87.51 138.89 87.44 135.67   A 0.88 0.88 0.0 0 1 88.98 135.06   L 92.13 138.56   A 0.93 0.92 -54.5 0 1 92.29 139.55   Q 90.73 143.22 90.13 147.16   Q 90.02 147.85 89.47 147.43   Z"
     id="path296" />
  <path
     fill="#e80906"
     d="   M 95.16 142.15   C 98.83 141.93 102.68 142.04 102.15 147.15   Q 101.58 152.63 103.02 158.73   Q 103.51 160.82 102.23 162.66   Q 101.91 163.12 101.58 162.66   C 99.22 159.31 95.94 156.48 93.59 152.29   Q 93.39 151.95 93.43 151.56   L 94.18 143.09   A 1.04 1.03 0.9 0 1 95.16 142.15   Z"
     id="path298" />
  <path
     fill="#0777fb"
     d="   M 49.66 159.75   A 1.04 1.04 0.0 0 0 50.88 161.36   Q 53.85 160.09 56.42 158.04   A 0.61 0.61 0.0 0 1 57.28 158.15   L 63.21 165.81   Q 65.48 168.76 62.17 167.07   L 56.09 163.96   A 1.24 1.24 0.0 0 0 54.29 165.12   C 54.43 168.15 62.29 175.85 63.31 176.69   Q 66.13 179.02 70.10 180.97   A 0.68 0.67 58.2 0 1 69.80 182.25   C 64.17 182.20 45.23 171.20 43.51 165.90   Q 42.98 164.30 43.40 161.21   Q 44.15 155.58 44.35 149.92   Q 44.37 149.20 44.92 149.66   C 47.63 151.92 52.67 156.00 49.66 159.75   Z"
     id="path300" />
  <path
     fill="#ffffff"
     d="   M 142.22 167.49   A 1.50 1.50 0.0 0 0 144.19 166.67   Q 146.23 161.64 149.55 157.34   A 0.49 0.48 -21.7 0 1 150.42 157.71   Q 149.56 162.77 148.50 168.01   C 147.70 171.99 132.07 182.55 128.10 182.29   Q 127.36 182.24 127.74 181.61   C 131.74 174.92 136.82 167.45 138.62 159.85   A 0.70 0.69 44.5 0 1 139.97 159.84   C 140.64 162.47 139.08 166.16 142.22 167.49   Z"
     id="path302" />
</svg>
