<svg xmlns="http://www.w3.org/2000/svg" xmlns:xlink="http://www.w3.org/1999/xlink" width="1080" zoomAndPan="magnify" viewBox="0 0 810 809.999993" height="1080" preserveAspectRatio="xMidYMid meet" version="1.0"><path fill="#e8272d" d="M 224.632812 797.375 L 12.605469 585.347656 C 4.53125 577.273438 0 566.328125 0 554.914062 L 0 255.066406 C 0 243.652344 4.53125 232.707031 12.605469 224.632812 L 224.632812 12.605469 C 232.707031 4.53125 243.652344 0 255.066406 0 L 554.914062 0 C 566.335938 0 577.273438 4.53125 585.347656 12.605469 L 797.375 224.632812 C 805.449219 232.707031 809.980469 243.652344 809.980469 255.066406 L 809.980469 554.914062 C 809.980469 566.328125 805.449219 577.273438 797.375 585.347656 L 585.347656 797.375 C 577.273438 805.441406 566.335938 809.980469 554.914062 809.980469 L 255.066406 809.980469 C 243.652344 809.980469 232.707031 805.441406 224.632812 797.375 " fill-opacity="1" fill-rule="nonzero"/><path fill="#ffffff" d="M 759.960938 538.308594 C 759.960938 547.109375 756.460938 555.476562 750.28125 561.703125 L 561.695312 750.289062 C 560.914062 751.070312 560.140625 751.75 559.3125 752.429688 C 553.476562 757.292969 546.035156 759.96875 538.347656 759.96875 L 271.65625 759.96875 C 262.902344 759.96875 254.492188 756.46875 248.269531 750.289062 L 195.746094 697.765625 L 97.707031 599.679688 L 59.722656 561.703125 C 53.503906 555.476562 50.046875 547.109375 50.046875 538.308594 L 50.046875 271.664062 C 50.046875 263.15625 53.257812 255.035156 59.136719 248.902344 C 59.335938 248.664062 59.53125 248.46875 59.722656 248.269531 L 97.707031 210.292969 L 248.269531 59.730469 C 254.492188 53.503906 262.902344 50.054688 271.65625 50.054688 L 538.347656 50.054688 C 546.035156 50.054688 553.476562 52.730469 559.3125 57.589844 C 560.140625 58.222656 560.914062 58.957031 561.695312 59.730469 L 638.628906 136.664062 L 674.714844 172.703125 L 750.28125 248.269531 C 750.480469 248.46875 750.667969 248.664062 750.867188 248.902344 C 756.707031 255.035156 759.960938 263.15625 759.960938 271.664062 Z M 768.03125 248.902344 C 766.769531 246.714844 765.167969 244.71875 763.320312 242.871094 L 567.09375 46.652344 C 564.757812 44.316406 562.128906 42.367188 559.3125 40.859375 C 554.542969 38.332031 549.246094 36.976562 543.746094 36.976562 L 266.257812 36.976562 C 257.457031 36.976562 249.09375 40.472656 242.863281 46.652344 L 213.109375 76.414062 L 152.851562 136.664062 L 46.644531 242.871094 C 44.796875 244.71875 43.242188 246.714844 41.925781 248.902344 C 38.710938 254.054688 36.96875 260.039062 36.96875 266.21875 L 36.96875 543.753906 C 36.96875 552.507812 40.464844 560.921875 46.644531 567.101562 L 213.109375 733.558594 L 242.863281 763.320312 C 249.09375 769.5 257.457031 773.003906 266.257812 773.003906 L 543.746094 773.003906 C 549.246094 773.003906 554.542969 771.640625 559.3125 769.105469 C 562.128906 767.605469 564.757812 765.65625 567.09375 763.320312 L 744.835938 585.578125 L 763.320312 567.101562 C 769.539062 560.921875 772.996094 552.507812 772.996094 543.753906 L 772.996094 266.21875 C 772.996094 260.039062 771.292969 254.054688 768.03125 248.902344 " fill-opacity="1" fill-rule="nonzero"/><path fill="#ffffff" d="M 248.957031 359.871094 L 193.742188 359.871094 L 193.742188 342.933594 C 193.742188 335.023438 193.039062 329.980469 191.628906 327.820312 C 190.214844 325.65625 187.863281 324.574219 184.570312 324.574219 C 180.988281 324.574219 178.28125 326.035156 176.449219 328.957031 C 174.613281 331.875 173.695312 336.304688 173.695312 342.238281 C 173.695312 349.863281 174.722656 355.617188 176.789062 359.476562 C 178.761719 363.335938 184.359375 368 193.59375 373.453125 C 220.046875 389.160156 236.714844 402.046875 243.589844 412.117188 C 250.464844 422.195312 253.898438 438.429688 253.898438 460.835938 C 253.898438 477.121094 251.996094 489.125 248.183594 496.84375 C 244.371094 504.5625 237 511.03125 226.085938 516.257812 C 215.164062 521.480469 202.449219 524.09375 187.957031 524.09375 C 172.046875 524.09375 158.464844 521.085938 147.21875 515.058594 C 135.96875 509.035156 128.597656 501.363281 125.117188 492.042969 C 121.636719 482.722656 119.894531 469.496094 119.894531 452.359375 L 119.894531 437.398438 L 175.109375 437.398438 L 175.109375 465.21875 C 175.109375 473.78125 175.882812 479.289062 177.4375 481.734375 C 178.992188 484.183594 181.746094 485.40625 185.699219 485.40625 C 189.65625 485.40625 192.589844 483.851562 194.523438 480.75 C 196.449219 477.640625 197.421875 473.023438 197.421875 466.90625 C 197.421875 453.449219 195.582031 444.640625 191.910156 440.507812 C 188.148438 436.363281 178.875 429.441406 164.089844 419.742188 C 149.316406 409.953125 139.523438 402.851562 134.722656 398.425781 C 129.925781 393.996094 125.945312 387.878906 122.789062 380.066406 C 119.632812 372.253906 118.0625 362.277344 118.0625 350.128906 C 118.0625 332.625 120.296875 319.816406 124.761719 311.71875 C 129.238281 303.628906 136.460938 297.296875 146.445312 292.730469 C 156.417969 288.160156 168.472656 285.878906 182.589844 285.878906 C 198.027344 285.878906 211.183594 288.371094 222.058594 293.367188 C 232.929688 298.355469 240.132812 304.640625 243.660156 312.214844 C 247.191406 319.792969 248.957031 332.664062 248.957031 350.832031 L 248.957031 359.871094 " fill-opacity="1" fill-rule="nonzero"/><path fill="#ffffff" d="M 392.285156 290.683594 L 392.285156 336.4375 L 356.980469 336.4375 L 356.980469 519.296875 L 297.535156 519.296875 L 297.535156 336.4375 L 262.375 336.4375 L 262.375 290.683594 L 392.285156 290.683594 " fill-opacity="1" fill-rule="nonzero"/><path fill="#ffffff" d="M 482.234375 349.429688 C 482.234375 338.789062 481.640625 331.984375 480.464844 329.019531 C 479.289062 326.058594 476.867188 324.574219 473.1875 324.574219 C 470.085938 324.574219 467.710938 325.773438 466.0625 328.171875 C 464.414062 330.574219 463.589844 337.652344 463.589844 349.429688 L 463.589844 456.179688 C 463.589844 469.449219 464.136719 477.640625 465.21875 480.75 C 466.296875 483.851562 468.816406 485.40625 472.769531 485.40625 C 476.8125 485.40625 479.40625 483.613281 480.535156 480.039062 C 481.664062 476.464844 482.234375 467.941406 482.234375 454.484375 Z M 541.679688 424.546875 C 541.679688 447.515625 541.132812 463.773438 540.054688 473.332031 C 538.972656 482.886719 535.585938 491.617188 529.886719 499.527344 C 524.1875 507.433594 516.496094 513.503906 506.800781 517.742188 C 497.101562 521.980469 485.808594 524.09375 472.914062 524.09375 C 460.671875 524.09375 449.683594 522.097656 439.9375 518.097656 C 430.199219 514.09375 422.363281 508.097656 416.425781 500.09375 C 410.5 492.089844 406.972656 483.378906 405.835938 473.96875 C 404.707031 464.554688 404.144531 448.082031 404.144531 424.546875 L 404.144531 385.433594 C 404.144531 362.457031 404.683594 346.199219 405.765625 336.640625 C 406.84375 327.09375 410.238281 318.355469 415.9375 310.449219 C 421.628906 302.546875 429.324219 296.46875 439.023438 292.230469 C 448.714844 288 460.015625 285.878906 472.914062 285.878906 C 485.144531 285.878906 496.140625 287.882812 505.886719 291.882812 C 515.625 295.886719 523.464844 301.882812 529.398438 309.886719 C 535.324219 317.890625 538.851562 326.59375 539.980469 336.011719 C 541.117188 345.425781 541.679688 361.898438 541.679688 385.433594 L 541.679688 424.546875 " fill-opacity="1" fill-rule="nonzero"/><path fill="#ffffff" d="M 623.292969 329.800781 L 623.292969 387.972656 C 624.992188 388.070312 626.453125 388.117188 627.675781 388.117188 C 633.136719 388.117188 636.925781 386.773438 639.039062 384.089844 C 641.164062 381.40625 642.21875 375.828125 642.21875 367.359375 L 642.21875 348.574219 C 642.21875 340.761719 640.996094 335.679688 638.542969 333.328125 C 636.097656 330.976562 631.011719 329.800781 623.292969 329.800781 Z M 563.847656 290.683594 L 623.71875 290.683594 C 639.90625 290.683594 652.363281 291.957031 661.066406 294.496094 C 669.773438 297.039062 676.324219 300.707031 680.695312 305.507812 C 685.074219 310.3125 688.035156 316.121094 689.589844 322.949219 C 691.144531 329.777344 691.925781 340.34375 691.925781 354.644531 L 691.925781 374.558594 C 691.925781 389.152344 690.417969 399.789062 687.402344 406.472656 C 684.390625 413.160156 678.855469 418.289062 670.8125 421.863281 C 662.765625 425.441406 652.242188 427.230469 639.253906 427.230469 L 623.292969 427.230469 L 623.292969 519.296875 L 563.847656 519.296875 L 563.847656 290.683594 " fill-opacity="1" fill-rule="nonzero"/></svg>