<svg xmlns="http://www.w3.org/2000/svg" xmlns:xlink="http://www.w3.org/1999/xlink" width="1920" zoomAndPan="magnify" viewBox="0 0 1440 809.999993" height="1080" preserveAspectRatio="xMidYMid meet" version="1.0"><defs><clipPath id="dcad2fd100"><path d="M 385.605469 142.953125 L 1054.605469 142.953125 L 1054.605469 667.203125 L 385.605469 667.203125 Z M 385.605469 142.953125 " clip-rule="nonzero"/></clipPath></defs><path fill="#ea596e" d="M 975.816406 605.789062 C 975.882812 612.09375 974.257812 620.332031 972.566406 627.125 C 960.746094 674.886719 908.25 728.488281 834.363281 723.609375 C 767.398438 719.203125 712.855469 687.046875 712.855469 641.953125 C 712.855469 596.863281 767.265625 560.296875 834.363281 560.296875 C 901.460938 560.296875 975.394531 560.699219 975.816406 605.789062 Z M 975.816406 605.789062 " fill-opacity="1" fill-rule="nonzero"/><path fill="#dd2e44" d="M 834.363281 567.867188 C 798.320312 567.867188 716.0625 577.84375 697.183594 577.84375 C 663.835938 577.84375 636.785156 598.777344 636.785156 624.609375 C 636.785156 637.03125 643.152344 648.257812 653.347656 656.628906 C 653.347656 656.628906 675.746094 679.097656 716.082031 668.320312 C 733.738281 663.597656 762.457031 628.550781 813.011719 622.980469 C 838.191406 620.199219 885.367188 639.683594 968.269531 640.152344 C 971.832031 632.492188 972.566406 627.167969 972.566406 627.167969 C 972.566406 582.03125 901.460938 567.867188 834.363281 567.867188 Z M 834.363281 567.867188 " fill-opacity="1" fill-rule="nonzero"/><path fill="#f4abba" d="M 972.566406 627.125 C 972.566406 627.125 1021.1875 617.257812 1051.417969 577.488281 C 1086.660156 531.105469 1082.03125 481.46875 1082.03125 481.46875 C 1117.738281 414.664062 1070.898438 352.023438 1070.898438 352.023438 C 1066.246094 281.5 1022.65625 252.285156 1022.65625 252.285156 C 994.359375 185.015625 931.761719 166.933594 931.761719 166.933594 C 882.605469 109.414062 795.402344 111.261719 795.402344 111.261719 C 795.402344 111.261719 713.703125 81.3125 601.542969 114.980469 C 583 120.546875 520.84375 133.53125 475.382812 161.367188 C 332.105469 249.101562 321.261719 385.917969 323.265625 408.160156 C 334.375 532.484375 421.578125 554.753906 477.234375 567.734375 C 490.210938 602.984375 537.984375 667.941406 623.785156 643.824219 C 729.53125 625.277344 774.054688 593.722656 800.035156 593.722656 C 826.015625 593.722656 898.367188 621.558594 972.566406 627.125 Z M 972.566406 627.125 " fill-opacity="1" fill-rule="nonzero"/><path fill="#ea596e" d="M 705.128906 427.222656 C 756.957031 399.277344 785.050781 401.882812 809.851562 404.132812 C 817.734375 404.84375 825.191406 405.402344 832.738281 405.355469 C 876.90625 404.355469 912.679688 385.738281 928.507812 367.722656 C 932.5625 363.089844 932.09375 356.078125 927.484375 352.003906 C 922.898438 347.949219 915.886719 348.371094 911.769531 353.003906 C 899.570312 366.898438 869.492188 382.242188 832.226562 383.089844 C 825.546875 383.289062 818.847656 382.621094 811.898438 381.976562 C 785.296875 379.503906 752.257812 376.476562 694.554688 407.628906 C 679.75 415.621094 659.449219 418.582031 637.453125 420.808594 C 588.542969 350.199219 617.972656 288.695312 626.390625 274.042969 C 627.214844 274.085938 628.015625 274.351562 628.859375 274.351562 C 637.765625 274.351562 646.714844 272.171875 654.816406 267.582031 C 660.160156 264.554688 662.054688 257.765625 659.027344 252.417969 C 655.996094 247.074219 649.207031 245.183594 643.863281 248.210938 C 629.617188 256.273438 610.871094 251.617188 602.011719 237.8125 C 598.695312 232.625 591.816406 231.109375 586.652344 234.449219 C 581.488281 237.765625 579.972656 244.648438 583.289062 249.8125 C 588.566406 258.074219 596 264.289062 604.394531 268.453125 C 592.796875 292.011719 570.777344 353.960938 612.675781 423.238281 C 583.199219 426.132812 553.679688 430.296875 530.574219 445.195312 C 515.65625 454.8125 500.40625 468.886719 488.765625 485.074219 C 474.761719 482.671875 423.492188 470.046875 414.542969 413.128906 C 420.109375 408.808594 424.605469 403.105469 427.386719 396.070312 C 429.65625 390.347656 426.851562 383.890625 421.132812 381.617188 C 415.410156 379.347656 408.953125 382.152344 406.683594 387.875 C 404.703125 392.886719 401.117188 396.539062 396.578125 398.140625 C 392.078125 399.746094 386.980469 399.210938 382.261719 396.582031 C 376.851562 393.578125 370.105469 395.558594 367.125 400.902344 C 364.140625 406.269531 366.078125 413.0625 371.441406 416.046875 C 377.765625 419.5625 384.53125 421.34375 391.253906 421.34375 C 392.078125 421.34375 392.859375 420.964844 393.683594 420.921875 C 404.277344 474.65625 446.734375 498.257812 476.765625 505.40625 C 472.847656 514.046875 470.199219 522.953125 469.394531 531.949219 C 468.863281 538.050781 473.382812 543.484375 479.503906 544.019531 L 480.503906 544.0625 C 486.203125 544.0625 491.078125 539.722656 491.589844 533.910156 C 493.996094 506.898438 519.753906 478.683594 542.640625 463.875 C 564.101562 450.046875 595.511719 447.132812 625.921875 444.304688 C 655.417969 441.609375 683.292969 439.027344 705.128906 427.222656 Z M 991.554688 393.730469 C 988.640625 399.121094 990.644531 405.890625 996.007812 408.808594 C 997.699219 409.742188 999.546875 410.1875 1001.351562 410.1875 C 1005.269531 410.1875 1009.078125 408.117188 1011.101562 404.421875 C 1011.527344 403.664062 1052.109375 327.617188 976.128906 276.511719 C 971.054688 273.128906 964.128906 274.441406 960.679688 279.542969 C 957.25 284.640625 958.609375 291.566406 963.707031 294.996094 C 1022.566406 334.589844 992.847656 391.328125 991.554688 393.730469 Z M 530.128906 213.941406 C 533.601562 213.941406 537.007812 212.335938 539.164062 209.308594 C 571.445312 164.394531 616.148438 179.757812 618.039062 180.472656 C 623.808594 182.566406 630.152344 179.625 632.289062 173.878906 C 634.425781 168.113281 631.488281 161.722656 625.722656 159.582031 C 604.351562 151.65625 554.996094 149.164062 521.089844 196.328125 C 517.503906 201.292969 518.640625 208.261719 523.625 211.847656 C 525.609375 213.273438 527.878906 213.941406 530.128906 213.941406 Z M 821.140625 171.898438 C 870.671875 167.867188 893.203125 203.785156 894.226562 205.476562 C 896.320312 208.996094 900.015625 210.957031 903.820312 210.957031 C 905.734375 210.957031 907.695312 210.464844 909.453125 209.417969 C 914.75 206.300781 916.53125 199.488281 913.4375 194.1875 C 912.234375 192.160156 883.605469 144.796875 819.402344 149.695312 C 813.28125 150.164062 808.714844 155.53125 809.183594 161.675781 C 809.675781 167.800781 815.21875 172.453125 821.140625 171.898438 Z M 1024.839844 497.257812 C 1019.363281 496.945312 1013.328125 501.285156 1012.839844 507.433594 C 1012.792969 507.832031 1009.253906 545.710938 970.316406 558.515625 C 964.484375 560.429688 961.300781 566.710938 963.238281 572.566406 C 964.753906 577.242188 969.136719 580.226562 973.8125 580.226562 C 974.972656 580.226562 976.128906 580.050781 977.285156 579.671875 C 1030.09375 562.347656 1034.855469 511.441406 1035.035156 509.28125 C 1035.5 503.136719 1030.960938 497.746094 1024.839844 497.257812 Z M 1024.839844 497.257812 " fill-opacity="1" fill-rule="nonzero"/><path fill="#ea596e" d="M 473.828125 389.054688 C 472.222656 395 475.742188 401.101562 481.683594 402.707031 C 482.640625 402.972656 483.621094 403.085938 484.578125 403.085938 C 489.5 403.085938 493.972656 399.8125 495.308594 394.847656 C 499.539062 379.011719 515.945312 368.859375 532.085938 372.265625 C 538.121094 373.492188 543.996094 369.683594 545.265625 363.648438 C 546.535156 357.636719 542.683594 351.734375 536.648438 350.464844 C 527.167969 348.460938 517.636719 349.398438 508.867188 352.378906 C 482.910156 307.976562 487.960938 264.199219 488.03125 263.730469 C 488.832031 257.652344 484.558594 252.0625 478.480469 251.21875 C 472.425781 250.480469 466.8125 254.644531 465.96875 260.726562 C 465.679688 262.886719 459.734375 312.296875 489.632812 363.46875 C 482.195312 370.171875 476.542969 378.925781 473.828125 389.054688 Z M 722.695312 334.054688 C 731.757812 325.660156 746.292969 325.816406 755.085938 334.386719 C 757.269531 336.480469 760.050781 337.527344 762.855469 337.527344 C 765.773438 337.527344 768.667969 336.390625 770.828125 334.144531 C 775.101562 329.734375 775.011719 322.675781 770.605469 318.398438 C 765.484375 313.433594 759.363281 310.117188 752.859375 308.046875 C 759.449219 285.421875 756.847656 275.378906 750.722656 256.5625 C 749.65625 253.289062 748.476562 249.636719 747.226562 245.472656 L 746.5625 243.246094 C 738.457031 216.34375 733.09375 198.597656 748.496094 173.546875 C 751.726562 168.3125 750.078125 161.453125 744.847656 158.226562 C 739.703125 155.019531 732.78125 156.601562 729.53125 161.878906 C 708.871094 195.457031 716.460938 220.597656 725.253906 249.703125 L 725.921875 251.929688 C 727.238281 256.25 728.4375 260.035156 729.550781 263.441406 C 735.050781 280.386719 736.722656 286.066406 729.996094 306.554688 C 721.78125 308.089844 713.925781 311.808594 707.511719 317.777344 C 703.015625 321.960938 702.769531 329.019531 706.957031 333.519531 C 711.164062 338.019531 718.222656 338.242188 722.695312 334.054688 Z M 864.394531 267.582031 C 870.871094 267.582031 877.417969 266.226562 883.519531 263.332031 C 889.082031 260.703125 891.464844 254.066406 888.839844 248.5 C 886.234375 242.933594 879.511719 240.617188 874.035156 243.179688 C 862.859375 248.433594 849.078125 243.867188 843.222656 233 C 840.308594 227.566406 833.515625 225.585938 828.152344 228.4375 C 822.742188 231.332031 820.695312 238.101562 823.609375 243.511719 C 827.617188 250.996094 833.582031 256.894531 840.53125 260.992188 C 828.574219 290.050781 835.363281 320.914062 840.90625 337.28125 C 842.464844 341.9375 846.808594 344.855469 851.460938 344.855469 C 852.640625 344.855469 853.820312 344.675781 855.023438 344.273438 C 860.855469 342.316406 863.972656 335.992188 861.988281 330.179688 C 858.25 319.089844 850.992188 291.078125 861.945312 267.25 C 862.792969 267.292969 863.570312 267.582031 864.394531 267.582031 Z M 971.1875 477.550781 C 970.761719 471.425781 965.464844 466.59375 959.363281 467.148438 C 936.792969 468.753906 917.554688 451.628906 916.019531 429.226562 C 915.574219 423.105469 910.121094 418.539062 904.15625 418.875 C 898.03125 419.296875 893.402344 424.617188 893.804688 430.742188 C 894.714844 443.878906 899.722656 455.726562 907.339844 465.367188 C 889.4375 486.433594 865.996094 492.425781 852.929688 493.960938 C 841.375 495.339844 831.269531 494.160156 819.582031 492.78125 C 808.871094 491.554688 796.761719 490.152344 781.78125 490.597656 L 781.667969 490.621094 C 781.222656 484.253906 779.710938 474.964844 774.878906 467.238281 C 771.628906 462.050781 764.75 460.46875 759.539062 463.722656 C 754.351562 466.972656 752.75 473.851562 756.023438 479.0625 C 759.003906 483.851562 759.5625 491.488281 759.5625 495.207031 C 748.339844 499.238281 738.636719 505.160156 729.863281 510.882812 C 714.191406 521.082031 701.835938 529.144531 683.246094 524.957031 C 666.417969 521.105469 649.5625 520.328125 635.273438 522.332031 C 633.046875 516.742188 629.527344 510.0625 624.097656 504.917969 C 619.621094 500.6875 612.585938 500.863281 608.355469 505.363281 C 604.148438 509.816406 604.328125 516.875 608.800781 521.105469 C 610.714844 522.910156 612.230469 525.535156 613.453125 528.164062 C 588.898438 538.273438 576.589844 555.175781 576.011719 556 C 572.449219 560.988281 573.628906 567.867188 578.570312 571.453125 C 580.527344 572.855469 582.800781 573.546875 585.070312 573.546875 C 588.519531 573.546875 591.925781 571.964844 594.109375 568.980469 C 594.21875 568.804688 606.441406 552.4375 630.550781 545.824219 C 643.019531 542.394531 660.894531 542.683594 678.328125 546.648438 C 683.203125 547.761719 687.722656 548.140625 692.105469 548.207031 C 694.175781 553.058594 694.980469 558.828125 695.089844 560.964844 C 695.445312 566.890625 700.34375 571.476562 706.199219 571.476562 L 706.800781 571.453125 C 712.921875 571.121094 717.621094 565.929688 717.332031 559.808594 C 717.261719 558.695312 716.816406 552.101562 714.4375 544.53125 C 724.699219 540.8125 733.625 535 742.019531 529.546875 C 754.753906 521.238281 766.796875 513.378906 782.535156 512.867188 C 795.714844 512.398438 806.578125 513.667969 817.066406 514.894531 C 827.617188 516.117188 837.992188 516.917969 849.433594 516.25 C 851.460938 521.886719 851.304688 529.410156 850.992188 531.929688 C 850.257812 538.007812 854.554688 543.574219 860.65625 544.375 C 861.121094 544.441406 861.589844 544.464844 862.058594 544.464844 C 867.554688 544.464844 872.34375 540.390625 873.078125 534.777344 C 873.253906 533.398438 874.390625 523.378906 871.761719 512.933594 C 887.746094 508.636719 907.5625 499.304688 923.96875 480.175781 C 933.5625 486.054688 944.761719 489.507812 956.671875 489.507812 C 958.050781 489.507812 959.453125 489.460938 960.835938 489.375 C 966.957031 488.972656 971.585938 483.695312 971.1875 477.550781 Z M 971.1875 477.550781 " fill-opacity="1" fill-rule="nonzero"/><g clip-path="url(#dcad2fd100)"><path fill="#000000" d="M 1043.933594 477.347656 L 969.863281 477.347656 L 969.863281 393.914062 C 969.863281 388.167969 965.183594 383.488281 959.433594 383.488281 L 730.53125 383.488281 L 730.53125 310.484375 L 853.808594 310.484375 C 859.554688 310.484375 864.234375 305.804688 864.234375 300.054688 L 864.234375 153.382812 C 864.234375 147.632812 859.554688 142.953125 853.808594 142.953125 L 586.265625 142.953125 C 580.515625 142.953125 575.835938 147.632812 575.835938 153.382812 L 575.835938 299.921875 C 575.835938 305.671875 580.515625 310.351562 586.265625 310.351562 L 709.542969 310.351562 L 709.542969 383.351562 L 480.90625 383.351562 C 475.160156 383.351562 470.480469 388.03125 470.480469 393.78125 L 470.480469 477.210938 L 396.273438 477.210938 C 390.523438 477.210938 385.84375 481.890625 385.84375 487.640625 L 385.84375 656.640625 C 385.84375 662.390625 390.523438 667.070312 396.273438 667.070312 L 565.273438 667.070312 C 571.023438 667.070312 575.703125 662.390625 575.703125 656.640625 L 575.703125 487.773438 C 575.703125 482.027344 571.023438 477.347656 565.273438 477.347656 L 491.335938 477.347656 L 491.335938 404.34375 L 709.675781 404.34375 L 709.675781 477.347656 L 635.601562 477.347656 C 629.855469 477.347656 625.175781 482.027344 625.175781 487.773438 L 625.175781 656.777344 C 625.175781 662.523438 629.855469 667.203125 635.601562 667.203125 L 804.605469 667.203125 C 810.351562 667.203125 815.03125 662.523438 815.03125 656.777344 L 815.03125 487.773438 C 815.03125 482.027344 810.351562 477.347656 804.605469 477.347656 L 730.53125 477.347656 L 730.53125 404.34375 L 948.871094 404.34375 L 948.871094 477.347656 L 874.796875 477.347656 C 869.050781 477.347656 864.371094 482.027344 864.371094 487.773438 L 864.371094 656.777344 C 864.371094 662.523438 869.050781 667.203125 874.796875 667.203125 L 1043.800781 667.203125 C 1049.550781 667.203125 1054.230469 662.523438 1054.230469 656.777344 L 1054.230469 487.773438 C 1054.363281 482.027344 1049.683594 477.347656 1043.933594 477.347656 Z M 596.828125 163.945312 L 843.511719 163.945312 L 843.511719 289.492188 L 596.828125 289.492188 Z M 554.847656 646.347656 L 406.835938 646.347656 L 406.835938 498.335938 L 554.980469 498.335938 L 554.980469 646.347656 Z M 794.175781 646.347656 L 646.03125 646.347656 L 646.03125 498.335938 L 794.175781 498.335938 Z M 1033.371094 646.347656 L 885.359375 646.347656 L 885.359375 498.335938 L 1033.503906 498.335938 L 1033.503906 646.347656 Z M 1033.371094 646.347656 " fill-opacity="1" fill-rule="nonzero"/></g></svg>