<?xml version="1.0" encoding="UTF-8" standalone="no"?><svg xmlns="http://www.w3.org/2000/svg" xmlns:xlink="http://www.w3.org/1999/xlink" contentScriptType="text/ecmascript" fill="#000000" width="500.2" zoomAndPan="magnify" contentStyleType="text/css" viewBox="-0.1 -0.2 500.2 417.7" height="417.7" preserveAspectRatio="xMidYMid meet" version="1"><g><g id="change1_1"><path fill="#f4ece8" d="M495.6012878,145.4892273v98.0720825L199.0195465,414.793335L4.3973813,301.5038757V187.0236816 l26.950367-15.5592804L2.7250404,150.4410553l215.6934052-95.8502731l67.8249359-51.8665161l21.8215637,12.028348 l7.6140137-3.3832636l41.3641663,30.3801937l121.2653503,66.8430786l-7.8934021,6.0347977l25.1862183,14.6931763v14.1969452 l1.6723328,1.2279816L495.6012878,145.4892273z"/></g><g><g id="change2_1"><path fill="#fdc128" d="M407.839447 129.5944977L265.7553406 51.2767487 293.4609985 30.0899944 435.545105 108.4075851z"/></g></g><g id="change3_1"><path fill="#8d5d39" opacity="0.4" d="M227.8537903,285.099762c0.1170807,0.8621216-0.186264,1.7295532-0.8142242,2.3309021 l-26.1348114,24.9906616c-0.5215302,0.5002136-1.2026978,0.7556763-1.8838806,0.7556763 c-0.5641022,0-1.1335144-0.1756287-1.6177979-0.5321655L17.9024982,180.4859924 c-0.7397137-0.5428162-1.1548061-1.4262085-1.1015892-2.3415527c0.0478954-0.920639,0.5587769-1.750824,1.3570309-2.2084961 l11.8301163-6.8277283c0.9419384-0.5428162,2.1073875-0.4789429,2.974823,0.1596527l17.4604645,12.8252716 c0.6918182,0.5108795,1.1015892,1.3144531,1.1122322,2.1712494c0.0053215,0.7343903-0.2820511,1.4315338-0.7929306,1.9477386 l15.6031952,8.5998535l118.3064728,85.8814087l19.3124084-8.5838623c0.7663269-0.3406067,1.6550446-0.3139954,2.4054108,0.0957642 l20.0840454,10.8615723C227.2205048,283.4819641,227.7420349,284.2376404,227.8537903,285.099762z M497.0887146,143.20755 c-0.7716675-0.5055542-1.7455139-0.5747375-2.5916748-0.2075348l-86.2113647,38.3108368 c-1.2931824,0.5747375-1.9317932,2.0435333-1.4687805,3.3845978c0.3884583,1.1175537,1.4368591,1.830658,2.5756836,1.830658 c0.2235107,0,0.4470215-0.0266113,0.6705322-0.085144l86.2113647-21.9679413 c1.2080383-0.3086548,2.0541687-1.3942719,2.0541687-2.6395569v-16.3429108 C498.3286438,144.5699005,497.8603516,143.7077942,497.0887146,143.20755z M487.3606567,122.8201599 c-0.037262-0.9312897-0.5481262-1.7827606-1.3517151-2.2510681l-14.2195435-8.2911987 c-0.9526062-0.5640945-2.1659241-0.4842682-3.0386963,0.196907L265.4036255,269.901001 c-1.1654358,0.9046936-1.4049072,2.5704041-0.5374756,3.7624512c0.5321655,0.7290649,1.3623352,1.1175537,2.2031555,1.1175537 c0.532196,0,1.0696716-0.1543274,1.5379944-0.4789429l217.5666199-149.1350403 C486.9455566,124.6401825,487.3925781,123.7567825,487.3606567,122.8201599z"/></g><g id="change3_2"><path fill="#8d5d39" d="M498.8874207,142.5476685l-0.5640869-0.4151001v-12.8092957v-0.0053253 c0-0.1609802-0.0931396-0.2953491-0.1210632-0.4510193c-0.0558777-0.3126373-0.0878296-0.634613-0.2434692-0.9060135 c-0.0997925-0.1729507-0.2860413-0.2767258-0.4217529-0.4257355c-0.182251-0.1982346-0.3259583-0.4297256-0.5654297-0.5694199 l-21.6725769-12.6430054l4.6644592-3.566864c0.7290649-0.5587769,1.1282043-1.4528198,1.0643311-2.3681488 c-0.0691833-0.9206543-0.5960083-1.7401886-1.4049072-2.1818924L358.5358582,39.4638824L317.2901001,9.1701641 c-0.7875977-0.5800638-1.830658-0.6811762-2.7193909-0.2926931l-6.3807068,2.8364611L287.5578308,0.3414813 c-0.9472656-0.5268472-2.1127319-0.4363785-2.9695129,0.2181893l-67.5615082,51.6656227L1.618129,147.9491882 c-0.8887221,0.3937988-1.4953947,1.2346191-1.6018285,2.1978455s0.3139797,1.9158173,1.0962679,2.4905548l25.2620602,18.5554047 l-23.3276253,13.467865c-0.0026608,0.002655-0.0053215,0.0013275-0.0079825,0.002655 c-0.0026608,0.0013275-0.0039911,0.0039978-0.0053217,0.0053253c-0.0093129,0.0079803-0.015965,0.0199585-0.0266085,0.0266113 c-0.8208704,0.488266-1.3357439,1.3650055-1.3357439,2.3255768c0,0.0013275,0,0.0013275,0,0.002655s0,0.0013275,0,0.0026703 v114.4801788c0,0.9685364,0.5162039,1.8679199,1.3517091,2.3521729l194.6248169,113.288147 c0.0026703,0.0013123,0.0053253,0,0.0079956,0.002655c0,0,0.0013275,0.002655,0.002655,0.002655 c0.4204102,0.244812,0.894043,0.3671875,1.3623505,0.3671875s0.936615-0.1223755,1.3570404-0.3618774 c0.002655-0.0013123,0.002655-0.0039673,0.0053101-0.0053101L496.960968,245.9214783 c0.8408508-0.4842682,1.3623657-1.3836365,1.3623657-2.3574982v-96.3013l0.0585327-0.0266113 c0.8887329-0.3937988,1.4953918-1.2346191,1.6018372-2.1978455 C500.0901184,144.0749969,499.6697083,143.122406,498.8874207,142.5476685z M492.8739319,241.9887543L201.745575,410.0743103 v-16.8577881L492.8739319,225.132309V241.9887543z M198.4022369,66.4661331l-28.8422394,22.0570755l-16.7859344,12.8359146 l-16.7886047,12.8385696l-87.2078476,66.6874237l-12.4554138-9.1466522l-2.3974228-1.7614746l-2.3960896-1.7601624 L8.1212339,151.025116L198.4022369,66.4661331z M238.4545898,42.7021294l48.0335693-36.7303009l13.4026794,7.3878355 l2.0515137,1.129529l2.9960938,1.6523838l2.9947815,1.6510544l34.1812134,18.8401127l13.4479065,7.4131126l18.4556274,10.1724091 l18.4569702,10.1737404l80.8630676,44.5704803l-3.1278381,2.3920975l-2.34021,1.7894211l-2.34021,1.7894135l-2.0767822,1.5885239 l-2.2564087,1.725563l-2.2537231,1.7228928l-86.78479,66.3654633c-0.0039978,0.002655-0.0093079,0.0013275-0.0119629,0.0039825 l-34.4300232,26.3303986l-9.3063049,7.1177521l-9.3156128,7.1244202l-3.3473206,2.5597229 c-0.0026855,0.0013275-0.0026855,0.0039978-0.0053406,0.0053253l-2.8737183,2.1978607l-0.0119629,0.0093079l-16.7832642,12.8345795 l-11.6172485,8.8845673l-5.1647034,3.9487l-0.0213013,0.0159607L237.6190948,289.21875l-6.9128723-3.8103333l-0.0039978-0.002655 l-2.7872314-1.5353088l-2.7845764-1.5353088l-0.0026703-0.0013428l-13.7219696-7.5647583l-2.998764-1.653717l-2.993454-1.6497192 L71.9136581,197.8772736L53.4646873,187.708847l-2.6954346-1.4860687l0.3299446-0.2527924l2.2537346-1.7242279 l119.2617188-91.1964569l16.7899323-12.8385773l16.7899323-12.8385696l13.6341553-10.4278526l9.3089752-7.1177597 L238.4545898,42.7021294z M315.3370361,14.5024967l6.2796021,4.6112442l-7.43573-4.0977011L315.3370361,14.5024967z M53.3130188,245.0912933L7.1207557,218.2101135v-26.4421387l91.7605591,53.5255432l97.414856,56.8250122v26.206665 l-96.3491898-56.0826416c-1.2984924-0.7556763-2.9695053-0.3193054-3.7251816,0.9845276 c-0.7610016,1.3038025-0.3192978,2.9694824,0.9791946,3.7251587l99.0951767,57.6817932v52.2723083L7.1207557,276.7926025 v-32.7536621L63.6583824,276.95224c0.431057,0.2554626,0.9046898,0.3725281,1.3729973,0.3725281 c0.936615,0,1.8466263-0.4842834,2.3521881-1.3517151c0.7610016-1.3038025,0.3192978-2.9694824-0.9791946-3.7251587 L7.1207557,237.7367249v-13.2190704l43.4462738,25.2833405c0.431057,0.2554474,0.904686,0.3725128,1.3729973,0.3725128 c0.936615,0,1.8466263-0.4842682,2.3575058-1.3516998C55.0532112,247.5179901,54.6115112,245.8522949,53.3130188,245.0912933z M199.1658936,274.2434998l-14.5029297,6.4445801l-78.8009186-57.8760376L199.1658936,274.2434998z M7.1207557,283.0948181 l189.175415,110.1150513v16.8484802L7.1207557,299.9419556V283.0948181z M420.0798645,176.0676575l-0.0252686,0.0119781 l-21.5980835,9.5976563l-0.4709778,0.0013428l-5.4893188,0.023941h-0.002655l-10.5928345,0.0438995l81.6187439-62.4154282 l16.2843933,11.9605026l0.0013123,0.0013275l2.3987732,1.7614746l2.3947449,1.7588196l0.002655,0.0013275l7.2774048,5.3456421 L420.0798645,176.0676575z M492.8739319,138.130661l-3.1198425-2.2909851l3.1198425-1.8013916V138.130661z M484.9579163,132.3167114l-16.9296265-12.4341202l2.590332-1.9810028l19.5518799,11.4057083L484.9579163,132.3167114z M44.2674789,184.3348999l-0.1237297,0.0944672c-0.7290726,0.5587769-1.1281967,1.4528198-1.0643387,2.3681488 c0.0691833,0.9206543,0.5960312,1.7401886,1.4049263,2.1818848l24.4731216,13.4904938l113.7524414,83.5505219 c0.4736328,0.3459167,1.043045,0.5268555,1.6124725,0.5268555c0.3778381,0,0.750351-0.079834,1.1069031-0.2341614 l19.7288361-8.7674866l14.4577026,7.9692383l-20.5896149,11.8886414L9.8241739,187.0369873l21.3439674-12.3237 L44.2674789,184.3348999z M492.8739319,160.2622375l-86.4348755,49.9028168 c-1.303833,0.750351-1.7508545,2.4160461-0.9951782,3.7198639c0.5002441,0.872757,1.4208984,1.3623505,2.3575134,1.3623505 c0.4629822,0,0.9313049-0.1170807,1.3623657-0.3672028l83.7101746-48.3289185v52.2922516L201.745575,386.9249573V334.635376 l72.0131226-41.5743713c1.3038025-0.7503662,1.750824-2.4160461,0.9951477-3.7198486 c-0.7503662-1.303833-2.4266968-1.7561646-3.7198792-0.9951782L201.745575,328.343811v-26.2146301l7.8188934-4.5141296 l20.8384094,11.6132507c0.4151001,0.2341614,0.872757,0.3459167,1.3251038,0.3459167 c0.6598816,0,1.3197784-0.2394714,1.8359833-0.7077942l66.8404236-60.7963104l15.5020752-11.8540649l14.7384033-8.5107117 l69.5158997-36.8194427l92.7131653-41.2018433V160.2622375z M47.1717911,280.5763245l39.6838379,23.1014404 c1.2984924,0.7557068,1.7401886,2.4213867,0.979187,3.7251892c-0.5055542,0.8674316-1.4155655,1.3517151-2.3521805,1.3517151 c-0.4683151,0-0.9419403-0.1170654-1.3730011-0.3725281l-39.6838341-23.1014404 c-1.2984924-0.7556763-1.7401924-2.4213867-0.9791908-3.7251892 C44.2022896,280.251709,45.8786201,279.8046875,47.1717911,280.5763245z M437.7145996,234.3095551 c0.7557068,1.3038177,0.3086548,2.9694977-0.9951477,3.7198639L294.4707031,320.153717 c-0.4310608,0.2501221-0.8993835,0.367218-1.3623657,0.367218c-0.936615,0-1.8572693-0.4895935-2.3575134-1.3623657 c-0.7556763-1.3038025-0.3086548-2.9695129,0.9951782-3.7198486l142.2487488-82.1243134 C435.2932434,232.5587158,436.9642639,233.0004272,437.7145996,234.3095551z M305.9016724,287.7393188l144.4413147-83.3908691 c1.2931519-0.7556915,2.9694824-0.3139801,3.7198486,0.9951477c0.7556763,1.3038177,0.3086548,2.9695129-0.9951477,3.7198639 l-144.4412842,83.3908844c-0.4310608,0.2501221-0.8993835,0.3671875-1.3623657,0.3671875 c-0.936615,0-1.8572693-0.4895935-2.3575134-1.3623657C304.1508484,290.155365,304.5978699,288.4896851,305.9016724,287.7393188z M264.4403992,53.6594887l142.0838013,78.3193054c0.4097595,0.2288361,0.8620911,0.3405914,1.3144531,0.3405914 c0.5853882,0,1.1707764-0.1915894,1.6550293-0.5587769l27.7047119-21.1856461 c0.7290955-0.5587769,1.1282043-1.4528275,1.0643616-2.3681564c-0.0691833-0.9206543-0.5960388-1.7401886-1.4049377-2.1818924 L294.7740479,27.7056084c-0.9419556-0.5321693-2.1127319-0.4363785-2.9695129,0.2181892L264.099823,49.1094437 c-0.7290649,0.5587769-1.1282043,1.4528198-1.0643311,2.3681526 C263.1046753,52.3982468,263.6315002,53.2177887,264.4403992,53.6594887z M430.5729065,108.7815475l-22.9790649,17.5668945 L270.7253113,50.9028511l22.9790649-17.5668945L430.5729065,108.7815475z M243.5900269,65.090477 c0.7237549-1.3197784,2.3894348-1.8040543,3.6985779-1.0696564l42.6213989,23.4899368 c1.3197937,0.7237473,1.7987366,2.3787918,1.0696716,3.6985703c-0.4949341,0.8993683-1.4262085,1.4102478-2.3841248,1.4102478 c-0.4470215,0-0.899353-0.1064301-1.3144531-0.3405914l-42.6214142-23.4899368 C243.3399048,68.0653,242.8609467,66.4102554,243.5900269,65.090477z M228.3859558,76.7183685 c0.7237549-1.3197784,2.3894348-1.8093719,3.6985779-1.069664l16.9176483,9.3236008 c1.3197784,0.7237549,1.7987366,2.3787994,1.0696564,3.6985779c-0.4949188,0.8993683-1.4262085,1.4102478-2.3841095,1.4102478 c-0.4470215,0-0.8993683-0.1064377-1.3144531-0.3405914l-16.9176636-9.3236008 C228.1358337,79.6931915,227.6568909,78.038147,228.3859558,76.7183685z M105.7423019,199.0427246 c-0.4949112,0.8993683-1.4262085,1.4102478-2.3841171,1.4102478c-0.4470215,0-0.8993607-0.1064453-1.3144531-0.3405914 l-16.9176559-9.3289185c-1.3197784-0.7237549-1.7987289-2.3841248-1.0696564-3.6985779 c0.7290726-1.3197784,2.3894424-1.8040466,3.6985779-1.0696564l16.9176483,9.3289185 C105.992424,196.0679016,106.4713745,197.7282562,105.7423019,199.0427246z M146.6501312,201.5811615 c-0.4949188,0.8993683-1.4262085,1.4102478-2.3841248,1.4102478c-0.4470215,0-0.899353-0.1064301-1.3144531-0.3405762 l-42.6214066-23.4952698c-1.3197784-0.7237396-1.7987289-2.3841095-1.069664-3.6985626 c0.7290726-1.3197937,2.4000854-1.8093872,3.6985779-1.0696716l42.6214142,23.4952698 C146.9002533,198.6063385,147.3791962,200.2667084,146.6501312,201.5811615z M183.8647003,110.7612152 c0.7290802-1.3197784,2.3894501-1.8093719,3.6985779-1.0696564l16.9176483,9.3235931 c1.3197784,0.7237549,1.7987366,2.3787994,1.0696564,3.6985779c-0.4949036,0.8993683-1.4262085,1.4102478-2.3841095,1.4102478 c-0.4470215,0-0.8993683-0.1064377-1.3144531-0.3405914l-16.9176483-9.3236008 C183.6145782,113.7360382,183.1356354,112.0809937,183.8647003,110.7612152z M345.9261169,180.081543 c-0.4949341,0.8993683-1.4262085,1.4102478-2.3841248,1.4102478c-0.4470215,0-0.899353-0.1064301-1.3144531-0.3405914 l-15.8001099-8.7116089c-1.3197632-0.7237396-1.7987061-2.3841095-1.0696411-3.6985626 c0.7237549-1.3197784,2.3947449-1.8093872,3.6985779-1.0696716l15.8000793,8.7116089 C346.176239,177.10672,346.6551819,178.7670898,345.9261169,180.081543z M319.7859802,165.6704102 c-0.4949341,0.8993683-1.4262085,1.4102478-2.3841248,1.4102478c-0.4470215,0-0.899353-0.1064301-1.3144531-0.3405914 l-62.9875183-34.7187042c-1.3197784-0.7237549-1.7987366-2.3841095-1.0696564-3.6985779 c0.7290649-1.3197708,2.3947601-1.8093719,3.6985779-1.0696564l62.9875031,34.7187042 C320.0361023,162.6955872,320.5150452,164.3559418,319.7859802,165.6704102z M310.3612671,207.2753754 c-0.4949341,0.8993683-1.4262085,1.4102478-2.3841248,1.4102478c-0.4470215,0-0.899353-0.1064301-1.3144531-0.3405914 l-14.6665649-8.0836487c-1.3197937-0.7237396-1.7987366-2.3787842-1.0696716-3.6985626 c0.7237549-1.3197784,2.3947449-1.8093872,3.6985779-1.0696716l14.6665649,8.0836487 C310.6113892,204.3005524,311.090332,205.9609222,310.3612671,207.2753754z M288.8669739,171.7477722 c-1.3197937-0.7237396-1.7987366-2.3787842-1.0696716-3.6985779c0.7237549-1.3197784,2.3947449-1.8040466,3.6985779-1.0696564 l16.9176331,9.3236084c1.3197937,0.7237396,1.7987366,2.3787842,1.0696716,3.6985626 c-0.4949036,0.8993683-1.4262085,1.4102478-2.3841248,1.4102478c-0.4470215,0-0.899353-0.1064301-1.3144531-0.3405762 L288.8669739,171.7477722z M163.5092468,126.3271561c0.7237396-1.3197784,2.3894348-1.8040543,3.6985626-1.0696564 l15.8001099,8.7116013c1.3197784,0.7237549,1.7987213,2.3841248,1.0696564,3.6985779 c-0.4949188,0.8993683-1.4262085,1.4102478-2.3841248,1.4102478c-0.4470215,0-0.8993683-0.1064301-1.3144531-0.3405914 l-15.8000946-8.7116089C163.2591248,129.3019867,162.7801666,127.6416168,163.5092468,126.3271561z M279.5752869,163.5151215 c-0.4949036,0.8993683-1.4262085,1.4102478-2.3841248,1.4102478c-0.4470215,0-0.899353-0.1064301-1.3144531-0.3405914 l-62.9875031-34.7187042c-1.3197784-0.7237396-1.7987366-2.3841095-1.0696716-3.6985703 c0.7237549-1.3197784,2.3894501-1.8093719,3.6985779-1.0696564l62.9875031,34.7186966 C279.8254089,160.5402985,280.3043518,162.2006683,279.5752869,163.5151215z M295.157196,218.9032593 c-0.4949036,0.8993683-1.4262085,1.4102478-2.3841248,1.4102478c-0.4470215,0-0.899353-0.1064301-1.3144531-0.3405762 l-90.9423523-50.1303253c-1.3197784-0.7237396-1.7987213-2.3841095-1.0696564-3.6985626 c0.7290802-1.3197784,2.3947601-1.8040619,3.6985779-1.0696716l90.942337,50.1303253 C295.4073181,215.9284363,295.886261,217.5888062,295.157196,218.9032593z M148.3051758,137.9550476 c0.7237549-1.3197784,2.3894348-1.8040466,3.6985779-1.0696564l38.1511841,21.031311 c1.3197784,0.7237549,1.7987366,2.3841248,1.0696564,3.6985779c-0.4949036,0.8993683-1.4262085,1.4102478-2.3841095,1.4102478 c-0.4470215,0-0.8993683-0.1064301-1.3144531-0.3405914l-38.1511993-21.031311 C148.0550537,140.9298706,147.5761108,139.2695007,148.3051758,137.9550476z M193.3426361,139.6633148l90.942337,50.1303101 c1.3197937,0.7237549,1.7987366,2.3841095,1.0696716,3.6985779c-0.4949036,0.8993683-1.4262085,1.4102478-2.3841248,1.4102478 c-0.4470215,0-0.899353-0.1064453-1.3144531-0.3405914l-90.9423523-50.1303101 c-1.3197784-0.7237549-1.7987213-2.3841248-1.0696564-3.6985779 C190.3731384,139.4131927,192.0441437,138.9235992,193.3426361,139.6633148z M208.9085693,191.3741608 c-0.4949188,0.8993683-1.4262085,1.4102478-2.3841095,1.4102478c-0.4470215,0-0.8993683-0.1064301-1.3144531-0.3405762 l-71.0445557-39.162323c-1.3197784-0.7237396-1.7987366-2.3841095-1.0696564-3.6985626 c0.7290649-1.3197937,2.4000702-1.8093872,3.6985626-1.0696716l71.0445557,39.162323 C209.1586914,188.3993378,209.6376495,190.0597076,208.9085693,191.3741608z M199.0740967,99.1333237 c0.7237396-1.3144608,2.3947601-1.8040543,3.6985779-1.0696564l42.6213989,23.4899368 c1.3197784,0.7237473,1.7987366,2.3787918,1.0696564,3.6985703c-0.4949036,0.8993683-1.4262085,1.4102478-2.3841095,1.4102478 c-0.4470215,0-0.8993683-0.1064301-1.3144531-0.3405838l-42.6214142-23.4899368 C198.8239746,102.1081467,198.3450165,100.4531021,199.0740967,99.1333237z"/></g></g></svg>