<svg xmlns="http://www.w3.org/2000/svg" xmlns:xlink="http://www.w3.org/1999/xlink" width="1920" zoomAndPan="magnify" viewBox="0 0 1440 809.999993" height="1080" preserveAspectRatio="xMidYMid meet" version="1.0"><defs><g/></defs><g fill="#ff0000" fill-opacity="1"><g transform="translate(287.839036, 252.750007)"><g><path d="M 12.609375 0 L 12.609375 -117.40625 L 45.015625 -117.40625 C 56.421875 -117.40625 66.351562 -115.363281 74.8125 -111.28125 C 83.28125 -107.195312 89.851562 -100.863281 94.53125 -92.28125 C 99.21875 -83.695312 101.5625 -72.679688 101.5625 -59.234375 C 101.5625 -45.796875 99.25 -34.691406 94.625 -25.921875 C 90 -17.160156 83.546875 -10.648438 75.265625 -6.390625 C 66.984375 -2.128906 57.441406 0 46.640625 0 Z M 39.25 -21.421875 L 43.578125 -21.421875 C 49.816406 -21.421875 55.21875 -22.617188 59.78125 -25.015625 C 64.34375 -27.421875 67.910156 -31.382812 70.484375 -36.90625 C 73.066406 -42.4375 74.359375 -49.878906 74.359375 -59.234375 C 74.359375 -68.597656 73.066406 -75.953125 70.484375 -81.296875 C 67.910156 -86.640625 64.34375 -90.421875 59.78125 -92.640625 C 55.21875 -94.859375 49.816406 -95.96875 43.578125 -95.96875 L 39.25 -95.96875 Z M 39.25 -21.421875 "/></g></g></g><g fill="#000000" fill-opacity="1"><g transform="translate(395.874187, 252.750007)"><g><path d="M 54.015625 2.15625 C 46.210938 2.15625 38.828125 0.328125 31.859375 -3.328125 C 24.898438 -6.992188 19.257812 -12.335938 14.9375 -19.359375 C 10.625 -26.378906 8.46875 -34.8125 8.46875 -44.65625 C 8.46875 -54.5 10.625 -62.929688 14.9375 -69.953125 C 19.257812 -76.972656 24.898438 -82.3125 31.859375 -85.96875 C 38.828125 -89.632812 46.210938 -91.46875 54.015625 -91.46875 C 61.816406 -91.46875 69.195312 -89.632812 76.15625 -85.96875 C 83.125 -82.3125 88.769531 -76.972656 93.09375 -69.953125 C 97.414062 -62.929688 99.578125 -54.5 99.578125 -44.65625 C 99.578125 -34.8125 97.414062 -26.378906 93.09375 -19.359375 C 88.769531 -12.335938 83.125 -6.992188 76.15625 -3.328125 C 69.195312 0.328125 61.816406 2.15625 54.015625 2.15625 Z M 54.015625 -19.265625 C 58.097656 -19.265625 61.488281 -20.285156 64.1875 -22.328125 C 66.894531 -24.367188 68.9375 -27.304688 70.3125 -31.140625 C 71.695312 -34.984375 72.390625 -39.488281 72.390625 -44.65625 C 72.390625 -49.8125 71.695312 -54.3125 70.3125 -58.15625 C 68.9375 -62 66.894531 -64.941406 64.1875 -66.984375 C 61.488281 -69.023438 58.097656 -70.046875 54.015625 -70.046875 C 49.929688 -70.046875 46.539062 -69.023438 43.84375 -66.984375 C 41.144531 -64.941406 39.101562 -62 37.71875 -58.15625 C 36.34375 -54.3125 35.65625 -49.8125 35.65625 -44.65625 C 35.65625 -39.488281 36.34375 -34.984375 37.71875 -31.140625 C 39.101562 -27.304688 41.144531 -24.367188 43.84375 -22.328125 C 46.539062 -20.285156 49.929688 -19.265625 54.015625 -19.265625 Z M 54.015625 -19.265625 "/></g></g></g><g fill="#000000" fill-opacity="1"><g transform="translate(503.909372, 252.750007)"><g><path d="M 12.96875 0 L 12.96875 -89.3125 L 34.578125 -89.3125 L 36.546875 -77.421875 L 37.265625 -77.421875 C 41.109375 -81.265625 45.519531 -84.566406 50.5 -87.328125 C 55.488281 -90.085938 61.34375 -91.46875 68.0625 -91.46875 C 78.144531 -91.46875 85.523438 -88.226562 90.203125 -81.75 C 94.890625 -75.269531 97.234375 -66.382812 97.234375 -55.09375 L 97.234375 0 L 70.765625 0 L 70.765625 -51.671875 C 70.765625 -57.679688 69.773438 -62.066406 67.796875 -64.828125 C 65.816406 -67.585938 62.425781 -68.96875 57.625 -68.96875 C 54.019531 -68.96875 50.863281 -68.15625 48.15625 -66.53125 C 45.457031 -64.914062 42.550781 -62.601562 39.4375 -59.59375 L 39.4375 0 Z M 12.96875 0 "/></g></g></g><g fill="#000000" fill-opacity="1"><g transform="translate(611.944557, 252.750007)"><g><path d="M 45.921875 -54.5625 L 39.609375 -97.234375 L 38.71875 -123.34375 L 69.328125 -123.34375 L 68.421875 -97.234375 L 62.125 -54.5625 Z M 45.921875 -54.5625 "/></g></g></g><g fill="#000000" fill-opacity="1"><g transform="translate(719.979731, 252.750007)"><g><path d="M 69.859375 2.15625 C 60.378906 2.15625 52.847656 0.503906 47.265625 -2.796875 C 41.679688 -6.097656 37.628906 -10.6875 35.109375 -16.5625 C 32.585938 -22.445312 31.328125 -29.289062 31.328125 -37.09375 L 31.328125 -68.609375 L 9 -68.609375 L 9 -88.234375 L 32.59375 -89.3125 L 36.015625 -116.6875 L 57.796875 -116.6875 L 57.796875 -89.3125 L 95.609375 -89.3125 L 95.609375 -68.609375 L 57.796875 -68.609375 L 57.796875 -37.265625 C 57.796875 -32.828125 58.457031 -29.226562 59.78125 -26.46875 C 61.101562 -23.707031 63.144531 -21.695312 65.90625 -20.4375 C 68.664062 -19.175781 72.207031 -18.546875 76.53125 -18.546875 C 80.007812 -18.546875 83.1875 -18.84375 86.0625 -19.4375 C 88.945312 -20.039062 91.710938 -20.820312 94.359375 -21.78125 L 99.03125 -2.703125 C 95.070312 -1.503906 90.722656 -0.394531 85.984375 0.625 C 81.242188 1.644531 75.867188 2.15625 69.859375 2.15625 Z M 69.859375 2.15625 "/></g></g></g><g fill="#ff0000" fill-opacity="1"><g transform="translate(287.839036, 468.749996)"><g><path d="M 12.609375 0 L 12.609375 -117.40625 L 54.203125 -117.40625 C 62.484375 -117.40625 70.046875 -116.289062 76.890625 -114.0625 C 83.734375 -111.84375 89.222656 -108.0625 93.359375 -102.71875 C 97.503906 -97.382812 99.578125 -90.09375 99.578125 -80.84375 C 99.578125 -71.84375 97.503906 -64.519531 93.359375 -58.875 C 89.222656 -53.238281 83.734375 -49.066406 76.890625 -46.359375 C 70.046875 -43.660156 62.484375 -42.3125 54.203125 -42.3125 L 39.078125 -42.3125 L 39.078125 0 Z M 39.078125 -63.375 L 52.03125 -63.375 C 59 -63.375 64.3125 -64.84375 67.96875 -67.78125 C 71.632812 -70.726562 73.46875 -75.082031 73.46875 -80.84375 C 73.46875 -86.601562 71.632812 -90.625 67.96875 -92.90625 C 64.3125 -95.1875 59 -96.328125 52.03125 -96.328125 L 39.078125 -96.328125 Z M 49.34375 -49.15625 L 67.703125 -66.265625 L 105.15625 0 L 75.453125 0 Z M 49.34375 -49.15625 "/></g></g></g><g fill="#000000" fill-opacity="1"><g transform="translate(395.874187, 468.749996)"><g><path d="M 59.421875 2.15625 C 50.179688 2.15625 41.804688 0.328125 34.296875 -3.328125 C 26.796875 -6.992188 20.851562 -12.335938 16.46875 -19.359375 C 12.09375 -26.378906 9.90625 -34.8125 9.90625 -44.65625 C 9.90625 -54.375 12.125 -62.742188 16.5625 -69.765625 C 21.007812 -76.796875 26.769531 -82.171875 33.84375 -85.890625 C 40.925781 -89.609375 48.429688 -91.46875 56.359375 -91.46875 C 65.597656 -91.46875 73.335938 -89.578125 79.578125 -85.796875 C 85.828125 -82.015625 90.539062 -76.910156 93.71875 -70.484375 C 96.90625 -64.066406 98.5 -56.773438 98.5 -48.609375 C 98.5 -46.210938 98.347656 -43.90625 98.046875 -41.6875 C 97.742188 -39.46875 97.472656 -37.816406 97.234375 -36.734375 L 29.53125 -36.734375 L 29.53125 -54.5625 L 79.40625 -54.5625 L 75.265625 -49.515625 C 75.265625 -56.722656 73.734375 -62.15625 70.671875 -65.8125 C 67.609375 -69.476562 63.140625 -71.3125 57.265625 -71.3125 C 52.941406 -71.3125 49.15625 -70.347656 45.90625 -68.421875 C 42.664062 -66.503906 40.144531 -63.5625 38.34375 -59.59375 C 36.550781 -55.632812 35.65625 -50.65625 35.65625 -44.65625 C 35.65625 -38.53125 36.734375 -33.515625 38.890625 -29.609375 C 41.054688 -25.710938 44.175781 -22.800781 48.25 -20.875 C 52.332031 -18.957031 57.253906 -18 63.015625 -18 C 67.097656 -18 70.96875 -18.539062 74.625 -19.625 C 78.289062 -20.707031 82.101562 -22.269531 86.0625 -24.3125 L 94.890625 -8.28125 C 89.734375 -5.039062 84.03125 -2.488281 77.78125 -0.625 C 71.539062 1.226562 65.421875 2.15625 59.421875 2.15625 Z M 59.421875 2.15625 "/></g></g></g><g fill="#000000" fill-opacity="1"><g transform="translate(503.909372, 468.749996)"><g><path d="M 12.96875 33.125 L 12.96875 -89.3125 L 34.578125 -89.3125 L 36.546875 -80.3125 L 37.09375 -80.3125 C 40.8125 -83.550781 44.984375 -86.21875 49.609375 -88.3125 C 54.234375 -90.414062 58.941406 -91.46875 63.734375 -91.46875 C 71.179688 -91.46875 77.578125 -89.609375 82.921875 -85.890625 C 88.265625 -82.171875 92.375 -76.890625 95.25 -70.046875 C 98.132812 -63.203125 99.578125 -55.21875 99.578125 -46.09375 C 99.578125 -35.894531 97.742188 -27.191406 94.078125 -19.984375 C 90.421875 -12.785156 85.648438 -7.296875 79.765625 -3.515625 C 73.878906 0.265625 67.578125 2.15625 60.859375 2.15625 C 56.898438 2.15625 53.03125 1.316406 49.25 -0.359375 C 45.46875 -2.035156 42.015625 -4.4375 38.890625 -7.5625 L 38.171875 -7.5625 L 39.4375 7.015625 L 39.4375 33.125 Z M 54.734375 -19.453125 C 58.097656 -19.453125 61.097656 -20.347656 63.734375 -22.140625 C 66.378906 -23.941406 68.484375 -26.789062 70.046875 -30.6875 C 71.609375 -34.59375 72.390625 -39.609375 72.390625 -45.734375 C 72.390625 -51.140625 71.785156 -55.613281 70.578125 -59.15625 C 69.378906 -62.695312 67.609375 -65.363281 65.265625 -67.15625 C 62.929688 -68.957031 59.84375 -69.859375 56 -69.859375 C 53.113281 -69.859375 50.320312 -69.226562 47.625 -67.96875 C 44.925781 -66.707031 42.195312 -64.578125 39.4375 -61.578125 L 39.4375 -25.390625 C 41.957031 -23.347656 44.566406 -21.847656 47.265625 -20.890625 C 49.960938 -19.929688 52.453125 -19.453125 54.734375 -19.453125 Z M 54.734375 -19.453125 "/></g></g></g><g fill="#000000" fill-opacity="1"><g transform="translate(611.944557, 468.749996)"><g><path d="M 59.421875 2.15625 C 50.179688 2.15625 41.804688 0.328125 34.296875 -3.328125 C 26.796875 -6.992188 20.851562 -12.335938 16.46875 -19.359375 C 12.09375 -26.378906 9.90625 -34.8125 9.90625 -44.65625 C 9.90625 -54.375 12.125 -62.742188 16.5625 -69.765625 C 21.007812 -76.796875 26.769531 -82.171875 33.84375 -85.890625 C 40.925781 -89.609375 48.429688 -91.46875 56.359375 -91.46875 C 65.597656 -91.46875 73.335938 -89.578125 79.578125 -85.796875 C 85.828125 -82.015625 90.539062 -76.910156 93.71875 -70.484375 C 96.90625 -64.066406 98.5 -56.773438 98.5 -48.609375 C 98.5 -46.210938 98.347656 -43.90625 98.046875 -41.6875 C 97.742188 -39.46875 97.472656 -37.816406 97.234375 -36.734375 L 29.53125 -36.734375 L 29.53125 -54.5625 L 79.40625 -54.5625 L 75.265625 -49.515625 C 75.265625 -56.722656 73.734375 -62.15625 70.671875 -65.8125 C 67.609375 -69.476562 63.140625 -71.3125 57.265625 -71.3125 C 52.941406 -71.3125 49.15625 -70.347656 45.90625 -68.421875 C 42.664062 -66.503906 40.144531 -63.5625 38.34375 -59.59375 C 36.550781 -55.632812 35.65625 -50.65625 35.65625 -44.65625 C 35.65625 -38.53125 36.734375 -33.515625 38.890625 -29.609375 C 41.054688 -25.710938 44.175781 -22.800781 48.25 -20.875 C 52.332031 -18.957031 57.253906 -18 63.015625 -18 C 67.097656 -18 70.96875 -18.539062 74.625 -19.625 C 78.289062 -20.707031 82.101562 -22.269531 86.0625 -24.3125 L 94.890625 -8.28125 C 89.734375 -5.039062 84.03125 -2.488281 77.78125 -0.625 C 71.539062 1.226562 65.421875 2.15625 59.421875 2.15625 Z M 59.421875 2.15625 "/></g></g></g><g fill="#000000" fill-opacity="1"><g transform="translate(719.979731, 468.749996)"><g><path d="M 40.328125 2.15625 C 34.328125 2.15625 29.132812 0.957031 24.75 -1.4375 C 20.375 -3.84375 16.984375 -7.082031 14.578125 -11.15625 C 12.179688 -15.238281 10.984375 -19.800781 10.984375 -24.84375 C 10.984375 -34.8125 15.515625 -42.4375 24.578125 -47.71875 C 33.640625 -53 48.734375 -56.238281 69.859375 -57.4375 C 69.503906 -60.195312 68.601562 -62.535156 67.15625 -64.453125 C 65.71875 -66.378906 63.648438 -67.851562 60.953125 -68.875 C 58.253906 -69.894531 54.863281 -70.40625 50.78125 -70.40625 C 47.894531 -70.40625 45.007812 -70.070312 42.125 -69.40625 C 39.25 -68.75 36.28125 -67.789062 33.21875 -66.53125 C 30.15625 -65.269531 26.945312 -63.800781 23.59375 -62.125 L 14.21875 -79.40625 C 18.300781 -81.8125 22.59375 -83.910156 27.09375 -85.703125 C 31.601562 -87.503906 36.285156 -88.914062 41.140625 -89.9375 C 46.003906 -90.957031 50.957031 -91.46875 56 -91.46875 C 64.40625 -91.46875 71.609375 -90 77.609375 -87.0625 C 83.609375 -84.125 88.226562 -79.679688 91.46875 -73.734375 C 94.707031 -67.796875 96.328125 -60.265625 96.328125 -51.140625 L 96.328125 0 L 74.71875 0 L 72.75 -10.078125 L 72.03125 -10.078125 C 67.582031 -6.722656 62.65625 -3.84375 57.25 -1.4375 C 51.851562 0.957031 46.210938 2.15625 40.328125 2.15625 Z M 48.796875 -18.359375 C 52.753906 -18.359375 56.472656 -19.171875 59.953125 -20.796875 C 63.441406 -22.421875 66.742188 -24.429688 69.859375 -26.828125 L 69.859375 -41.59375 C 61.097656 -41.113281 54.285156 -40.210938 49.421875 -38.890625 C 44.566406 -37.566406 41.175781 -35.882812 39.25 -33.84375 C 37.332031 -31.8125 36.375 -29.472656 36.375 -26.828125 C 36.375 -25.023438 36.882812 -23.460938 37.90625 -22.140625 C 38.925781 -20.828125 40.363281 -19.867188 42.21875 -19.265625 C 44.082031 -18.660156 46.273438 -18.359375 48.796875 -18.359375 Z M 48.796875 -18.359375 "/></g></g></g><g fill="#000000" fill-opacity="1"><g transform="translate(828.014928, 468.749996)"><g><path d="M 69.859375 2.15625 C 60.378906 2.15625 52.847656 0.503906 47.265625 -2.796875 C 41.679688 -6.097656 37.628906 -10.6875 35.109375 -16.5625 C 32.585938 -22.445312 31.328125 -29.289062 31.328125 -37.09375 L 31.328125 -68.609375 L 9 -68.609375 L 9 -88.234375 L 32.59375 -89.3125 L 36.015625 -116.6875 L 57.796875 -116.6875 L 57.796875 -89.3125 L 95.609375 -89.3125 L 95.609375 -68.609375 L 57.796875 -68.609375 L 57.796875 -37.265625 C 57.796875 -32.828125 58.457031 -29.226562 59.78125 -26.46875 C 61.101562 -23.707031 63.144531 -21.695312 65.90625 -20.4375 C 68.664062 -19.175781 72.207031 -18.546875 76.53125 -18.546875 C 80.007812 -18.546875 83.1875 -18.84375 86.0625 -19.4375 C 88.945312 -20.039062 91.710938 -20.820312 94.359375 -21.78125 L 99.03125 -2.703125 C 95.070312 -1.503906 90.722656 -0.394531 85.984375 0.625 C 81.242188 1.644531 75.867188 2.15625 69.859375 2.15625 Z M 69.859375 2.15625 "/></g></g></g><g fill="#ff0000" fill-opacity="1"><g transform="translate(287.839036, 684.749986)"><g><path d="M 40.6875 0 L 40.6875 -39.609375 L 2.875 -117.40625 L 31.328125 -117.40625 L 43.21875 -89.125 C 45.019531 -84.6875 46.789062 -80.273438 48.53125 -75.890625 C 50.269531 -71.515625 52.039062 -66.984375 53.84375 -62.296875 L 54.5625 -62.296875 C 56.476562 -66.984375 58.363281 -71.515625 60.21875 -75.890625 C 62.082031 -80.273438 63.859375 -84.6875 65.546875 -89.125 L 77.421875 -117.40625 L 105.15625 -117.40625 L 67.34375 -39.609375 L 67.34375 0 Z M 40.6875 0 "/></g></g></g><g fill="#000000" fill-opacity="1"><g transform="translate(395.874187, 684.749986)"><g><path d="M 54.015625 2.15625 C 46.210938 2.15625 38.828125 0.328125 31.859375 -3.328125 C 24.898438 -6.992188 19.257812 -12.335938 14.9375 -19.359375 C 10.625 -26.378906 8.46875 -34.8125 8.46875 -44.65625 C 8.46875 -54.5 10.625 -62.929688 14.9375 -69.953125 C 19.257812 -76.972656 24.898438 -82.3125 31.859375 -85.96875 C 38.828125 -89.632812 46.210938 -91.46875 54.015625 -91.46875 C 61.816406 -91.46875 69.195312 -89.632812 76.15625 -85.96875 C 83.125 -82.3125 88.769531 -76.972656 93.09375 -69.953125 C 97.414062 -62.929688 99.578125 -54.5 99.578125 -44.65625 C 99.578125 -34.8125 97.414062 -26.378906 93.09375 -19.359375 C 88.769531 -12.335938 83.125 -6.992188 76.15625 -3.328125 C 69.195312 0.328125 61.816406 2.15625 54.015625 2.15625 Z M 54.015625 -19.265625 C 58.097656 -19.265625 61.488281 -20.285156 64.1875 -22.328125 C 66.894531 -24.367188 68.9375 -27.304688 70.3125 -31.140625 C 71.695312 -34.984375 72.390625 -39.488281 72.390625 -44.65625 C 72.390625 -49.8125 71.695312 -54.3125 70.3125 -58.15625 C 68.9375 -62 66.894531 -64.941406 64.1875 -66.984375 C 61.488281 -69.023438 58.097656 -70.046875 54.015625 -70.046875 C 49.929688 -70.046875 46.539062 -69.023438 43.84375 -66.984375 C 41.144531 -64.941406 39.101562 -62 37.71875 -58.15625 C 36.34375 -54.3125 35.65625 -49.8125 35.65625 -44.65625 C 35.65625 -39.488281 36.34375 -34.984375 37.71875 -31.140625 C 39.101562 -27.304688 41.144531 -24.367188 43.84375 -22.328125 C 46.539062 -20.285156 49.929688 -19.265625 54.015625 -19.265625 Z M 54.015625 -19.265625 "/></g></g></g><g fill="#000000" fill-opacity="1"><g transform="translate(503.909372, 684.749986)"><g><path d="M 40.15625 2.15625 C 29.945312 2.15625 22.5625 -1.082031 18 -7.5625 C 13.4375 -14.039062 11.15625 -22.925781 11.15625 -34.21875 L 11.15625 -89.3125 L 37.640625 -89.3125 L 37.640625 -37.640625 C 37.640625 -31.628906 38.566406 -27.242188 40.421875 -24.484375 C 42.285156 -21.722656 45.675781 -20.34375 50.59375 -20.34375 C 53.957031 -20.34375 56.957031 -21.0625 59.59375 -22.5 C 62.238281 -23.945312 65.0625 -26.648438 68.0625 -30.609375 L 68.0625 -89.3125 L 94.53125 -89.3125 L 94.53125 0 L 72.921875 0 L 70.9375 -12.78125 L 70.21875 -12.78125 C 66.257812 -8.34375 61.878906 -4.742188 57.078125 -1.984375 C 52.273438 0.773438 46.632812 2.15625 40.15625 2.15625 Z M 40.15625 2.15625 "/></g></g></g><g fill="#000000" fill-opacity="1"><g transform="translate(611.944557, 684.749986)"><g><path d="M 20.890625 0 L 20.890625 -89.3125 L 42.5 -89.3125 L 44.65625 -69.859375 L 45.203125 -69.859375 C 49.640625 -77.179688 55.007812 -82.613281 61.3125 -86.15625 C 67.613281 -89.695312 74.304688 -91.46875 81.390625 -91.46875 C 85.347656 -91.46875 88.554688 -91.164062 91.015625 -90.5625 C 93.484375 -89.96875 96.035156 -89.070312 98.671875 -87.875 L 93.265625 -65.71875 C 90.503906 -66.5625 88.015625 -67.191406 85.796875 -67.609375 C 83.578125 -68.035156 80.785156 -68.25 77.421875 -68.25 C 71.898438 -68.25 66.46875 -66.625 61.125 -63.375 C 55.789062 -60.132812 51.203125 -54.492188 47.359375 -46.453125 L 47.359375 0 Z M 20.890625 0 "/></g></g></g><g fill="#000000" fill-opacity="1"><g transform="translate(719.979731, 684.749986)"><g><path d="M 53.296875 2.15625 C 45.378906 2.15625 37.515625 0.804688 29.703125 -1.890625 C 21.898438 -4.585938 15.179688 -7.800781 9.546875 -11.53125 L 20.890625 -28.09375 C 26.285156 -24.613281 32.015625 -21.972656 38.078125 -20.171875 C 44.140625 -18.367188 50.414062 -17.46875 56.90625 -17.46875 C 61.820312 -17.46875 65.421875 -18.21875 67.703125 -19.71875 C 69.984375 -21.21875 71.125 -22.988281 71.125 -25.03125 C 71.125 -26.351562 70.789062 -27.460938 70.125 -28.359375 C 69.46875 -29.253906 68.328125 -30.09375 66.703125 -30.875 C 65.085938 -31.65625 62.867188 -32.40625 60.046875 -33.125 C 57.222656 -33.851562 53.59375 -34.695312 49.15625 -35.65625 C 37.03125 -38.289062 28.328125 -41.890625 23.046875 -46.453125 C 17.765625 -51.015625 15.125 -56.71875 15.125 -63.5625 C 15.125 -71.96875 18.785156 -78.71875 26.109375 -83.8125 C 33.429688 -88.914062 43.453125 -91.46875 56.171875 -91.46875 C 64.222656 -91.46875 71.519531 -90.175781 78.0625 -87.59375 C 84.601562 -85.019531 90.210938 -82.234375 94.890625 -79.234375 L 83.015625 -63.375 C 78.566406 -66.144531 73.820312 -68.25 68.78125 -69.6875 C 63.738281 -71.125 58.757812 -71.84375 53.84375 -71.84375 C 51.082031 -71.84375 48.800781 -71.570312 47 -71.03125 C 45.195312 -70.488281 43.816406 -69.644531 42.859375 -68.5 C 41.898438 -67.363281 41.421875 -66.140625 41.421875 -64.828125 C 41.421875 -62.421875 42.976562 -60.644531 46.09375 -59.5 C 49.21875 -58.363281 54.5625 -56.957031 62.125 -55.28125 C 71.25 -53.238281 78.390625 -50.894531 83.546875 -48.25 C 88.710938 -45.613281 92.285156 -42.582031 94.265625 -39.15625 C 96.242188 -35.738281 97.234375 -31.570312 97.234375 -26.65625 C 97.234375 -21.25 95.582031 -16.382812 92.28125 -12.0625 C 88.976562 -7.738281 84.054688 -4.285156 77.515625 -1.703125 C 70.972656 0.867188 62.898438 2.15625 53.296875 2.15625 Z M 53.296875 2.15625 "/></g></g></g><g fill="#000000" fill-opacity="1"><g transform="translate(828.014928, 684.749986)"><g><path d="M 59.421875 2.15625 C 50.179688 2.15625 41.804688 0.328125 34.296875 -3.328125 C 26.796875 -6.992188 20.851562 -12.335938 16.46875 -19.359375 C 12.09375 -26.378906 9.90625 -34.8125 9.90625 -44.65625 C 9.90625 -54.375 12.125 -62.742188 16.5625 -69.765625 C 21.007812 -76.796875 26.769531 -82.171875 33.84375 -85.890625 C 40.925781 -89.609375 48.429688 -91.46875 56.359375 -91.46875 C 65.597656 -91.46875 73.335938 -89.578125 79.578125 -85.796875 C 85.828125 -82.015625 90.539062 -76.910156 93.71875 -70.484375 C 96.90625 -64.066406 98.5 -56.773438 98.5 -48.609375 C 98.5 -46.210938 98.347656 -43.90625 98.046875 -41.6875 C 97.742188 -39.46875 97.472656 -37.816406 97.234375 -36.734375 L 29.53125 -36.734375 L 29.53125 -54.5625 L 79.40625 -54.5625 L 75.265625 -49.515625 C 75.265625 -56.722656 73.734375 -62.15625 70.671875 -65.8125 C 67.609375 -69.476562 63.140625 -71.3125 57.265625 -71.3125 C 52.941406 -71.3125 49.15625 -70.347656 45.90625 -68.421875 C 42.664062 -66.503906 40.144531 -63.5625 38.34375 -59.59375 C 36.550781 -55.632812 35.65625 -50.65625 35.65625 -44.65625 C 35.65625 -38.53125 36.734375 -33.515625 38.890625 -29.609375 C 41.054688 -25.710938 44.175781 -22.800781 48.25 -20.875 C 52.332031 -18.957031 57.253906 -18 63.015625 -18 C 67.097656 -18 70.96875 -18.539062 74.625 -19.625 C 78.289062 -20.707031 82.101562 -22.269531 86.0625 -24.3125 L 94.890625 -8.28125 C 89.734375 -5.039062 84.03125 -2.488281 77.78125 -0.625 C 71.539062 1.226562 65.421875 2.15625 59.421875 2.15625 Z M 59.421875 2.15625 "/></g></g></g><g fill="#000000" fill-opacity="1"><g transform="translate(936.050124, 684.749986)"><g><path d="M 71.125 2.15625 C 59.957031 2.15625 51.492188 -1.203125 45.734375 -7.921875 C 39.972656 -14.640625 37.09375 -23.644531 37.09375 -34.9375 L 37.09375 -105.34375 L 9.1875 -105.34375 L 9.1875 -126.046875 L 63.5625 -126.046875 L 63.5625 -33.859375 C 63.5625 -28.328125 65.0625 -24.507812 68.0625 -22.40625 C 71.0625 -20.3125 74.363281 -19.265625 77.96875 -19.265625 C 80.125 -19.265625 82.3125 -19.503906 84.53125 -19.984375 C 86.757812 -20.460938 89.253906 -21.179688 92.015625 -22.140625 L 97.78125 -2.703125 C 93.21875 -1.265625 89.046875 -0.0976562 85.265625 0.796875 C 81.484375 1.703125 76.769531 2.15625 71.125 2.15625 Z M 71.125 2.15625 "/></g></g></g><g fill="#000000" fill-opacity="1"><g transform="translate(1044.085321, 684.749986)"><g><path d="M 38.359375 0 L 38.359375 -91.65625 C 38.359375 -98.5 39.765625 -104.707031 42.578125 -110.28125 C 45.398438 -115.863281 49.722656 -120.273438 55.546875 -123.515625 C 61.367188 -126.765625 68.960938 -128.390625 78.328125 -128.390625 C 83.484375 -128.390625 88.34375 -127.878906 92.90625 -126.859375 C 97.46875 -125.835938 101.613281 -124.722656 105.34375 -123.515625 L 100.296875 -104.078125 C 97.410156 -105.160156 94.4375 -106 91.375 -106.59375 C 88.320312 -107.195312 85.050781 -107.5 81.5625 -107.5 C 75.925781 -107.5 71.726562 -106.238281 68.96875 -103.71875 C 66.207031 -101.195312 64.828125 -97.234375 64.828125 -91.828125 L 64.828125 0 Z M 14.765625 -68.609375 L 14.765625 -88.234375 L 39.25 -89.3125 L 95.609375 -89.3125 L 95.609375 -68.609375 Z M 14.765625 -68.609375 "/></g></g></g></svg>