<svg xmlns="http://www.w3.org/2000/svg" xmlns:xlink="http://www.w3.org/1999/xlink" width="1080" zoomAndPan="magnify" viewBox="0 0 810 809.999993" height="1080" preserveAspectRatio="xMidYMid meet" version="1.0"><defs><clipPath id="c97e303238"><path d="M 298.179688 1 L 510 1 L 510 809 L 298.179688 809 Z M 298.179688 1 " clip-rule="nonzero"/></clipPath></defs><path fill="#ffffff" d="M 501.53125 714.566406 C 501.53125 759.769531 464.863281 796.414062 419.636719 796.414062 C 374.40625 796.414062 337.742188 759.769531 337.742188 714.566406 C 337.742188 669.359375 374.40625 632.714844 419.636719 632.714844 C 455.148438 632.714844 485.378906 655.304688 496.730469 686.894531 Z M 478.085938 533.117188 C 482.140625 510.925781 498.359375 34.847656 484.410156 22.375 C 473.292969 12.433594 332.199219 12.40625 319.925781 22.097656 C 299.355469 38.335938 345.039062 494.242188 350.195312 543.109375 C 352.46875 564.644531 474.769531 551.261719 478.085938 533.117188 Z M 478.085938 533.117188 " fill-opacity="1" fill-rule="nonzero"/><g clip-path="url(#c97e303238)"><path fill="#141313" d="M 501.089844 717.59375 C 501.988281 722.523438 502.453125 727.6875 501.835938 732.753906 L 500.78125 738.691406 C 500.644531 739.695312 500.335938 740.652344 500.066406 741.625 L 499.238281 744.542969 L 498.402344 747.472656 C 498.089844 748.4375 497.679688 749.363281 497.320312 750.316406 C 496.558594 752.199219 495.867188 754.132812 495.023438 755.996094 C 491.554688 763.414062 486.996094 770.367188 481.628906 776.789062 C 476.085938 783.046875 469.695312 788.628906 462.605469 793.449219 C 455.378906 798.007812 447.5625 801.886719 439.175781 804.585938 C 436.976562 805.34375 434.699219 805.78125 432.4375 806.367188 C 431.300781 806.636719 430.160156 806.917969 429.015625 807.160156 L 425.542969 807.625 L 422.050781 808.058594 C 420.886719 808.179688 419.714844 808.386719 418.542969 808.367188 L 411.464844 808.464844 C 402.03125 808.097656 392.488281 806.5 383.433594 803.21875 C 374.410156 799.902344 365.808594 795.316406 357.929688 789.578125 C 350.175781 783.6875 343.152344 776.773438 336.980469 768.980469 C 335.375 766.777344 333.785156 764.542969 332.21875 762.28125 C 330.804688 759.9375 329.492188 757.515625 328.15625 755.09375 C 327.457031 753.898438 326.902344 752.636719 326.367188 751.363281 L 324.742188 747.539062 C 324.234375 746.253906 323.613281 744.996094 323.222656 743.667969 L 321.996094 739.6875 C 318.820312 729.042969 317.3125 717.792969 318.132812 706.632812 C 318.832031 695.46875 321.351562 684.335938 325.710938 673.929688 C 330.070312 663.519531 336.285156 653.929688 343.789062 645.523438 C 349.261719 639.179688 355.808594 633.851562 362.683594 629.089844 C 364.464844 627.988281 366.265625 626.914062 368.074219 625.855469 C 368.976562 625.328125 369.875 624.789062 370.792969 624.285156 L 373.632812 622.941406 L 379.34375 620.328125 C 381.292969 619.566406 383.289062 618.921875 385.265625 618.238281 C 389.183594 616.757812 393.308594 615.96875 397.375 615.074219 C 399.398438 614.5625 401.492188 614.453125 403.550781 614.179688 C 405.617188 613.964844 407.675781 613.691406 409.738281 613.570312 L 415.9375 613.53125 C 418 613.523438 420.054688 613.519531 422.101562 613.773438 C 424.152344 613.980469 426.195312 614.144531 428.222656 614.4375 L 434.269531 615.5625 C 435.980469 615.835938 437.796875 616.476562 439.75 617.027344 C 440.71875 617.332031 441.71875 617.640625 442.75 617.964844 C 443.765625 618.316406 444.792969 618.761719 445.847656 619.179688 C 447.945312 620.070312 450.152344 620.914062 452.308594 622.113281 C 454.472656 623.277344 456.742188 624.355469 458.882812 625.804688 C 467.660156 631.179688 475.925781 638.652344 482.167969 646.5625 C 488.476562 654.457031 492.761719 662.726562 495.304688 669.261719 C 496.660156 672.5 497.445312 675.394531 498.058594 677.589844 C 498.730469 679.761719 498.871094 681.398438 498.953125 682.148438 C 499.050781 683.792969 499.71875 686.277344 496.605469 686.878906 C 493.769531 687.433594 492.292969 685.558594 491.402344 684.089844 C 488.03125 678.863281 484.394531 673.960938 480.25 669.597656 C 468.121094 656.671875 452.078125 648.632812 435.878906 646.339844 C 419.625 644.132812 403.082031 647.363281 389.957031 655.519531 C 382.4375 660.113281 376.140625 666.390625 371.398438 673.425781 C 366.609375 680.449219 363.265625 688.082031 360.859375 695.871094 C 358.507812 704.03125 358.445312 712.792969 360.199219 720.933594 C 361.910156 729.074219 365.515625 736.515625 370.21875 742.863281 C 374.898438 749.25 380.683594 754.558594 386.96875 758.847656 C 393.253906 763.171875 399.964844 766.601562 407.257812 769.433594 C 408.285156 769.964844 409.402344 770.148438 410.492188 770.476562 L 413.808594 771.375 L 417.234375 771.8125 C 418.378906 771.925781 419.53125 772.207031 420.6875 772.128906 L 424.167969 772.144531 C 424.746094 772.128906 425.335938 772.199219 425.910156 772.121094 L 427.632812 771.921875 L 431.097656 771.570312 C 432.238281 771.382812 433.359375 771.082031 434.5 770.867188 C 439.09375 770.03125 443.4375 768.3125 447.890625 766.648438 C 452.15625 764.621094 456.585938 762.609375 460.773438 759.921875 C 464.851562 757.554688 470.632812 752.136719 475.96875 744.597656 C 481.339844 737.074219 486.324219 727.503906 490.296875 717.015625 C 490.75 715.882812 490.632812 714.625 494.796875 714.566406 C 499.292969 714.492188 500.84375 715.964844 501.089844 717.59375 Z M 329.878906 493.367188 L 335.898438 543.253906 C 336.035156 544.191406 336.230469 545.097656 336.390625 546.019531 C 336.621094 546.898438 336.847656 547.785156 337.125 548.625 C 337.652344 550.292969 338.394531 551.878906 339.402344 553.398438 C 341.417969 556.449219 344.300781 558.761719 347.421875 560.589844 C 350.574219 562.40625 354.101562 563.671875 357.71875 564.617188 C 359.585938 565.039062 361.285156 565.464844 363.300781 565.785156 C 364.683594 566.007812 365.957031 566.179688 367.253906 566.328125 C 377.535156 567.457031 387.066406 567.214844 396.558594 566.589844 C 406.015625 565.914062 415.320312 564.726562 424.546875 563.0625 C 433.769531 561.390625 442.910156 559.273438 451.984375 556.441406 C 456.40625 555.039062 460.800781 553.457031 465.164062 551.441406 C 469.527344 549.382812 473.847656 547.164062 478.167969 543.308594 C 479.351562 542.21875 480.757812 540.527344 481.179688 538.371094 C 481.394531 537.332031 481.296875 536.152344 480.820312 535.242188 C 480.320312 534.28125 479.433594 533.605469 478.257812 533.230469 C 472.75 532.382812 472.675781 531.808594 471.148438 532.164062 C 470.523438 532.207031 469.242188 532.609375 466.921875 533.167969 C 464.613281 533.71875 461.351562 534.371094 457.351562 534.917969 C 449.367188 536.042969 438.558594 536.785156 427.070312 536.941406 C 415.585938 537.113281 403.375 536.71875 392.625 535.804688 C 387.261719 535.347656 382.25 534.777344 377.96875 534.105469 C 375.828125 533.777344 373.859375 533.433594 372.148438 533.078125 C 371.269531 532.914062 370.5 532.722656 369.75 532.558594 C 369.476562 532.5 369.65625 532.511719 369.65625 532.511719 C 369.699219 532.515625 369.710938 532.511719 369.699219 532.5 L 369.691406 532.464844 C 369.652344 532.324219 369.730469 532.246094 369.757812 532.238281 L 369.765625 532.234375 L 369.769531 532.234375 C 369.769531 532.234375 369.769531 532.253906 369.765625 532.21875 L 369.660156 531.199219 L 369.101562 525.757812 L 367.933594 514.875 L 365.445312 493.101562 C 363.726562 478.589844 361.886719 464.085938 360 449.582031 C 353.691406 401.105469 348.675781 352.503906 341.625 304.074219 C 335.222656 260.015625 331.675781 215.671875 326.40625 171.492188 C 323.917969 150.558594 321.875 129.585938 320.246094 108.59375 C 319.4375 98.097656 318.730469 87.597656 318.1875 77.097656 C 317.65625 66.597656 317.242188 56.089844 317.320312 45.621094 C 317.351562 42.292969 317.242188 38.964844 317.183594 35.625 C 317.15625 32.285156 317.085938 28.933594 317.65625 25.5625 C 317.828125 24.464844 317.871094 23.269531 317.445312 22.089844 C 317.011719 20.902344 316.1875 19.722656 314.234375 18.539062 C 312.464844 17.476562 311.140625 17.484375 310.164062 18.203125 C 309.664062 18.582031 309.289062 19 308.882812 19.683594 C 308.472656 20.398438 308.097656 21.195312 307.820312 21.800781 C 306.429688 24.78125 305.660156 27.191406 304.941406 29.605469 C 304.25 31.996094 303.699219 34.3125 303.210938 36.613281 C 302.257812 41.191406 301.574219 45.703125 301.050781 50.152344 C 300.003906 59.054688 299.554688 67.742188 299.328125 75.875 C 298.90625 92.132812 299.417969 106.140625 299.160156 114.585938 C 298.144531 150.410156 301.921875 185.898438 302.328125 221.554688 C 303.085938 283.261719 314.019531 344.078125 319.46875 405.289062 C 321.660156 434.78125 326.410156 464.011719 329.878906 493.367188 Z M 507.75 139.878906 C 508.046875 124.652344 507.632812 109.414062 506.917969 94.140625 C 506.1875 78.851562 505.222656 63.597656 504.046875 48.019531 L 503.425781 40.746094 L 503.046875 37.046875 L 502.433594 31.855469 C 501.90625 27.875 501.257812 23.890625 500.042969 20.277344 C 499.457031 18.460938 498.683594 16.78125 497.761719 15.214844 C 497.3125 14.417969 496.730469 13.734375 496.136719 13.019531 C 495.871094 12.640625 495.460938 12.367188 495.265625 11.914062 C 494.921875 11.605469 494.589844 11.261719 494.230469 10.980469 C 492.4375 9.738281 490.699219 8.53125 488.636719 7.6875 C 486.613281 6.808594 484.449219 6.125 482.210938 5.578125 C 481.097656 5.300781 479.976562 5.035156 478.828125 4.832031 C 477.695312 4.601562 476.550781 4.398438 475.394531 4.230469 C 474.246094 4.046875 473.101562 3.863281 471.941406 3.71875 L 469.589844 3.445312 C 463.691406 2.804688 458.003906 2.445312 452.335938 2.179688 C 441.019531 1.671875 429.863281 1.601562 418.71875 1.792969 C 396.4375 2.234375 374.292969 3.605469 352.070312 6.722656 C 347.492188 7.378906 342.90625 8.171875 338.3125 9.179688 C 333.707031 10.210938 329.136719 11.390625 324.359375 13.226562 C 323.054688 13.722656 321.433594 14.570312 320.292969 16.019531 C 319.175781 17.40625 318.480469 19.71875 319.867188 21.894531 C 320.59375 23.097656 321.390625 23.863281 321.976562 24.5 C 322.269531 24.8125 322.519531 25.085938 322.714844 25.324219 C 322.96875 25.550781 323.210938 25.730469 323.417969 25.878906 C 324.316406 26.476562 325.320312 26.4375 326.289062 26.617188 C 327.90625 26.902344 333.8125 26.910156 342.5625 27.460938 C 351.285156 27.976562 362.675781 28.898438 374.785156 30.042969 C 399.039062 32.289062 426.097656 35.5625 441.242188 36.726562 C 447.929688 37.214844 454.585938 37.761719 460.925781 38.480469 L 465.574219 39.058594 L 466.511719 39.195312 L 466.511719 39.1875 C 466.511719 39.1875 466.527344 39.160156 466.558594 39.140625 C 466.585938 39.125 466.617188 39.121094 466.65625 39.121094 C 466.671875 39.125 466.695312 39.128906 466.71875 39.140625 C 466.730469 39.136719 466.742188 39.140625 466.761719 39.222656 L 466.789062 39.3125 L 466.886719 40.234375 C 467.460938 45.496094 467.898438 51.09375 468.300781 56.710938 C 469.089844 67.980469 469.707031 79.46875 470.289062 90.976562 C 472.679688 140.734375 472.632812 190.941406 474.859375 241.117188 C 476.835938 286.789062 475.820312 332.492188 477.039062 378.226562 C 478.148438 421.558594 477.972656 464.894531 477.753906 508.210938 C 477.6875 515.09375 478.460938 522 478.859375 528.929688 C 478.925781 530.066406 479.304688 531.179688 480.222656 532.125 C 481.144531 533.039062 482.554688 533.972656 484.8125 534.339844 C 486.894531 534.707031 488.027344 533.945312 488.628906 533.105469 C 489.230469 532.265625 489.351562 531.175781 489.59375 530.210938 C 491.816406 521.375 493.277344 512.601562 494.480469 503.742188 C 495.667969 494.925781 496.507812 486.195312 497.164062 477.988281 C 498.472656 461.582031 499.03125 447.292969 499.941406 438.726562 C 503.800781 402.386719 503.390625 365.847656 506.535156 329.425781 C 511.9375 266.398438 507.394531 203.144531 507.75 139.878906 Z M 507.75 139.878906 " fill-opacity="1" fill-rule="nonzero"/></g></svg>