<?xml version="1.0" encoding="UTF-8" standalone="no"?>
<svg
   version="1.2"
   class="svggear"
   x="0px"
   y="0px"
   width="691.97742"
   height="835.62195"
   viewBox="-188 -188 691.97742 835.62195"
   overflow="scroll"
   xml:space="preserve"
   id="svg5"
   sodipodi:docname="gears.svg"
   inkscape:version="1.2.2 (b0a8486, 2022-12-01)"
   xmlns:inkscape="http://www.inkscape.org/namespaces/inkscape"
   xmlns:sodipodi="http://sodipodi.sourceforge.net/DTD/sodipodi-0.dtd"
   xmlns="http://www.w3.org/2000/svg"
   xmlns:svg="http://www.w3.org/2000/svg"><sodipodi:namedview
   id="namedview9"
   pagecolor="white"
   bordercolor="#111"
   borderopacity="1"
   inkscape:showpageshadow="0"
   inkscape:pageopacity="0"
   inkscape:pagecheckerboard="1"
   inkscape:deskcolor="white"
   showgrid="false"
   inkscape:zoom="0.28242437"
   inkscape:cx="-230.15011"
   inkscape:cy="378.86249"
   inkscape:window-width="1309"
   inkscape:window-height="456"
   inkscape:window-x="0"
   inkscape:window-y="25"
   inkscape:window-maximized="0"
   inkscape:current-layer="svg5" /><defs
   id="defs9" />
			<path
   id="gearpoly2"
   data-id="2"
   class="gear"
   fill="#ddd"
   stroke="#444"
   stroke-width="1"
   stroke-miterlimit="10"
   d="m 203.60204,166.01304 -15.84819,8.18862 -0.11663,0.0657 -0.22366,0.13506 -0.32629,0.21127 -0.42423,0.29404 -0.51715,0.38315 -0.60471,0.47843 -0.68664,0.57954 -0.76268,0.68626 -0.83256,0.79825 -0.89596,0.91535 -0.9527,1.03718 -1.00256,1.16339 -1.04529,1.29372 -1.08063,1.42784 -1.10845,1.56541 -1.12858,1.70608 -1.14078,1.8495 -1.14499,1.99529 -1.14102,2.1431 -1.12875,2.29256 -1.10812,2.44328 -1.07897,2.5949 -1.04129,2.74698 -0.995,2.89917 -0.47743,1.5066 -0.23323,0.76751 -0.0577,0.19339 -0.007,0.0242 -0.001,0.006 -10e-4,0.006 6.73453,9.06499 0.005,5.2e-4 0.007,-3e-5 0.0253,-7e-5 0.20179,5.4e-4 0.80217,-0.001 1.58028,-0.0222 3.06298,-0.11556 2.93065,-0.20382 2.79591,-0.28381 2.65916,-0.35549 2.52083,-0.41877 2.38128,-0.47365 2.2409,-0.52014 2.10011,-0.5582 1.95926,-0.58792 1.81877,-0.60933 1.67903,-0.62236 1.54042,-0.62723 1.40331,-0.62398 1.26805,-0.61272 1.13504,-0.59354 1.00465,-0.56662 0.87722,-0.53208 0.7531,-0.49008 0.63263,-0.44083 0.51617,-0.38448 0.40396,-0.32131 0.29648,-0.25141 0.19389,-0.17512 0.0966,-0.0926 12.41563,-12.80903 21.39819,16.14058 -8.90527,15.4569 -0.0626,0.11831 -0.11513,0.23455 -0.16028,0.35413 -0.19793,0.47672 -0.2279,0.60193 -0.25006,0.7294 -0.26433,0.85876 -0.27061,0.98964 -0.26881,1.12166 -0.25889,1.25444 -0.24077,1.38759 -0.21444,1.52073 -0.17991,1.65347 -0.13715,1.78541 -0.0861,1.91618 -0.027,2.04541 0.0402,2.17264 0.11552,2.29757 0.19876,2.41977 0.28988,2.5389 0.38874,2.6545 0.49521,2.7663 0.60914,2.87387 0.73037,2.97688 0.41288,1.52556 0.21835,0.77187 0.0559,0.19391 0.007,0.0243 0.002,0.006 0.002,0.006 10.56635,3.98499 0.005,-0.003 0.005,-0.004 0.0213,-0.0135 0.17006,-0.10863 0.6739,-0.43509 1.31747,-0.87296 2.51428,-1.7532 2.35521,-1.75591 2.19862,-1.75034 2.04485,-1.7367 1.89425,-1.71516 1.74715,-1.6859 1.60398,-1.64905 1.46497,-1.60496 1.33038,-1.55386 1.20066,-1.49587 1.07602,-1.43133 0.95678,-1.36047 0.84319,-1.2836 0.73548,-1.20101 0.63398,-1.11297 0.53882,-1.01983 0.4503,-0.92188 0.36859,-0.81944 0.29388,-0.71287 0.22635,-0.6025 0.16616,-0.48872 0.11349,-0.37178 0.0683,-0.25218 0.0311,-0.13016 3.51962,-17.48804 26.72755,2.00959 0.86505,17.81772 0.0113,0.13334 0.03,0.25953 0.0566,0.38457 0.0913,0.50804 0.13372,0.62957 0.18395,0.74882 0.24143,0.86548 0.30742,0.97884 0.38028,1.08891 0.46042,1.19526 0.54764,1.2975 0.64177,1.39526 0.7426,1.48824 0.8499,1.57611 0.96354,1.65858 1.08308,1.7353 1.20846,1.806 1.33932,1.87041 1.47544,1.92817 1.61648,1.97911 1.76217,2.02296 1.91218,2.05943 2.06618,2.08831 2.22384,2.10945 1.1721,1.06015 0.60128,0.53101 0.15188,0.13287 0.0188,0.0167 0.004,0.004 0.003,0.003 11.04344,-2.3602 0.003,-0.004 0.002,-0.006 0.0107,-0.0228 0.0843,-0.18332 0.3317,-0.73038 0.63634,-1.44666 1.16731,-2.83421 1.03202,-2.75046 0.90329,-2.66115 0.78129,-2.56654 0.66625,-2.467 0.55838,-2.36283 0.45779,-2.25447 0.36464,-2.14221 0.27913,-2.02642 0.20133,-1.90755 0.13138,-1.78584 0.0694,-1.66178 0.0149,-1.53569 -0.0306,-1.40799 -0.0684,-1.27906 -0.0981,-1.14924 -0.11958,-1.01899 -0.13295,-0.88863 -0.13815,-0.75859 -0.1353,-0.62925 -0.12441,-0.50094 -0.10573,-0.37408 -0.0788,-0.24914 -0.044,-0.12635 -6.49384,-16.61472 23.57111,-12.75941 10.36071,14.52152 0.0816,0.1061 0.16556,0.20213 0.25557,0.29291 0.35141,0.37808 0.45287,0.45735 0.55962,0.53045 0.67134,0.59719 0.78779,0.65727 0.90863,0.71048 1.03353,0.75659 1.16217,0.79545 1.29422,0.8268 1.42931,0.85052 1.56711,0.86643 1.70722,0.87439 1.84934,0.87428 1.99301,0.86596 2.13793,0.84938 2.28365,0.8244 2.42988,0.79102 2.57612,0.74911 2.72203,0.69867 2.86723,0.63972 3.01128,0.57228 1.55919,0.25816 0.79291,0.12161 0.19959,0.0296 0.0249,0.004 0.006,0.001 0.005,5.2e-4 8.01431,-7.95605 -7.2e-4,-0.006 -7.1e-4,-0.006 -0.004,-0.0249 -0.0281,-0.19982 -0.11583,-0.79376 -0.2468,-1.56105 -0.55029,-3.01535 -0.61882,-2.87183 -0.67882,-2.72702 -0.73035,-2.58152 -0.77328,-2.43555 -0.80773,-2.28964 -0.83377,-2.14407 -0.8514,-1.99926 -0.86074,-1.85568 -0.86194,-1.71355 -0.85501,-1.57336 -0.84006,-1.43548 -0.81735,-1.30021 -0.78693,-1.16793 -0.74904,-1.03906 -0.70383,-0.91377 -0.65152,-0.79258 -0.59228,-0.67567 -0.52635,-0.56346 -0.45404,-0.4562 -0.37554,-0.35413 -0.29104,-0.25766 -0.20095,-0.16699 -0.10551,-0.0824 -14.44557,-10.46634 12.93101,-23.47742 16.56691,6.61487 0.12598,0.0452 0.24852,0.0807 0.37337,0.10825 0.50007,0.12785 0.62824,0.1399 0.75756,0.14368 0.88764,0.13942 1.01808,0.12702 1.14851,0.10645 1.27851,0.0777 1.40772,0.0408 1.53578,-0.004 1.66223,-0.0572 1.78676,-0.11836 1.90894,-0.18741 2.02843,-0.26434 2.1448,-0.349 2.25775,-0.44131 2.36687,-0.54112 2.47179,-0.64822 2.57213,-0.76262 2.66768,-0.88384 2.75794,-1.01195 2.84263,-1.14658 1.45127,-0.6258 0.73275,-0.32637 0.18393,-0.083 0.0226,-0.0108 0.005,-0.003 0.005,-0.003 2.4407,-11.02593 -0.004,-0.005 -0.004,-0.005 -0.0168,-0.0188 -0.13175,-0.15285 -0.5266,-0.60511 -1.05157,-1.1798 -2.09319,-2.2392 -2.07315,-2.08137 -2.04543,-1.92714 -2.01005,-1.77688 -1.96727,-1.63088 -1.91737,-1.48946 -1.86056,-1.35294 -1.79714,-1.2216 -1.72738,-1.09571 -1.65151,-0.97554 -1.5699,-0.86138 -1.48277,-0.75342 -1.39055,-0.65192 -1.29346,-0.55709 -1.19187,-0.46912 -1.08612,-0.38821 -0.97658,-0.31451 -0.86356,-0.2482 -0.74752,-0.1891 -0.62858,-0.13833 -0.50737,-0.0949 -0.38416,-0.0594 -0.25931,-0.0318 -0.13329,-0.0123 -17.81092,-0.99499 -1.81459,-26.741495 17.51323,-3.391957 0.1304,-0.03013 0.25265,-0.06654 0.37264,-0.11072 0.48987,-0.16261 0.60415,-0.221956 0.71499,-0.288672 0.82211,-0.362598 0.92514,-0.443562 1.02372,-0.531391 1.11758,-0.625847 1.20634,-0.726722 1.28972,-0.833785 1.36741,-0.94683 1.43914,-1.065559 1.50456,-1.189706 1.56352,-1.319021 1.61566,-1.453185 1.66074,-1.591875 1.69859,-1.73482 1.72893,-1.881695 1.75156,-2.032116 1.76634,-2.185798 1.77303,-2.342356 1.77148,-2.501421 0.88255,-1.311049 0.44001,-0.670726 0.10993,-0.169227 0.0135,-0.02143 0.004,-0.0055 0.004,-0.0054 -3.90782,-10.595141 -0.005,-0.0019 -0.007,-0.0019 -0.0242,-0.0069 -0.19346,-0.05737 -0.77017,-0.224348 -1.52249,-0.423976 -2.97147,-0.752059 -2.86937,-0.630057 -2.76262,-0.515377 -2.65159,-0.408098 -2.53671,-0.308388 -2.41825,-0.216407 -2.29667,-0.132271 -2.1723,-0.05606 -2.04553,0.01212 -1.91678,0.07219 -1.78635,0.124106 -1.65475,0.167847 -1.52225,0.203356 -1.38929,0.230629 -1.2563,0.249736 -1.12359,0.260627 -0.99159,0.263386 -0.86066,0.258044 -0.73122,0.244737 -0.60357,0.223485 -0.47814,0.194446 -0.35532,0.157715 -0.23535,0.113414 -0.11871,0.06179 -15.52143,8.792276 -15.98407,-21.515327 12.89924,-12.32189 0.0931,-0.0961 0.17677,-0.19237 0.25356,-0.29466 0.32418,-0.40166 0.38825,-0.51334 0.44542,-0.6294 0.49558,-0.74951 0.53846,-0.87331 0.57393,-1.00049 0.60181,-1.13069 0.62195,-1.26355 0.63421,-1.39872 0.63845,-1.5358 0.63459,-1.67445 0.62252,-1.81429 0.60219,-1.95493 0.57351,-2.09598 0.53611,-2.2371306 0.49099,-2.37776 0.43716,-2.5177 0.37486,-2.65651 0.3042,-2.79375 0.22522,-2.92909 0.13789,-3.06207 0.0336,-1.58007 0.008,-0.80212 8.6e-4,-0.2017894 -8e-5,-0.0253 -7e-5,-0.007 5.9e-4,-0.005 -9.01564,-6.80047 -0.006,0.002 -0.006,0.002 -0.0243,0.007 -0.19377,0.0563 -0.76921,0.22758 -1.51002,0.46643 -2.90638,0.97383 -2.75451,1.02123 -2.60268,1.06002 -2.45129,1.09026 -2.30076,1.11197 -2.15135,1.1253894 -2.00358,1.13043 -1.85776,1.12726 -1.71426,1.1161 -1.57346,1.097 -1.43569,1.07019 -1.3013,1.03582 -1.17066,0.99406 -1.04408,0.94514 -0.92183,0.88929998 -0.80431,0.82673 -0.69177,0.75767002 -0.58451,0.68241 -0.48281,0.60123 -0.38695,0.5143 -0.29711,0.42209 -0.21366,0.32472 -0.1367,0.22266 -0.0665,0.11614 -8.30399,15.7880506 -25.07872,-9.45821 4.18982,-17.3396706 0.0268,-0.13117 0.0444,-0.25747 0.054,-0.38496 0.0556,-0.51317 0.0491,-0.64174 0.0345,-0.77031 0.012,-0.8984394 -0.0192,-1.02579 -0.0581,-1.15198 -0.10502,-1.27654 -0.15992,-1.39923 -0.22267,-1.51954 -0.29321,-1.63717 -0.37143,-1.75173 -0.45718,-1.86285 -0.55036,-1.97013 -0.6507,-2.07332 -0.75813,-2.17195 -0.87244,-2.26574 -0.99343,-2.35437 -1.12085,-2.43747 -1.2545,-2.51473 -1.39412,-2.58585 -1.53947,-2.65054 -0.82595,-1.34741 -0.42731,-0.67891 -0.10837,-0.17022 -0.0135,-0.0212 -0.004,-0.005 -0.004,-0.005 -11.26105,-0.84671 -0.004,0.004 -0.004,0.004 -0.0167,0.0188 -0.13271,0.15203 -0.52402,0.60732 -1.01813,1.20881 -1.91848,2.39051 -1.76512,2.34833 -1.61644,2.29885 -1.47273,2.24247 -1.33431,2.17934 -1.20143,2.10983 -1.07438,2.03418 -0.9534,1.9527 -0.83874,1.86572 -0.73058,1.77353 -0.6292,1.6765 -0.53472,1.57492 -0.4474,1.46915 -0.36733,1.35958 -0.29472,1.2465 -0.22969,1.13033 -0.17233,1.01139 -0.12279,0.8901 -0.0812,0.76679 -0.0474,0.64188 -0.0217,0.5157 -0.004,0.3887 0.006,0.26123 0.006,0.13364 1.54991,17.7712394 -26.21107,5.6018306 -5.84984,-16.8522606 -0.0483,-0.12474 -0.10178,-0.24064 -0.16271,-0.35303 -0.2307,-0.46174 -0.3057,-0.56639 -0.38754,-0.66662 -0.47594,-0.76212 -0.57071,-0.8526 -0.67166,-0.93769 -0.7785,-1.01713 -0.89099,-1.0906394 -1.00885,-1.15793 -1.13179,-1.21877 -1.25952,-1.27284 -1.39144,-1.32026 -1.52809,-1.3599 -1.66831,-1.39239 -1.81203,-1.4173 -1.9589,-1.43439 -2.10859,-1.44354 -2.26073,-1.44454 -2.41491,-1.43728 -2.57084,-1.42162 -2.72806,-1.39748 -1.42331,-0.68698 -0.72652,-0.34008 -0.18318,-0.0846 -0.0229,-0.0107 -0.006,-0.002 -0.006,-0.002 -9.93115,5.37588 -0.001,0.006 -0.001,0.006 -0.003,0.025 -0.0293,0.19965 -0.11247,0.79425 -0.20301,1.56734 -0.32154,3.04826 -0.21531,2.92983 -0.11697,2.80783 -0.0266,2.6826894 0.0558,2.55477 0.12996,2.42444 0.19593,2.29212 0.25365,2.15815998 0.30309,2.02299002 0.34426,1.88699 0.37707,1.75052 0.40164,1.61399 0.41794,1.47781 0.42602,1.34235 0.42597,1.2079706 0.41787,1.07507 0.40185,0.94399 0.37795,0.81516 0.34593,0.68913 0.3071,0.56562 0.26052,0.44561 0.20669,0.32922 0.14578,0.21682 0.078,0.10874 10.9117,14.11218 -19.02155,18.883326 -14.03223,-11.014356 -0.10812,-0.0788 -0.21575,-0.14739 -0.32772,-0.20905 -0.4437,-0.26376 -0.56336,-0.31123 -0.6864,-0.35132 -0.81239,-0.38386 -0.94106,-0.4087 -1.07199,-0.4257 -1.20483,-0.43478 -1.33919,-0.43581 -1.47472,-0.42872 -1.61102,-0.41341 -1.74772,-0.38986 -1.88443,-0.35797 -2.02073,-0.31785 -2.15625,-0.26939 -2.29064,-0.21265 -2.42342,-0.14762 -2.5543,-0.0744 -2.68281,0.007 -2.80861,0.0965 -2.93132,0.19394 -3.05051,0.29929 -1.56879,0.19157 -0.79504,0.10668 -0.19985,0.0278 -0.0249,0.004 -0.006,4.3e-4 -0.006,4.3e-4 -5.44819,9.89167 0.002,0.005 0.003,0.006 0.0108,0.0228 0.0833,0.18379 0.33477,0.72898 0.67661,1.42828 1.37751,2.738192 1.40282,2.581147 1.41964,2.425337 1.42801,2.271188 1.42812,2.119064 1.42007,1.969315 1.40405,1.822329 1.38017,1.678425 1.3487,1.53798 1.30977,1.401315 1.26362,1.268772 1.21045,1.140666 1.15056,1.01727 1.08411,0.89893 1.01143,0.785907 0.93277,0.678475 0.84839,0.576914 0.75866,0.481454 0.66378,0.39234 0.56416,0.309787 0.46008,0.234029 0.35184,0.16527 0.23986,0.103645 0.1244,0.04931 16.80913,5.972597 -5.79285,26.169506 -17.75947,-1.67947 -0.13361,-0.008 -0.26116,-0.007 -0.38874,10e-4 -0.51585,0.018 -0.6422,0.0427 -0.76736,0.0755 -0.89097,0.11629 -1.01262,0.16496 -1.13198,0.22143 -1.24862,0.28562 -1.3622,0.35741 -1.47239,0.43665 -1.57878,0.52324 -1.68104,0.61695 -1.77881,0.71762 -1.87181,0.8251 -1.95961,0.9391 -2.04195,1.05953 -2.11854,1.18599 -2.18904,1.31838 -2.25313,1.45633 -2.31059,1.59963 -2.36112,1.74794 -2.40447,1.90101 -1.21617,1.0093 -0.61114,0.51959 -0.15313,0.13141 -0.0189,0.0168 -0.004,0.004 -0.004,0.004 0.76452,11.26692 0.005,0.003 0.007,0.004 0.0211,0.0134 0.16946,0.10957 0.67573,0.43226 1.34138,0.83575 2.63923,1.55877 2.57562,1.41296 2.50551,1.2728 2.42921,1.13862 2.34706,1.01057 2.25933,0.88893 2.16638,0.77396 2.06851,0.66579 1.96611,0.56465 1.85945,0.47077 1.74896,0.38419 1.63498,0.30521 1.51788,0.23375 1.39801,0.17011 1.27576,0.11434 1.15152,0.0665 1.02562,0.0266 0.8985,-0.005 0.77054,-0.0288 0.64207,-0.0444 0.51358,-0.0519 0.38533,-0.0512 0.25779,-0.0425 0.13134,-0.0258 17.36979,-4.06324 z"
   style="fill:#aaaaaa;fill-opacity:0.74901962;stroke:#000000;stroke-width:10;stroke-dasharray:none;stroke-opacity:1" /><path
   id="gearpoly1"
   data-id="1"
   class="gear"
   fill="#ddd"
   stroke="#444"
   stroke-width="1"
   stroke-miterlimit="10"
   d="m 358.99101,420.03743 14.68584,-2.28717 0.11804,-0.0226 0.21544,-0.046 0.31169,-0.0746 0.40646,-0.10802 0.49979,-0.14615 0.59142,-0.18904 0.68109,-0.23657 0.76876,-0.28864 0.85416,-0.34522 0.93719,-0.40623 1.01764,-0.47153 1.09536,-0.54111 1.17017,-0.6148 1.24197,-0.69254 1.31055,-0.77421 1.37574,-0.85972 1.43747,-0.94889 1.49555,-1.04168 1.54984,-1.13788 1.60024,-1.23742 1.64655,-1.34013 1.6887,-1.44589 1.72653,-1.55455 1.76,-1.66593 1.78891,-1.77992 1.81321,-1.89633 1.83271,-2.01503 1.84745,-2.13585 0.92769,-1.11381 0.4646,-0.5685 0.0581,-0.0715 0.029,-0.0359 0.0145,-0.0181 0.008,-0.009 0.003,-0.004 0.003,-0.004 -3.7061,-12.48713 -0.005,-0.003 -0.005,-0.003 -0.011,-0.004 -0.0218,-0.007 -0.0441,-0.0138 -0.0878,-0.0285 -0.69946,-0.22298 -1.38515,-0.42739 -2.7135,-0.78218 -2.63525,-0.68896 -2.55413,-0.60014 -2.47027,-0.51582 -2.38386,-0.43607 -2.29507,-0.36094 -2.20405,-0.29056 -2.11105,-0.22489 -2.01617,-0.16411 -1.91966,-0.10815 -1.82167,-0.0571 -1.72237,-0.011 -1.62201,0.0304 -1.52069,0.0665 -1.41869,0.0971 -1.31611,0.12303 -1.2132,0.1441 -1.11013,0.15987 -1.00706,0.17075 -0.90421,0.17663 -0.80174,0.17747 -0.69985,0.17335 -0.59879,0.16418 -0.49862,0.1501 -0.3996,0.13129 -0.30188,0.10747 -0.20566,0.079 -0.11109,0.0459 -13.55579,6.09477 -12.95296,-22.99935 12.23912,-8.43262 0.0967,-0.0712 0.17418,-0.13491 0.24843,-0.20243 0.31936,-0.27364 0.38688,-0.34857 0.4508,-0.42691 0.511,-0.50867 0.56741,-0.59361 0.61977,-0.68164 0.66815,-0.77263 0.71226,-0.86638 0.75209,-0.96278 0.78754,-1.06163 0.8185,-1.16284 0.84482,-1.26616 0.86653,-1.37149 0.88339,-1.47863 0.89549,-1.58741 0.90265,-1.69763 0.90486,-1.80919 0.90202,-1.92182 0.89408,-2.03542 0.88106,-2.14974 0.86288,-2.26457 0.83946,-2.37984 0.81085,-2.49526 0.77693,-2.61065 0.73781,-2.72589 0.35254,-1.40604 0.17191,-0.71379 0.0212,-0.0898 0.0109,-0.0449 0.005,-0.0225 0.003,-0.0114 0.002,-0.005 0.002,-0.005 -8.75704,-9.64251 -0.005,1e-5 -0.006,10e-4 -0.0118,0.001 -0.023,0.003 -0.0457,0.006 -0.0914,0.0126 -0.72699,0.1027 -1.43337,0.21605 -2.78414,0.4726 -2.67323,0.52268 -2.56156,0.56747 -2.44946,0.60708 -2.33696,0.64142 -2.2244,0.67057 -2.11185,0.69454 -1.99957,0.71332 -1.88772,0.72694 -1.77647,0.73548 -1.66605,0.73892 -1.55662,0.73734 -1.44836,0.7308 -1.34145,0.71934 -1.23603,0.70305 -1.13237,0.68195 -1.03056,0.65618 -0.93077,0.6258 -0.83321,0.59081 -0.73802,0.55148 -0.64534,0.50776 -0.55537,0.45982 -0.46825,0.40771 -0.38408,0.35163 -0.30308,0.29161 -0.22535,0.22784 -0.15103,0.16039 -0.0803,0.0895 -9.5689,11.37282 -21.64925,-15.1016 7.3683,-12.9079 0.0562,-0.10622 0.0984,-0.19714 0.13593,-0.29017 0.16904,-0.38513 0.19734,-0.48187 0.22123,-0.58014 0.23969,-0.68003 0.25365,-0.78097 0.2627,-0.88305 0.26673,-0.98599 0.26582,-1.08962 0.2599,-1.19377 0.24892,-1.29819 0.23289,-1.40283 0.21178,-1.50732 0.18564,-1.61163 0.15439,-1.7155 0.11804,-1.81873 0.0767,-1.92118 0.0302,-2.02262 -0.0211,-2.12288 -0.0778,-2.22177 -0.13912,-2.31908 -0.20481,-2.41477 -0.27614,-2.50839 -0.35215,-2.59993 -0.43272,-2.68924 -0.518,-2.77606 -0.29244,-1.41977 -0.15471,-0.71769 -0.0201,-0.0899 -0.0101,-0.0451 -0.005,-0.0225 -10e-4,-0.0117 -0.001,-0.006 -10e-4,-0.005 -12.07357,-4.88805 -0.005,0.002 -0.005,0.002 -0.0102,0.006 -0.0192,0.0132 -0.0384,0.0255 -0.0768,0.051 -0.61045,0.40783 -1.19777,0.81647 -2.30337,1.6338 -2.18172,1.63077 -2.06167,1.62272 -1.9435,1.60972 -1.82722,1.5919 -1.71315,1.56931 -1.60137,1.54203 -1.49203,1.51027 -1.38537,1.47399 -1.28144,1.43342 -1.18047,1.38863 -1.08254,1.33972 -0.98785,1.28683 -0.89647,1.23014 -0.80863,1.16973 -0.72432,1.10572 -0.64379,1.03833 -0.56707,0.96766 -0.49434,0.89386 -0.42566,0.81707 -0.36111,0.7375 -0.30086,0.65523 -0.24494,0.5705 -0.19345,0.48347 -0.14616,0.3944 -0.10415,0.30304 -0.0664,0.21006 -0.0334,0.11538 -3.68681,14.39837 -26.05766,-4.21284 1.03809,-14.82657 0.004,-0.12003 0.004,-0.22033 -0.004,-0.32043 -0.0152,-0.4203 -0.0318,-0.51975 -0.0524,-0.61868 -0.0791,-0.71665 -0.11021,-0.81371 -0.14666,-0.90954 -0.18752,-1.00409 -0.23328,-1.09706 -0.28382,-1.18827 -0.339,-1.27765 -0.39881,-1.36495 -0.46321,-1.44995 -0.53201,-1.53255 -0.60523,-1.6126 -0.68276,-1.68985 -0.76448,-1.76419 -0.8503,-1.83545 -0.94014,-1.90346 -1.03386,-1.96811 -1.1314,-2.02917 -1.23251,-2.08658 -1.33722,-2.14013 -1.44534,-2.1897 -1.55669,-2.23517 -1.67119,-2.2764 -0.87946,-1.1523 -0.45086,-0.57944 -0.0569,-0.0726 -0.0285,-0.0363 -0.0141,-0.0182 -0.007,-0.01 -0.003,-0.005 -0.003,-0.005 -12.99873,0.83456 -0.003,0.004 -0.003,0.004 -0.006,0.009 -0.0119,0.0198 -0.0238,0.0396 -0.0471,0.0793 -0.37307,0.63233 -0.7249,1.25529 -1.36636,2.47141 -1.25808,2.41587 -1.15347,2.35657 -1.05257,2.29354 -0.95558,2.22707 -0.8626,2.15718 -0.77375,2.08416 -0.68901,2.00806 -0.60862,1.92911 -0.5326,1.84746 -0.46107,1.76327 -0.39406,1.67676 -0.33167,1.588 -0.27397,1.49729 -0.221,1.40473 -0.17284,1.31051 -0.12953,1.21484 -0.0911,1.11786 -0.0575,1.01981 -0.0289,0.92084 -0.005,0.82115 0.0132,0.72088 0.0263,0.62033 0.0348,0.51955 0.0389,0.4188 0.0376,0.31825 0.0309,0.21812 0.0199,0.11852 2.92552,14.57211 -25.30502,7.51037 -5.49773,-13.80871 -0.0478,-0.11023 -0.0928,-0.19983 -0.1421,-0.28723 -0.19574,-0.37226 -0.25371,-0.45474 -0.31592,-0.53451 -0.3822,-0.61137 -0.45247,-0.68525 -0.52664,-0.75594 -0.60457,-0.82328 -0.68617,-0.88721 -0.77128,-0.94749 -0.85978,-1.00402 -0.95154,-1.05673 -1.04643,-1.10539 -1.14429,-1.14997 -1.24497,-1.19029 -1.34834,-1.22626 -1.45422,-1.25776 -1.56249,-1.28477 -1.67292,-1.30706 -1.7854,-1.3246 -1.89977,-1.33736 -2.0158,-1.34517 -2.13337,-1.34799 -2.25227,-1.34574 -2.37233,-1.33839 -2.49336,-1.32589 -1.29235,-0.65658 -0.6576,-0.32643 -0.0828,-0.0407 -0.0414,-0.0204 -0.0207,-0.0101 -0.009,-0.006 -0.005,-0.003 -0.005,-0.003 -11.34937,6.39186 -0.002,0.005 -7e-5,0.006 -0.001,0.0114 -0.002,0.023 -0.004,0.046 -0.008,0.0918 -0.0618,0.73157 -0.10845,1.44551 -0.15877,2.81952 -0.0853,2.72249 -0.0167,2.62364 0.0468,2.52311 0.10534,2.42112 0.15876,2.31785 0.20718,2.21345 0.25039,2.10816 0.2887,2.00216 0.32168,1.89559 0.34969,1.7887 0.37248,1.68167 0.39018,1.57466 0.40282,1.46789 0.41035,1.3615 0.41289,1.25571 0.41042,1.15071 0.40296,1.04671 0.39063,0.94378 0.37343,0.84222 0.35143,0.74217 0.32467,0.64375 0.29333,0.54723 0.25734,0.4527 0.21686,0.36038 0.17199,0.27037 0.12279,0.18293 0.0692,0.0982 8.95842,11.85968 -19.54041,17.74604 -10.944676,-10.05585 -0.09103,-0.0784 -0.170298,-0.13975 -0.252623,-0.19714 -0.33789,-0.25046 -0.425898,-0.29963 -0.516529,-0.3445 -0.609613,-0.38501 -0.704975,-0.42107 -0.802488,-0.45258 -0.901904,-0.47944 -1.003168,-0.50162 -1.105975,-0.519 -1.210285,-0.53156 -1.315813,-0.53916 -1.422493,-0.54171 -1.529914,-0.53963 -1.638109,-0.53226 -1.746866,-0.51981 -1.855932,-0.50226 -1.965182,-0.47959 -2.074377,-0.45176 -2.183323,-0.41879 -2.291855,-0.38062 -2.399817,-0.33734 -2.506976,-0.28886 -2.613121,-0.23525 -2.71812,-0.17656 -2.821726,-0.11271 -1.449228,-0.0308 -0.734112,-0.009 -0.0922,-7.6e-4 -0.04604,1.2e-4 -0.02301,3.2e-4 -0.01151,-5e-5 -0.006,-7e-5 -0.005,2e-5 -7.452136,10.68316 0.0012,0.005 0.0012,0.006 0.0035,0.0108 0.0088,0.0216 0.01581,0.0432 0.0326,0.0862 0.261761,0.68592 0.529459,1.34943 1.080301,2.60915 1.104403,2.48989 1.123287,2.37108 1.136903,2.25297 1.145357,2.13563 1.14876,2.01941 1.147045,1.90436 1.14036,1.79068 1.128795,1.67864 1.112313,1.56829 1.091131,1.45986 1.065238,1.35351 1.034769,1.24943 0.999802,1.14774 0.960458,1.0486 0.916842,0.95223 0.869052,0.8587 0.817197,0.7682 0.761443,0.68082 0.701856,0.59681 0.638658,0.51617 0.571847,0.43914 0.5017,0.36577 0.428266,0.29622 0.351773,0.23053 0.272248,0.16901 0.189983,0.11158 0.104996,0.0583 13.216951,6.7983 -9.905557,24.46691 -14.223853,-4.31131 -0.116087,-0.0312 -0.214074,-0.052 -0.313145,-0.068 -0.413091,-0.079 -0.513707,-0.0851 -0.614859,-0.0863 -0.716305,-0.0824 -0.817844,-0.0734 -0.919367,-0.0596 -1.020638,-0.0407 -1.121459,-0.0168 -1.221645,0.0122 -1.321057,0.0466 -1.419414,0.0855 -1.516663,0.1291 -1.612525,0.17761 -1.706853,0.23113 -1.799446,0.28933 -1.890082,0.35272 -1.97864,0.42055 -2.064949,0.49302 -2.148815,0.56999 -2.230054,0.65147 -2.308522,0.73732 -2.384035,0.82748 -2.456411,0.92183 -2.525532,1.02027 -2.591188,1.12276 -1.31911,0.60102 -0.665223,0.31062 -0.08339,0.0392 -0.04171,0.0196 -0.02073,0.0112 -0.01035,0.004 -0.0054,0.001 -0.0042,0.002 -2.07888,12.85856 0.004,0.004 0.0046,0.006 0.0084,0.008 0.01662,0.0161 0.03338,0.0318 0.06677,0.0636 0.533451,0.50441 1.062524,0.98607 2.105398,1.88204 2.07536,1.76412 2.040805,1.64892 2.001821,1.53654 1.958582,1.4272 1.911168,1.321 1.859719,1.21807 1.804402,1.11859 1.745319,1.02261 1.68263,0.93036 1.616471,0.84188 1.547015,0.75728 1.474405,0.67674 1.398769,0.60031 1.320328,0.52802 1.239203,0.46009 1.155544,0.39665 1.069579,0.33752 0.981434,0.28305 0.891307,0.23316 0.799342,0.18799 0.70577,0.14751 0.610705,0.11188 0.514378,0.081 0.416963,0.0552 0.318644,0.0341 0.219553,0.0181 0.119964,0.007 14.857756,0.39042 1.6943,26.34118 -14.685855,2.28718 -0.118039,0.0226 -0.215455,0.0461 -0.31163,0.0747 -0.406488,0.10811 -0.499804,0.14615 -0.591397,0.18905 -0.681101,0.23654 -0.768742,0.28866 -0.854178,0.34523 -0.937188,0.40622 -1.01763,0.47154 -1.095352,0.54109 -1.170188,0.61481 -1.241959,0.69256 -1.310533,0.7742 -1.375766,0.85971 -1.437467,0.94891 -1.495559,1.04166 -1.549839,1.13787 -1.600218,1.23745 -1.646554,1.34011 -1.688699,1.44589 -1.726546,1.55455 -1.76,1.66593 -1.788906,1.77991 -1.813192,1.89634 -1.832734,2.01504 -1.847441,2.13584 -0.927709,1.11382 -0.464572,0.5685 -0.05812,0.0715 -0.0291,0.0358 -0.01445,0.0181 -0.0069,0.009 -0.004,0.004 -0.0027,0.004 3.706107,12.48714 0.0056,0.003 0.0057,0.003 0.01093,0.004 0.02179,0.007 0.04406,0.0138 0.0877,0.0285 0.699494,0.223 1.385132,0.4274 2.713482,0.78218 2.63526,0.68895 2.554138,0.60015 2.470267,0.51581 2.383852,0.43608 2.295065,0.36094 2.20406,0.29055 2.111035,0.2249 2.016187,0.16409 1.91966,0.10817 1.821671,0.0571 1.722388,0.0111 1.621997,-0.0304 1.520684,-0.0665 1.418695,-0.0972 1.31611,-0.12303 1.213188,-0.1441 1.110108,-0.15996 1.007069,-0.17076 0.904202,-0.17662 0.80175,-0.17747 0.699864,-0.17335 0.598774,-0.16419 0.498627,-0.1501 0.399598,-0.13128 0.301863,-0.10747 0.205661,-0.079 0.111102,-0.0459 13.555785,-6.09478 12.952956,22.99936 -12.239109,8.43261 -0.0967,0.0713 -0.174155,0.13489 -0.248423,0.20243 -0.319374,0.27369 -0.386882,0.34853 -0.4508,0.42693 -0.511012,0.50865 -0.567378,0.59362 -0.619789,0.68166 -0.668124,0.77261 -0.712264,0.86637 -0.75209,0.96278 -0.787566,1.06165 -0.818476,1.16283 -0.844822,1.26617 -0.866513,1.37149 -0.883412,1.47862 -0.895485,1.58739 -0.902641,1.69766 -0.904869,1.80917 -0.902036,1.92183 -0.894082,2.03543 -0.88105,2.14972 -0.862869,2.26459 -0.839469,2.37982 -0.81084,2.49526 -0.776936,2.61068 -0.737795,2.72589 -0.352564,1.40602 -0.171912,0.71378 -0.02131,0.0899 -0.01085,0.0449 -0.0052,0.0224 -0.0025,0.0114 -0.0018,0.005 -5.84e-4,0.005 8.757056,9.64249 0.006,-4.6e-4 0.006,-8.3e-4 0.01145,-0.001 0.02292,-0.003 0.0457,-0.006 0.09138,-0.0125 0.726963,-0.1027 1.433366,-0.21604 2.784146,-0.47261 2.673225,-0.52267 2.561591,-0.56748 2.449428,-0.60707 2.33699,-0.64144 2.224386,-0.67058 2.111854,-0.69453 1.999566,-0.7133 1.887697,-0.72696 1.7765,-0.73547 1.666061,-0.7389 1.556619,-0.73736 1.448352,-0.73079 1.34145,-0.71933 1.23604,-0.70306 1.13236,-0.68195 1.03054,-0.65619 0.9308,-0.62578 0.83319,-0.59085 0.73801,-0.55147 0.64535,-0.50776 0.55537,-0.45979 0.46824,-0.40774 0.38409,-0.35162 0.30308,-0.29162 0.22533,-0.22785 0.15106,-0.16037 0.0803,-0.0895 9.56891,-11.37283 21.64927,15.10161 -7.36829,12.90789 -0.0562,0.10621 -0.0983,0.19714 -0.13594,0.29016 -0.16904,0.38514 -0.19735,0.48188 -0.22121,0.58015 -0.23969,0.68 -0.25366,0.781 -0.26268,0.88303 -0.26674,0.98601 -0.26583,1.08962 -0.2599,1.19375 -0.24891,1.29823 -0.2329,1.40279 -0.21179,1.50732 -0.18564,1.61164 -0.15435,1.71549 -0.11806,1.81873 -0.0767,1.92119 -0.0303,2.0226 0.0211,2.12288 0.0778,2.22178 0.13908,2.31912 0.20481,2.41472 0.27625,2.50839 0.35214,2.59995 0.43273,2.68923 0.51801,2.77606 0.29242,1.41977 0.15471,0.71768 0.0201,0.0899 0.01,0.0451 0.005,0.0225 0.001,0.0112 0.001,0.006 0.001,0.005 12.07356,4.88805 0.005,-0.002 0.005,-0.002 0.01,-0.006 0.0192,-0.0132 0.0384,-0.0255 0.0768,-0.0511 0.61046,-0.40783 1.19778,-0.81648 2.30337,-1.63381 2.18171,-1.63078 2.06167,-1.62272 1.94349,-1.6097 1.82723,-1.59191 1.71315,-1.56929 1.60137,-1.54205 1.49202,-1.51026 1.38538,-1.474 1.28145,-1.43344 1.18045,-1.38859 1.08256,-1.33971 0.98784,-1.28685 0.89647,-1.23013 0.80862,-1.16972 0.72434,-1.10574 0.64378,-1.03833 0.56709,-0.96766 0.49432,-0.89385 0.42566,-0.81706 0.36111,-0.7375 0.30088,-0.65524 0.24492,-0.57052 0.19345,-0.48345 0.14616,-0.39441 0.10415,-0.30303 0.0664,-0.21007 0.0334,-0.1154 3.68679,-14.39835 26.05767,4.21285 -1.0381,14.82656 -0.004,0.12004 -0.004,0.22029 0.004,0.32042 0.0152,0.42033 0.0318,0.51974 0.0524,0.61867 0.0791,0.71663 0.11031,0.81373 0.14668,0.90954 0.18752,1.00409 0.23328,1.09706 0.28382,1.18827 0.339,1.27766 0.39882,1.36493 0.46319,1.44996 0.53201,1.53256 0.60523,1.61259 0.68278,1.68984 0.76447,1.76418 0.85029,1.83547 0.94015,1.90348 1.03386,1.96809 1.13137,2.02917 1.23254,2.08658 1.33722,2.14014 1.44534,2.18968 1.55669,2.23519 1.67117,2.27638 0.87946,1.1523 0.45087,0.57943 0.0568,0.0726 0.0285,0.0363 0.0143,0.0181 0.007,0.01 0.003,0.005 0.003,0.005 12.99874,-0.83456 0.004,-0.004 0.004,-0.004 0.006,-0.009 0.0119,-0.0197 0.0239,-0.0395 0.0472,-0.0793 0.37307,-0.63232 0.72491,-1.2553 1.36635,-2.47142 1.25809,-2.41586 1.15346,-2.35655 1.05257,-2.29355 0.95557,-2.22707 0.8626,-2.1572 0.77377,-2.08412 0.68901,-2.00807 0.6086,-1.92912 0.53262,-1.84747 0.46106,-1.76327 0.39406,-1.67676 0.33166,-1.58799 0.27398,-1.49732 0.221,-1.4047 0.17283,-1.3105 0.12953,-1.21485 0.0911,-1.11786 0.0575,-1.01982 0.0289,-0.92083 0.005,-0.82115 -0.0135,-0.7209 -0.0263,-0.62032 -0.0348,-0.51955 -0.0389,-0.41878 -0.0376,-0.31826 -0.0308,-0.21813 -0.02,-0.11851 -2.92551,-14.57212 25.30502,-7.51037 5.49772,13.80871 0.0479,0.11023 0.0928,0.19982 0.14208,0.28724 0.19574,0.37227 0.25372,0.45473 0.31592,0.5345 0.38219,0.61139 0.45245,0.68523 0.52666,0.75596 0.60456,0.82328 0.68618,0.88719 0.77127,0.94751 0.85979,1.00404 0.95155,1.05669 1.04642,1.10541 1.14429,1.14996 1.24497,1.19028 1.34834,1.22626 1.45423,1.2578 1.56247,1.28473 1.67292,1.30707 1.78542,1.32461 1.89975,1.33736 2.01581,1.34516 2.13337,1.34797 2.25227,1.34577 2.37233,1.33838 2.49338,1.32588 1.29232,0.6566 0.6576,0.32644 0.0828,0.0406 0.0414,0.0204 0.0207,0.0101 0.009,0.006 0.005,0.003 0.005,0.003 11.34937,-6.39183 0.002,-0.005 8e-5,-0.006 0.002,-0.0115 0.002,-0.0231 0.004,-0.0461 0.008,-0.0919 0.0617,-0.73156 0.10846,-1.4455 0.15877,-2.81952 0.0853,-2.7225 0.0167,-2.62364 -0.0467,-2.52312 -0.10529,-2.4211 -0.15875,-2.31787 -0.20718,-2.21344 -0.25038,-2.10816 -0.28871,-2.00217 -0.32167,-1.89558 -0.34971,-1.78872 -0.37245,-1.68165 -0.39019,-1.57467 -0.40283,-1.46787 -0.41034,-1.36151 -0.41289,-1.25571 -0.41042,-1.15073 -0.40297,-1.04669 -0.39063,-0.94378 -0.37342,-0.84223 -0.35144,-0.74217 -0.32467,-0.64374 -0.29331,-0.54724 -0.25735,-0.45271 -0.21685,-0.36036 -0.17199,-0.27038 -0.1228,-0.18293 -0.0693,-0.0982 -8.95842,-11.85969 19.54042,-17.74604 10.94467,10.05584 0.091,0.0784 0.1703,0.13976 0.25261,0.19713 0.33788,0.25048 0.4259,0.29961 0.51654,0.3445 0.60962,0.38502 0.70498,0.42106 0.80248,0.45256 0.90191,0.47946 1.00316,0.50161 1.10599,0.519 1.21028,0.53156 1.31578,0.53925 1.42248,0.54172 1.52992,0.53963 1.6381,0.53227 1.74687,0.5198 1.85595,0.50227 1.96518,0.47958 2.07436,0.45177 2.18333,0.41877 2.29188,0.38064 2.39981,0.33732 2.50697,0.28887 2.61312,0.23525 2.71811,0.17655 2.82173,0.11272 1.44922,0.0308 0.73412,0.009 0.0922,7.6e-4 0.046,-1.2e-4 0.0231,-3.2e-4 0.0115,4e-5 0.006,7e-5 h 0.005 l 7.45211,-10.68317 -10e-4,-0.005 -0.001,-0.006 -0.003,-0.0108 -0.009,-0.0216 -0.0158,-0.0433 -0.0326,-0.0862 -0.26177,-0.68593 -0.52945,-1.34944 -1.08029,-2.60915 -1.10443,-2.4899 -1.12327,-2.37107 -1.13691,-2.25295 -1.14535,-2.13566 -1.14877,-2.01941 -1.14706,-1.90434 -1.14036,-1.7907 -1.12877,-1.67861 -1.11232,-1.56829 -1.09113,-1.45988 -1.06525,-1.35351 -1.03475,-1.24942 -0.99982,-1.14773 -0.96046,-1.04863 -0.91683,-0.95223 -0.86904,-0.85868 -0.81722,-0.7682 -0.76144,-0.68083 -0.70184,-0.59681 -0.63866,-0.51617 -0.57184,-0.43914 -0.5017,-0.36577 -0.42828,-0.29622 -0.35177,-0.23053 -0.27225,-0.169 -0.18998,-0.11159 -0.10499,-0.0583 -13.21696,-6.79829 9.90556,-24.4669 14.22387,4.31129 0.11607,0.0312 0.21409,0.0521 0.31317,0.0679 0.41309,0.0791 0.51371,0.0851 0.61485,0.0863 0.71631,0.0824 0.81786,0.0734 0.91937,0.0596 1.02062,0.0407 1.12146,0.0168 1.22166,-0.0122 1.32104,-0.0466 1.41943,-0.0855 1.51665,-0.1291 1.61255,-0.1776 1.70682,-0.23115 1.79947,-0.28931 1.89005,-0.35272 1.97866,-0.42057 2.06496,-0.493 2.14881,-0.57001 2.23005,-0.65146 2.30853,-0.73733 2.38403,-0.82746 2.45641,-0.92185 2.52554,-1.02027 2.59119,-1.12276 1.31911,-0.601 0.66521,-0.31061 0.0835,-0.0394 0.0418,-0.0196 0.0206,-0.0112 0.0103,-0.004 0.006,-0.002 0.005,-0.002 2.07887,-12.85856 -0.003,-0.004 -0.004,-0.005 -0.008,-0.008 -0.0166,-0.0162 -0.0334,-0.0317 -0.0668,-0.0636 -0.53346,-0.5044 -1.06251,-0.98606 -2.10541,-1.88205 -2.07536,-1.76414 -2.0408,-1.64891 -2.00183,-1.53655 -1.95857,-1.42719 -1.91116,-1.321 -1.85974,-1.21807 -1.80439,-1.11859 -1.74532,-1.0226 -1.68263,-0.93038 -1.61648,-0.84187 -1.547,-0.75728 -1.47441,-0.67674 -1.39876,-0.60029 -1.32033,-0.52804 -1.23921,-0.46009 -1.15554,-0.39663 -1.06957,-0.33753 -0.98145,-0.28304 -0.8913,-0.23319 -0.79935,-0.18798 -0.70577,-0.14751 -0.61071,-0.11187 -0.51439,-0.081 -0.41694,-0.0551 -0.31864,-0.0341 -0.21957,-0.0181 -0.11994,-0.007 -14.85778,-0.39044 z"
   style="fill:#aaaaaa;fill-opacity:0.74901962;stroke:#000000;stroke-width:10;stroke-dasharray:none;stroke-opacity:1" /><path
   id="gearpoly0"
   data-id="0"
   class="gear"
   fill="#ddd"
   stroke="#444"
   stroke-width="1"
   stroke-miterlimit="10"
   d="m 127.49253,191.12886 19.82257,-1.8e-4 0.14786,-0.006 0.30285,-0.0234 0.45645,-0.053 0.60801,-0.0944 0.75679,-0.14762 0.90214,-0.21248 1.04337,-0.28879 1.17981,-0.37629 1.3108,-0.47476 1.43573,-0.58385 1.55394,-0.70327 1.66483,-0.83264 1.76783,-0.97155 1.86235,-1.1196 1.94784,-1.27631 2.02379,-1.44122 2.08968,-1.61379 2.14506,-1.79349 2.18946,-1.97978 2.22247,-2.17204 2.24369,-2.36968 2.25276,-2.57207 0.14082,-0.16757 0.0176,-0.021 0.002,-0.005 -2.08762,-10.58268 -0.003,-0.004 -0.0243,-0.0127 -0.19391,-0.10154 -3.06075,-1.52388 -2.97551,-1.3401 -2.88082,-1.16534 -2.77728,-1 -2.66545,-0.84454 -2.54599,-0.69932 -2.41949,-0.5647 -2.28661,-0.441 -2.14801,-0.32848 -2.00435,-0.22743 -1.85631,-0.13803 -1.7046,-0.0605 -1.54989,0.005 -1.3929,0.0586 -1.23433,0.0999 -1.07487,0.12908 -0.91525,0.14603 -0.75616,0.15083 -0.5983,0.14358 -0.44238,0.12434 -0.28906,0.0933 -0.13905,0.0506 -18.33765,7.52758 -13.31977,-22.02885 15.18485,-12.74184 0.10944,-0.0996 0.21691,-0.21263 0.31563,-0.33398 0.40508,-0.46312 0.48485,-0.59954 0.5545,-0.74266 0.61364,-0.89188 0.6619,-1.04663 0.69897,-1.20625 0.72454,-1.37013 0.73833,-1.53759 0.74013,-1.70797 0.72973,-1.88059 0.70698,-2.05475 0.67173,-2.22977 0.62392,-2.4049 0.56347,-2.57945 0.49038,-2.75272 0.40464,-2.923959 0.30635,-3.092456 0.19556,-3.257496 0.0724,-3.418363 1.6e-4,-0.21888 -2e-5,-0.0274 -0.002,-0.005 -8.40162,-6.76491 -0.005,-6.8e-4 -0.0268,0.006 -0.21381,0.0468 -3.32421,0.80006 -3.14077,0.88604 -2.9559,0.95906 -2.77031,1.01915 -2.58472,1.06637 -2.39985,1.10082 -2.21642,1.12263 -2.03511,1.13198 -1.85662,1.12908 -1.6816,1.11415 -1.510747,1.08748 -1.34466,1.049373 -1.18401,1.000166 -1.02935,0.94023 -0.88132,0.869961 -0.74043,0.789792 -0.60725,0.700177 -0.4823,0.601597 -0.36604,0.494565 -0.25895,0.379609 -0.16145,0.257286 -0.074,0.128172 -9.208821,17.553686 -24.36341,-8.3133 3.44197,-19.521454 0.0198,-0.14665 0.0295,-0.30231 0.0271,-0.45872 0.0126,-0.61516 -0.014,-0.77093 -0.0526,-0.92533 -0.10322,-1.07767 -0.16571,-1.22722 -0.23992,-1.37334 -0.32567,-1.5153 -0.42275,-1.65245 -0.53089,-1.78413 -0.64981,-1.90967 -0.7792,-2.02847 -0.91868,-2.13988 -1.06789,-2.24331 -1.22641,-2.33817 -1.39376,-2.42391 -1.56951,-2.49998 -1.75311,-2.56588 -1.94407,-2.62109 -2.1418,-2.66517 -0.14057,-0.16778 -0.0176,-0.021 -0.004,-0.003 -10.78442,0.21824 -0.004,0.003 -0.0168,0.0217 -0.13367,0.17332 -2.03222,2.74964 -1.836442,2.6976 -1.647878,2.63469 -1.467081,2.56144 -1.294562,2.47831 -1.130803,2.38587 -0.976262,2.28467 -0.83136,2.1753 -0.696494,2.05833 -0.572022,1.9344 -0.458277,1.80415 -0.35555,1.6682 -0.264105,1.52723 -0.184165,1.38192 -0.115924,1.23293 -0.05954,1.08095 -0.01512,0.9267 0.01724,0.77087 0.0375,0.61414 0.04564,0.45725 0.0417,0.30087 0.02573,0.14573 4.228917,19.366224 -24.0071382,9.29214 -9.911437,-17.16676 -0.0791,-0.12507 -0.17174,-0.25054 -0.27409,-0.36883 -0.38575,-0.47935 -0.50624,-0.581592 -0.6350808,-0.675036 -0.77178,-0.75919 -0.91579,-0.833595 -1.06655,-0.897815 -1.2235,-0.951448 -1.38602,-0.994114 -1.5535,-1.025471 -1.7253,-1.045208 -1.90077,-1.05304 -2.07924,-1.048725 -2.26003,-1.03204 -2.44242,-1.00283 -2.62575,-0.96093 -2.80927,-0.90624 -2.99227,-0.83869 -3.17405,-0.75825 -3.35386,-0.66492 -0.21552,-0.0382 -0.027,-0.005 -0.005,8.8e-4 -8.12106,7.099272 -0.002,0.0049 0.001,0.02738 0.009,0.218696 0.21066,3.412634 0.32719,3.246917 0.4312,3.077535 0.52261,2.90519 0.60133,2.73062 0.66737,2.55456 0.7207,2.37769 0.76139,2.20075 0.78952,2.02448 0.80522,1.84953 0.80862,1.67663 0.79993,1.50646 0.77938,1.33969 0.7472,1.17699 0.7037,1.01899 0.64922,0.86633 0.58409,0.71961 0.50871,0.57943 0.42349,0.44636 0.32887,0.32094 0.22534,0.20368 0.11339,0.0951 15.6879,12.11708 -12.41766,22.54969 -18.62718,-6.77954 -0.14099,-0.045 -0.2926,-0.0815 -0.44704,-0.10635 -0.60362,-0.11925 -0.76164,-0.12013 -0.92041,-0.10888 -1.07922,-0.0855 -1.23735,-0.0499 -1.39413,-0.002 -1.54884,0.0576 -1.70075,0.12938 -1.84921,0.21301 -1.99351,0.30833 -2.13296,0.41512 -2.26689,0.53314 -2.39467,0.66212 -2.51561,0.80175 -2.62911,0.95169 -2.73454,1.11154 -2.83132,1.28093 -2.91886,1.45938 -2.9966,1.64646 -0.18963,0.1093 -0.0237,0.0137 -0.003,0.004 -1.65778,10.65848 0.002,0.005 0.0184,0.0203 0.14748,0.16173 2.35498,2.47882 2.33772,2.27697 2.30852,2.08035 2.26776,1.88958 2.21586,1.70525 2.15327,1.52793 2.08043,1.35816 1.99789,1.19646 1.90611,1.04334 1.80569,0.89924 1.69715,0.7646 1.58112,0.63983 1.45817,0.52529 1.32894,0.42134 1.19407,0.32825 1.0542,0.24634 0.90999,0.17581 0.76215,0.11688 0.61133,0.0697 0.45822,0.0345 0.30354,0.0112 0.14799,-3e-5 19.80634,-0.80176 4.98218,25.25598 -18.62706,6.77989 -0.1369,0.0562 -0.27656,0.12562 -0.41082,0.20588 -0.53905,0.29665 -0.66067,0.39755 -0.77506,0.50822 -0.88167,0.62822 -0.97996,0.75712 -1.06938,0.89445 -1.14945,1.03969 -1.21969,1.19234 -1.27966,1.35183 -1.32892,1.51759 -1.36711,1.68904 -1.39384,1.86554 -1.40882,2.04648 -1.41172,2.23118 -1.40228,2.419 -1.3803,2.60922 -1.34555,2.80118 -1.2979,2.99416 -1.2372,3.18744 -0.075,0.20563 -0.009,0.0258 -1e-5,0.005 5.5812,9.23046 0.005,0.002 0.0272,0.004 0.21694,0.0291 3.39737,0.38513 3.2544,0.24161 3.10566,0.10975 2.9518,-0.0102 2.79356,-0.11803 2.63163,-0.21363 2.46672,-0.29687 2.29954,-0.36767 2.13081,-0.42598 1.96126,-0.47182 1.79157,-0.50519 1.62248,-0.52619 1.45468,-0.5349 1.28885,-0.53146 1.12571,-0.51607 0.9659,-0.48892 0.81011,-0.45026 0.65897,-0.40036 0.51312,-0.33955 0.37316,-0.26815 0.23972,-0.18654 0.11334,-0.0952 14.65718,-13.34546 20.0507968,16.14472 -9.911126,17.16694 -0.0688,0.13103 -0.13111,0.27399 -0.18236,0.42179 -0.22226,0.57374 -0.25055,0.72921 -0.26706,0.88752 -0.27159,1.04797 -0.26402,1.2099 -0.24425,1.37256 -0.2122308,1.53531 -0.16792,1.69738 -0.11133,1.85811 -0.0425,2.01676 0.0384,2.17264 0.13139,2.32504 0.23624,2.47325 0.3527408,2.61662 0.48068,2.75443 0.61981,2.88601 0.76981,3.01074 0.93036,3.12793 1.10109,3.23698 0.0747,0.20574 0.009,0.0257 0.003,0.004 10.208679,3.48342 0.005,-0.001 0.02317,-0.0146 0.184889,-0.11715 2.850097,-1.88876 2.6483182,-1.90681 2.449618,-1.9122 2.254666,-1.90518 2.064123,-1.88609 1.878624,-1.85523 1.69879,-1.81299 1.525217,-1.75976 1.358481,-1.69599 1.199131,-1.6221 1.047694,-1.5386 0.904666,-1.44599 0.770522,-1.34481 0.645702,-1.23558 0.530618,-1.11893 0.425654,-0.9954 0.331159,-0.86565 0.247451,-0.73027 0.174813,-0.58993 0.113499,-0.44528 0.06372,-0.29699 0.02567,-0.14574 2.649754,-19.64467 25.737428,-0.52083 3.44233,19.52139 0.0315,0.14458 0.0757,0.29417 0.13142,0.44032 0.19853,0.58238 0.2768,0.71966 0.3659,0.85154 0.46558,0.97737 0.57545,1.09654 0.69516,1.20845 0.8243,1.31253 0.96242,1.40821 1.10908,1.49496 1.26378,1.57226 1.42598,1.63963 1.59516,1.69662 1.77075,1.74278 1.95214,1.77771 2.13874,1.80104 2.32989,1.81241 2.52498,1.81153 2.723291,1.79811 2.92417,1.7719 0.18948,0.10958 0.0237,0.0137 0.005,9e-4 10.05939,-3.89356 0.003,-0.004 0.008,-0.0261 0.0663,-0.20859 0.96923,-3.27888 0.803057,-3.16301 0.64738,-3.03941 0.50254,-2.90873 0.36886,-2.77162 0.24659,-2.62874 0.13598,-2.48079 0.0372,-2.32845 -0.0495,-2.17242 -0.12408,-2.01338 -0.18641,-1.85209 -0.23645,-1.6892 -0.27417,-1.52546 -0.29959,-1.36156 -0.31275,-1.19822 -0.31376,-1.03613 -0.30275,-0.87599 -0.279847,-0.71848 -0.24528,-0.56428 -0.19928,-0.41406 -0.14209,-0.26847 -0.074,-0.12814 -10.59752,-16.75191 19.381237,-16.9427 15.18508,12.74157 0.1171,0.0905 0.24706,0.1767 0.38371,0.25283 0.52644,0.31851 0.67462,0.37338 0.82766,0.41711 0.98489,0.44945 1.14567,0.4701 1.3093,0.47889 1.47512,0.47561 1.64244,0.46011 1.81055,0.4323 1.97874,0.39209 2.1463,0.33943 2.31253,0.27433 2.47671,0.19684 2.63812,0.10699 2.79604,0.005 2.94981,-0.10924 3.09867,-0.23531 3.24196,-0.37307 3.37901,-0.52226 0.21558,-0.0379 0.027,-0.005 0.004,-0.003 5.20321,-9.4487 -2.1e-4,-0.005 -0.0104,-0.0254 -0.0833,-0.20243 -1.36515,-3.13477 -1.41797,-2.9392 -1.45777,-2.74446 -1.48473,-2.55125 -1.499,-2.36028 -1.50082,-2.17224 -1.49046,-1.9878 -1.46818,-1.80763 -1.43432,-1.63235 -1.38923,-1.46258 -1.3333,-1.29896 -1.26693,-1.14201 -1.19057,-0.99234 -1.10469,-0.85045 -1.00978,-0.71686 -0.90637,-0.59203 -0.79499,-0.47645 -0.67621,-0.3705 -0.55061,-0.2746 -0.41881,-0.1891 -0.28141,-0.11432 -0.13907,-0.0506 -18.88609,-6.02076 z"
   style="fill:#aaaaaa;fill-opacity:0.74901962;stroke:#000000;stroke-width:10;stroke-dasharray:none;stroke-opacity:1" />
<path
   fill="#333"
   d="M -5.4555912,32.034376 22.933249,8.7873254 c -14.3059172,-3.04722 -28.8796502,-4.00283 -43.513731,-2.84297 -19.64729,1.55546 -38.58002,6.8388806 -56.28646,15.7049506 -17.70165,8.86329 -33.274528,20.85935 -46.280468,35.655296 -13.46136,15.309819 -23.57458,32.971392 -30.06337,52.494278 -6.48502,19.52383 -8.95202,39.72709 -7.33196,60.04712 1.56303,19.6331 6.85878,38.56489 15.73531,56.26185 8.87559,17.70073 20.88588,33.26509 35.69034,46.26918 15.322138,13.46039 32.998848,23.57743 52.529308,30.06814 7.0705,2.34864 10.9001,9.9809 8.55333,17.04379 -2.34774,7.06667 -9.98183,10.88776 -17.0523,8.53909 -22.97668,-7.63464 -43.782388,-19.54889 -61.833948,-35.40293 -17.42786,-15.30661 -31.55796,-33.62291 -41.9977,-54.44346 -10.44071,-20.81675 -16.66939,-43.08835 -18.51336,-66.2035 -1.90742,-23.93662 0.99211,-47.72055 8.62391,-70.68587 7.63177,-22.965318 19.54127,-43.752081 35.39527,-61.787514 15.31133,-17.41463 33.63233,-31.5314506 54.457618,-41.9579306 20.82244,-10.4312094 43.10633,-16.6446994 66.23093,-18.4782494 16.8900908,-1.33807 33.698623,-0.28402 50.203962,3.13057 l -34.2548412,-26.14452 c -5.9214708,-4.51685 -7.0575808,-12.97856 -2.5379,-18.89529 4.518743,-5.91296 12.984243,-7.0481 18.900983,-2.5284 l 62.2540872,47.51506 c 3.277831,2.50324 5.231427,6.36534 5.304092,10.4838094 0.06796,4.12129 -1.748254,8.04702998 -4.933766,10.658 L 11.648171,52.894288 c -3.7165592,3.041413 -8.5672292,3.767848 -12.8165292,2.357668 -2.33442,-0.775908 -4.488973,-2.203426 -6.166243,-4.248076 -4.7196008,-5.757434 -3.8784108,-14.249894 1.87901,-18.969504"
   fill-opacity="1"
   fill-rule="nonzero"
   id="path3550"
   style="fill:#000000;fill-opacity:1;stroke:none;stroke-width:0;stroke-dasharray:none" /><path
   fill="#333"
   d="m 217.77682,-75.097954 -35.02166,10.94695 c 5.31419,-13.62732 12.52313,-26.32922 21.53278,-37.919206 12.09464,-15.56133 26.91153,-28.47735 44.04804,-38.40027 17.13157,-9.92047 35.71103,-16.34104 55.21953,-19.07844 20.18806,-2.83559 40.50151,-1.58155 60.37873,3.7235 19.87594,5.30871 38.11188,14.34797 54.19982,26.86618 15.54532,12.09318 28.45377,26.91984 38.36305,44.059876 9.91294,17.14134 16.31856,35.728 19.04974,55.2426 2.82802,20.1978294 1.56885,40.526 -3.73876,60.41062 -1.92245,7.19808 2.35042,14.591302 9.54111,16.511123 7.19439,1.921095 14.5815,-2.357983 16.5039,-9.556053 6.24531,-23.39254 7.72205,-47.3225706 4.39373,-71.11609 -3.21362,-22.97163 -10.75386,-44.8415 -22.41412,-65.00389 -11.65656,-20.161106 -26.84293,-37.602276 -45.14325,-51.843366 -18.95183,-14.74544 -40.4172,-25.39064 -63.79871,-31.63207 -23.38149,-6.24145 -47.29307,-7.71175 -71.07309,-4.37458 -22.96317,3.22483 -44.82453,10.77629 -64.97844,22.44778 -20.15631,11.66651 -37.59156,26.87151 -51.82913,45.18547 -10.39807,13.37702 -18.75266,28.000266 -24.96835,43.667126 l -3.02364,-42.985896 c -0.52049,-7.42932 -6.9663,-13.02777 -14.39323,-12.50231 -7.42324,0.52672 -13.02298,6.97623 -12.49751,14.4032 l 5.49554,78.122006 c 0.29057,4.11412 2.44411,7.86839 5.84529,10.19196 3.40614,2.32119 7.68412,2.96064 11.61591,1.7336 l 74.72438,-23.3478 c 4.58322,-1.43424 7.85535,-5.088 9.01183,-9.41324 0.63431,-2.37681 0.62535,-4.96134 -0.16144,-7.48617 -2.21739,-7.10674 -9.77531,-11.07 -16.88205,-8.85261"
   fill-opacity="1"
   fill-rule="nonzero"
   id="path4105"
   style="fill:#000000;fill-opacity:1;stroke:none;stroke-width:0;stroke-dasharray:none" /></svg>
