<svg xmlns="http://www.w3.org/2000/svg" xmlns:xlink="http://www.w3.org/1999/xlink" width="1920" zoomAndPan="magnify" viewBox="0 0 1440 809.999993" height="1080" preserveAspectRatio="xMidYMid meet" version="1.0"><defs><clipPath id="244184257f"><path d="M 295 243 L 497 243 L 497 567 L 295 567 Z M 295 243 " clip-rule="nonzero"/></clipPath><clipPath id="3f2501048d"><path d="M 83 243 L 285 243 L 285 567 L 83 567 Z M 83 243 " clip-rule="nonzero"/></clipPath></defs><path fill="#f5f8fa" d="M 487.445312 404.421875 C 487.445312 406.929688 487.410156 409.433594 487.335938 411.9375 C 487.261719 414.441406 487.152344 416.9375 487.003906 419.433594 C 486.855469 421.925781 486.671875 424.414062 486.453125 426.894531 C 486.234375 429.371094 485.976562 431.839844 485.683594 434.296875 C 485.390625 436.757812 485.0625 439.199219 484.695312 441.632812 C 484.332031 444.0625 483.929688 446.476562 483.496094 448.875 C 483.058594 451.273438 482.589844 453.652344 482.082031 456.011719 C 481.578125 458.371094 481.035156 460.710938 480.460938 463.023438 C 479.886719 465.339844 479.277344 467.628906 478.636719 469.894531 C 477.996094 472.160156 477.320312 474.398438 476.609375 476.609375 C 475.902344 478.820312 475.164062 481 474.390625 483.148438 C 473.621094 485.300781 472.816406 487.414062 471.980469 489.5 C 471.148438 491.582031 470.28125 493.632812 469.386719 495.644531 C 468.492188 497.65625 467.570312 499.632812 466.617188 501.570312 C 465.664062 503.507812 464.683594 505.40625 463.675781 507.261719 C 462.667969 509.117188 461.632812 510.933594 460.570312 512.703125 C 459.507812 514.476562 458.421875 516.203125 457.308594 517.886719 C 456.195312 519.570312 455.058594 521.207031 453.898438 522.796875 C 452.738281 524.386719 451.554688 525.929688 450.347656 527.421875 C 449.140625 528.914062 447.914062 530.355469 446.664062 531.75 C 445.417969 533.140625 444.148438 534.480469 442.859375 535.769531 C 441.570312 537.058594 440.265625 538.292969 438.941406 539.476562 C 437.617188 540.65625 436.273438 541.78125 434.917969 542.855469 C 433.558594 543.925781 432.1875 544.941406 430.800781 545.898438 C 429.414062 546.859375 428.011719 547.761719 426.597656 548.605469 C 425.183594 549.449219 423.757812 550.234375 422.320312 550.960938 C 420.882812 551.691406 419.4375 552.359375 417.980469 552.96875 C 416.523438 553.578125 415.058594 554.125 413.585938 554.613281 C 412.113281 555.101562 410.632812 555.53125 409.148438 555.898438 C 407.664062 556.265625 406.171875 556.574219 404.679688 556.820312 C 403.183594 557.066406 401.6875 557.25 400.1875 557.371094 C 398.6875 557.496094 397.1875 557.558594 395.683594 557.558594 C 394.183594 557.558594 392.683594 557.496094 391.183594 557.371094 C 389.683594 557.25 388.183594 557.066406 386.691406 556.820312 C 385.195312 556.574219 383.707031 556.265625 382.21875 555.898438 C 380.734375 555.53125 379.253906 555.101562 377.78125 554.613281 C 376.308594 554.125 374.84375 553.578125 373.386719 552.96875 C 371.929688 552.359375 370.484375 551.691406 369.046875 550.960938 C 367.609375 550.234375 366.183594 549.449219 364.769531 548.605469 C 363.355469 547.761719 361.957031 546.859375 360.570312 545.898438 C 359.179688 544.941406 357.808594 543.925781 356.453125 542.855469 C 355.09375 541.78125 353.753906 540.65625 352.429688 539.476562 C 351.105469 538.292969 349.796875 537.058594 348.507812 535.769531 C 347.222656 534.480469 345.953125 533.140625 344.703125 531.75 C 343.457031 530.355469 342.226562 528.914062 341.023438 527.421875 C 339.816406 525.929688 338.632812 524.386719 337.472656 522.796875 C 336.308594 521.207031 335.171875 519.570312 334.0625 517.886719 C 332.949219 516.203125 331.859375 514.476562 330.800781 512.703125 C 329.738281 510.933594 328.703125 509.117188 327.691406 507.261719 C 326.683594 505.40625 325.703125 503.507812 324.75 501.570312 C 323.796875 499.632812 322.875 497.65625 321.980469 495.644531 C 321.085938 493.632812 320.222656 491.582031 319.386719 489.5 C 318.554688 487.414062 317.75 485.300781 316.976562 483.148438 C 316.207031 481 315.464844 478.820312 314.757812 476.609375 C 314.050781 474.398438 313.375 472.160156 312.734375 469.894531 C 312.089844 467.628906 311.480469 465.339844 310.90625 463.023438 C 310.332031 460.710938 309.792969 458.371094 309.285156 456.011719 C 308.78125 453.652344 308.308594 451.273438 307.875 448.875 C 307.4375 446.476562 307.039062 444.0625 306.671875 441.632812 C 306.308594 439.199219 305.980469 436.757812 305.6875 434.296875 C 305.394531 431.839844 305.136719 429.371094 304.914062 426.894531 C 304.695312 424.414062 304.511719 421.925781 304.363281 419.433594 C 304.21875 416.9375 304.105469 414.441406 304.03125 411.9375 C 303.960938 409.433594 303.921875 406.929688 303.921875 404.421875 C 303.921875 401.917969 303.960938 399.414062 304.03125 396.910156 C 304.105469 394.40625 304.21875 391.90625 304.363281 389.414062 C 304.511719 386.917969 304.695312 384.433594 304.914062 381.953125 C 305.136719 379.476562 305.394531 377.007812 305.6875 374.546875 C 305.980469 372.089844 306.308594 369.644531 306.671875 367.214844 C 307.039062 364.785156 307.4375 362.371094 307.875 359.972656 C 308.308594 357.574219 308.78125 355.195312 309.285156 352.835938 C 309.792969 350.476562 310.332031 348.136719 310.90625 345.820312 C 311.480469 343.507812 312.089844 341.214844 312.734375 338.949219 C 313.375 336.683594 314.050781 334.445312 314.757812 332.238281 C 315.464844 330.027344 316.207031 327.847656 316.976562 325.695312 C 317.75 323.546875 318.554688 321.429688 319.386719 319.347656 C 320.222656 317.261719 321.085938 315.214844 321.980469 313.203125 C 322.875 311.1875 323.796875 309.214844 324.75 307.277344 C 325.703125 305.339844 326.683594 303.441406 327.691406 301.585938 C 328.703125 299.730469 329.738281 297.914062 330.800781 296.140625 C 331.859375 294.371094 332.949219 292.640625 334.0625 290.960938 C 335.171875 289.277344 336.308594 287.640625 337.472656 286.050781 C 338.632812 284.460938 339.816406 282.917969 341.023438 281.425781 C 342.226562 279.933594 343.457031 278.488281 344.703125 277.097656 C 345.953125 275.707031 347.222656 274.363281 348.507812 273.078125 C 349.796875 271.789062 351.105469 270.554688 352.429688 269.371094 C 353.753906 268.191406 355.09375 267.0625 356.453125 265.992188 C 357.808594 264.921875 359.179688 263.90625 360.570312 262.945312 C 361.957031 261.988281 363.355469 261.085938 364.769531 260.242188 C 366.183594 259.398438 367.609375 258.613281 369.046875 257.882812 C 370.484375 257.15625 371.929688 256.488281 373.386719 255.878906 C 374.84375 255.269531 376.308594 254.722656 377.78125 254.234375 C 379.253906 253.742188 380.734375 253.316406 382.21875 252.949219 C 383.707031 252.578125 385.195312 252.273438 386.691406 252.027344 C 388.183594 251.78125 389.683594 251.597656 391.183594 251.476562 C 392.683594 251.351562 394.183594 251.289062 395.683594 251.289062 C 397.1875 251.289062 398.6875 251.351562 400.1875 251.476562 C 401.6875 251.597656 403.183594 251.78125 404.679688 252.027344 C 406.171875 252.273438 407.664062 252.578125 409.148438 252.949219 C 410.632812 253.316406 412.113281 253.742188 413.585938 254.234375 C 415.058594 254.722656 416.523438 255.269531 417.980469 255.878906 C 419.4375 256.488281 420.882812 257.15625 422.320312 257.882812 C 423.757812 258.613281 425.183594 259.398438 426.597656 260.242188 C 428.011719 261.085938 429.414062 261.988281 430.800781 262.945312 C 432.1875 263.90625 433.558594 264.921875 434.917969 265.992188 C 436.273438 267.0625 437.617188 268.191406 438.941406 269.371094 C 440.265625 270.554688 441.570312 271.789062 442.859375 273.078125 C 444.148438 274.363281 445.417969 275.707031 446.664062 277.097656 C 447.914062 278.488281 449.140625 279.933594 450.347656 281.425781 C 451.554688 282.917969 452.738281 284.460938 453.898438 286.050781 C 455.058594 287.640625 456.195312 289.277344 457.308594 290.960938 C 458.421875 292.640625 459.507812 294.371094 460.570312 296.140625 C 461.632812 297.914062 462.667969 299.730469 463.675781 301.585938 C 464.683594 303.441406 465.664062 305.339844 466.617188 307.277344 C 467.570312 309.214844 468.492188 311.1875 469.386719 313.203125 C 470.28125 315.214844 471.148438 317.261719 471.980469 319.347656 C 472.816406 321.429688 473.621094 323.546875 474.390625 325.695312 C 475.164062 327.847656 475.902344 330.027344 476.609375 332.238281 C 477.320312 334.445312 477.996094 336.683594 478.636719 338.949219 C 479.277344 341.214844 479.886719 343.507812 480.460938 345.820312 C 481.035156 348.136719 481.578125 350.476562 482.082031 352.835938 C 482.589844 355.195312 483.058594 357.574219 483.496094 359.972656 C 483.929688 362.371094 484.332031 364.785156 484.695312 367.214844 C 485.0625 369.644531 485.390625 372.089844 485.683594 374.546875 C 485.976562 377.007812 486.234375 379.476562 486.453125 381.953125 C 486.671875 384.433594 486.859375 386.917969 487.003906 389.414062 C 487.152344 391.90625 487.261719 394.40625 487.335938 396.910156 C 487.410156 399.414062 487.445312 401.917969 487.445312 404.421875 Z M 487.445312 404.421875 " fill-opacity="1" fill-rule="nonzero"/><g clip-path="url(#244184257f)"><path fill="#e1e8ed" d="M 395.683594 566.203125 C 339.378906 566.203125 295.269531 495.144531 295.269531 404.421875 C 295.269531 313.703125 339.378906 242.640625 395.683594 242.640625 C 451.988281 242.640625 496.101562 313.703125 496.101562 404.421875 C 496.101562 495.144531 451.988281 566.203125 395.683594 566.203125 Z M 395.683594 259.9375 C 349.855469 259.9375 312.574219 324.75 312.574219 404.421875 C 312.574219 484.097656 349.855469 548.910156 395.683594 548.910156 C 441.511719 548.910156 478.792969 484.097656 478.792969 404.421875 C 478.792969 324.75 441.511719 259.9375 395.683594 259.9375 Z M 395.683594 259.9375 " fill-opacity="1" fill-rule="nonzero"/></g><path fill="#8899a6" d="M 404.878906 404.421875 C 404.878906 405.933594 404.804688 407.441406 404.65625 408.945312 C 404.511719 410.449219 404.289062 411.941406 403.992188 413.421875 C 403.699219 414.902344 403.332031 416.367188 402.894531 417.8125 C 402.453125 419.257812 401.945312 420.675781 401.367188 422.074219 C 400.789062 423.46875 400.144531 424.832031 399.429688 426.164062 C 398.71875 427.496094 397.941406 428.789062 397.101562 430.046875 C 396.261719 431.304688 395.363281 432.515625 394.402344 433.683594 C 393.445312 434.851562 392.429688 435.96875 391.363281 437.035156 C 390.292969 438.105469 389.175781 439.117188 388.007812 440.074219 C 386.839844 441.035156 385.625 441.933594 384.367188 442.773438 C 383.113281 443.609375 381.816406 444.386719 380.484375 445.097656 C 379.152344 445.8125 377.785156 446.457031 376.390625 447.035156 C 374.992188 447.613281 373.570312 448.121094 372.125 448.558594 C 370.679688 448.996094 369.214844 449.363281 367.730469 449.660156 C 366.25 449.953125 364.757812 450.175781 363.25 450.324219 C 361.746094 450.46875 360.238281 450.542969 358.726562 450.542969 C 357.214844 450.542969 355.707031 450.46875 354.203125 450.324219 C 352.699219 450.175781 351.207031 449.953125 349.722656 449.660156 C 348.242188 449.363281 346.777344 448.996094 345.332031 448.558594 C 343.882812 448.121094 342.464844 447.613281 341.066406 447.035156 C 339.671875 446.457031 338.304688 445.8125 336.972656 445.097656 C 335.640625 444.386719 334.34375 443.609375 333.085938 442.773438 C 331.832031 441.933594 330.617188 441.035156 329.449219 440.074219 C 328.28125 439.117188 327.164062 438.105469 326.09375 437.035156 C 325.023438 435.96875 324.011719 434.851562 323.050781 433.683594 C 322.09375 432.515625 321.195312 431.304688 320.355469 430.046875 C 319.515625 428.789062 318.738281 427.496094 318.027344 426.164062 C 317.3125 424.832031 316.667969 423.46875 316.089844 422.074219 C 315.511719 420.675781 315.003906 419.257812 314.5625 417.8125 C 314.125 416.367188 313.757812 414.902344 313.460938 413.421875 C 313.167969 411.941406 312.945312 410.449219 312.796875 408.945312 C 312.648438 407.441406 312.574219 405.933594 312.574219 404.421875 C 312.574219 402.914062 312.648438 401.40625 312.796875 399.902344 C 312.945312 398.398438 313.167969 396.90625 313.460938 395.425781 C 313.757812 393.945312 314.125 392.480469 314.5625 391.035156 C 315.003906 389.589844 315.511719 388.167969 316.089844 386.773438 C 316.667969 385.378906 317.3125 384.015625 318.027344 382.683594 C 318.738281 381.351562 319.515625 380.054688 320.355469 378.800781 C 321.195312 377.542969 322.09375 376.332031 323.050781 375.164062 C 324.011719 373.996094 325.023438 372.878906 326.09375 371.8125 C 327.164062 370.742188 328.28125 369.730469 329.449219 368.769531 C 330.617188 367.8125 331.832031 366.914062 333.085938 366.074219 C 334.34375 365.234375 335.640625 364.460938 336.972656 363.75 C 338.304688 363.035156 339.671875 362.390625 341.066406 361.8125 C 342.464844 361.234375 343.882812 360.726562 345.332031 360.289062 C 346.777344 359.851562 348.242188 359.484375 349.722656 359.1875 C 351.207031 358.894531 352.699219 358.671875 354.203125 358.523438 C 355.707031 358.375 357.214844 358.300781 358.726562 358.300781 C 360.238281 358.300781 361.746094 358.375 363.25 358.523438 C 364.757812 358.671875 366.25 358.894531 367.730469 359.1875 C 369.214844 359.484375 370.679688 359.851562 372.125 360.289062 C 373.570312 360.726562 374.992188 361.234375 376.390625 361.8125 C 377.785156 362.390625 379.152344 363.035156 380.484375 363.75 C 381.816406 364.460938 383.113281 365.234375 384.367188 366.074219 C 385.625 366.914062 386.839844 367.8125 388.007812 368.769531 C 389.175781 369.730469 390.292969 370.742188 391.363281 371.8125 C 392.429688 372.878906 393.445312 373.996094 394.402344 375.164062 C 395.363281 376.332031 396.261719 377.542969 397.101562 378.800781 C 397.941406 380.054688 398.71875 381.351562 399.429688 382.683594 C 400.144531 384.015625 400.789062 385.378906 401.367188 386.773438 C 401.945312 388.167969 402.453125 389.589844 402.894531 391.035156 C 403.332031 392.480469 403.699219 393.945312 403.992188 395.425781 C 404.289062 396.90625 404.511719 398.398438 404.65625 399.902344 C 404.804688 401.40625 404.878906 402.914062 404.878906 404.421875 Z M 404.878906 404.421875 " fill-opacity="1" fill-rule="nonzero"/><path fill="#292f33" d="M 391.898438 404.421875 C 391.898438 405.507812 391.847656 406.59375 391.742188 407.671875 C 391.632812 408.753906 391.472656 409.824219 391.261719 410.890625 C 391.050781 411.957031 390.785156 413.007812 390.472656 414.046875 C 390.15625 415.085938 389.789062 416.105469 389.375 417.109375 C 388.960938 418.113281 388.496094 419.09375 387.984375 420.050781 C 387.472656 421.007812 386.914062 421.9375 386.308594 422.839844 C 385.707031 423.742188 385.058594 424.613281 384.371094 425.453125 C 383.679688 426.292969 382.953125 427.097656 382.183594 427.863281 C 381.414062 428.632812 380.613281 429.359375 379.773438 430.046875 C 378.933594 430.738281 378.0625 431.382812 377.15625 431.984375 C 376.253906 432.589844 375.324219 433.148438 374.367188 433.660156 C 373.40625 434.171875 372.425781 434.632812 371.421875 435.050781 C 370.417969 435.464844 369.398438 435.832031 368.359375 436.144531 C 367.316406 436.460938 366.265625 436.722656 365.199219 436.9375 C 364.132812 437.148438 363.0625 437.308594 361.980469 437.414062 C 360.898438 437.519531 359.816406 437.574219 358.726562 437.574219 C 357.640625 437.574219 356.558594 437.519531 355.476562 437.414062 C 354.394531 437.308594 353.320312 437.148438 352.257812 436.9375 C 351.191406 436.722656 350.136719 436.460938 349.097656 436.144531 C 348.058594 435.832031 347.039062 435.464844 346.035156 435.050781 C 345.03125 434.632812 344.050781 434.171875 343.089844 433.660156 C 342.132812 433.148438 341.203125 432.589844 340.300781 431.984375 C 339.394531 431.382812 338.523438 430.738281 337.683594 430.046875 C 336.84375 429.359375 336.039062 428.632812 335.273438 427.863281 C 334.503906 427.097656 333.773438 426.292969 333.085938 425.453125 C 332.398438 424.613281 331.75 423.742188 331.148438 422.839844 C 330.542969 421.9375 329.984375 421.007812 329.472656 420.050781 C 328.960938 419.09375 328.496094 418.113281 328.082031 417.109375 C 327.664062 416.105469 327.300781 415.085938 326.984375 414.046875 C 326.667969 413.007812 326.40625 411.957031 326.195312 410.890625 C 325.980469 409.824219 325.824219 408.753906 325.714844 407.671875 C 325.609375 406.59375 325.554688 405.507812 325.554688 404.421875 C 325.554688 403.335938 325.609375 402.253906 325.714844 401.175781 C 325.824219 400.09375 325.980469 399.019531 326.195312 397.957031 C 326.40625 396.890625 326.667969 395.839844 326.984375 394.800781 C 327.300781 393.761719 327.664062 392.742188 328.082031 391.738281 C 328.496094 390.734375 328.960938 389.753906 329.472656 388.796875 C 329.984375 387.839844 330.542969 386.910156 331.148438 386.007812 C 331.75 385.105469 332.398438 384.234375 333.085938 383.394531 C 333.773438 382.554688 334.503906 381.75 335.273438 380.984375 C 336.039062 380.214844 336.84375 379.488281 337.683594 378.796875 C 338.523438 378.109375 339.394531 377.464844 340.300781 376.859375 C 341.203125 376.257812 342.132812 375.699219 343.089844 375.1875 C 344.050781 374.675781 345.03125 374.210938 346.035156 373.796875 C 347.039062 373.382812 348.058594 373.015625 349.097656 372.703125 C 350.136719 372.386719 351.191406 372.121094 352.257812 371.910156 C 353.320312 371.699219 354.394531 371.539062 355.476562 371.433594 C 356.558594 371.328125 357.640625 371.273438 358.726562 371.273438 C 359.816406 371.273438 360.898438 371.328125 361.980469 371.433594 C 363.0625 371.539062 364.132812 371.699219 365.199219 371.910156 C 366.265625 372.121094 367.316406 372.386719 368.359375 372.703125 C 369.398438 373.015625 370.417969 373.382812 371.421875 373.796875 C 372.425781 374.210938 373.40625 374.675781 374.367188 375.1875 C 375.324219 375.699219 376.253906 376.257812 377.15625 376.859375 C 378.0625 377.464844 378.933594 378.109375 379.773438 378.796875 C 380.613281 379.488281 381.414062 380.214844 382.183594 380.984375 C 382.953125 381.75 383.679688 382.554688 384.371094 383.394531 C 385.058594 384.234375 385.707031 385.105469 386.308594 386.007812 C 386.914062 386.910156 387.472656 387.839844 387.984375 388.796875 C 388.496094 389.753906 388.960938 390.734375 389.375 391.738281 C 389.789062 392.742188 390.15625 393.761719 390.472656 394.800781 C 390.785156 395.839844 391.050781 396.890625 391.261719 397.957031 C 391.472656 399.019531 391.632812 400.09375 391.742188 401.175781 C 391.847656 402.253906 391.898438 403.335938 391.898438 404.421875 Z M 391.898438 404.421875 " fill-opacity="1" fill-rule="nonzero"/><path fill="#f5f8fa" d="M 385.402344 380.648438 C 385.402344 381.59375 385.3125 382.53125 385.128906 383.460938 C 384.941406 384.386719 384.667969 385.289062 384.304688 386.164062 C 383.945312 387.039062 383.5 387.867188 382.972656 388.65625 C 382.449219 389.441406 381.847656 390.171875 381.179688 390.839844 C 380.511719 391.507812 379.78125 392.105469 378.996094 392.632812 C 378.207031 393.15625 377.375 393.601562 376.5 393.964844 C 375.625 394.324219 374.722656 394.597656 373.796875 394.785156 C 372.867188 394.96875 371.929688 395.0625 370.980469 395.0625 C 370.035156 395.0625 369.097656 394.96875 368.167969 394.785156 C 367.238281 394.597656 366.335938 394.324219 365.460938 393.964844 C 364.585938 393.601562 363.757812 393.15625 362.96875 392.632812 C 362.179688 392.105469 361.453125 391.507812 360.785156 390.839844 C 360.113281 390.171875 359.515625 389.441406 358.988281 388.65625 C 358.464844 387.867188 358.019531 387.039062 357.65625 386.164062 C 357.292969 385.289062 357.019531 384.386719 356.835938 383.460938 C 356.652344 382.53125 356.558594 381.59375 356.558594 380.648438 C 356.558594 379.703125 356.652344 378.765625 356.835938 377.835938 C 357.019531 376.90625 357.292969 376.007812 357.65625 375.132812 C 358.019531 374.257812 358.464844 373.425781 358.988281 372.640625 C 359.515625 371.855469 360.113281 371.125 360.785156 370.457031 C 361.453125 369.789062 362.179688 369.191406 362.96875 368.664062 C 363.757812 368.136719 364.585938 367.695312 365.460938 367.332031 C 366.335938 366.96875 367.238281 366.695312 368.167969 366.511719 C 369.097656 366.328125 370.035156 366.234375 370.980469 366.234375 C 371.929688 366.234375 372.867188 366.328125 373.796875 366.511719 C 374.722656 366.695312 375.625 366.96875 376.5 367.332031 C 377.375 367.695312 378.207031 368.136719 378.996094 368.664062 C 379.78125 369.191406 380.511719 369.789062 381.179688 370.457031 C 381.847656 371.125 382.449219 371.855469 382.972656 372.640625 C 383.5 373.425781 383.945312 374.257812 384.304688 375.132812 C 384.667969 376.007812 384.941406 376.90625 385.128906 377.835938 C 385.3125 378.765625 385.402344 379.703125 385.402344 380.648438 Z M 385.402344 380.648438 " fill-opacity="1" fill-rule="nonzero"/><path fill="#f5f8fa" d="M 275.433594 404.421875 C 275.433594 406.929688 275.398438 409.433594 275.324219 411.9375 C 275.25 414.441406 275.140625 416.9375 274.992188 419.433594 C 274.847656 421.925781 274.664062 424.414062 274.441406 426.894531 C 274.222656 429.371094 273.964844 431.839844 273.671875 434.296875 C 273.378906 436.757812 273.050781 439.199219 272.683594 441.632812 C 272.320312 444.0625 271.917969 446.476562 271.484375 448.875 C 271.046875 451.273438 270.578125 453.652344 270.070312 456.011719 C 269.566406 458.371094 269.023438 460.710938 268.449219 463.023438 C 267.875 465.339844 267.265625 467.628906 266.625 469.894531 C 265.984375 472.160156 265.308594 474.398438 264.601562 476.609375 C 263.890625 478.820312 263.152344 481 262.378906 483.148438 C 261.609375 485.300781 260.804688 487.414062 259.96875 489.5 C 259.136719 491.582031 258.273438 493.632812 257.378906 495.644531 C 256.484375 497.65625 255.558594 499.632812 254.605469 501.570312 C 253.652344 503.507812 252.671875 505.40625 251.664062 507.261719 C 250.65625 509.117188 249.621094 510.933594 248.558594 512.703125 C 247.496094 514.476562 246.410156 516.203125 245.296875 517.886719 C 244.183594 519.570312 243.046875 521.207031 241.886719 522.796875 C 240.726562 524.386719 239.542969 525.929688 238.335938 527.421875 C 237.128906 528.914062 235.902344 530.355469 234.652344 531.75 C 233.40625 533.140625 232.136719 534.480469 230.847656 535.769531 C 229.558594 537.058594 228.253906 538.292969 226.929688 539.476562 C 225.605469 540.65625 224.265625 541.78125 222.90625 542.855469 C 221.550781 543.925781 220.175781 544.941406 218.789062 545.898438 C 217.402344 546.859375 216 547.761719 214.585938 548.605469 C 213.171875 549.449219 211.746094 550.234375 210.308594 550.960938 C 208.875 551.691406 207.425781 552.359375 205.96875 552.96875 C 204.511719 553.578125 203.046875 554.125 201.574219 554.613281 C 200.101562 555.101562 198.621094 555.53125 197.136719 555.898438 C 195.652344 556.265625 194.160156 556.574219 192.667969 556.820312 C 191.171875 557.066406 189.675781 557.25 188.175781 557.371094 C 186.675781 557.496094 185.175781 557.558594 183.671875 557.558594 C 182.171875 557.558594 180.671875 557.496094 179.171875 557.371094 C 177.671875 557.25 176.171875 557.066406 174.679688 556.820312 C 173.183594 556.574219 171.695312 556.265625 170.207031 555.898438 C 168.722656 555.53125 167.246094 555.101562 165.769531 554.613281 C 164.296875 554.125 162.832031 553.578125 161.375 552.96875 C 159.921875 552.359375 158.472656 551.691406 157.035156 550.960938 C 155.597656 550.234375 154.171875 549.449219 152.757812 548.605469 C 151.34375 547.761719 149.945312 546.859375 148.558594 545.898438 C 147.171875 544.941406 145.796875 543.925781 144.441406 542.855469 C 143.082031 541.78125 141.742188 540.65625 140.417969 539.476562 C 139.09375 538.292969 137.785156 537.058594 136.5 535.769531 C 135.210938 534.480469 133.941406 533.140625 132.691406 531.75 C 131.445312 530.355469 130.21875 528.914062 129.011719 527.421875 C 127.804688 525.929688 126.621094 524.386719 125.460938 522.796875 C 124.300781 521.207031 123.164062 519.570312 122.050781 517.886719 C 120.9375 516.203125 119.847656 514.476562 118.789062 512.703125 C 117.726562 510.933594 116.691406 509.117188 115.683594 507.261719 C 114.671875 505.40625 113.691406 503.507812 112.742188 501.570312 C 111.789062 499.632812 110.863281 497.65625 109.96875 495.644531 C 109.074219 493.632812 108.210938 491.582031 107.375 489.5 C 106.542969 487.414062 105.738281 485.300781 104.964844 483.148438 C 104.195312 481 103.453125 478.820312 102.746094 476.609375 C 102.039062 474.398438 101.363281 472.160156 100.722656 469.894531 C 100.078125 467.628906 99.472656 465.339844 98.894531 463.023438 C 98.320312 460.710938 97.78125 458.371094 97.273438 456.011719 C 96.769531 453.652344 96.296875 451.273438 95.863281 448.875 C 95.425781 446.476562 95.027344 444.0625 94.660156 441.632812 C 94.296875 439.199219 93.96875 436.757812 93.675781 434.296875 C 93.382812 431.839844 93.125 429.371094 92.90625 426.894531 C 92.683594 424.414062 92.5 421.925781 92.351562 419.433594 C 92.207031 416.9375 92.09375 414.441406 92.023438 411.9375 C 91.949219 409.433594 91.910156 406.929688 91.910156 404.421875 C 91.910156 401.917969 91.949219 399.414062 92.023438 396.910156 C 92.09375 394.40625 92.207031 391.90625 92.351562 389.414062 C 92.5 386.917969 92.683594 384.433594 92.90625 381.953125 C 93.125 379.476562 93.382812 377.007812 93.675781 374.546875 C 93.96875 372.089844 94.296875 369.644531 94.660156 367.214844 C 95.027344 364.785156 95.425781 362.371094 95.863281 359.972656 C 96.296875 357.574219 96.769531 355.195312 97.273438 352.835938 C 97.78125 350.476562 98.320312 348.136719 98.894531 345.820312 C 99.472656 343.507812 100.078125 341.214844 100.722656 338.949219 C 101.363281 336.683594 102.039062 334.445312 102.746094 332.238281 C 103.453125 330.027344 104.195312 327.847656 104.964844 325.695312 C 105.738281 323.546875 106.542969 321.429688 107.375 319.347656 C 108.210938 317.261719 109.074219 315.214844 109.96875 313.203125 C 110.863281 311.1875 111.789062 309.214844 112.742188 307.277344 C 113.691406 305.339844 114.671875 303.441406 115.683594 301.585938 C 116.691406 299.730469 117.726562 297.914062 118.789062 296.140625 C 119.847656 294.371094 120.9375 292.640625 122.050781 290.960938 C 123.164062 289.277344 124.300781 287.640625 125.460938 286.050781 C 126.621094 284.460938 127.804688 282.917969 129.011719 281.425781 C 130.21875 279.933594 131.445312 278.488281 132.691406 277.097656 C 133.941406 275.707031 135.210938 274.363281 136.5 273.078125 C 137.785156 271.789062 139.09375 270.554688 140.417969 269.371094 C 141.742188 268.191406 143.082031 267.0625 144.441406 265.992188 C 145.796875 264.921875 147.171875 263.90625 148.558594 262.945312 C 149.945312 261.988281 151.34375 261.085938 152.757812 260.242188 C 154.171875 259.398438 155.597656 258.613281 157.035156 257.882812 C 158.472656 257.15625 159.921875 256.488281 161.375 255.878906 C 162.832031 255.269531 164.296875 254.722656 165.769531 254.234375 C 167.246094 253.742188 168.722656 253.316406 170.207031 252.949219 C 171.695312 252.578125 173.183594 252.273438 174.679688 252.027344 C 176.171875 251.78125 177.671875 251.597656 179.171875 251.476562 C 180.671875 251.351562 182.171875 251.289062 183.671875 251.289062 C 185.175781 251.289062 186.675781 251.351562 188.175781 251.476562 C 189.675781 251.597656 191.171875 251.78125 192.667969 252.027344 C 194.160156 252.273438 195.652344 252.578125 197.136719 252.949219 C 198.621094 253.316406 200.101562 253.742188 201.574219 254.234375 C 203.046875 254.722656 204.511719 255.269531 205.96875 255.878906 C 207.425781 256.488281 208.875 257.15625 210.308594 257.882812 C 211.746094 258.613281 213.171875 259.398438 214.585938 260.242188 C 216 261.085938 217.402344 261.988281 218.789062 262.945312 C 220.175781 263.90625 221.550781 264.921875 222.90625 265.992188 C 224.265625 267.0625 225.605469 268.191406 226.929688 269.371094 C 228.253906 270.554688 229.558594 271.789062 230.847656 273.078125 C 232.136719 274.363281 233.40625 275.707031 234.652344 277.097656 C 235.902344 278.488281 237.128906 279.933594 238.335938 281.425781 C 239.542969 282.917969 240.726562 284.460938 241.886719 286.050781 C 243.046875 287.640625 244.183594 289.277344 245.296875 290.960938 C 246.410156 292.640625 247.496094 294.371094 248.558594 296.140625 C 249.621094 297.914062 250.65625 299.730469 251.664062 301.585938 C 252.671875 303.441406 253.652344 305.339844 254.605469 307.277344 C 255.558594 309.214844 256.484375 311.1875 257.378906 313.203125 C 258.273438 315.214844 259.136719 317.261719 259.96875 319.347656 C 260.804688 321.429688 261.609375 323.546875 262.378906 325.695312 C 263.152344 327.847656 263.890625 330.027344 264.601562 332.238281 C 265.308594 334.445312 265.984375 336.683594 266.625 338.949219 C 267.265625 341.214844 267.875 343.507812 268.449219 345.820312 C 269.023438 348.136719 269.566406 350.476562 270.070312 352.835938 C 270.578125 355.195312 271.046875 357.574219 271.484375 359.972656 C 271.917969 362.371094 272.320312 364.785156 272.683594 367.214844 C 273.050781 369.644531 273.378906 372.089844 273.671875 374.546875 C 273.964844 377.007812 274.222656 379.476562 274.441406 381.953125 C 274.664062 384.433594 274.847656 386.917969 274.992188 389.414062 C 275.140625 391.90625 275.25 394.40625 275.324219 396.910156 C 275.398438 399.414062 275.433594 401.917969 275.433594 404.421875 Z M 275.433594 404.421875 " fill-opacity="1" fill-rule="nonzero"/><g clip-path="url(#3f2501048d)"><path fill="#e1e8ed" d="M 183.671875 566.203125 C 127.367188 566.203125 83.257812 495.144531 83.257812 404.421875 C 83.257812 313.703125 127.367188 242.640625 183.671875 242.640625 C 239.980469 242.640625 284.089844 313.703125 284.089844 404.421875 C 284.089844 495.144531 239.980469 566.203125 183.671875 566.203125 Z M 183.671875 259.9375 C 137.84375 259.9375 100.566406 324.75 100.566406 404.421875 C 100.566406 484.097656 137.84375 548.910156 183.671875 548.910156 C 229.503906 548.910156 266.78125 484.097656 266.78125 404.421875 C 266.78125 324.75 229.503906 259.9375 183.671875 259.9375 Z M 183.671875 259.9375 " fill-opacity="1" fill-rule="nonzero"/></g><path fill="#8899a6" d="M 192.867188 404.421875 C 192.867188 405.933594 192.796875 407.441406 192.648438 408.945312 C 192.5 410.449219 192.277344 411.941406 191.980469 413.421875 C 191.6875 414.902344 191.320312 416.367188 190.882812 417.8125 C 190.441406 419.257812 189.933594 420.675781 189.355469 422.074219 C 188.777344 423.46875 188.132812 424.832031 187.417969 426.164062 C 186.707031 427.496094 185.929688 428.789062 185.089844 430.046875 C 184.25 431.304688 183.351562 432.515625 182.394531 433.683594 C 181.433594 434.851562 180.421875 435.96875 179.351562 437.035156 C 178.28125 438.105469 177.164062 439.117188 175.996094 440.074219 C 174.828125 441.035156 173.613281 441.933594 172.359375 442.773438 C 171.101562 443.609375 169.804688 444.386719 168.472656 445.097656 C 167.140625 445.8125 165.773438 446.457031 164.378906 447.035156 C 162.980469 447.613281 161.5625 448.121094 160.113281 448.558594 C 158.667969 448.996094 157.203125 449.363281 155.722656 449.660156 C 154.238281 449.953125 152.746094 450.175781 151.242188 450.324219 C 149.734375 450.46875 148.226562 450.542969 146.71875 450.542969 C 145.207031 450.542969 143.699219 450.46875 142.191406 450.324219 C 140.6875 450.175781 139.195312 449.953125 137.714844 449.660156 C 136.230469 449.363281 134.765625 448.996094 133.320312 448.558594 C 131.875 448.121094 130.453125 447.613281 129.054688 447.035156 C 127.660156 446.457031 126.292969 445.8125 124.960938 445.097656 C 123.628906 444.386719 122.332031 443.609375 121.074219 442.773438 C 119.820312 441.933594 118.605469 441.035156 117.4375 440.074219 C 116.269531 439.117188 115.152344 438.105469 114.082031 437.035156 C 113.011719 435.96875 112 434.851562 111.039062 433.683594 C 110.082031 432.515625 109.183594 431.304688 108.34375 430.046875 C 107.503906 428.789062 106.726562 427.496094 106.015625 426.164062 C 105.300781 424.832031 104.65625 423.46875 104.078125 422.074219 C 103.5 420.675781 102.992188 419.257812 102.550781 417.8125 C 102.113281 416.367188 101.746094 414.902344 101.453125 413.421875 C 101.15625 411.941406 100.933594 410.449219 100.785156 408.945312 C 100.640625 407.441406 100.566406 405.933594 100.566406 404.421875 C 100.566406 402.914062 100.640625 401.40625 100.785156 399.902344 C 100.933594 398.398438 101.15625 396.90625 101.453125 395.425781 C 101.746094 393.945312 102.113281 392.480469 102.550781 391.035156 C 102.992188 389.589844 103.5 388.167969 104.078125 386.773438 C 104.65625 385.378906 105.300781 384.015625 106.015625 382.683594 C 106.726562 381.351562 107.503906 380.054688 108.34375 378.800781 C 109.183594 377.542969 110.082031 376.332031 111.039062 375.164062 C 112 373.996094 113.011719 372.878906 114.082031 371.8125 C 115.152344 370.742188 116.269531 369.730469 117.4375 368.769531 C 118.605469 367.8125 119.820312 366.914062 121.074219 366.074219 C 122.332031 365.234375 123.628906 364.460938 124.960938 363.75 C 126.292969 363.035156 127.660156 362.390625 129.054688 361.8125 C 130.453125 361.234375 131.875 360.726562 133.320312 360.289062 C 134.765625 359.851562 136.230469 359.484375 137.714844 359.1875 C 139.195312 358.894531 140.6875 358.671875 142.191406 358.523438 C 143.699219 358.375 145.207031 358.300781 146.71875 358.300781 C 148.226562 358.300781 149.734375 358.375 151.242188 358.523438 C 152.746094 358.671875 154.238281 358.894531 155.722656 359.1875 C 157.203125 359.484375 158.667969 359.851562 160.113281 360.289062 C 161.5625 360.726562 162.980469 361.234375 164.378906 361.8125 C 165.773438 362.390625 167.140625 363.035156 168.472656 363.75 C 169.804688 364.460938 171.101562 365.234375 172.359375 366.074219 C 173.613281 366.914062 174.828125 367.8125 175.996094 368.769531 C 177.164062 369.730469 178.28125 370.742188 179.351562 371.8125 C 180.421875 372.878906 181.433594 373.996094 182.394531 375.164062 C 183.351562 376.332031 184.25 377.542969 185.089844 378.800781 C 185.929688 380.054688 186.707031 381.351562 187.417969 382.683594 C 188.132812 384.015625 188.777344 385.378906 189.355469 386.773438 C 189.933594 388.167969 190.441406 389.589844 190.882812 391.035156 C 191.320312 392.480469 191.6875 393.945312 191.980469 395.425781 C 192.277344 396.90625 192.5 398.398438 192.648438 399.902344 C 192.796875 401.40625 192.867188 402.914062 192.867188 404.421875 Z M 192.867188 404.421875 " fill-opacity="1" fill-rule="nonzero"/><path fill="#292f33" d="M 179.890625 404.421875 C 179.890625 405.507812 179.835938 406.59375 179.730469 407.671875 C 179.621094 408.753906 179.464844 409.824219 179.25 410.890625 C 179.039062 411.957031 178.777344 413.007812 178.460938 414.046875 C 178.144531 415.085938 177.78125 416.105469 177.363281 417.109375 C 176.949219 418.113281 176.484375 419.09375 175.972656 420.050781 C 175.460938 421.007812 174.902344 421.9375 174.296875 422.839844 C 173.695312 423.742188 173.046875 424.613281 172.359375 425.453125 C 171.667969 426.292969 170.941406 427.097656 170.171875 427.863281 C 169.40625 428.632812 168.601562 429.359375 167.761719 430.046875 C 166.921875 430.738281 166.050781 431.382812 165.144531 431.984375 C 164.242188 432.589844 163.3125 433.148438 162.355469 433.660156 C 161.394531 434.171875 160.414062 434.632812 159.410156 435.050781 C 158.40625 435.464844 157.386719 435.832031 156.347656 436.144531 C 155.304688 436.460938 154.253906 436.722656 153.1875 436.9375 C 152.121094 437.148438 151.050781 437.308594 149.96875 437.414062 C 148.886719 437.519531 147.804688 437.574219 146.71875 437.574219 C 145.628906 437.574219 144.546875 437.519531 143.464844 437.414062 C 142.382812 437.308594 141.3125 437.148438 140.246094 436.9375 C 139.179688 436.722656 138.128906 436.460938 137.085938 436.144531 C 136.046875 435.832031 135.027344 435.464844 134.023438 435.050781 C 133.019531 434.632812 132.039062 434.171875 131.078125 433.660156 C 130.121094 433.148438 129.191406 432.589844 128.289062 431.984375 C 127.382812 431.382812 126.511719 430.738281 125.671875 430.046875 C 124.832031 429.359375 124.027344 428.632812 123.261719 427.863281 C 122.492188 427.097656 121.765625 426.292969 121.074219 425.453125 C 120.386719 424.613281 119.738281 423.742188 119.136719 422.839844 C 118.53125 421.9375 117.972656 421.007812 117.460938 420.050781 C 116.949219 419.09375 116.484375 418.113281 116.070312 417.109375 C 115.65625 416.105469 115.289062 415.085938 114.972656 414.046875 C 114.65625 413.007812 114.394531 411.957031 114.183594 410.890625 C 113.96875 409.824219 113.8125 408.753906 113.703125 407.671875 C 113.597656 406.59375 113.546875 405.507812 113.546875 404.421875 C 113.546875 403.335938 113.597656 402.253906 113.703125 401.175781 C 113.8125 400.09375 113.96875 399.019531 114.183594 397.957031 C 114.394531 396.890625 114.65625 395.839844 114.972656 394.800781 C 115.289062 393.761719 115.65625 392.742188 116.070312 391.738281 C 116.484375 390.734375 116.949219 389.753906 117.460938 388.796875 C 117.972656 387.839844 118.53125 386.910156 119.136719 386.007812 C 119.738281 385.105469 120.386719 384.234375 121.074219 383.394531 C 121.765625 382.554688 122.492188 381.75 123.261719 380.984375 C 124.027344 380.214844 124.832031 379.488281 125.671875 378.796875 C 126.511719 378.109375 127.382812 377.464844 128.289062 376.859375 C 129.191406 376.257812 130.121094 375.699219 131.078125 375.1875 C 132.039062 374.675781 133.019531 374.210938 134.023438 373.796875 C 135.027344 373.382812 136.046875 373.015625 137.085938 372.703125 C 138.128906 372.386719 139.179688 372.121094 140.246094 371.910156 C 141.3125 371.699219 142.382812 371.539062 143.464844 371.433594 C 144.546875 371.328125 145.628906 371.273438 146.71875 371.273438 C 147.804688 371.273438 148.886719 371.328125 149.96875 371.433594 C 151.050781 371.539062 152.121094 371.699219 153.1875 371.910156 C 154.253906 372.121094 155.304688 372.386719 156.347656 372.703125 C 157.386719 373.015625 158.40625 373.382812 159.410156 373.796875 C 160.414062 374.210938 161.394531 374.675781 162.355469 375.1875 C 163.3125 375.699219 164.242188 376.257812 165.144531 376.859375 C 166.050781 377.464844 166.921875 378.109375 167.761719 378.796875 C 168.601562 379.488281 169.40625 380.214844 170.171875 380.984375 C 170.941406 381.75 171.667969 382.554688 172.359375 383.394531 C 173.046875 384.234375 173.695312 385.105469 174.296875 386.007812 C 174.902344 386.910156 175.460938 387.839844 175.972656 388.796875 C 176.484375 389.753906 176.949219 390.734375 177.363281 391.738281 C 177.78125 392.742188 178.144531 393.761719 178.460938 394.800781 C 178.777344 395.839844 179.039062 396.890625 179.25 397.957031 C 179.464844 399.019531 179.621094 400.09375 179.730469 401.175781 C 179.835938 402.253906 179.890625 403.335938 179.890625 404.421875 Z M 179.890625 404.421875 " fill-opacity="1" fill-rule="nonzero"/><path fill="#f5f8fa" d="M 173.40625 380.648438 C 173.40625 381.59375 173.3125 382.53125 173.128906 383.460938 C 172.941406 384.386719 172.667969 385.289062 172.304688 386.164062 C 171.945312 387.039062 171.5 387.867188 170.972656 388.65625 C 170.449219 389.441406 169.851562 390.171875 169.179688 390.839844 C 168.511719 391.507812 167.78125 392.105469 166.996094 392.632812 C 166.207031 393.15625 165.375 393.601562 164.5 393.964844 C 163.625 394.324219 162.722656 394.597656 161.796875 394.785156 C 160.867188 394.96875 159.929688 395.0625 158.980469 395.0625 C 158.035156 395.0625 157.097656 394.96875 156.167969 394.785156 C 155.238281 394.597656 154.335938 394.324219 153.460938 393.964844 C 152.585938 393.601562 151.757812 393.15625 150.96875 392.632812 C 150.183594 392.105469 149.453125 391.507812 148.785156 390.839844 C 148.113281 390.171875 147.515625 389.441406 146.988281 388.65625 C 146.464844 387.867188 146.019531 387.039062 145.65625 386.164062 C 145.292969 385.289062 145.019531 384.386719 144.835938 383.460938 C 144.652344 382.53125 144.558594 381.59375 144.558594 380.648438 C 144.558594 379.703125 144.652344 378.765625 144.835938 377.835938 C 145.019531 376.90625 145.292969 376.007812 145.65625 375.132812 C 146.019531 374.257812 146.464844 373.425781 146.988281 372.640625 C 147.515625 371.855469 148.113281 371.125 148.785156 370.457031 C 149.453125 369.789062 150.183594 369.191406 150.96875 368.664062 C 151.757812 368.136719 152.585938 367.695312 153.460938 367.332031 C 154.335938 366.96875 155.238281 366.695312 156.167969 366.511719 C 157.097656 366.328125 158.035156 366.234375 158.980469 366.234375 C 159.929688 366.234375 160.867188 366.328125 161.796875 366.511719 C 162.722656 366.695312 163.625 366.96875 164.5 367.332031 C 165.375 367.695312 166.207031 368.136719 166.996094 368.664062 C 167.78125 369.191406 168.511719 369.789062 169.179688 370.457031 C 169.851562 371.125 170.449219 371.855469 170.972656 372.640625 C 171.5 373.425781 171.945312 374.257812 172.304688 375.132812 C 172.667969 376.007812 172.941406 376.90625 173.128906 377.835938 C 173.3125 378.765625 173.40625 379.703125 173.40625 380.648438 Z M 173.40625 380.648438 " fill-opacity="1" fill-rule="nonzero"/><path fill="#2a6797" d="M 711.140625 555.964844 C 709.46875 555.964844 707.765625 555.734375 706.082031 555.246094 C 696.304688 552.449219 690.644531 542.265625 693.433594 532.484375 L 711.839844 468.050781 C 712.984375 464.046875 715.449219 460.558594 718.835938 458.136719 L 783.261719 412.113281 C 791.507812 406.207031 803.019531 408.109375 808.929688 416.394531 C 814.839844 424.660156 812.925781 436.15625 804.648438 442.066406 L 745.460938 484.363281 L 728.824219 542.609375 C 726.511719 550.691406 719.148438 555.953125 711.140625 555.964844 Z M 711.140625 555.964844 " fill-opacity="1" fill-rule="nonzero"/><path fill="#4289c1" d="M 849.160156 528.339844 C 846.398438 528.339844 843.589844 527.722656 840.949219 526.398438 L 785.726562 498.785156 C 779.488281 495.664062 775.546875 489.296875 775.546875 482.316406 L 775.546875 436.296875 C 775.546875 426.132812 783.796875 417.886719 793.957031 417.886719 C 804.117188 417.886719 812.363281 426.132812 812.363281 436.296875 L 812.363281 470.941406 L 857.414062 493.464844 C 866.507812 498.011719 870.199219 509.066406 865.652344 518.167969 C 862.410156 524.621094 855.914062 528.339844 849.160156 528.339844 Z M 849.160156 528.339844 " fill-opacity="1" fill-rule="nonzero"/><path fill="#292f33" d="M 871.21875 503.09375 C 872.167969 499.695312 869.453125 496.945312 865.9375 496.132812 C 860.3125 494.835938 857.957031 494.570312 857.957031 494.570312 C 855.148438 494.367188 849.074219 495.160156 848.164062 498.378906 C 841.566406 521.789062 842.117188 549.640625 845.902344 557.324219 C 848.128906 561.863281 854.929688 561.273438 856.28125 556.453125 Z M 717.546875 565.859375 C 720.878906 567.007812 723.789062 564.460938 724.808594 561 C 726.4375 555.464844 726.84375 553.121094 726.84375 553.121094 C 727.210938 550.332031 726.777344 544.21875 723.621094 543.113281 C 700.648438 535.132812 672.820312 534.039062 664.921875 537.351562 C 660.265625 539.3125 660.449219 546.132812 665.171875 547.761719 Z M 717.546875 565.859375 " fill-opacity="1" fill-rule="nonzero"/><path fill="#ffdc5d" d="M 769.375 310.136719 C 772.328125 306.316406 774.589844 301.816406 775.675781 296.25 C 779.578125 276.367188 768.09375 257.367188 750.019531 253.824219 C 731.941406 250.273438 707.230469 263.65625 707.78125 283.90625 C 708.335938 304.015625 719.507812 333.683594 736.351562 328.675781 C 740.796875 327.359375 745.242188 325.90625 749.476562 324.15625 C 751.277344 326.292969 752.558594 330.121094 751.820312 337.125 C 749.917969 354.984375 774.574219 361.203125 776.460938 343.3125 C 777.949219 329.164062 769.125 320.179688 769.375 310.136719 Z M 769.375 310.136719 " fill-opacity="1" fill-rule="nonzero"/><path fill="#ffac33" d="M 715.882812 258.445312 C 740.457031 243.378906 756.894531 246 770.523438 257.09375 C 784.0625 268.101562 784.550781 288.738281 780.65625 301.855469 C 776.761719 314.96875 772.945312 314.214844 772.945312 314.214844 C 772.945312 314.214844 754.75 318.199219 753.535156 301.339844 C 753.148438 296.007812 759.101562 293.183594 752.714844 285.3125 C 748.609375 280.25 739.351562 282.691406 739.25 289.941406 C 739.148438 297.195312 735.457031 295.804688 735.457031 295.804688 L 724.707031 276.515625 C 724.707031 276.515625 715.3125 275.898438 710.019531 284.484375 C 706.6875 289.878906 694.417969 271.609375 715.882812 258.445312 Z M 715.882812 258.445312 " fill-opacity="1" fill-rule="nonzero"/><path fill="#ffdc5d" d="M 849.1875 408.683594 C 845.808594 408.683594 842.558594 406.824219 840.941406 403.589844 C 824.484375 370.675781 773.148438 353.140625 772.621094 352.964844 C 767.808594 351.355469 765.203125 346.136719 766.824219 341.324219 C 768.425781 336.507812 773.589844 333.875 778.457031 335.503906 C 780.859375 336.304688 837.523438 355.582031 857.40625 395.355469 C 859.679688 399.902344 857.835938 405.433594 853.289062 407.707031 C 851.976562 408.367188 850.566406 408.683594 849.1875 408.683594 Z M 849.1875 408.683594 " fill-opacity="1" fill-rule="nonzero"/><path fill="#77b255" d="M 795.328125 341.09375 C 787.136719 327.082031 775.789062 320.730469 764.054688 326.695312 C 727.3125 345.371094 746.742188 373.988281 766.4375 431.378906 C 766.4375 431.378906 775.640625 439.914062 797.34375 434.105469 C 812.609375 430.019531 822.109375 440.601562 824.730469 437.769531 C 827.355469 434.925781 815.039062 374.816406 795.328125 341.09375 Z M 795.328125 341.09375 " fill-opacity="1" fill-rule="nonzero"/><path fill="#ffdc5d" d="M 749.253906 357.917969 C 748.996094 358.34375 723.253906 400.546875 681.710938 408.855469 L 681.746094 409.039062 C 677.539062 409.886719 674.308594 413.429688 674.308594 417.886719 C 674.308594 422.976562 678.433594 427.089844 683.511719 427.089844 C 684.140625 427.089844 684.691406 426.859375 685.28125 426.730469 L 685.316406 426.917969 C 734.757812 417.03125 763.8125 369.425781 765.027344 367.398438 Z M 749.253906 357.917969 " fill-opacity="1" fill-rule="nonzero"/><path fill="#bdddf4" d="M 1359 378 C 1359 340.605469 1330.480469 309.886719 1294.011719 306.359375 C 1285.957031 270.117188 1253.671875 243 1215 243 C 1170.261719 243 1134 275.039062 1134 319.777344 C 1134 330.183594 1136.25 345.933594 1144.089844 353.84375 C 1114.730469 355.5 1071.847656 356.398438 1035 351.136719 C 1035 351.136719 1078.34375 385.613281 1173.214844 387 C 1171.855469 389.816406 1170.925781 399.871094 1170.457031 403.074219 C 1168.21875 403.101562 1165.105469 403.15625 1161 403.15625 C 1089 403.15625 1035 396 1035 396 C 1035 396 1062 425.105469 1173.652344 432.953125 C 1170 434.105469 1170 450 1170 450 C 1098 450 1035 441 1035 441 C 1065.257812 466.21875 1095.515625 477.296875 1116.269531 482.164062 C 1116.171875 483.445312 1116 484.695312 1116 486 C 1116 515.816406 1140.175781 531 1170 531 C 1174.382812 531 1178.621094 530.425781 1182.707031 529.433594 C 1197.082031 551.996094 1222.261719 567 1251 567 C 1295.738281 567 1332 530.738281 1332 486 C 1332 469.90625 1327.257812 454.960938 1319.15625 442.339844 C 1342.753906 430.53125 1359 406.1875 1359 378 Z M 1359 378 " fill-opacity="1" fill-rule="nonzero"/></svg>