<?xml version="1.0" encoding="UTF-8" standalone="no"?><svg xmlns="http://www.w3.org/2000/svg" xmlns:xlink="http://www.w3.org/1999/xlink" contentScriptType="text/ecmascript" fill="#000000" width="59.8" zoomAndPan="magnify" contentStyleType="text/css" viewBox="-0.6 -0.4 59.8 62.4" height="62.4" preserveAspectRatio="xMidYMid meet" version="1"><g><g id="change1_1"><path fill="#faf3e0" d="M55.94,22.123l-6.21,2.486c-2.042,0.817-4.339,0.702-6.288-0.317l-9.517-4.972 c-2.322-1.213-5.073-1.291-7.459-0.21l-11.723,5.308l-6.494-7.864l-2.31-9.507l11.67-5.284c2.386-1.08,5.137-1.003,7.459,0.21 l9.517,4.972c1.949,1.018,4.246,1.134,6.288,0.317l6.589-2.638c1.069-0.428,2.288,0.029,2.811,1.055l6.823,13.363 C57.692,20.21,57.157,21.636,55.94,22.123z"/></g><g id="change2_1"><path fill="#3e2944" d="M26.822,48.251l-4.056,2.056l2.952,5.825c0.568,1.12,1.936,1.568,3.056,1h0c1.12-0.568,1.568-1.936,1-3.056 L26.822,48.251z"/></g><g id="change3_1"><path fill="#faad95" d="M32.514,49.525L10.519,60.672c-1.524,0.772-3.386,0.151-4.14-1.382L1.316,49.009 c-0.743-1.508-0.134-3.333,1.366-4.093l5.019-2.544l0.647-3.317c0.44-2.259,1.899-4.189,3.952-5.229l9.226-4.676 c2.399-1.216,5.329-0.257,6.544,2.142l6.326,12.482C35.464,45.882,34.622,48.457,32.514,49.525z"/></g><g id="change2_2"><path fill="#3e2944" d="M17.858,35.594L17.858,35.594c-1.12,0.568-2.488,0.12-3.056-1L1.317,7.985c-0.568-1.12-0.12-2.488,1-3.056 l0,0c1.12-0.568,2.488-0.12,3.056,1l13.485,26.608C19.426,33.658,18.978,35.026,17.858,35.594z"/></g><g id="change4_1"><path d="M7.372,38.861l-0.557,2.841l-4.584,2.32c-1.981,1.004-2.796,3.437-1.815,5.424l5.07,10.289 c0.479,0.979,1.313,1.709,2.349,2.057c0.426,0.144,0.865,0.215,1.303,0.215c0.63,0,1.256-0.148,1.838-0.44l13.027-6.605l0.82,1.626 c0.396,0.78,1.072,1.359,1.903,1.631c0.336,0.109,0.681,0.164,1.022,0.164c0.509,0,1.013-0.12,1.477-0.356 c1.109-0.562,1.799-1.681,1.799-2.922c0-0.522-0.121-1.023-0.357-1.481l-0.821-1.624l3.121-1.583 c1.259-0.639,2.192-1.728,2.631-3.066c0.438-1.339,0.327-2.77-0.311-4.027l-6.321-12.481c-1.468-2.888-5.012-4.044-7.893-2.579 l-2.594,1.312l-2.371-4.679l10.769-4.87c2.13-0.962,4.528-0.896,6.585,0.185l9.519,4.97c1.233,0.645,2.589,0.97,3.952,0.97 c1.072,0,2.149-0.202,3.174-0.608l8.47-3.4c0.261-0.105,0.466-0.314,0.564-0.577c0.099-0.263,0.082-0.555-0.046-0.806l-8.85-17.35 c-0.235-0.46-0.785-0.667-1.263-0.474l-8.481,3.4c-1.769,0.711-3.756,0.61-5.453-0.278l-9.513-4.971 c-2.622-1.363-5.661-1.448-8.333-0.234L6.398,5.74L6.265,5.478c-0.395-0.78-1.07-1.36-1.901-1.632 C3.535,3.575,2.646,3.642,1.867,4.037c-0.781,0.395-1.36,1.07-1.633,1.901S0.03,7.657,0.425,8.437l12.213,24.097l-0.785,0.397 C9.509,34.114,7.875,36.276,7.372,38.861z M28.884,54.531c0.092,0.18,0.139,0.372,0.139,0.573c0,0.482-0.269,0.918-0.704,1.139 c-0.303,0.154-0.649,0.18-0.971,0.075c-0.325-0.106-0.589-0.333-0.742-0.634l-0.82-1.627l2.275-1.153L28.884,54.531z M18.026,2.674 c2.112-0.958,4.512-0.89,6.584,0.186l9.51,4.97c2.217,1.16,4.813,1.292,7.125,0.362l7.633-3.06l7.938,15.562l-7.451,2.991 c-1.779,0.707-3.77,0.605-5.458-0.277l-9.518-4.969c-2.601-1.367-5.641-1.454-8.337-0.236l-10.85,4.907L7.303,7.526L18.026,2.674z M2.134,6.561c0.106-0.323,0.332-0.586,0.636-0.74C2.952,5.73,3.147,5.683,3.344,5.683c0.134,0,0.268,0.021,0.397,0.064 c0.323,0.106,0.586,0.331,0.74,0.635l13.485,26.608c0.316,0.626,0.065,1.395-0.562,1.712c-0.302,0.154-0.648,0.182-0.972,0.075 c-0.323-0.106-0.586-0.332-0.74-0.635L2.208,7.533C2.055,7.23,2.029,6.884,2.134,6.561z M13.911,35.045 c0.395,0.78,1.07,1.36,1.901,1.632c0.335,0.11,0.679,0.164,1.021,0.164c0.507,0,1.011-0.119,1.477-0.355 c1.61-0.816,2.257-2.79,1.44-4.4l-0.369-0.728l2.594-1.312c1.901-0.965,4.236-0.205,5.204,1.7l0.722,1.426l-3.285,1.665 c-0.492,0.25-0.689,0.852-0.439,1.344c0.176,0.348,0.527,0.548,0.893,0.548c0.151,0,0.307-0.035,0.451-0.108l3.284-1.664 l1.446,2.856l-3.283,1.664c-0.492,0.25-0.689,0.852-0.439,1.344c0.176,0.348,0.527,0.548,0.893,0.548 c0.151,0,0.307-0.035,0.451-0.108l3.282-1.664l1.446,2.856l-3.282,1.664c-0.492,0.25-0.689,0.852-0.439,1.344 c0.176,0.348,0.527,0.548,0.893,0.548c0.151,0,0.307-0.035,0.451-0.108l3.281-1.663c0.392,0.78,0.461,1.664,0.19,2.492 c-0.271,0.831-0.852,1.507-1.635,1.905L10.074,59.781c-0.503,0.252-1.071,0.292-1.603,0.115c-0.524-0.176-0.947-0.547-1.19-1.044 L2.209,48.562c-0.497-1.009-0.082-2.245,0.925-2.755l5.02-2.54c0.275-0.139,0.471-0.397,0.53-0.7l0.65-3.321 c0.385-1.976,1.632-3.626,3.42-4.529l0.788-0.398L13.911,35.045z"/></g></g></svg>