<svg xmlns="http://www.w3.org/2000/svg" xmlns:xlink="http://www.w3.org/1999/xlink" width="1920" zoomAndPan="magnify" viewBox="0 0 1440 809.999993" height="1080" preserveAspectRatio="xMidYMid meet" version="1.0"><defs><g/></defs><g fill="#000000" fill-opacity="1"><g transform="translate(557.75153, 183.750011)"><g><path d="M 24.453125 0 L 24.453125 -23.796875 L 1.734375 -70.53125 L 18.828125 -70.53125 L 25.96875 -53.546875 C 27.039062 -50.878906 28.097656 -48.226562 29.140625 -45.59375 C 30.191406 -42.957031 31.257812 -40.234375 32.34375 -37.421875 L 32.78125 -37.421875 C 33.925781 -40.234375 35.054688 -42.957031 36.171875 -45.59375 C 37.296875 -48.226562 38.363281 -50.878906 39.375 -53.546875 L 46.515625 -70.53125 L 63.171875 -70.53125 L 40.453125 -23.796875 L 40.453125 0 Z M 24.453125 0 "/></g></g></g><g fill="#000000" fill-opacity="1"><g transform="translate(557.75153, 313.500004)"><g><path d="M 0.96875 0 L 22.9375 -70.53125 L 41.96875 -70.53125 L 63.921875 0 L 47.0625 0 L 37.96875 -35.703125 C 37.101562 -39.234375 36.164062 -42.976562 35.15625 -46.9375 C 34.144531 -50.90625 33.207031 -54.726562 32.34375 -58.40625 L 31.90625 -58.40625 C 31.039062 -54.726562 30.140625 -50.90625 29.203125 -46.9375 C 28.265625 -42.976562 27.328125 -39.234375 26.390625 -35.703125 L 17.203125 0 Z M 15.46875 -16.765625 L 15.46875 -29.203125 L 49.21875 -29.203125 L 49.21875 -16.765625 Z M 15.46875 -16.765625 "/></g></g></g><g fill="#000000" fill-opacity="1"><g transform="translate(557.75153, 443.249998)"><g><path d="M 37.109375 1.296875 C 31.117188 1.296875 25.671875 -0.0507812 20.765625 -2.75 C 15.859375 -5.457031 11.960938 -9.5 9.078125 -14.875 C 6.203125 -20.25 4.765625 -26.898438 4.765625 -34.828125 C 4.765625 -42.691406 6.203125 -49.378906 9.078125 -54.890625 C 11.960938 -60.410156 15.875 -64.613281 20.8125 -67.5 C 25.757812 -70.382812 31.257812 -71.828125 37.3125 -71.828125 C 42.070312 -71.828125 46.144531 -70.90625 49.53125 -69.0625 C 52.925781 -67.226562 55.742188 -65.15625 57.984375 -62.84375 L 49.21875 -53 C 47.707031 -54.519531 46.046875 -55.75 44.234375 -56.6875 C 42.429688 -57.625 40.125 -58.09375 37.3125 -58.09375 C 34.289062 -58.09375 31.550781 -57.171875 29.09375 -55.328125 C 26.644531 -53.492188 24.71875 -50.878906 23.3125 -47.484375 C 21.90625 -44.097656 21.203125 -40.0625 21.203125 -35.375 C 21.203125 -30.539062 21.8125 -26.410156 23.03125 -22.984375 C 24.257812 -19.554688 26.132812 -16.941406 28.65625 -15.140625 C 31.1875 -13.335938 34.289062 -12.4375 37.96875 -12.4375 C 39.34375 -12.4375 40.660156 -12.613281 41.921875 -12.96875 C 43.179688 -13.332031 44.171875 -13.878906 44.890625 -14.609375 L 44.890625 -26.71875 L 34.609375 -26.71875 L 34.609375 -39.703125 L 59.171875 -39.703125 L 59.171875 -7.25 C 56.785156 -5.007812 53.628906 -3.023438 49.703125 -1.296875 C 45.773438 0.429688 41.578125 1.296875 37.109375 1.296875 Z M 37.109375 1.296875 "/></g></g></g><g fill="#000000" fill-opacity="1"><g transform="translate(557.75153, 572.999991)"><g><path d="M 7.140625 0 L 7.140625 -70.53125 L 23.46875 -70.53125 L 38.296875 -35.484375 L 44.34375 -19.90625 L 44.78125 -19.90625 C 44.425781 -23.65625 43.957031 -27.835938 43.375 -32.453125 C 42.800781 -37.066406 42.515625 -41.429688 42.515625 -45.546875 L 42.515625 -70.53125 L 57.765625 -70.53125 L 57.765625 0 L 41.4375 0 L 26.609375 -35.15625 L 20.546875 -50.515625 L 20.125 -50.515625 C 20.476562 -46.691406 20.941406 -42.523438 21.515625 -38.015625 C 22.097656 -33.515625 22.390625 -29.171875 22.390625 -24.984375 L 22.390625 0 Z M 7.140625 0 "/></g></g></g><g fill="#000000" fill-opacity="1"><g transform="translate(557.75153, 702.749985)"><g><path d="M 7.140625 0 L 7.140625 -15.578125 L 23.15625 -15.578125 L 23.15625 -54.734375 L 7.140625 -54.734375 L 7.140625 -70.3125 L 57.765625 -70.3125 L 57.765625 -54.734375 L 41.75 -54.734375 L 41.75 -15.578125 L 57.765625 -15.578125 L 57.765625 0 Z M 7.140625 0 "/></g></g></g></svg>