<svg xmlns="http://www.w3.org/2000/svg" xmlns:xlink="http://www.w3.org/1999/xlink" width="1920" zoomAndPan="magnify" viewBox="0 0 1440 809.999993" height="1080" preserveAspectRatio="xMidYMid meet" version="1.0"><defs><g/></defs><g fill="#000000" fill-opacity="1"><g transform="translate(287.839036, 252.750125)"><g><path d="M 12.609375 0 L 12.609375 -117.40625 L 45.015625 -117.40625 C 56.421875 -117.40625 66.351562 -115.363281 74.8125 -111.28125 C 83.28125 -107.195312 89.851562 -100.863281 94.53125 -92.28125 C 99.21875 -83.695312 101.5625 -72.679688 101.5625 -59.234375 C 101.5625 -45.796875 99.25 -34.691406 94.625 -25.921875 C 90 -17.160156 83.546875 -10.648438 75.265625 -6.390625 C 66.984375 -2.128906 57.441406 0 46.640625 0 Z M 39.25 -21.421875 L 43.578125 -21.421875 C 49.816406 -21.421875 55.21875 -22.617188 59.78125 -25.015625 C 64.34375 -27.421875 67.910156 -31.382812 70.484375 -36.90625 C 73.066406 -42.4375 74.359375 -49.878906 74.359375 -59.234375 C 74.359375 -68.597656 73.066406 -75.953125 70.484375 -81.296875 C 67.910156 -86.640625 64.34375 -90.421875 59.78125 -92.640625 C 55.21875 -94.859375 49.816406 -95.96875 43.578125 -95.96875 L 39.25 -95.96875 Z M 39.25 -21.421875 "/></g></g></g><g fill="#000000" fill-opacity="1"><g transform="translate(287.839036, 468.750114)"><g><path d="M 12.609375 0 L 12.609375 -117.40625 L 54.203125 -117.40625 C 62.484375 -117.40625 70.046875 -116.289062 76.890625 -114.0625 C 83.734375 -111.84375 89.222656 -108.0625 93.359375 -102.71875 C 97.503906 -97.382812 99.578125 -90.09375 99.578125 -80.84375 C 99.578125 -71.84375 97.503906 -64.519531 93.359375 -58.875 C 89.222656 -53.238281 83.734375 -49.066406 76.890625 -46.359375 C 70.046875 -43.660156 62.484375 -42.3125 54.203125 -42.3125 L 39.078125 -42.3125 L 39.078125 0 Z M 39.078125 -63.375 L 52.03125 -63.375 C 59 -63.375 64.3125 -64.84375 67.96875 -67.78125 C 71.632812 -70.726562 73.46875 -75.082031 73.46875 -80.84375 C 73.46875 -86.601562 71.632812 -90.625 67.96875 -92.90625 C 64.3125 -95.1875 59 -96.328125 52.03125 -96.328125 L 39.078125 -96.328125 Z M 49.34375 -49.15625 L 67.703125 -66.265625 L 105.15625 0 L 75.453125 0 Z M 49.34375 -49.15625 "/></g></g></g><g fill="#000000" fill-opacity="1"><g transform="translate(287.839036, 684.750103)"><g><path d="M 40.6875 0 L 40.6875 -39.609375 L 2.875 -117.40625 L 31.328125 -117.40625 L 43.21875 -89.125 C 45.019531 -84.6875 46.789062 -80.273438 48.53125 -75.890625 C 50.269531 -71.515625 52.039062 -66.984375 53.84375 -62.296875 L 54.5625 -62.296875 C 56.476562 -66.984375 58.363281 -71.515625 60.21875 -75.890625 C 62.082031 -80.273438 63.859375 -84.6875 65.546875 -89.125 L 77.421875 -117.40625 L 105.15625 -117.40625 L 67.34375 -39.609375 L 67.34375 0 Z M 40.6875 0 "/></g></g></g></svg>