<svg xmlns="http://www.w3.org/2000/svg" xmlns:xlink="http://www.w3.org/1999/xlink" width="1080" zoomAndPan="magnify" viewBox="0 0 810 809.999993" height="1080" preserveAspectRatio="xMidYMid meet" version="1.0"><path fill="#000000" d="M 55.589844 373.234375 C 24.9375 373.234375 0 348.296875 0 317.648438 L 0 63.53125 C 0 28.5 28.5 0 63.53125 0 L 571.765625 0 C 606.792969 0 635.292969 28.5 635.292969 63.53125 L 635.292969 174.707031 C 635.292969 209.734375 606.792969 238.234375 571.765625 238.234375 L 270 238.234375 L 270 261.605469 C 270 291.910156 245.347656 316.84375 215.042969 317.191406 C 183.941406 317.460938 158.824219 292.515625 158.824219 261.605469 L 158.824219 214.410156 C 158.824219 201.277344 148.136719 190.589844 135 190.589844 C 121.863281 190.589844 111.175781 201.277344 111.175781 214.410156 L 111.175781 317.648438 C 111.175781 348.296875 86.238281 373.234375 55.589844 373.234375 Z M 63.53125 31.765625 C 46.015625 31.765625 31.765625 46.015625 31.765625 63.53125 L 31.765625 317.648438 C 31.765625 330.785156 42.449219 341.46875 55.589844 341.46875 C 68.722656 341.46875 79.410156 330.785156 79.410156 317.648438 L 79.410156 214.410156 C 79.410156 183.761719 104.347656 158.824219 135 158.824219 C 165.652344 158.824219 190.589844 183.761719 190.589844 214.410156 L 190.589844 261.605469 C 190.589844 275.144531 201.808594 285.695312 214.683594 285.425781 C 227.671875 285.277344 238.234375 274.59375 238.234375 261.605469 L 238.234375 222.351562 C 238.234375 213.582031 245.347656 206.46875 254.117188 206.46875 L 571.765625 206.46875 C 589.28125 206.46875 603.53125 192.222656 603.53125 174.707031 L 603.53125 63.53125 C 603.53125 46.015625 589.28125 31.765625 571.765625 31.765625 Z M 63.53125 31.765625 " fill-opacity="1" fill-rule="nonzero"/><path fill="#000000" d="M 682.941406 166.765625 L 619.410156 166.765625 C 610.640625 166.765625 603.53125 159.652344 603.53125 150.882812 L 603.53125 87.351562 C 603.53125 78.582031 610.640625 71.46875 619.410156 71.46875 L 682.941406 71.46875 C 691.710938 71.46875 698.824219 78.582031 698.824219 87.351562 L 698.824219 150.882812 C 698.824219 159.652344 691.710938 166.765625 682.941406 166.765625 Z M 635.292969 135 L 667.058594 135 L 667.058594 103.234375 L 635.292969 103.234375 Z M 635.292969 135 " fill-opacity="1" fill-rule="nonzero"/><path fill="#000000" d="M 405 492.351562 C 396.226562 492.351562 389.117188 485.242188 389.117188 476.46875 L 389.117188 381.175781 C 389.117188 373.824219 394.164062 367.433594 401.316406 365.726562 L 778.234375 275.863281 L 778.234375 135 L 682.941406 135 C 674.171875 135 667.058594 127.890625 667.058594 119.117188 C 667.058594 110.347656 674.171875 103.234375 682.941406 103.234375 L 794.117188 103.234375 C 802.886719 103.234375 810 110.347656 810 119.117188 L 810 288.40625 C 810 295.757812 804.953125 302.148438 797.800781 303.855469 L 420.882812 393.71875 L 420.882812 476.46875 C 420.882812 485.242188 413.769531 492.351562 405 492.351562 Z M 405 492.351562 " fill-opacity="1" fill-rule="nonzero"/><path fill="#000000" d="M 405 810 C 356.832031 810 317.648438 770.8125 317.648438 722.648438 L 317.648438 540 C 317.648438 531.230469 324.757812 524.117188 333.53125 524.117188 L 476.46875 524.117188 C 485.242188 524.117188 492.351562 531.230469 492.351562 540 L 492.351562 722.648438 C 492.351562 770.8125 453.167969 810 405 810 Z M 349.410156 555.882812 L 349.410156 722.648438 C 349.410156 753.296875 374.347656 778.234375 405 778.234375 C 435.652344 778.234375 460.589844 753.296875 460.589844 722.648438 L 460.589844 555.882812 Z M 349.410156 555.882812 " fill-opacity="1" fill-rule="nonzero"/><path fill="#000000" d="M 444.707031 555.882812 L 365.292969 555.882812 C 356.523438 555.882812 349.410156 548.769531 349.410156 540 L 349.410156 516.175781 C 349.410156 485.523438 374.347656 460.589844 405 460.589844 C 435.652344 460.589844 460.589844 485.523438 460.589844 516.175781 L 460.589844 540 C 460.589844 548.769531 453.476562 555.882812 444.707031 555.882812 Z M 381.175781 524.117188 L 428.824219 524.117188 L 428.824219 516.175781 C 428.824219 503.039062 418.136719 492.351562 405 492.351562 C 391.863281 492.351562 381.175781 503.039062 381.175781 516.175781 Z M 381.175781 524.117188 " fill-opacity="1" fill-rule="nonzero"/><path fill="#000000" d="M 214.410156 508.234375 C 183.761719 508.234375 158.824219 483.296875 158.824219 452.648438 C 158.824219 428.179688 190.980469 373.292969 200.832031 357.054688 C 207.011719 346.878906 221.808594 346.875 227.988281 357.054688 C 237.84375 373.292969 270 428.179688 270 452.648438 C 270 483.296875 245.0625 508.234375 214.410156 508.234375 Z M 214.410156 397.195312 C 201.402344 421.117188 190.589844 444.835938 190.589844 452.648438 C 190.589844 465.785156 201.273438 476.46875 214.410156 476.46875 C 227.546875 476.46875 238.234375 465.785156 238.234375 452.648438 C 238.234375 444.835938 227.417969 421.117188 214.410156 397.195312 Z M 214.410156 397.195312 " fill-opacity="1" fill-rule="nonzero"/></svg>