<?xml version="1.0" encoding="UTF-8" standalone="no"?><svg xmlns="http://www.w3.org/2000/svg" xmlns:xlink="http://www.w3.org/1999/xlink" contentScriptType="text/ecmascript" fill="#000000" width="649.7" zoomAndPan="magnify" contentStyleType="text/css" viewBox="-19.3 -0.7 649.7 1403.8" height="1403.8" preserveAspectRatio="xMidYMid meet" version="1"><defs><clipPath id="a"><path d="M 186 519 L 630.390625 519 L 630.390625 1399 L 186 1399 Z M 186 519"/></clipPath></defs><g><g><path fill="#040606" d="M 158.019531 1338.320312 L 204.769531 1340.789062 L 205.265625 1332.390625 C 205.265625 1332.390625 231.425781 1348.261719 238.402344 1350.980469 C 258.757812 1358.917969 307.867188 1359.03125 325.675781 1355.570312 C 343.480469 1352.101562 334.417969 1333.378906 334.417969 1333.378906 L 199.328125 1305.179688 L 158.019531 1303.199219 L 158.019531 1338.320312"/></g><g><path fill="#080909" d="M 249.214844 1285.328125 C 249.214844 1285.328125 271.351562 1306 279.785156 1309.898438 C 288.21875 1313.808594 310.539062 1323.390625 325.730469 1326.917969 C 340.921875 1330.449219 336.324219 1342.28125 326.722656 1347.261719 C 315.4375 1353.121094 260.324219 1351.699219 241.523438 1342.070312 C 232.148438 1337.269531 221 1321.167969 205.167969 1320.78125 C 189.339844 1320.390625 159.695312 1325.519531 158.105469 1309.210938 C 156.515625 1292.898438 161.050781 1283.808594 161.050781 1283.808594 L 249.214844 1285.328125"/></g><g><path fill="#141415" d="M 252.417969 1288.269531 C 252.417969 1288.269531 246.851562 1296.261719 210.679688 1296.261719 C 182.898438 1296.261719 160.304688 1285.660156 160.304688 1285.660156 L 161.050781 769.347656 L 256.386719 770.140625 L 252.417969 1288.269531"/></g><g><path fill="#040606" d="M 0 1345.25 L 0 1373.089844 L 18.300781 1373.53125 L 18.300781 1369.332031 C 18.300781 1369.332031 28.359375 1380.667969 45.871094 1388.71875 C 64.753906 1397.398438 109.804688 1403.109375 126.125 1398.167969 C 142.445312 1393.21875 136.761719 1385.308594 136.761719 1385.308594 L 38.578125 1357.609375 L 0 1339.878906 L 0 1345.25"/></g><g><path fill="#080909" d="M 1.148438 1344.128906 C 6.414062 1353.71875 21.558594 1368.21875 35.453125 1375.550781 C 49.351562 1382.878906 77.316406 1389.332031 86.675781 1390.167969 C 100.3125 1391.378906 128.070312 1388.859375 136.015625 1386.109375 C 139.34375 1384.960938 128.476562 1376.441406 116.527344 1364.640625 C 104.578125 1352.851562 90.085938 1347 87.542969 1336.628906 C 87.542969 1336.628906 18.425781 1330.53125 5.070312 1330.121094 C 5.070312 1330.121094 -2.890625 1336.769531 1.148438 1344.128906"/></g><g><path fill="#040606" d="M 176.726562 317.5 L 103.027344 317.5 L 103.027344 297.46875 L 176.726562 297.46875 L 176.726562 317.5"/></g><g><path fill="#111111" d="M 348.425781 625.785156 C 341.34375 625.785156 334.253906 623.140625 328.765625 617.824219 C 309.566406 599.214844 263.910156 552.988281 254.628906 525.703125 C 250.535156 513.671875 247.070312 498.363281 243.0625 480.636719 C 237.425781 455.738281 231.039062 427.515625 222.105469 406.070312 C 213.554688 385.539062 206.488281 380.601562 204.488281 380.429688 C 188.945312 379.078125 177.433594 365.398438 178.773438 349.859375 C 180.117188 334.308594 168.144531 314.339844 183.601562 315.589844 C 240.941406 320.539062 277.761719 405.582031 291.78125 467.542969 C 295.289062 483.039062 304.976562 498.296875 308.113281 507.515625 C 311.628906 517.105469 339.660156 549.710938 368.085938 577.253906 C 379.285156 588.113281 379.566406 605.992188 368.707031 617.195312 C 363.167969 622.914062 355.796875 625.785156 348.425781 625.785156"/></g><g><path fill="#141415" d="M 87.792969 1337.511719 C 87.792969 1337.511719 73.4375 1344.878906 43.269531 1343.789062 C 21.34375 1343 2.316406 1333.238281 2.316406 1333.238281 L 30.910156 712.5625 L 132.953125 712.03125 L 87.792969 1337.511719"/></g><g><path fill="#141415" d="M 239.207031 724.667969 C 239.207031 778.675781 195.425781 822.457031 141.417969 822.457031 C 87.410156 822.457031 43.628906 778.675781 43.628906 724.667969 C 43.628906 670.660156 87.410156 626.878906 141.417969 626.878906 C 195.425781 626.878906 239.207031 670.660156 239.207031 724.667969"/></g><g><path fill="#040606" d="M 256.386719 770.34375 L 28.171875 772.019531 C 28.171875 772.019531 21.851562 510.726562 31.347656 404.292969 C 35.996094 352.230469 85.683594 302.210938 137.949219 302.210938 L 148.742188 305.578125 C 201.011719 305.578125 235.824219 345.339844 244.65625 396.851562 C 266.242188 522.726562 256.386719 770.34375 256.386719 770.34375"/></g><g><path fill="#323335" d="M 150.390625 778.605469 C 148.4375 778.605469 146.859375 777.023438 146.859375 775.074219 C 146.859375 731.742188 143.597656 382.148438 143.5625 378.628906 C 143.546875 376.679688 145.109375 375.078125 147.058594 375.058594 C 147.074219 375.058594 147.085938 375.058594 147.09375 375.058594 C 149.027344 375.058594 150.605469 376.621094 150.625 378.558594 C 150.660156 382.089844 153.921875 731.710938 153.921875 775.074219 C 153.921875 777.023438 152.34375 778.605469 150.390625 778.605469"/></g><g><path fill="#f2975e" d="M 137.902344 350.660156 L 135.40625 350.578125 C 119.664062 350.121094 107.277344 336.980469 107.742188 321.238281 L 110.25 236.359375 C 110.714844 220.621094 123.855469 208.238281 139.597656 208.699219 L 142.09375 208.769531 C 157.835938 209.238281 170.222656 222.378906 169.757812 238.121094 L 167.246094 322.988281 C 166.78125 338.738281 153.644531 351.121094 137.902344 350.660156"/></g><g><path fill="#f8ab65" d="M 362.257812 647.585938 L 362.097656 647.433594 C 355.664062 641.316406 352.636719 632.992188 352.847656 624.71875 L 348.457031 620.542969 C 359.765625 611.730469 368.675781 601.019531 376.742188 589.445312 L 380.882812 593.382812 C 389.605469 592.136719 398.757812 594.578125 405.671875 600.960938 L 433.945312 614.839844 C 437.308594 616.507812 438.695312 620.625 437.027344 623.988281 C 435.359375 627.355469 431.242188 628.742188 427.878906 627.074219 L 420.660156 623.496094 C 420.917969 625.003906 421.152344 626.519531 421.183594 628.046875 L 444.214844 649.945312 C 446.644531 652.257812 446.746094 656.136719 444.433594 658.566406 L 444.332031 658.675781 C 442.019531 661.105469 438.140625 661.203125 435.710938 658.890625 L 417.964844 642.019531 C 417.558594 642.851562 417.230469 643.714844 416.738281 644.511719 L 435.402344 662.257812 C 437.835938 664.566406 437.933594 668.449219 435.621094 670.878906 L 435.519531 670.984375 C 433.207031 673.417969 429.328125 673.515625 426.898438 671.203125 L 408.515625 653.726562 C 407.84375 654.308594 407.203125 654.945312 406.492188 655.460938 L 422.085938 670.289062 C 424.515625 672.597656 424.613281 676.476562 422.304688 678.90625 L 422.199219 679.015625 C 419.890625 681.445312 416.011719 681.542969 413.582031 679.234375 L 394.074219 660.6875 C 392.941406 660.886719 391.804688 661.027344 390.660156 661.097656 L 406.878906 676.515625 C 408.746094 678.296875 408.675781 681.433594 406.71875 683.492188 C 404.757812 685.554688 401.628906 685.785156 399.757812 684.003906 L 362.257812 647.585938"/></g><g><path fill="#e5e5dd" d="M 375.144531 584.902344 L 343.695312 623.714844 C 340.949219 627.105469 341.472656 632.128906 344.863281 634.875 C 348.253906 637.621094 353.277344 637.09375 356.023438 633.703125 L 387.472656 594.894531 C 390.21875 591.503906 389.691406 586.480469 386.300781 583.734375 C 382.910156 580.988281 377.890625 581.511719 375.144531 584.902344"/></g><g><path fill="#323335" d="M 209.421875 625.449219 C 211.949219 623.191406 215.832031 623.410156 218.089844 625.9375 L 250.421875 662.125 C 252.683594 664.652344 252.464844 668.535156 249.9375 670.792969 C 247.40625 673.054688 243.527344 672.835938 241.269531 670.308594 L 208.933594 634.117188 C 206.675781 631.589844 206.894531 627.710938 209.421875 625.449219"/></g><g><path fill="#323335" d="M 93.511719 624 C 95.90625 626.398438 95.90625 630.285156 93.511719 632.683594 L 59.195312 666.996094 C 56.796875 669.394531 52.910156 669.394531 50.515625 666.996094 C 48.117188 664.597656 48.117188 660.710938 50.515625 658.316406 L 84.828125 624 C 87.226562 621.601562 91.113281 621.601562 93.511719 624"/></g><g><path fill="#f9ab64" d="M 237.882812 214.808594 C 234.460938 227.261719 221.601562 234.570312 209.15625 231.160156 C 196.710938 227.738281 189.394531 214.878906 192.8125 202.429688 C 196.230469 189.980469 209.089844 182.671875 221.539062 186.089844 C 233.980469 189.511719 241.300781 202.371094 237.882812 214.808594"/></g><g><path fill="#e37f62" d="M 228.292969 211.648438 C 226.605469 217.789062 220.265625 221.398438 214.128906 219.710938 C 207.992188 218.03125 204.382812 211.679688 206.070312 205.550781 C 207.757812 199.410156 214.097656 195.800781 220.234375 197.488281 C 226.371094 199.171875 229.980469 205.519531 228.292969 211.648438"/></g><g><path fill="#f9ab64" d="M 105.796875 195.519531 C 103.230469 204.859375 95.355469 211.300781 86.328125 212.5 C 83.320312 212.898438 80.183594 212.71875 77.070312 211.859375 C 64.625 208.441406 57.308594 195.578125 60.726562 183.140625 C 64.148438 170.691406 77.007812 163.378906 89.453125 166.800781 C 101.898438 170.210938 109.214844 183.070312 105.796875 195.519531"/></g><g><path fill="#e37f62" d="M 94.375 192.378906 C 92.6875 198.519531 86.347656 202.128906 80.210938 200.441406 C 74.074219 198.761719 70.464844 192.410156 72.152344 186.28125 C 73.835938 180.140625 80.179688 176.53125 86.316406 178.21875 C 92.453125 179.898438 96.058594 186.25 94.375 192.378906"/></g><g><path fill="#310f12" d="M 235.027344 164.828125 C 222.882812 209.070312 177.167969 235.101562 132.921875 222.960938 C 88.675781 210.808594 62.65625 165.101562 74.796875 120.851562 C 86.941406 76.609375 132.65625 50.578125 176.902344 62.730469 C 221.148438 74.871094 247.171875 120.578125 235.027344 164.828125"/></g><g><path fill="#f9ab64" d="M 142.703125 305.261719 L 136.917969 304.570312 C 99.832031 300.089844 73.402344 266.390625 77.882812 229.308594 L 90.019531 128.839844 C 94.5 91.761719 128.195312 65.328125 165.277344 69.808594 L 171.066406 70.511719 C 208.148438 74.988281 234.578125 108.679688 230.101562 145.769531 L 217.960938 246.230469 C 213.480469 283.308594 179.785156 309.738281 142.703125 305.261719"/></g><g><path fill="#310f12" d="M 215.222656 169.300781 L 191.71875 166.460938 C 189.628906 166.210938 188.140625 164.308594 188.394531 162.21875 C 188.644531 160.128906 190.542969 158.640625 192.632812 158.898438 L 216.136719 161.730469 C 218.222656 161.988281 219.710938 163.878906 219.460938 165.96875 C 219.207031 168.058594 217.308594 169.550781 215.222656 169.300781"/></g><g><path fill="#310f12" d="M 152.609375 161.738281 L 129.105469 158.898438 C 127.019531 158.640625 125.527344 156.75 125.78125 154.660156 C 126.035156 152.570312 127.933594 151.078125 130.019531 151.328125 L 153.523438 154.171875 C 155.609375 154.421875 157.101562 156.320312 156.847656 158.410156 C 156.597656 160.5 154.695312 161.988281 152.609375 161.738281"/></g><g><path fill="#e37f62" d="M 175.84375 219.28125 L 162.050781 218.589844 C 160.800781 218.53125 159.835938 217.460938 159.898438 216.210938 C 159.960938 214.960938 161.023438 213.988281 162.277344 214.058594 L 176.070312 214.738281 C 177.320312 214.800781 178.285156 215.871094 178.226562 217.121094 C 178.164062 218.371094 177.097656 219.339844 175.84375 219.28125"/></g><g><path fill="#040606" d="M 141.5625 190.808594 C 140.90625 193.199219 138.433594 194.609375 136.042969 193.949219 C 133.648438 193.300781 132.242188 190.828125 132.898438 188.429688 C 133.554688 186.039062 136.027344 184.628906 138.417969 185.289062 C 140.8125 185.949219 142.21875 188.421875 141.5625 190.808594"/></g><g><path fill="#040606" d="M 202.425781 197.179688 C 201.765625 199.570312 199.296875 200.96875 196.902344 200.320312 C 194.511719 199.660156 193.105469 197.191406 193.761719 194.800781 C 194.417969 192.410156 196.890625 191 199.28125 191.660156 C 201.671875 192.308594 203.078125 194.78125 202.425781 197.179688"/></g><g><path fill="#323335" d="M 177.785156 494.132812 C 177.785156 497.277344 175.234375 499.828125 172.085938 499.828125 C 168.9375 499.828125 166.386719 497.277344 166.386719 494.132812 C 166.386719 490.984375 168.9375 488.433594 172.085938 488.433594 C 175.234375 488.433594 177.785156 490.984375 177.785156 494.132812"/></g><g><path fill="#323335" d="M 177.785156 524.003906 C 177.785156 527.152344 175.234375 529.703125 172.085938 529.703125 C 168.9375 529.703125 166.386719 527.152344 166.386719 524.003906 C 166.386719 520.855469 168.9375 518.304688 172.085938 518.304688 C 175.234375 518.304688 177.785156 520.855469 177.785156 524.003906"/></g><g><path fill="#323335" d="M 177.785156 553.875 C 177.785156 557.023438 175.234375 559.574219 172.085938 559.574219 C 168.9375 559.574219 166.386719 557.023438 166.386719 553.875 C 166.386719 550.726562 168.9375 548.175781 172.085938 548.175781 C 175.234375 548.175781 177.785156 550.726562 177.785156 553.875"/></g><g><path fill="#323335" d="M 177.785156 583.746094 C 177.785156 586.894531 175.234375 589.445312 172.085938 589.445312 C 168.9375 589.445312 166.386719 586.894531 166.386719 583.746094 C 166.386719 580.601562 168.9375 578.050781 172.085938 578.050781 C 175.234375 578.050781 177.785156 580.601562 177.785156 583.746094"/></g><g><path fill="#323335" d="M 177.785156 613.621094 C 177.785156 616.769531 175.234375 619.320312 172.085938 619.320312 C 168.9375 619.320312 166.386719 616.769531 166.386719 613.621094 C 166.386719 610.472656 168.9375 607.921875 172.085938 607.921875 C 175.234375 607.921875 177.785156 610.472656 177.785156 613.621094"/></g><g><path fill="#310f12" d="M 83.402344 183.621094 C 83.402344 183.621094 94.191406 103.488281 162.625 111.128906 C 214.144531 116.871094 230.667969 117.371094 224.703125 105.148438 C 219.164062 93.800781 195.011719 72.019531 181.664062 66.429688 C 164.386719 59.191406 131.386719 58.171875 108.089844 80.601562 C 84.789062 103.039062 75.417969 170.738281 83.253906 184.839844 L 83.402344 183.621094"/></g><g><path fill="#e37f62" d="M 175.671875 263.828125 C 174.261719 275.519531 166.867188 284.238281 159.15625 283.308594 C 151.445312 282.378906 146.34375 272.148438 147.753906 260.460938 C 149.164062 248.769531 156.5625 240.050781 164.269531 240.980469 C 171.980469 241.910156 177.085938 252.140625 175.671875 263.828125"/></g><g><path fill="#c4c5c1" d="M 211.253906 610.117188 L 206.90625 762.175781 L 276.140625 735.984375 L 281.675781 584.457031 L 211.253906 610.117188"/></g><g clip-path="url(#a)"><path fill="#e5e5dd" d="M 590 1398.832031 C 550.171875 1398.832031 477.933594 1397.949219 360.300781 1393.730469 C 315.070312 1392.109375 277.105469 1371.5 250.492188 1334.121094 C 139.023438 1177.570312 261.429688 745.695312 262.734375 741.433594 C 288.632812 656.894531 248.101562 632.78125 212.332031 611.496094 C 202.433594 605.605469 193.878906 600.519531 186.386719 593.53125 C 186.386719 593.53125 253.597656 519.851562 253.09375 519.476562 C 254.617188 520.617188 259.652344 523.617188 263.328125 525.800781 C 302.601562 549.171875 406.917969 611.246094 358.074219 770.648438 C 324.984375 878.625 268.558594 1187.570312 331.726562 1276.28125 C 340.363281 1288.410156 349.679688 1293.558594 363.875 1294.078125 C 556.902344 1301 626.164062 1298.761719 626.832031 1298.71875 L 630.394531 1398.378906 C 629.238281 1398.417969 617.140625 1398.832031 590 1398.832031"/></g><g><path fill="#111111" d="M 67.5 608.953125 L 10.210938 620.808594 C 1.875 580.515625 -19.285156 367.648438 84.308594 318.109375 L 89.78125 379.511719 C 46.714844 401.320312 51.027344 529.320312 67.5 608.953125"/></g><g><path fill="#e5e5dd" d="M 84.308594 318.109375 L 147.03125 427.085938 L 195.234375 317.5 C 195.234375 317.5 184.023438 307.539062 178.421875 307.480469 C 165.648438 307.339844 154.984375 338.609375 141.316406 339.710938 C 128.449219 340.738281 116.121094 308.140625 104.039062 308.761719 C 98.253906 309.058594 93.289062 309.351562 84.308594 318.109375"/></g><g><path fill="#ffffff" d="M 189.109375 312.640625 L 175.863281 299.101562 L 141.316406 339.710938 L 158.183594 364.71875 L 189.109375 312.640625"/></g><g><path fill="#ffffff" d="M 89.78125 313.421875 L 103.027344 297.46875 L 141.316406 339.710938 L 127.648438 365.921875 L 89.78125 313.421875"/></g><g><path fill="#323335" d="M 195.234375 317.5 C 195.234375 317.5 227.753906 365.519531 230.195312 369.75 L 147.03125 427.085938 L 195.234375 317.5"/></g><g><path fill="#d0232b" d="M 130.183594 397.808594 L 142.578125 367.648438 L 159.921875 397.550781 L 147.03125 427.085938 L 130.183594 397.808594"/></g><g><path fill="#ef2e3a" d="M 127.648438 365.921875 L 141.316406 339.710938 L 158.183594 364.71875 L 143.730469 387.351562 L 127.648438 365.921875"/></g><g><path fill="#323335" d="M 84.308594 318.109375 C 84.308594 318.109375 59.609375 354.570312 54.054688 365.921875 L 147.03125 427.085938 L 84.308594 318.109375"/></g><g><path fill="#ace3d9" d="M 254.03125 93.371094 C 250.488281 90.390625 250.039062 85.101562 253.027344 81.558594 L 297.207031 29.179688 C 300.191406 25.640625 305.484375 25.191406 309.023438 28.179688 C 312.5625 31.171875 313.011719 36.460938 310.027344 40 L 265.847656 92.371094 C 262.859375 95.910156 257.570312 96.359375 254.03125 93.371094"/></g><g><path fill="#ace3d9" d="M 234.25 83.949219 C 229.699219 83.089844 226.710938 78.710938 227.570312 74.148438 L 240.300781 6.828125 C 241.164062 2.28125 245.550781 -0.710938 250.101562 0.148438 C 254.652344 1.011719 257.640625 5.398438 256.78125 9.949219 L 244.050781 77.269531 C 243.1875 81.820312 238.800781 84.808594 234.25 83.949219"/></g><g><path fill="#ace3d9" d="M 261.019531 114.078125 C 259.929688 109.578125 262.695312 105.039062 267.195312 103.949219 L 333.785156 87.808594 C 338.285156 86.71875 342.820312 89.480469 343.910156 93.988281 C 345 98.488281 342.238281 103.019531 337.734375 104.109375 L 271.148438 120.25 C 266.644531 121.339844 262.113281 118.578125 261.019531 114.078125"/></g><g><path fill="#c4c5c1" d="M 327.8125 611.351562 L 280.003906 642.574219 C 276.9375 644.574219 272.828125 643.714844 270.828125 640.648438 C 268.824219 637.582031 269.6875 633.472656 272.753906 631.472656 L 320.5625 600.25 C 323.628906 598.246094 327.738281 599.109375 329.738281 602.175781 C 331.742188 605.242188 330.878906 609.347656 327.8125 611.351562"/></g><g><path fill="#c4c5c1" d="M 295.417969 567.894531 L 252.835938 605.941406 C 250.105469 608.378906 245.914062 608.144531 243.476562 605.414062 C 241.035156 602.683594 241.269531 598.492188 244 596.054688 L 286.585938 558.007812 C 289.3125 555.566406 293.503906 555.804688 295.945312 558.535156 C 298.382812 561.265625 298.148438 565.453125 295.417969 567.894531"/></g><g><path fill="#c4c5c1" d="M 317.050781 866.09375 L 260.910156 855.652344 C 257.3125 854.984375 254.9375 851.523438 255.605469 847.921875 C 256.277344 844.324219 259.738281 841.945312 263.335938 842.617188 L 319.476562 853.058594 C 323.078125 853.730469 325.453125 857.1875 324.78125 860.789062 C 324.113281 864.390625 320.652344 866.765625 317.050781 866.09375"/></g><g><path fill="#c4c5c1" d="M 325.378906 821.320312 L 269.238281 810.878906 C 265.640625 810.210938 263.265625 806.746094 263.933594 803.148438 C 264.605469 799.550781 268.066406 797.171875 271.664062 797.84375 L 327.804688 808.285156 C 331.40625 808.953125 333.78125 812.414062 333.109375 816.015625 C 332.441406 819.613281 328.980469 821.988281 325.378906 821.320312"/></g><g><path fill="#c4c5c1" d="M 335.972656 781.433594 L 279.832031 770.992188 C 276.234375 770.320312 273.855469 766.859375 274.527344 763.261719 C 275.195312 759.660156 278.65625 757.285156 282.257812 757.957031 L 338.398438 768.398438 C 341.996094 769.066406 344.371094 772.527344 343.703125 776.128906 C 343.03125 779.730469 339.574219 782.105469 335.972656 781.433594"/></g><g><path fill="#c4c5c1" d="M 347.808594 730.003906 L 290.824219 726.273438 C 287.171875 726.035156 284.402344 722.878906 284.644531 719.226562 C 284.882812 715.570312 288.039062 712.804688 291.691406 713.042969 L 348.671875 716.773438 C 352.328125 717.011719 355.09375 720.167969 354.855469 723.820312 C 354.617188 727.476562 351.460938 730.242188 347.808594 730.003906"/></g><g><path fill="#c4c5c1" d="M 349.207031 669.304688 L 293.800781 683.121094 C 290.246094 684.007812 286.648438 681.84375 285.761719 678.292969 C 284.875 674.738281 287.039062 671.140625 290.589844 670.253906 L 345.996094 656.4375 C 349.550781 655.550781 353.148438 657.714844 354.035156 661.265625 C 354.917969 664.820312 352.757812 668.417969 349.207031 669.304688"/></g><g><path fill="#c4c5c1" d="M 307.945312 915.0625 L 251.804688 904.617188 C 248.203125 903.949219 245.828125 900.488281 246.496094 896.890625 C 247.167969 893.289062 250.628906 890.914062 254.230469 891.585938 L 310.367188 902.023438 C 313.96875 902.695312 316.34375 906.15625 315.675781 909.757812 C 315.003906 913.355469 311.542969 915.730469 307.945312 915.0625"/></g><g><path fill="#c4c5c1" d="M 298.019531 968.421875 L 241.878906 957.980469 C 238.277344 957.308594 235.902344 953.847656 236.574219 950.246094 C 237.242188 946.648438 240.703125 944.273438 244.304688 944.941406 L 300.445312 955.386719 C 304.042969 956.054688 306.417969 959.515625 305.75 963.113281 C 305.078125 966.714844 301.617188 969.089844 298.019531 968.421875"/></g><g><path fill="#c4c5c1" d="M 289.3125 1015.238281 L 233.171875 1004.800781 C 229.570312 1004.128906 227.195312 1000.671875 227.863281 997.066406 C 228.535156 993.46875 231.996094 991.089844 235.597656 991.761719 L 291.734375 1002.199219 C 295.335938 1002.871094 297.710938 1006.328125 297.042969 1009.929688 C 296.371094 1013.53125 292.910156 1015.910156 289.3125 1015.238281"/></g><g><path fill="#c4c5c1" d="M 284.167969 1062.710938 L 227.328125 1057.210938 C 223.683594 1056.859375 221.015625 1053.621094 221.367188 1049.96875 C 221.722656 1046.328125 224.960938 1043.660156 228.605469 1044.011719 L 285.441406 1049.511719 C 289.089844 1049.859375 291.757812 1053.101562 291.402344 1056.75 C 291.050781 1060.390625 287.8125 1063.058594 284.167969 1062.710938"/></g><g><path fill="#c4c5c1" d="M 279.632812 1113.050781 L 222.574219 1110.808594 C 218.914062 1110.671875 216.066406 1107.578125 216.210938 1103.921875 C 216.355469 1100.269531 219.4375 1097.421875 223.09375 1097.558594 L 280.152344 1099.800781 C 283.8125 1099.949219 286.660156 1103.03125 286.519531 1106.691406 C 286.375 1110.351562 283.292969 1113.199219 279.632812 1113.050781"/></g><g><path fill="#c4c5c1" d="M 279.914062 1162.71875 L 222.8125 1162.71875 C 219.152344 1162.71875 216.183594 1159.75 216.183594 1156.089844 C 216.183594 1152.429688 219.152344 1149.460938 222.8125 1149.460938 L 279.914062 1149.460938 C 283.578125 1149.460938 286.546875 1152.429688 286.546875 1156.089844 C 286.546875 1159.75 283.578125 1162.71875 279.914062 1162.71875"/></g><g><path fill="#c4c5c1" d="M 285.296875 1214.390625 L 228.304688 1217.941406 C 224.648438 1218.171875 221.5 1215.390625 221.273438 1211.730469 C 221.046875 1208.078125 223.824219 1204.929688 227.476562 1204.710938 L 284.46875 1201.160156 C 288.125 1200.929688 291.273438 1203.710938 291.5 1207.359375 C 291.726562 1211.011719 288.949219 1214.160156 285.296875 1214.390625"/></g><g><path fill="#c4c5c1" d="M 299.101562 1262.039062 L 242.988281 1272.628906 C 239.390625 1273.308594 235.921875 1270.941406 235.242188 1267.339844 C 234.566406 1263.75 236.929688 1260.28125 240.527344 1259.601562 L 296.644531 1249.011719 C 300.238281 1248.328125 303.707031 1250.699219 304.386719 1254.300781 C 305.066406 1257.898438 302.699219 1261.359375 299.101562 1262.039062"/></g><g><path fill="#c4c5c1" d="M 321.183594 1298.980469 L 271.730469 1327.53125 C 268.558594 1329.359375 264.503906 1328.28125 262.671875 1325.109375 C 260.84375 1321.941406 261.929688 1317.878906 265.101562 1316.050781 L 314.554688 1287.5 C 317.722656 1285.671875 321.777344 1286.75 323.609375 1289.921875 C 325.4375 1293.101562 324.351562 1297.148438 321.183594 1298.980469"/></g><g><path fill="#c4c5c1" d="M 364.710938 1323.179688 L 325.941406 1365.109375 C 323.453125 1367.789062 319.261719 1367.960938 316.574219 1365.46875 C 313.882812 1362.988281 313.722656 1358.789062 316.207031 1356.101562 L 354.976562 1314.179688 C 357.464844 1311.488281 361.65625 1311.332031 364.34375 1313.808594 C 367.035156 1316.300781 367.195312 1320.5 364.710938 1323.179688"/></g><g><path fill="#c4c5c1" d="M 418.832031 1331.710938 L 384.914062 1377.648438 C 382.738281 1380.589844 378.589844 1381.21875 375.640625 1379.039062 C 372.695312 1376.871094 372.070312 1372.71875 374.246094 1369.769531 L 408.167969 1323.839844 C 410.339844 1320.890625 414.492188 1320.261719 417.4375 1322.441406 C 420.382812 1324.621094 421.007812 1328.769531 418.832031 1331.710938"/></g><g><path fill="#c4c5c1" d="M 471.519531 1332.75 L 442.96875 1382.199219 C 441.140625 1385.371094 437.085938 1386.460938 433.914062 1384.628906 C 430.742188 1382.789062 429.65625 1378.738281 431.488281 1375.570312 L 460.039062 1326.121094 C 461.871094 1322.949219 465.921875 1321.859375 469.09375 1323.691406 C 472.265625 1325.519531 473.351562 1329.570312 471.519531 1332.75"/></g><g><path fill="#c4c5c1" d="M 531.03125 1335.128906 L 505.59375 1386.25 C 503.960938 1389.53125 499.984375 1390.859375 496.707031 1389.230469 C 493.425781 1387.601562 492.089844 1383.621094 493.722656 1380.339844 L 519.160156 1329.21875 C 520.789062 1325.941406 524.769531 1324.601562 528.046875 1326.238281 C 531.328125 1327.871094 532.660156 1331.851562 531.03125 1335.128906"/></g><g><path fill="#c4c5c1" d="M 584.242188 1336.109375 L 564.226562 1389.589844 C 562.941406 1393.011719 559.121094 1394.75 555.691406 1393.46875 C 552.265625 1392.191406 550.523438 1388.371094 551.808594 1384.941406 L 571.824219 1331.460938 C 573.105469 1328.03125 576.925781 1326.289062 580.355469 1327.570312 C 583.785156 1328.859375 585.523438 1332.679688 584.242188 1336.109375"/></g><g><path fill="#f9ab64" d="M 249.910156 603.925781 C 249.359375 601.058594 246.40625 599.1875 243.347656 599.773438 L 211.816406 605.828125 C 212.441406 604.828125 213.003906 603.792969 213.511719 602.726562 L 248.179688 596.070312 C 251.609375 595.410156 253.878906 592.066406 253.21875 588.640625 C 252.5625 585.210938 249.214844 582.945312 245.789062 583.601562 L 216.574219 589.210938 C 216.570312 588.308594 216.421875 587.390625 216.335938 586.480469 L 249.863281 580.042969 C 253.289062 579.386719 255.558594 576.039062 254.898438 572.613281 C 254.242188 569.183594 250.898438 566.914062 247.46875 567.574219 L 213.546875 574.085938 C 213.171875 573.199219 212.648438 572.410156 212.195312 571.570312 L 244.617188 565.34375 C 248.046875 564.6875 250.3125 561.34375 249.65625 557.914062 C 248.996094 554.484375 245.652344 552.21875 242.222656 552.875 L 202.433594 560.515625 C 200.664062 559.304688 198.761719 558.308594 196.777344 557.480469 L 209.734375 549.230469 C 212.992188 547.15625 213.960938 542.789062 211.882812 539.535156 C 209.808594 536.277344 205.445312 535.308594 202.1875 537.382812 L 171.617188 557.019531 L 170.929688 557.148438 C 161.238281 559.011719 153.558594 565.3125 149.3125 573.484375 L 131.984375 576.8125 C 131.347656 576.933594 130.925781 577.558594 131.046875 578.195312 L 138.75 618.328125 C 138.875 618.964844 139.496094 619.386719 140.132812 619.265625 L 158.753906 615.691406 C 165.546875 620.816406 174.324219 623.265625 183.292969 621.546875 L 184.105469 621.390625 L 245.351562 610.214844 C 248.410156 609.625 250.460938 606.796875 249.910156 603.925781"/></g><g><path fill="#1b1b1c" d="M 25.363281 642.882812 C 17.898438 638.527344 12.207031 631.179688 10.238281 622.113281 C 6.542969 605.0625 17.40625 588.378906 34.503906 584.839844 L 106.757812 569.898438 C 123.851562 566.375 128.472656 576.714844 132.175781 593.761719 C 135.871094 610.8125 137.25 628.101562 120.148438 631.640625 L 47.898438 646.582031 C 39.894531 648.234375 31.941406 646.714844 25.363281 642.882812"/></g><g><path fill="#e5e5dd" d="M 118.203125 574.4375 L 127.957031 625.242188 C 128.808594 629.679688 133.136719 632.613281 137.574219 631.761719 C 142.015625 630.910156 144.945312 626.582031 144.09375 622.144531 L 134.34375 571.339844 C 133.488281 566.902344 129.160156 563.96875 124.722656 564.820312 C 120.285156 565.671875 117.351562 570 118.203125 574.4375"/></g></g></svg>