<svg xmlns="http://www.w3.org/2000/svg" xmlns:xlink="http://www.w3.org/1999/xlink" width="1080" zoomAndPan="magnify" viewBox="0 0 810 809.999993" height="1080" preserveAspectRatio="xMidYMid meet" version="1.0"><path fill="#455097" d="M 571.601562 84.347656 L 738.898438 84.347656 C 777.402344 84.347656 808.605469 115.550781 808.605469 154.054688 L 808.605469 363.175781 C 808.605469 401.679688 777.402344 432.882812 738.898438 432.882812 L 669.191406 432.882812 L 669.191406 459.457031 C 669.191406 473.019531 653.015625 479.828125 643.648438 470.1875 L 589.84375 415.726562 C 584.179688 409.847656 584.179688 400.152344 589.84375 394.273438 L 643.648438 339.8125 C 653.015625 330.171875 669.191406 336.980469 669.191406 350.542969 L 669.191406 377.117188 L 738.898438 377.117188 C 746.578125 377.117188 752.839844 370.855469 752.839844 363.175781 L 752.839844 154.054688 C 752.839844 146.375 746.578125 140.113281 738.898438 140.113281 L 571.601562 140.113281 L 571.601562 84.347656 " fill-opacity="1" fill-rule="nonzero"/><path fill="#455097" d="M 237.003906 377.117188 L 69.707031 377.117188 C 31.203125 377.117188 0 408.320312 0 446.824219 L 0 655.945312 C 0 694.449219 31.203125 725.652344 69.707031 725.652344 L 139.414062 725.652344 L 139.414062 752.230469 C 139.414062 765.734375 155.589844 772.597656 164.957031 762.957031 L 218.761719 708.5 C 224.425781 702.671875 224.425781 692.871094 218.761719 687.042969 L 164.957031 632.582031 C 155.589844 622.945312 139.414062 629.75 139.414062 643.3125 L 139.414062 669.886719 L 69.707031 669.886719 C 62.027344 669.886719 55.765625 663.625 55.765625 655.945312 L 55.765625 446.824219 C 55.765625 439.144531 62.027344 432.882812 69.707031 432.882812 L 237.003906 432.882812 L 237.003906 377.117188 " fill-opacity="1" fill-rule="nonzero"/><path fill="#455097" d="M 571.601562 725.652344 L 724.957031 725.652344 L 724.957031 752.230469 C 724.957031 765.734375 741.132812 772.597656 750.5 762.957031 L 804.304688 708.5 C 809.96875 702.671875 809.96875 692.871094 804.304688 687.042969 L 750.5 632.582031 C 741.132812 622.945312 724.957031 629.75 724.957031 643.3125 L 724.957031 669.886719 L 571.601562 669.886719 L 571.601562 725.652344 " fill-opacity="1" fill-rule="nonzero"/><path fill="#f6c03b" d="M 529.777344 516.53125 L 278.828125 516.53125 C 248.003906 516.53125 223.0625 491.589844 223.0625 460.765625 L 223.0625 349.234375 C 223.0625 318.410156 248.003906 293.46875 278.828125 293.46875 L 529.777344 293.46875 C 560.601562 293.46875 585.542969 318.410156 585.542969 349.234375 L 585.542969 460.765625 C 585.542969 491.589844 560.601562 516.53125 529.777344 516.53125 " fill-opacity="1" fill-rule="nonzero"/><path fill="#ef4a71" d="M 529.777344 223.761719 L 278.828125 223.761719 C 248.003906 223.761719 223.0625 198.820312 223.0625 167.996094 L 223.0625 56.464844 C 223.0625 25.640625 248.003906 0.695312 278.828125 0.695312 L 529.777344 0.695312 C 560.601562 0.695312 585.542969 25.640625 585.542969 56.464844 L 585.542969 167.996094 C 585.542969 198.820312 560.601562 223.761719 529.777344 223.761719 " fill-opacity="1" fill-rule="nonzero"/><path fill="#56be8b" d="M 529.777344 809.304688 L 278.828125 809.304688 C 248.003906 809.304688 223.0625 784.304688 223.0625 753.535156 L 223.0625 642.003906 C 223.0625 611.179688 248.003906 586.238281 278.828125 586.238281 L 529.777344 586.238281 C 560.601562 586.238281 585.542969 611.179688 585.542969 642.003906 L 585.542969 753.535156 C 585.542969 784.304688 560.601562 809.304688 529.777344 809.304688 " fill-opacity="1" fill-rule="nonzero"/><path fill="#455097" d="M 27.882812 140.113281 L 139.414062 140.113281 L 139.414062 166.6875 C 139.414062 180.25 155.589844 187.054688 164.957031 177.417969 L 218.761719 122.957031 C 224.425781 117.074219 224.425781 107.382812 218.761719 101.5 L 164.957031 47.042969 C 155.589844 37.402344 139.414062 44.210938 139.414062 57.769531 L 139.414062 84.347656 L 27.882812 84.347656 C 12.472656 84.347656 0 96.816406 0 112.230469 C 0 127.640625 12.472656 140.113281 27.882812 140.113281 " fill-opacity="1" fill-rule="nonzero"/><path fill="#ffffff" d="M 501.894531 98.289062 L 306.710938 98.289062 C 299.035156 98.289062 292.769531 92.023438 292.769531 84.347656 C 292.769531 76.667969 299.035156 70.40625 306.710938 70.40625 L 501.894531 70.40625 C 509.570312 70.40625 515.835938 76.667969 515.835938 84.347656 C 515.835938 92.023438 509.570312 98.289062 501.894531 98.289062 " fill-opacity="1" fill-rule="nonzero"/><path fill="#ffffff" d="M 446.128906 154.054688 L 362.476562 154.054688 C 354.800781 154.054688 348.535156 147.789062 348.535156 140.113281 C 348.535156 132.433594 354.800781 126.171875 362.476562 126.171875 L 446.128906 126.171875 C 453.804688 126.171875 460.070312 132.433594 460.070312 140.113281 C 460.070312 147.789062 453.804688 154.054688 446.128906 154.054688 " fill-opacity="1" fill-rule="nonzero"/><path fill="#ffffff" d="M 501.894531 391.058594 L 306.710938 391.058594 C 299.035156 391.058594 292.769531 384.796875 292.769531 377.117188 C 292.769531 369.4375 299.035156 363.175781 306.710938 363.175781 L 501.894531 363.175781 C 509.570312 363.175781 515.835938 369.4375 515.835938 377.117188 C 515.835938 384.796875 509.570312 391.058594 501.894531 391.058594 " fill-opacity="1" fill-rule="nonzero"/><path fill="#ffffff" d="M 446.128906 446.824219 L 362.476562 446.824219 C 354.800781 446.824219 348.535156 440.5625 348.535156 432.882812 C 348.535156 425.203125 354.800781 418.941406 362.476562 418.941406 L 446.128906 418.941406 C 453.804688 418.941406 460.070312 425.203125 460.070312 432.882812 C 460.070312 440.5625 453.804688 446.824219 446.128906 446.824219 " fill-opacity="1" fill-rule="nonzero"/><path fill="#ffffff" d="M 501.894531 683.828125 L 306.710938 683.828125 C 299.035156 683.828125 292.769531 677.566406 292.769531 669.886719 C 292.769531 662.210938 299.035156 655.945312 306.710938 655.945312 L 501.894531 655.945312 C 509.570312 655.945312 515.835938 662.210938 515.835938 669.886719 C 515.835938 677.566406 509.570312 683.828125 501.894531 683.828125 " fill-opacity="1" fill-rule="nonzero"/><path fill="#ffffff" d="M 446.128906 739.59375 L 362.476562 739.59375 C 354.800781 739.59375 348.535156 733.332031 348.535156 725.652344 C 348.535156 717.976562 354.800781 711.710938 362.476562 711.710938 L 446.128906 711.710938 C 453.804688 711.710938 460.070312 717.976562 460.070312 725.652344 C 460.070312 733.332031 453.804688 739.59375 446.128906 739.59375 " fill-opacity="1" fill-rule="nonzero"/></svg>