<svg xmlns="http://www.w3.org/2000/svg" xmlns:xlink="http://www.w3.org/1999/xlink" zoomAndPan="magnify" viewBox="0 0 810 810" preserveAspectRatio="xMidYMid meet" version="1.0"><defs><clipPath id="822608c29c"><path d="M 5 0 L 809.34375 0 L 809.34375 810 L 5 810 Z M 5 0 " clip-rule="nonzero"/></clipPath></defs><g clip-path="url(#822608c29c)"><path fill="#000000" d="M 326.226562 83.710938 L 366.160156 117.476562 L 353.707031 168.257812 C 352.445312 173.410156 354.421875 178.8125 358.714844 181.925781 C 363.003906 185.042969 368.753906 185.257812 373.261719 182.460938 L 417.722656 154.929688 L 462.179688 182.460938 C 464.292969 183.769531 466.679688 184.417969 469.054688 184.417969 C 471.753906 184.417969 474.449219 183.582031 476.730469 181.925781 C 481.023438 178.8125 483 173.410156 481.738281 168.257812 L 469.285156 117.476562 L 509.214844 83.710938 C 513.265625 80.285156 514.839844 74.753906 513.203125 69.710938 C 511.5625 64.667969 507.035156 61.117188 501.746094 60.726562 L 449.589844 56.871094 L 429.804688 8.46875 C 427.804688 3.5625 423.027344 0.355469 417.722656 0.355469 C 412.417969 0.355469 407.640625 3.5625 405.636719 8.46875 L 385.855469 56.871094 L 333.695312 60.726562 C 328.410156 61.117188 323.878906 64.667969 322.242188 69.710938 C 320.605469 74.753906 322.179688 80.285156 326.226562 83.710938 Z M 395.84375 82.308594 C 400.785156 81.945312 405.09375 78.8125 406.964844 74.230469 L 417.722656 47.914062 L 428.480469 74.230469 C 430.351562 78.816406 434.660156 81.945312 439.601562 82.308594 L 467.960938 84.40625 L 446.25 102.765625 C 442.46875 105.964844 440.820312 111.027344 442 115.839844 L 448.769531 143.449219 L 424.59375 128.480469 C 422.488281 127.175781 420.101562 126.523438 417.71875 126.523438 C 415.335938 126.523438 412.949219 127.175781 410.84375 128.480469 L 386.675781 143.449219 L 393.441406 115.839844 C 394.621094 111.027344 392.976562 105.964844 389.191406 102.765625 L 367.480469 84.40625 Z M 135.089844 238.640625 L 187.207031 234.292969 L 214.320312 279 C 216.710938 282.945312 220.964844 285.289062 225.480469 285.289062 C 226.15625 285.289062 226.84375 285.234375 227.527344 285.128906 C 232.765625 284.296875 236.980469 280.382812 238.195312 275.222656 L 250.160156 224.324219 L 301.070312 212.359375 C 306.234375 211.144531 310.148438 206.929688 310.976562 201.691406 C 311.808594 196.457031 309.382812 191.238281 304.851562 188.488281 L 260.128906 161.382812 L 264.484375 109.277344 C 264.921875 103.996094 262.125 98.96875 257.398438 96.5625 C 252.671875 94.152344 246.960938 94.847656 242.945312 98.304688 L 203.339844 132.453125 L 155.117188 112.214844 C 150.226562 110.164062 144.582031 111.273438 140.828125 115.023438 C 137.078125 118.769531 135.972656 124.414062 138.023438 129.304688 L 158.269531 177.515625 L 124.113281 217.109375 C 120.648438 221.125 119.960938 226.835938 122.367188 231.558594 C 124.777344 236.285156 129.800781 239.078125 135.089844 238.640625 Z M 185.476562 174.863281 L 174.46875 148.648438 L 200.6875 159.652344 C 205.253906 161.574219 210.515625 160.738281 214.265625 157.503906 L 235.800781 138.9375 L 233.433594 167.265625 C 233.023438 172.203125 235.4375 176.949219 239.675781 179.515625 L 263.992188 194.253906 L 236.308594 200.757812 C 231.488281 201.890625 227.722656 205.65625 226.585938 210.480469 L 220.082031 238.152344 L 205.339844 213.84375 C 202.960938 209.921875 198.714844 207.558594 194.179688 207.558594 C 193.816406 207.558594 193.453125 207.570312 193.089844 207.601562 L 164.753906 209.96875 L 183.324219 188.441406 C 186.558594 184.691406 187.394531 179.429688 185.476562 174.863281 Z M 34.257812 403.929688 L 82.667969 423.710938 L 86.523438 475.855469 C 86.914062 481.140625 90.464844 485.667969 95.511719 487.304688 C 96.835938 487.738281 98.195312 487.945312 99.542969 487.945312 C 103.316406 487.945312 106.988281 486.304688 109.511719 483.324219 L 143.289062 443.402344 L 194.082031 455.851562 C 199.234375 457.113281 204.636719 455.136719 207.753906 450.847656 C 210.871094 446.554688 211.082031 440.808594 208.289062 436.300781 L 180.753906 391.851562 L 208.289062 347.398438 C 211.082031 342.890625 210.871094 337.144531 207.753906 332.855469 C 204.636719 328.5625 199.234375 326.585938 194.082031 327.851562 L 143.289062 340.300781 L 109.511719 300.378906 C 106.085938 296.328125 100.554688 294.757812 95.511719 296.394531 C 90.464844 298.03125 86.914062 302.558594 86.523438 307.847656 L 82.667969 359.988281 L 34.257812 379.769531 C 29.347656 381.773438 26.140625 386.550781 26.140625 391.851562 C 26.140625 397.148438 29.347656 401.925781 34.257812 403.929688 Z M 100.03125 381.09375 C 104.617188 379.21875 107.75 374.914062 108.113281 369.972656 L 110.207031 341.621094 L 128.570312 363.328125 C 131.773438 367.109375 136.835938 368.757812 141.648438 367.578125 L 169.269531 360.808594 L 154.296875 384.976562 C 151.6875 389.1875 151.6875 394.511719 154.296875 398.726562 L 169.269531 422.890625 L 141.648438 416.125 C 136.84375 414.945312 131.773438 416.589844 128.574219 420.375 L 110.207031 442.078125 L 108.113281 413.726562 C 107.746094 408.789062 104.617188 404.480469 100.03125 402.609375 L 73.707031 391.855469 Z M 534.375 212.359375 L 585.285156 224.324219 L 597.253906 275.222656 C 598.464844 280.382812 602.683594 284.296875 607.917969 285.128906 C 608.605469 285.234375 609.285156 285.289062 609.964844 285.289062 C 614.480469 285.289062 618.734375 282.945312 621.125 279 L 648.242188 234.292969 L 700.355469 238.640625 C 705.632812 239.082031 710.667969 236.285156 713.074219 231.558594 C 715.484375 226.832031 714.792969 221.121094 711.332031 217.109375 L 677.175781 177.515625 L 697.421875 129.300781 C 699.472656 124.414062 698.363281 118.769531 694.613281 115.019531 C 690.863281 111.269531 685.21875 110.160156 680.328125 112.214844 L 632.105469 132.453125 L 592.5 98.304688 C 588.488281 94.847656 582.777344 94.152344 578.046875 96.5625 C 573.320312 98.96875 570.523438 103.996094 570.964844 109.277344 L 575.316406 161.382812 L 530.59375 188.488281 C 526.0625 191.238281 523.636719 196.457031 524.46875 201.691406 C 525.296875 206.929688 529.214844 211.144531 534.375 212.359375 Z M 595.769531 179.515625 C 600.003906 176.949219 602.421875 172.203125 602.011719 167.265625 L 599.644531 138.9375 L 621.175781 157.503906 C 624.929688 160.738281 630.191406 161.570312 634.757812 159.652344 L 660.976562 148.652344 L 649.96875 174.863281 C 648.050781 179.429688 648.882812 184.6875 652.117188 188.441406 L 670.6875 209.96875 L 642.355469 207.601562 C 637.40625 207.191406 632.671875 209.605469 630.101562 213.84375 L 615.359375 238.152344 L 608.855469 210.476562 C 607.722656 205.65625 603.957031 201.890625 599.132812 200.757812 L 571.453125 194.253906 Z M 801.1875 379.765625 L 752.777344 359.984375 L 748.921875 307.839844 C 748.53125 302.554688 744.980469 298.027344 739.9375 296.386719 C 734.886719 294.75 729.359375 296.324219 725.933594 300.371094 L 692.160156 340.292969 L 641.363281 327.84375 C 636.214844 326.582031 630.808594 328.558594 627.695312 332.847656 C 624.578125 337.136719 624.363281 342.886719 627.15625 347.394531 L 654.695312 391.847656 L 627.15625 436.292969 C 624.363281 440.804688 624.578125 446.550781 627.695312 450.839844 C 630.808594 455.128906 636.214844 457.109375 641.363281 455.84375 L 692.160156 443.398438 L 725.933594 483.320312 C 728.460938 486.300781 732.128906 487.941406 735.902344 487.941406 C 737.25 487.941406 738.609375 487.730469 739.9375 487.300781 C 744.980469 485.664062 748.53125 481.136719 748.921875 475.847656 L 752.777344 423.703125 L 801.1875 403.925781 C 806.097656 401.921875 809.304688 397.148438 809.304688 391.84375 C 809.304688 386.546875 806.097656 381.773438 801.1875 379.765625 Z M 735.414062 402.601562 C 730.828125 404.472656 727.699219 408.78125 727.332031 413.722656 L 725.238281 442.074219 L 706.871094 420.367188 C 704.359375 417.398438 700.695312 415.746094 696.90625 415.746094 C 695.871094 415.746094 694.832031 415.867188 693.796875 416.121094 L 666.179688 422.886719 L 681.152344 398.71875 C 683.761719 394.507812 683.761719 389.179688 681.152344 384.972656 L 666.179688 360.800781 L 693.796875 367.570312 C 698.609375 368.753906 703.675781 367.105469 706.875 363.320312 L 725.238281 341.617188 L 727.335938 369.96875 C 727.699219 374.90625 730.832031 379.214844 735.417969 381.085938 L 761.738281 391.84375 Z M 542.996094 230.394531 C 540.699219 226.222656 536.316406 223.632812 531.554688 223.632812 L 303.890625 223.632812 C 299.128906 223.632812 294.742188 226.222656 292.449219 230.394531 L 235.53125 333.832031 C 232.953125 338.519531 233.496094 344.304688 236.898438 348.433594 L 407.652344 555.316406 C 410.132812 558.320312 413.824219 560.0625 417.722656 560.0625 C 421.621094 560.0625 425.3125 558.320312 427.792969 555.316406 L 598.542969 348.433594 C 601.949219 344.304688 602.492188 338.519531 599.914062 333.832031 Z M 382.890625 327.074219 L 417.722656 263.765625 L 452.554688 327.074219 Z M 457.507812 353.179688 L 417.722656 497.789062 L 377.9375 353.179688 Z M 439.808594 249.738281 L 509.472656 249.738281 L 474.640625 313.046875 Z M 360.804688 313.046875 L 325.972656 249.738281 L 395.640625 249.738281 Z M 338.722656 327.074219 L 269.054688 327.074219 L 303.890625 263.765625 Z M 350.855469 353.179688 L 388.945312 491.636719 L 274.671875 353.179688 Z M 484.589844 353.179688 L 560.773438 353.179688 L 446.5 491.636719 Z M 496.722656 327.074219 L 531.554688 263.765625 L 566.390625 327.074219 Z M 554.976562 546.3125 L 435.996094 615.597656 C 432.023438 617.914062 428 619.757812 423.875 621.136719 C 425.023438 618.609375 425.988281 615.917969 426.75 613.066406 C 433.175781 589.085938 418.964844 564.066406 394.390625 556.101562 C 393.832031 555.917969 393.261719 555.777344 392.683594 555.671875 C 358.695312 549.542969 325.054688 537.382812 298.027344 527.617188 C 288.585938 524.203125 279.664062 520.980469 272.058594 518.511719 C 240.660156 508.332031 212.515625 520.800781 189.117188 534.34375 L 102.78125 584.320312 L 95.675781 571.769531 C 91.660156 564.683594 85.109375 559.574219 77.230469 557.390625 C 69.339844 555.207031 61.097656 556.210938 54.007812 560.226562 L 20.625 579.113281 C 5.953125 587.414062 0.773438 606.101562 9.074219 620.769531 L 107.222656 794.148438 C 111.234375 801.234375 117.789062 806.34375 125.671875 808.527344 C 128.394531 809.28125 131.164062 809.65625 133.914062 809.65625 C 139.117188 809.65625 144.253906 808.316406 148.890625 805.691406 L 182.273438 786.804688 C 196.945312 778.5 202.125 759.8125 193.820312 745.144531 L 184.921875 729.425781 L 202.058594 719.53125 L 353.449219 760.089844 C 362.078125 762.398438 370.664062 763.546875 379.105469 763.546875 C 396.195312 763.546875 412.699219 758.84375 427.792969 749.554688 L 643.714844 616.632812 C 664.496094 603.835938 671.140625 571.679688 657.648438 549.15625 C 651.121094 538.265625 624.433594 505.871094 554.976562 546.3125 Z M 171.492188 761.386719 C 171.304688 762.0625 170.785156 763.308594 169.410156 764.085938 L 136.027344 782.972656 C 134.652344 783.753906 133.316406 783.554688 132.644531 783.367188 C 131.972656 783.183594 130.726562 782.664062 129.949219 781.289062 L 31.804688 607.914062 C 30.613281 605.808594 31.382812 603.023438 33.488281 601.832031 L 66.871094 582.941406 C 67.542969 582.5625 68.285156 582.382812 69.023438 582.382812 C 70.59375 582.382812 72.140625 583.199219 72.949219 584.628906 L 171.097656 758.003906 C 171.878906 759.382812 171.679688 760.714844 171.492188 761.386719 Z M 630.023438 594.402344 L 414.101562 727.328125 C 397.589844 737.492188 379.460938 740.035156 360.210938 734.875 L 203.59375 692.917969 C 200.253906 692.023438 196.6875 692.492188 193.6875 694.222656 L 172.0625 706.707031 L 115.644531 607.039062 L 202.203125 556.9375 C 221.542969 545.742188 242.414062 536.335938 264 543.347656 C 271.195312 545.679688 279.515625 548.683594 289.148438 552.167969 C 316.855469 562.179688 351.273438 574.621094 387.082031 581.1875 C 398.15625 585.148438 404.339844 595.816406 401.53125 606.3125 C 398.539062 617.46875 390.210938 622.332031 376.792969 620.800781 C 359.421875 617.222656 342.863281 612.5 325.351562 607.5 C 316.984375 605.109375 308.328125 602.636719 299.425781 600.253906 C 292.46875 598.390625 285.300781 602.523438 283.433594 609.484375 C 281.566406 616.445312 285.703125 623.605469 292.664062 625.472656 C 301.363281 627.800781 309.910156 630.242188 318.179688 632.601562 C 336.382812 637.800781 353.582031 642.710938 372.140625 646.503906 C 372.226562 646.523438 372.3125 646.527344 372.394531 646.542969 C 372.484375 646.558594 372.570312 646.585938 372.664062 646.601562 L 387.464844 649.007812 C 410.1875 652.644531 430.359375 649.09375 449.136719 638.164062 L 568.117188 568.878906 C 601.03125 549.714844 626.128906 547.355469 635.246094 562.578125 C 641.332031 572.734375 638.648438 589.097656 630.023438 594.402344 Z M 75.328125 614.253906 C 76.277344 620.765625 71.769531 626.816406 65.257812 627.769531 C 58.746094 628.722656 52.691406 624.214844 51.738281 617.703125 C 50.789062 611.191406 55.296875 605.140625 61.808594 604.1875 C 68.324219 603.234375 74.375 607.742188 75.328125 614.253906 Z M 75.328125 614.253906 " fill-opacity="1" fill-rule="evenodd"/></g></svg>