<?xml version="1.0" encoding="utf-8"?>
<svg xmlns="http://www.w3.org/2000/svg" xmlns:xlink="http://www.w3.org/1999/xlink" xml:space="preserve" width="984" height="984" viewBox="0 0 984 984"><rect width="984" height="984" fill="#ffffff" x="0" y="0"/><g fill="#000000">
<g transform="translate(240,48) scale(4.12)"><rect width="6" height="6"/></g>
<g transform="translate(264,48) scale(4.12)"><rect width="6" height="6"/></g>
<g transform="translate(312,48) scale(4.12)"><rect width="6" height="6"/></g>
<g transform="translate(360,48) scale(4.12)"><rect width="6" height="6"/></g>
<g transform="translate(384,48) scale(4.12)"><rect width="6" height="6"/></g>
<g transform="translate(408,48) scale(4.12)"><rect width="6" height="6"/></g>
<g transform="translate(432,48) scale(4.12)"><rect width="6" height="6"/></g>
<g transform="translate(480,48) scale(4.12)"><rect width="6" height="6"/></g>
<g transform="translate(576,48) scale(4.12)"><rect width="6" height="6"/></g>
<g transform="translate(600,48) scale(4.12)"><rect width="6" height="6"/></g>
<g transform="translate(648,48) scale(4.12)"><rect width="6" height="6"/></g>
<g transform="translate(720,48) scale(4.12)"><rect width="6" height="6"/></g>
<g transform="translate(288,72) scale(4.12)"><rect width="6" height="6"/></g>
<g transform="translate(312,72) scale(4.12)"><rect width="6" height="6"/></g>
<g transform="translate(336,72) scale(4.12)"><rect width="6" height="6"/></g>
<g transform="translate(384,72) scale(4.12)"><rect width="6" height="6"/></g>
<g transform="translate(432,72) scale(4.12)"><rect width="6" height="6"/></g>
<g transform="translate(456,72) scale(4.12)"><rect width="6" height="6"/></g>
<g transform="translate(480,72) scale(4.12)"><rect width="6" height="6"/></g>
<g transform="translate(504,72) scale(4.12)"><rect width="6" height="6"/></g>
<g transform="translate(552,72) scale(4.12)"><rect width="6" height="6"/></g>
<g transform="translate(696,72) scale(4.12)"><rect width="6" height="6"/></g>
<g transform="translate(720,72) scale(4.12)"><rect width="6" height="6"/></g>
<g transform="translate(264,96) scale(4.12)"><rect width="6" height="6"/></g>
<g transform="translate(288,96) scale(4.12)"><rect width="6" height="6"/></g>
<g transform="translate(336,96) scale(4.12)"><rect width="6" height="6"/></g>
<g transform="translate(360,96) scale(4.12)"><rect width="6" height="6"/></g>
<g transform="translate(384,96) scale(4.12)"><rect width="6" height="6"/></g>
<g transform="translate(408,96) scale(4.12)"><rect width="6" height="6"/></g>
<g transform="translate(456,96) scale(4.12)"><rect width="6" height="6"/></g>
<g transform="translate(504,96) scale(4.12)"><rect width="6" height="6"/></g>
<g transform="translate(528,96) scale(4.12)"><rect width="6" height="6"/></g>
<g transform="translate(552,96) scale(4.12)"><rect width="6" height="6"/></g>
<g transform="translate(624,96) scale(4.12)"><rect width="6" height="6"/></g>
<g transform="translate(672,96) scale(4.12)"><rect width="6" height="6"/></g>
<g transform="translate(720,96) scale(4.12)"><rect width="6" height="6"/></g>
<g transform="translate(288,120) scale(4.12)"><rect width="6" height="6"/></g>
<g transform="translate(312,120) scale(4.12)"><rect width="6" height="6"/></g>
<g transform="translate(360,120) scale(4.12)"><rect width="6" height="6"/></g>
<g transform="translate(408,120) scale(4.12)"><rect width="6" height="6"/></g>
<g transform="translate(528,120) scale(4.12)"><rect width="6" height="6"/></g>
<g transform="translate(576,120) scale(4.12)"><rect width="6" height="6"/></g>
<g transform="translate(600,120) scale(4.12)"><rect width="6" height="6"/></g>
<g transform="translate(624,120) scale(4.12)"><rect width="6" height="6"/></g>
<g transform="translate(648,120) scale(4.12)"><rect width="6" height="6"/></g>
<g transform="translate(672,120) scale(4.12)"><rect width="6" height="6"/></g>
<g transform="translate(240,144) scale(4.12)"><rect width="6" height="6"/></g>
<g transform="translate(312,144) scale(4.12)"><rect width="6" height="6"/></g>
<g transform="translate(336,144) scale(4.12)"><rect width="6" height="6"/></g>
<g transform="translate(384,144) scale(4.12)"><rect width="6" height="6"/></g>
<g transform="translate(408,144) scale(4.12)"><rect width="6" height="6"/></g>
<g transform="translate(456,144) scale(4.12)"><rect width="6" height="6"/></g>
<g transform="translate(480,144) scale(4.12)"><rect width="6" height="6"/></g>
<g transform="translate(552,144) scale(4.12)"><rect width="6" height="6"/></g>
<g transform="translate(576,144) scale(4.12)"><rect width="6" height="6"/></g>
<g transform="translate(600,144) scale(4.12)"><rect width="6" height="6"/></g>
<g transform="translate(240,168) scale(4.12)"><rect width="6" height="6"/></g>
<g transform="translate(288,168) scale(4.12)"><rect width="6" height="6"/></g>
<g transform="translate(360,168) scale(4.12)"><rect width="6" height="6"/></g>
<g transform="translate(408,168) scale(4.12)"><rect width="6" height="6"/></g>
<g transform="translate(528,168) scale(4.12)"><rect width="6" height="6"/></g>
<g transform="translate(624,168) scale(4.12)"><rect width="6" height="6"/></g>
<g transform="translate(696,168) scale(4.12)"><rect width="6" height="6"/></g>
<g transform="translate(720,168) scale(4.12)"><rect width="6" height="6"/></g>
<g transform="translate(240,192) scale(4.12)"><rect width="6" height="6"/></g>
<g transform="translate(288,192) scale(4.12)"><rect width="6" height="6"/></g>
<g transform="translate(336,192) scale(4.12)"><rect width="6" height="6"/></g>
<g transform="translate(384,192) scale(4.12)"><rect width="6" height="6"/></g>
<g transform="translate(432,192) scale(4.12)"><rect width="6" height="6"/></g>
<g transform="translate(480,192) scale(4.12)"><rect width="6" height="6"/></g>
<g transform="translate(528,192) scale(4.12)"><rect width="6" height="6"/></g>
<g transform="translate(576,192) scale(4.12)"><rect width="6" height="6"/></g>
<g transform="translate(624,192) scale(4.12)"><rect width="6" height="6"/></g>
<g transform="translate(672,192) scale(4.12)"><rect width="6" height="6"/></g>
<g transform="translate(720,192) scale(4.12)"><rect width="6" height="6"/></g>
<g transform="translate(288,216) scale(4.12)"><rect width="6" height="6"/></g>
<g transform="translate(312,216) scale(4.12)"><rect width="6" height="6"/></g>
<g transform="translate(360,216) scale(4.12)"><rect width="6" height="6"/></g>
<g transform="translate(384,216) scale(4.12)"><rect width="6" height="6"/></g>
<g transform="translate(480,216) scale(4.12)"><rect width="6" height="6"/></g>
<g transform="translate(528,216) scale(4.12)"><rect width="6" height="6"/></g>
<g transform="translate(552,216) scale(4.12)"><rect width="6" height="6"/></g>
<g transform="translate(576,216) scale(4.12)"><rect width="6" height="6"/></g>
<g transform="translate(600,216) scale(4.12)"><rect width="6" height="6"/></g>
<g transform="translate(720,216) scale(4.12)"><rect width="6" height="6"/></g>
<g transform="translate(72,240) scale(4.12)"><rect width="6" height="6"/></g>
<g transform="translate(96,240) scale(4.12)"><rect width="6" height="6"/></g>
<g transform="translate(120,240) scale(4.12)"><rect width="6" height="6"/></g>
<g transform="translate(144,240) scale(4.12)"><rect width="6" height="6"/></g>
<g transform="translate(168,240) scale(4.12)"><rect width="6" height="6"/></g>
<g transform="translate(192,240) scale(4.12)"><rect width="6" height="6"/></g>
<g transform="translate(216,240) scale(4.12)"><rect width="6" height="6"/></g>
<g transform="translate(264,240) scale(4.12)"><rect width="6" height="6"/></g>
<g transform="translate(288,240) scale(4.12)"><rect width="6" height="6"/></g>
<g transform="translate(336,240) scale(4.12)"><rect width="6" height="6"/></g>
<g transform="translate(432,240) scale(4.12)"><rect width="6" height="6"/></g>
<g transform="translate(456,240) scale(4.12)"><rect width="6" height="6"/></g>
<g transform="translate(528,240) scale(4.12)"><rect width="6" height="6"/></g>
<g transform="translate(648,240) scale(4.12)"><rect width="6" height="6"/></g>
<g transform="translate(672,240) scale(4.12)"><rect width="6" height="6"/></g>
<g transform="translate(720,240) scale(4.12)"><rect width="6" height="6"/></g>
<g transform="translate(792,240) scale(4.12)"><rect width="6" height="6"/></g>
<g transform="translate(816,240) scale(4.12)"><rect width="6" height="6"/></g>
<g transform="translate(912,240) scale(4.12)"><rect width="6" height="6"/></g>
<g transform="translate(72,264) scale(4.12)"><rect width="6" height="6"/></g>
<g transform="translate(120,264) scale(4.12)"><rect width="6" height="6"/></g>
<g transform="translate(288,264) scale(4.12)"><rect width="6" height="6"/></g>
<g transform="translate(312,264) scale(4.12)"><rect width="6" height="6"/></g>
<g transform="translate(336,264) scale(4.12)"><rect width="6" height="6"/></g>
<g transform="translate(384,264) scale(4.12)"><rect width="6" height="6"/></g>
<g transform="translate(408,264) scale(4.12)"><rect width="6" height="6"/></g>
<g transform="translate(456,264) scale(4.12)"><rect width="6" height="6"/></g>
<g transform="translate(480,264) scale(4.12)"><rect width="6" height="6"/></g>
<g transform="translate(600,264) scale(4.12)"><rect width="6" height="6"/></g>
<g transform="translate(648,264) scale(4.12)"><rect width="6" height="6"/></g>
<g transform="translate(672,264) scale(4.12)"><rect width="6" height="6"/></g>
<g transform="translate(720,264) scale(4.12)"><rect width="6" height="6"/></g>
<g transform="translate(792,264) scale(4.12)"><rect width="6" height="6"/></g>
<g transform="translate(48,288) scale(4.12)"><rect width="6" height="6"/></g>
<g transform="translate(72,288) scale(4.12)"><rect width="6" height="6"/></g>
<g transform="translate(96,288) scale(4.12)"><rect width="6" height="6"/></g>
<g transform="translate(144,288) scale(4.12)"><rect width="6" height="6"/></g>
<g transform="translate(192,288) scale(4.12)"><rect width="6" height="6"/></g>
<g transform="translate(336,288) scale(4.12)"><rect width="6" height="6"/></g>
<g transform="translate(432,288) scale(4.12)"><rect width="6" height="6"/></g>
<g transform="translate(456,288) scale(4.12)"><rect width="6" height="6"/></g>
<g transform="translate(480,288) scale(4.12)"><rect width="6" height="6"/></g>
<g transform="translate(504,288) scale(4.12)"><rect width="6" height="6"/></g>
<g transform="translate(576,288) scale(4.12)"><rect width="6" height="6"/></g>
<g transform="translate(648,288) scale(4.12)"><rect width="6" height="6"/></g>
<g transform="translate(672,288) scale(4.12)"><rect width="6" height="6"/></g>
<g transform="translate(696,288) scale(4.12)"><rect width="6" height="6"/></g>
<g transform="translate(720,288) scale(4.12)"><rect width="6" height="6"/></g>
<g transform="translate(768,288) scale(4.12)"><rect width="6" height="6"/></g>
<g transform="translate(792,288) scale(4.12)"><rect width="6" height="6"/></g>
<g transform="translate(888,288) scale(4.12)"><rect width="6" height="6"/></g>
<g transform="translate(912,288) scale(4.12)"><rect width="6" height="6"/></g>
<g transform="translate(48,312) scale(4.12)"><rect width="6" height="6"/></g>
<g transform="translate(216,312) scale(4.12)"><rect width="6" height="6"/></g>
<g transform="translate(264,312) scale(4.12)"><rect width="6" height="6"/></g>
<g transform="translate(312,312) scale(4.12)"><rect width="6" height="6"/></g>
<g transform="translate(336,312) scale(4.12)"><rect width="6" height="6"/></g>
<g transform="translate(384,312) scale(4.12)"><rect width="6" height="6"/></g>
<g transform="translate(480,312) scale(4.12)"><rect width="6" height="6"/></g>
<g transform="translate(504,312) scale(4.12)"><rect width="6" height="6"/></g>
<g transform="translate(528,312) scale(4.12)"><rect width="6" height="6"/></g>
<g transform="translate(552,312) scale(4.12)"><rect width="6" height="6"/></g>
<g transform="translate(576,312) scale(4.12)"><rect width="6" height="6"/></g>
<g transform="translate(624,312) scale(4.12)"><rect width="6" height="6"/></g>
<g transform="translate(672,312) scale(4.12)"><rect width="6" height="6"/></g>
<g transform="translate(696,312) scale(4.12)"><rect width="6" height="6"/></g>
<g transform="translate(720,312) scale(4.12)"><rect width="6" height="6"/></g>
<g transform="translate(768,312) scale(4.12)"><rect width="6" height="6"/></g>
<g transform="translate(888,312) scale(4.12)"><rect width="6" height="6"/></g>
<g transform="translate(912,312) scale(4.12)"><rect width="6" height="6"/></g>
<g transform="translate(48,336) scale(4.12)"><rect width="6" height="6"/></g>
<g transform="translate(144,336) scale(4.12)"><rect width="6" height="6"/></g>
<g transform="translate(168,336) scale(4.12)"><rect width="6" height="6"/></g>
<g transform="translate(192,336) scale(4.12)"><rect width="6" height="6"/></g>
<g transform="translate(288,336) scale(4.12)"><rect width="6" height="6"/></g>
<g transform="translate(312,336) scale(4.12)"><rect width="6" height="6"/></g>
<g transform="translate(360,336) scale(4.12)"><rect width="6" height="6"/></g>
<g transform="translate(408,336) scale(4.12)"><rect width="6" height="6"/></g>
<g transform="translate(480,336) scale(4.12)"><rect width="6" height="6"/></g>
<g transform="translate(504,336) scale(4.12)"><rect width="6" height="6"/></g>
<g transform="translate(528,336) scale(4.12)"><rect width="6" height="6"/></g>
<g transform="translate(576,336) scale(4.12)"><rect width="6" height="6"/></g>
<g transform="translate(624,336) scale(4.12)"><rect width="6" height="6"/></g>
<g transform="translate(648,336) scale(4.12)"><rect width="6" height="6"/></g>
<g transform="translate(672,336) scale(4.12)"><rect width="6" height="6"/></g>
<g transform="translate(744,336) scale(4.12)"><rect width="6" height="6"/></g>
<g transform="translate(768,336) scale(4.12)"><rect width="6" height="6"/></g>
<g transform="translate(792,336) scale(4.12)"><rect width="6" height="6"/></g>
<g transform="translate(816,336) scale(4.12)"><rect width="6" height="6"/></g>
<g transform="translate(840,336) scale(4.12)"><rect width="6" height="6"/></g>
<g transform="translate(864,336) scale(4.12)"><rect width="6" height="6"/></g>
<g transform="translate(888,336) scale(4.12)"><rect width="6" height="6"/></g>
<g transform="translate(912,336) scale(4.12)"><rect width="6" height="6"/></g>
<g transform="translate(48,360) scale(4.12)"><rect width="6" height="6"/></g>
<g transform="translate(72,360) scale(4.12)"><rect width="6" height="6"/></g>
<g transform="translate(144,360) scale(4.12)"><rect width="6" height="6"/></g>
<g transform="translate(168,360) scale(4.12)"><rect width="6" height="6"/></g>
<g transform="translate(264,360) scale(4.12)"><rect width="6" height="6"/></g>
<g transform="translate(312,360) scale(4.12)"><rect width="6" height="6"/></g>
<g transform="translate(336,360) scale(4.12)"><rect width="6" height="6"/></g>
<g transform="translate(360,360) scale(4.12)"><rect width="6" height="6"/></g>
<g transform="translate(432,360) scale(4.12)"><rect width="6" height="6"/></g>
<g transform="translate(480,360) scale(4.12)"><rect width="6" height="6"/></g>
<g transform="translate(504,360) scale(4.12)"><rect width="6" height="6"/></g>
<g transform="translate(528,360) scale(4.12)"><rect width="6" height="6"/></g>
<g transform="translate(552,360) scale(4.12)"><rect width="6" height="6"/></g>
<g transform="translate(576,360) scale(4.12)"><rect width="6" height="6"/></g>
<g transform="translate(600,360) scale(4.12)"><rect width="6" height="6"/></g>
<g transform="translate(648,360) scale(4.12)"><rect width="6" height="6"/></g>
<g transform="translate(720,360) scale(4.12)"><rect width="6" height="6"/></g>
<g transform="translate(744,360) scale(4.12)"><rect width="6" height="6"/></g>
<g transform="translate(792,360) scale(4.12)"><rect width="6" height="6"/></g>
<g transform="translate(840,360) scale(4.12)"><rect width="6" height="6"/></g>
<g transform="translate(864,360) scale(4.12)"><rect width="6" height="6"/></g>
<g transform="translate(48,384) scale(4.12)"><rect width="6" height="6"/></g>
<g transform="translate(72,384) scale(4.12)"><rect width="6" height="6"/></g>
<g transform="translate(120,384) scale(4.12)"><rect width="6" height="6"/></g>
<g transform="translate(144,384) scale(4.12)"><rect width="6" height="6"/></g>
<g transform="translate(168,384) scale(4.12)"><rect width="6" height="6"/></g>
<g transform="translate(192,384) scale(4.12)"><rect width="6" height="6"/></g>
<g transform="translate(312,384) scale(4.12)"><rect width="6" height="6"/></g>
<g transform="translate(336,384) scale(4.12)"><rect width="6" height="6"/></g>
<g transform="translate(360,384) scale(4.12)"><rect width="6" height="6"/></g>
<g transform="translate(432,384) scale(4.12)"><rect width="6" height="6"/></g>
<g transform="translate(480,384) scale(4.12)"><rect width="6" height="6"/></g>
<g transform="translate(552,384) scale(4.12)"><rect width="6" height="6"/></g>
<g transform="translate(576,384) scale(4.12)"><rect width="6" height="6"/></g>
<g transform="translate(624,384) scale(4.12)"><rect width="6" height="6"/></g>
<g transform="translate(696,384) scale(4.12)"><rect width="6" height="6"/></g>
<g transform="translate(744,384) scale(4.12)"><rect width="6" height="6"/></g>
<g transform="translate(792,384) scale(4.12)"><rect width="6" height="6"/></g>
<g transform="translate(816,384) scale(4.12)"><rect width="6" height="6"/></g>
<g transform="translate(840,384) scale(4.12)"><rect width="6" height="6"/></g>
<g transform="translate(888,384) scale(4.12)"><rect width="6" height="6"/></g>
<g transform="translate(912,384) scale(4.12)"><rect width="6" height="6"/></g>
<g transform="translate(48,408) scale(4.12)"><rect width="6" height="6"/></g>
<g transform="translate(96,408) scale(4.12)"><rect width="6" height="6"/></g>
<g transform="translate(168,408) scale(4.12)"><rect width="6" height="6"/></g>
<g transform="translate(216,408) scale(4.12)"><rect width="6" height="6"/></g>
<g transform="translate(312,408) scale(4.12)"><rect width="6" height="6"/></g>
<g transform="translate(336,408) scale(4.12)"><rect width="6" height="6"/></g>
<g transform="translate(384,408) scale(4.12)"><rect width="6" height="6"/></g>
<g transform="translate(456,408) scale(4.12)"><rect width="6" height="6"/></g>
<g transform="translate(480,408) scale(4.12)"><rect width="6" height="6"/></g>
<g transform="translate(504,408) scale(4.12)"><rect width="6" height="6"/></g>
<g transform="translate(552,408) scale(4.12)"><rect width="6" height="6"/></g>
<g transform="translate(744,408) scale(4.12)"><rect width="6" height="6"/></g>
<g transform="translate(48,432) scale(4.12)"><rect width="6" height="6"/></g>
<g transform="translate(120,432) scale(4.12)"><rect width="6" height="6"/></g>
<g transform="translate(144,432) scale(4.12)"><rect width="6" height="6"/></g>
<g transform="translate(168,432) scale(4.12)"><rect width="6" height="6"/></g>
<g transform="translate(192,432) scale(4.12)"><rect width="6" height="6"/></g>
<g transform="translate(216,432) scale(4.12)"><rect width="6" height="6"/></g>
<g transform="translate(240,432) scale(4.12)"><rect width="6" height="6"/></g>
<g transform="translate(336,432) scale(4.12)"><rect width="6" height="6"/></g>
<g transform="translate(360,432) scale(4.12)"><rect width="6" height="6"/></g>
<g transform="translate(384,432) scale(4.12)"><rect width="6" height="6"/></g>
<g transform="translate(408,432) scale(4.12)"><rect width="6" height="6"/></g>
<g transform="translate(456,432) scale(4.12)"><rect width="6" height="6"/></g>
<g transform="translate(480,432) scale(4.12)"><rect width="6" height="6"/></g>
<g transform="translate(504,432) scale(4.12)"><rect width="6" height="6"/></g>
<g transform="translate(528,432) scale(4.12)"><rect width="6" height="6"/></g>
<g transform="translate(552,432) scale(4.12)"><rect width="6" height="6"/></g>
<g transform="translate(624,432) scale(4.12)"><rect width="6" height="6"/></g>
<g transform="translate(648,432) scale(4.12)"><rect width="6" height="6"/></g>
<g transform="translate(672,432) scale(4.12)"><rect width="6" height="6"/></g>
<g transform="translate(696,432) scale(4.12)"><rect width="6" height="6"/></g>
<g transform="translate(744,432) scale(4.12)"><rect width="6" height="6"/></g>
<g transform="translate(768,432) scale(4.12)"><rect width="6" height="6"/></g>
<g transform="translate(816,432) scale(4.12)"><rect width="6" height="6"/></g>
<g transform="translate(864,432) scale(4.12)"><rect width="6" height="6"/></g>
<g transform="translate(888,432) scale(4.12)"><rect width="6" height="6"/></g>
<g transform="translate(48,456) scale(4.12)"><rect width="6" height="6"/></g>
<g transform="translate(72,456) scale(4.12)"><rect width="6" height="6"/></g>
<g transform="translate(120,456) scale(4.12)"><rect width="6" height="6"/></g>
<g transform="translate(144,456) scale(4.12)"><rect width="6" height="6"/></g>
<g transform="translate(168,456) scale(4.12)"><rect width="6" height="6"/></g>
<g transform="translate(240,456) scale(4.12)"><rect width="6" height="6"/></g>
<g transform="translate(312,456) scale(4.12)"><rect width="6" height="6"/></g>
<g transform="translate(456,456) scale(4.12)"><rect width="6" height="6"/></g>
<g transform="translate(480,456) scale(4.12)"><rect width="6" height="6"/></g>
<g transform="translate(528,456) scale(4.12)"><rect width="6" height="6"/></g>
<g transform="translate(552,456) scale(4.12)"><rect width="6" height="6"/></g>
<g transform="translate(600,456) scale(4.12)"><rect width="6" height="6"/></g>
<g transform="translate(648,456) scale(4.12)"><rect width="6" height="6"/></g>
<g transform="translate(720,456) scale(4.12)"><rect width="6" height="6"/></g>
<g transform="translate(840,456) scale(4.12)"><rect width="6" height="6"/></g>
<g transform="translate(72,480) scale(4.12)"><rect width="6" height="6"/></g>
<g transform="translate(120,480) scale(4.12)"><rect width="6" height="6"/></g>
<g transform="translate(168,480) scale(4.12)"><rect width="6" height="6"/></g>
<g transform="translate(192,480) scale(4.12)"><rect width="6" height="6"/></g>
<g transform="translate(240,480) scale(4.12)"><rect width="6" height="6"/></g>
<g transform="translate(288,480) scale(4.12)"><rect width="6" height="6"/></g>
<g transform="translate(312,480) scale(4.12)"><rect width="6" height="6"/></g>
<g transform="translate(360,480) scale(4.12)"><rect width="6" height="6"/></g>
<g transform="translate(456,480) scale(4.12)"><rect width="6" height="6"/></g>
<g transform="translate(480,480) scale(4.12)"><rect width="6" height="6"/></g>
<g transform="translate(528,480) scale(4.12)"><rect width="6" height="6"/></g>
<g transform="translate(552,480) scale(4.12)"><rect width="6" height="6"/></g>
<g transform="translate(576,480) scale(4.12)"><rect width="6" height="6"/></g>
<g transform="translate(624,480) scale(4.12)"><rect width="6" height="6"/></g>
<g transform="translate(648,480) scale(4.12)"><rect width="6" height="6"/></g>
<g transform="translate(672,480) scale(4.12)"><rect width="6" height="6"/></g>
<g transform="translate(696,480) scale(4.12)"><rect width="6" height="6"/></g>
<g transform="translate(720,480) scale(4.12)"><rect width="6" height="6"/></g>
<g transform="translate(744,480) scale(4.12)"><rect width="6" height="6"/></g>
<g transform="translate(768,480) scale(4.12)"><rect width="6" height="6"/></g>
<g transform="translate(792,480) scale(4.12)"><rect width="6" height="6"/></g>
<g transform="translate(864,480) scale(4.12)"><rect width="6" height="6"/></g>
<g transform="translate(888,480) scale(4.12)"><rect width="6" height="6"/></g>
<g transform="translate(912,480) scale(4.12)"><rect width="6" height="6"/></g>
<g transform="translate(48,504) scale(4.12)"><rect width="6" height="6"/></g>
<g transform="translate(96,504) scale(4.12)"><rect width="6" height="6"/></g>
<g transform="translate(120,504) scale(4.12)"><rect width="6" height="6"/></g>
<g transform="translate(144,504) scale(4.12)"><rect width="6" height="6"/></g>
<g transform="translate(240,504) scale(4.12)"><rect width="6" height="6"/></g>
<g transform="translate(264,504) scale(4.12)"><rect width="6" height="6"/></g>
<g transform="translate(288,504) scale(4.12)"><rect width="6" height="6"/></g>
<g transform="translate(336,504) scale(4.12)"><rect width="6" height="6"/></g>
<g transform="translate(384,504) scale(4.12)"><rect width="6" height="6"/></g>
<g transform="translate(432,504) scale(4.12)"><rect width="6" height="6"/></g>
<g transform="translate(480,504) scale(4.12)"><rect width="6" height="6"/></g>
<g transform="translate(528,504) scale(4.12)"><rect width="6" height="6"/></g>
<g transform="translate(552,504) scale(4.12)"><rect width="6" height="6"/></g>
<g transform="translate(576,504) scale(4.12)"><rect width="6" height="6"/></g>
<g transform="translate(600,504) scale(4.12)"><rect width="6" height="6"/></g>
<g transform="translate(768,504) scale(4.12)"><rect width="6" height="6"/></g>
<g transform="translate(792,504) scale(4.12)"><rect width="6" height="6"/></g>
<g transform="translate(816,504) scale(4.12)"><rect width="6" height="6"/></g>
<g transform="translate(120,528) scale(4.12)"><rect width="6" height="6"/></g>
<g transform="translate(192,528) scale(4.12)"><rect width="6" height="6"/></g>
<g transform="translate(288,528) scale(4.12)"><rect width="6" height="6"/></g>
<g transform="translate(312,528) scale(4.12)"><rect width="6" height="6"/></g>
<g transform="translate(336,528) scale(4.12)"><rect width="6" height="6"/></g>
<g transform="translate(360,528) scale(4.12)"><rect width="6" height="6"/></g>
<g transform="translate(408,528) scale(4.12)"><rect width="6" height="6"/></g>
<g transform="translate(432,528) scale(4.12)"><rect width="6" height="6"/></g>
<g transform="translate(456,528) scale(4.12)"><rect width="6" height="6"/></g>
<g transform="translate(576,528) scale(4.12)"><rect width="6" height="6"/></g>
<g transform="translate(624,528) scale(4.12)"><rect width="6" height="6"/></g>
<g transform="translate(648,528) scale(4.12)"><rect width="6" height="6"/></g>
<g transform="translate(672,528) scale(4.12)"><rect width="6" height="6"/></g>
<g transform="translate(744,528) scale(4.12)"><rect width="6" height="6"/></g>
<g transform="translate(768,528) scale(4.12)"><rect width="6" height="6"/></g>
<g transform="translate(792,528) scale(4.12)"><rect width="6" height="6"/></g>
<g transform="translate(816,528) scale(4.12)"><rect width="6" height="6"/></g>
<g transform="translate(840,528) scale(4.12)"><rect width="6" height="6"/></g>
<g transform="translate(864,528) scale(4.12)"><rect width="6" height="6"/></g>
<g transform="translate(96,552) scale(4.12)"><rect width="6" height="6"/></g>
<g transform="translate(144,552) scale(4.12)"><rect width="6" height="6"/></g>
<g transform="translate(168,552) scale(4.12)"><rect width="6" height="6"/></g>
<g transform="translate(216,552) scale(4.12)"><rect width="6" height="6"/></g>
<g transform="translate(288,552) scale(4.12)"><rect width="6" height="6"/></g>
<g transform="translate(312,552) scale(4.12)"><rect width="6" height="6"/></g>
<g transform="translate(408,552) scale(4.12)"><rect width="6" height="6"/></g>
<g transform="translate(456,552) scale(4.12)"><rect width="6" height="6"/></g>
<g transform="translate(600,552) scale(4.12)"><rect width="6" height="6"/></g>
<g transform="translate(792,552) scale(4.12)"><rect width="6" height="6"/></g>
<g transform="translate(888,552) scale(4.12)"><rect width="6" height="6"/></g>
<g transform="translate(168,576) scale(4.12)"><rect width="6" height="6"/></g>
<g transform="translate(192,576) scale(4.12)"><rect width="6" height="6"/></g>
<g transform="translate(216,576) scale(4.12)"><rect width="6" height="6"/></g>
<g transform="translate(240,576) scale(4.12)"><rect width="6" height="6"/></g>
<g transform="translate(312,576) scale(4.12)"><rect width="6" height="6"/></g>
<g transform="translate(408,576) scale(4.12)"><rect width="6" height="6"/></g>
<g transform="translate(432,576) scale(4.12)"><rect width="6" height="6"/></g>
<g transform="translate(528,576) scale(4.12)"><rect width="6" height="6"/></g>
<g transform="translate(576,576) scale(4.12)"><rect width="6" height="6"/></g>
<g transform="translate(648,576) scale(4.12)"><rect width="6" height="6"/></g>
<g transform="translate(696,576) scale(4.12)"><rect width="6" height="6"/></g>
<g transform="translate(744,576) scale(4.12)"><rect width="6" height="6"/></g>
<g transform="translate(840,576) scale(4.12)"><rect width="6" height="6"/></g>
<g transform="translate(864,576) scale(4.12)"><rect width="6" height="6"/></g>
<g transform="translate(888,576) scale(4.12)"><rect width="6" height="6"/></g>
<g transform="translate(912,576) scale(4.12)"><rect width="6" height="6"/></g>
<g transform="translate(48,600) scale(4.12)"><rect width="6" height="6"/></g>
<g transform="translate(72,600) scale(4.12)"><rect width="6" height="6"/></g>
<g transform="translate(96,600) scale(4.12)"><rect width="6" height="6"/></g>
<g transform="translate(168,600) scale(4.12)"><rect width="6" height="6"/></g>
<g transform="translate(240,600) scale(4.12)"><rect width="6" height="6"/></g>
<g transform="translate(264,600) scale(4.12)"><rect width="6" height="6"/></g>
<g transform="translate(312,600) scale(4.12)"><rect width="6" height="6"/></g>
<g transform="translate(336,600) scale(4.12)"><rect width="6" height="6"/></g>
<g transform="translate(360,600) scale(4.12)"><rect width="6" height="6"/></g>
<g transform="translate(384,600) scale(4.12)"><rect width="6" height="6"/></g>
<g transform="translate(408,600) scale(4.12)"><rect width="6" height="6"/></g>
<g transform="translate(480,600) scale(4.12)"><rect width="6" height="6"/></g>
<g transform="translate(528,600) scale(4.12)"><rect width="6" height="6"/></g>
<g transform="translate(552,600) scale(4.12)"><rect width="6" height="6"/></g>
<g transform="translate(576,600) scale(4.12)"><rect width="6" height="6"/></g>
<g transform="translate(792,600) scale(4.12)"><rect width="6" height="6"/></g>
<g transform="translate(48,624) scale(4.12)"><rect width="6" height="6"/></g>
<g transform="translate(144,624) scale(4.12)"><rect width="6" height="6"/></g>
<g transform="translate(168,624) scale(4.12)"><rect width="6" height="6"/></g>
<g transform="translate(192,624) scale(4.12)"><rect width="6" height="6"/></g>
<g transform="translate(360,624) scale(4.12)"><rect width="6" height="6"/></g>
<g transform="translate(384,624) scale(4.12)"><rect width="6" height="6"/></g>
<g transform="translate(408,624) scale(4.12)"><rect width="6" height="6"/></g>
<g transform="translate(432,624) scale(4.12)"><rect width="6" height="6"/></g>
<g transform="translate(504,624) scale(4.12)"><rect width="6" height="6"/></g>
<g transform="translate(576,624) scale(4.12)"><rect width="6" height="6"/></g>
<g transform="translate(600,624) scale(4.12)"><rect width="6" height="6"/></g>
<g transform="translate(624,624) scale(4.12)"><rect width="6" height="6"/></g>
<g transform="translate(648,624) scale(4.12)"><rect width="6" height="6"/></g>
<g transform="translate(672,624) scale(4.12)"><rect width="6" height="6"/></g>
<g transform="translate(744,624) scale(4.12)"><rect width="6" height="6"/></g>
<g transform="translate(768,624) scale(4.12)"><rect width="6" height="6"/></g>
<g transform="translate(816,624) scale(4.12)"><rect width="6" height="6"/></g>
<g transform="translate(840,624) scale(4.12)"><rect width="6" height="6"/></g>
<g transform="translate(864,624) scale(4.12)"><rect width="6" height="6"/></g>
<g transform="translate(888,624) scale(4.12)"><rect width="6" height="6"/></g>
<g transform="translate(912,624) scale(4.12)"><rect width="6" height="6"/></g>
<g transform="translate(48,648) scale(4.12)"><rect width="6" height="6"/></g>
<g transform="translate(96,648) scale(4.12)"><rect width="6" height="6"/></g>
<g transform="translate(120,648) scale(4.12)"><rect width="6" height="6"/></g>
<g transform="translate(144,648) scale(4.12)"><rect width="6" height="6"/></g>
<g transform="translate(168,648) scale(4.12)"><rect width="6" height="6"/></g>
<g transform="translate(216,648) scale(4.12)"><rect width="6" height="6"/></g>
<g transform="translate(240,648) scale(4.12)"><rect width="6" height="6"/></g>
<g transform="translate(264,648) scale(4.12)"><rect width="6" height="6"/></g>
<g transform="translate(288,648) scale(4.12)"><rect width="6" height="6"/></g>
<g transform="translate(360,648) scale(4.12)"><rect width="6" height="6"/></g>
<g transform="translate(384,648) scale(4.12)"><rect width="6" height="6"/></g>
<g transform="translate(432,648) scale(4.12)"><rect width="6" height="6"/></g>
<g transform="translate(552,648) scale(4.12)"><rect width="6" height="6"/></g>
<g transform="translate(576,648) scale(4.12)"><rect width="6" height="6"/></g>
<g transform="translate(600,648) scale(4.12)"><rect width="6" height="6"/></g>
<g transform="translate(792,648) scale(4.12)"><rect width="6" height="6"/></g>
<g transform="translate(864,648) scale(4.12)"><rect width="6" height="6"/></g>
<g transform="translate(48,672) scale(4.12)"><rect width="6" height="6"/></g>
<g transform="translate(120,672) scale(4.12)"><rect width="6" height="6"/></g>
<g transform="translate(144,672) scale(4.12)"><rect width="6" height="6"/></g>
<g transform="translate(192,672) scale(4.12)"><rect width="6" height="6"/></g>
<g transform="translate(216,672) scale(4.12)"><rect width="6" height="6"/></g>
<g transform="translate(336,672) scale(4.12)"><rect width="6" height="6"/></g>
<g transform="translate(384,672) scale(4.12)"><rect width="6" height="6"/></g>
<g transform="translate(408,672) scale(4.12)"><rect width="6" height="6"/></g>
<g transform="translate(456,672) scale(4.12)"><rect width="6" height="6"/></g>
<g transform="translate(480,672) scale(4.12)"><rect width="6" height="6"/></g>
<g transform="translate(528,672) scale(4.12)"><rect width="6" height="6"/></g>
<g transform="translate(624,672) scale(4.12)"><rect width="6" height="6"/></g>
<g transform="translate(648,672) scale(4.12)"><rect width="6" height="6"/></g>
<g transform="translate(672,672) scale(4.12)"><rect width="6" height="6"/></g>
<g transform="translate(696,672) scale(4.12)"><rect width="6" height="6"/></g>
<g transform="translate(768,672) scale(4.12)"><rect width="6" height="6"/></g>
<g transform="translate(792,672) scale(4.12)"><rect width="6" height="6"/></g>
<g transform="translate(840,672) scale(4.12)"><rect width="6" height="6"/></g>
<g transform="translate(864,672) scale(4.12)"><rect width="6" height="6"/></g>
<g transform="translate(888,672) scale(4.12)"><rect width="6" height="6"/></g>
<g transform="translate(912,672) scale(4.12)"><rect width="6" height="6"/></g>
<g transform="translate(48,696) scale(4.12)"><rect width="6" height="6"/></g>
<g transform="translate(144,696) scale(4.12)"><rect width="6" height="6"/></g>
<g transform="translate(168,696) scale(4.12)"><rect width="6" height="6"/></g>
<g transform="translate(216,696) scale(4.12)"><rect width="6" height="6"/></g>
<g transform="translate(240,696) scale(4.12)"><rect width="6" height="6"/></g>
<g transform="translate(288,696) scale(4.12)"><rect width="6" height="6"/></g>
<g transform="translate(312,696) scale(4.12)"><rect width="6" height="6"/></g>
<g transform="translate(336,696) scale(4.12)"><rect width="6" height="6"/></g>
<g transform="translate(384,696) scale(4.12)"><rect width="6" height="6"/></g>
<g transform="translate(432,696) scale(4.12)"><rect width="6" height="6"/></g>
<g transform="translate(552,696) scale(4.12)"><rect width="6" height="6"/></g>
<g transform="translate(672,696) scale(4.12)"><rect width="6" height="6"/></g>
<g transform="translate(696,696) scale(4.12)"><rect width="6" height="6"/></g>
<g transform="translate(720,696) scale(4.12)"><rect width="6" height="6"/></g>
<g transform="translate(744,696) scale(4.12)"><rect width="6" height="6"/></g>
<g transform="translate(792,696) scale(4.12)"><rect width="6" height="6"/></g>
<g transform="translate(816,696) scale(4.12)"><rect width="6" height="6"/></g>
<g transform="translate(840,696) scale(4.12)"><rect width="6" height="6"/></g>
<g transform="translate(48,720) scale(4.12)"><rect width="6" height="6"/></g>
<g transform="translate(192,720) scale(4.12)"><rect width="6" height="6"/></g>
<g transform="translate(312,720) scale(4.12)"><rect width="6" height="6"/></g>
<g transform="translate(336,720) scale(4.12)"><rect width="6" height="6"/></g>
<g transform="translate(360,720) scale(4.12)"><rect width="6" height="6"/></g>
<g transform="translate(384,720) scale(4.12)"><rect width="6" height="6"/></g>
<g transform="translate(432,720) scale(4.12)"><rect width="6" height="6"/></g>
<g transform="translate(456,720) scale(4.12)"><rect width="6" height="6"/></g>
<g transform="translate(480,720) scale(4.12)"><rect width="6" height="6"/></g>
<g transform="translate(528,720) scale(4.12)"><rect width="6" height="6"/></g>
<g transform="translate(600,720) scale(4.12)"><rect width="6" height="6"/></g>
<g transform="translate(648,720) scale(4.12)"><rect width="6" height="6"/></g>
<g transform="translate(672,720) scale(4.12)"><rect width="6" height="6"/></g>
<g transform="translate(696,720) scale(4.12)"><rect width="6" height="6"/></g>
<g transform="translate(720,720) scale(4.12)"><rect width="6" height="6"/></g>
<g transform="translate(744,720) scale(4.12)"><rect width="6" height="6"/></g>
<g transform="translate(768,720) scale(4.12)"><rect width="6" height="6"/></g>
<g transform="translate(792,720) scale(4.12)"><rect width="6" height="6"/></g>
<g transform="translate(816,720) scale(4.12)"><rect width="6" height="6"/></g>
<g transform="translate(840,720) scale(4.12)"><rect width="6" height="6"/></g>
<g transform="translate(864,720) scale(4.12)"><rect width="6" height="6"/></g>
<g transform="translate(912,720) scale(4.12)"><rect width="6" height="6"/></g>
<g transform="translate(240,744) scale(4.12)"><rect width="6" height="6"/></g>
<g transform="translate(312,744) scale(4.12)"><rect width="6" height="6"/></g>
<g transform="translate(336,744) scale(4.12)"><rect width="6" height="6"/></g>
<g transform="translate(360,744) scale(4.12)"><rect width="6" height="6"/></g>
<g transform="translate(432,744) scale(4.12)"><rect width="6" height="6"/></g>
<g transform="translate(480,744) scale(4.12)"><rect width="6" height="6"/></g>
<g transform="translate(528,744) scale(4.12)"><rect width="6" height="6"/></g>
<g transform="translate(600,744) scale(4.12)"><rect width="6" height="6"/></g>
<g transform="translate(648,744) scale(4.12)"><rect width="6" height="6"/></g>
<g transform="translate(720,744) scale(4.12)"><rect width="6" height="6"/></g>
<g transform="translate(816,744) scale(4.12)"><rect width="6" height="6"/></g>
<g transform="translate(240,768) scale(4.12)"><rect width="6" height="6"/></g>
<g transform="translate(264,768) scale(4.12)"><rect width="6" height="6"/></g>
<g transform="translate(288,768) scale(4.12)"><rect width="6" height="6"/></g>
<g transform="translate(312,768) scale(4.12)"><rect width="6" height="6"/></g>
<g transform="translate(480,768) scale(4.12)"><rect width="6" height="6"/></g>
<g transform="translate(504,768) scale(4.12)"><rect width="6" height="6"/></g>
<g transform="translate(576,768) scale(4.12)"><rect width="6" height="6"/></g>
<g transform="translate(720,768) scale(4.12)"><rect width="6" height="6"/></g>
<g transform="translate(768,768) scale(4.12)"><rect width="6" height="6"/></g>
<g transform="translate(816,768) scale(4.12)"><rect width="6" height="6"/></g>
<g transform="translate(840,768) scale(4.12)"><rect width="6" height="6"/></g>
<g transform="translate(912,768) scale(4.12)"><rect width="6" height="6"/></g>
<g transform="translate(240,792) scale(4.12)"><rect width="6" height="6"/></g>
<g transform="translate(264,792) scale(4.12)"><rect width="6" height="6"/></g>
<g transform="translate(312,792) scale(4.12)"><rect width="6" height="6"/></g>
<g transform="translate(360,792) scale(4.12)"><rect width="6" height="6"/></g>
<g transform="translate(384,792) scale(4.12)"><rect width="6" height="6"/></g>
<g transform="translate(408,792) scale(4.12)"><rect width="6" height="6"/></g>
<g transform="translate(432,792) scale(4.12)"><rect width="6" height="6"/></g>
<g transform="translate(624,792) scale(4.12)"><rect width="6" height="6"/></g>
<g transform="translate(672,792) scale(4.12)"><rect width="6" height="6"/></g>
<g transform="translate(720,792) scale(4.12)"><rect width="6" height="6"/></g>
<g transform="translate(816,792) scale(4.12)"><rect width="6" height="6"/></g>
<g transform="translate(240,816) scale(4.12)"><rect width="6" height="6"/></g>
<g transform="translate(264,816) scale(4.12)"><rect width="6" height="6"/></g>
<g transform="translate(288,816) scale(4.12)"><rect width="6" height="6"/></g>
<g transform="translate(336,816) scale(4.12)"><rect width="6" height="6"/></g>
<g transform="translate(408,816) scale(4.12)"><rect width="6" height="6"/></g>
<g transform="translate(432,816) scale(4.12)"><rect width="6" height="6"/></g>
<g transform="translate(480,816) scale(4.12)"><rect width="6" height="6"/></g>
<g transform="translate(528,816) scale(4.12)"><rect width="6" height="6"/></g>
<g transform="translate(552,816) scale(4.12)"><rect width="6" height="6"/></g>
<g transform="translate(576,816) scale(4.12)"><rect width="6" height="6"/></g>
<g transform="translate(600,816) scale(4.12)"><rect width="6" height="6"/></g>
<g transform="translate(624,816) scale(4.12)"><rect width="6" height="6"/></g>
<g transform="translate(648,816) scale(4.12)"><rect width="6" height="6"/></g>
<g transform="translate(672,816) scale(4.12)"><rect width="6" height="6"/></g>
<g transform="translate(696,816) scale(4.12)"><rect width="6" height="6"/></g>
<g transform="translate(720,816) scale(4.12)"><rect width="6" height="6"/></g>
<g transform="translate(744,816) scale(4.12)"><rect width="6" height="6"/></g>
<g transform="translate(768,816) scale(4.12)"><rect width="6" height="6"/></g>
<g transform="translate(792,816) scale(4.12)"><rect width="6" height="6"/></g>
<g transform="translate(816,816) scale(4.12)"><rect width="6" height="6"/></g>
<g transform="translate(864,816) scale(4.12)"><rect width="6" height="6"/></g>
<g transform="translate(912,816) scale(4.12)"><rect width="6" height="6"/></g>
<g transform="translate(240,840) scale(4.12)"><rect width="6" height="6"/></g>
<g transform="translate(288,840) scale(4.12)"><rect width="6" height="6"/></g>
<g transform="translate(312,840) scale(4.12)"><rect width="6" height="6"/></g>
<g transform="translate(336,840) scale(4.12)"><rect width="6" height="6"/></g>
<g transform="translate(360,840) scale(4.12)"><rect width="6" height="6"/></g>
<g transform="translate(384,840) scale(4.12)"><rect width="6" height="6"/></g>
<g transform="translate(408,840) scale(4.12)"><rect width="6" height="6"/></g>
<g transform="translate(600,840) scale(4.12)"><rect width="6" height="6"/></g>
<g transform="translate(720,840) scale(4.12)"><rect width="6" height="6"/></g>
<g transform="translate(768,840) scale(4.12)"><rect width="6" height="6"/></g>
<g transform="translate(816,840) scale(4.12)"><rect width="6" height="6"/></g>
<g transform="translate(864,840) scale(4.12)"><rect width="6" height="6"/></g>
<g transform="translate(888,840) scale(4.12)"><rect width="6" height="6"/></g>
<g transform="translate(240,864) scale(4.12)"><rect width="6" height="6"/></g>
<g transform="translate(408,864) scale(4.12)"><rect width="6" height="6"/></g>
<g transform="translate(432,864) scale(4.12)"><rect width="6" height="6"/></g>
<g transform="translate(456,864) scale(4.12)"><rect width="6" height="6"/></g>
<g transform="translate(528,864) scale(4.12)"><rect width="6" height="6"/></g>
<g transform="translate(552,864) scale(4.12)"><rect width="6" height="6"/></g>
<g transform="translate(576,864) scale(4.12)"><rect width="6" height="6"/></g>
<g transform="translate(648,864) scale(4.12)"><rect width="6" height="6"/></g>
<g transform="translate(672,864) scale(4.12)"><rect width="6" height="6"/></g>
<g transform="translate(720,864) scale(4.12)"><rect width="6" height="6"/></g>
<g transform="translate(744,864) scale(4.12)"><rect width="6" height="6"/></g>
<g transform="translate(792,864) scale(4.12)"><rect width="6" height="6"/></g>
<g transform="translate(864,864) scale(4.12)"><rect width="6" height="6"/></g>
<g transform="translate(912,864) scale(4.12)"><rect width="6" height="6"/></g>
<g transform="translate(240,888) scale(4.12)"><rect width="6" height="6"/></g>
<g transform="translate(360,888) scale(4.12)"><rect width="6" height="6"/></g>
<g transform="translate(480,888) scale(4.12)"><rect width="6" height="6"/></g>
<g transform="translate(552,888) scale(4.12)"><rect width="6" height="6"/></g>
<g transform="translate(576,888) scale(4.12)"><rect width="6" height="6"/></g>
<g transform="translate(600,888) scale(4.12)"><rect width="6" height="6"/></g>
<g transform="translate(672,888) scale(4.12)"><rect width="6" height="6"/></g>
<g transform="translate(696,888) scale(4.12)"><rect width="6" height="6"/></g>
<g transform="translate(720,888) scale(4.12)"><rect width="6" height="6"/></g>
<g transform="translate(744,888) scale(4.12)"><rect width="6" height="6"/></g>
<g transform="translate(768,888) scale(4.12)"><rect width="6" height="6"/></g>
<g transform="translate(792,888) scale(4.12)"><rect width="6" height="6"/></g>
<g transform="translate(912,888) scale(4.12)"><rect width="6" height="6"/></g>
<g transform="translate(264,912) scale(4.12)"><rect width="6" height="6"/></g>
<g transform="translate(312,912) scale(4.12)"><rect width="6" height="6"/></g>
<g transform="translate(336,912) scale(4.12)"><rect width="6" height="6"/></g>
<g transform="translate(408,912) scale(4.12)"><rect width="6" height="6"/></g>
<g transform="translate(576,912) scale(4.12)"><rect width="6" height="6"/></g>
<g transform="translate(600,912) scale(4.12)"><rect width="6" height="6"/></g>
<g transform="translate(624,912) scale(4.12)"><rect width="6" height="6"/></g>
<g transform="translate(648,912) scale(4.12)"><rect width="6" height="6"/></g>
<g transform="translate(744,912) scale(4.12)"><rect width="6" height="6"/></g>
<g transform="translate(768,912) scale(4.12)"><rect width="6" height="6"/></g>
<g transform="translate(840,912) scale(4.12)"><rect width="6" height="6"/></g>
<g transform="translate(864,912) scale(4.12)"><rect width="6" height="6"/></g>
<g transform="translate(888,912) scale(4.12)"><rect width="6" height="6"/></g>
<g transform="translate(912,912) scale(4.12)"><rect width="6" height="6"/></g>
<g transform="translate(48,48)"><g transform="scale(12)"><path d="M0,0v14h14V0H0z M12,12H2V2h10V12z"/></g></g>
<g transform="translate(768,48)"><g transform="scale(12)"><path d="M0,0v14h14V0H0z M12,12H2V2h10V12z"/></g></g>
<g transform="translate(48,768)"><g transform="scale(12)"><path d="M0,0v14h14V0H0z M12,12H2V2h10V12z"/></g></g>
<g transform="translate(96,96)"><g transform="scale(12)"><rect width="6" height="6"/></g></g>
<g transform="translate(816,96)"><g transform="scale(12)"><rect width="6" height="6"/></g></g>
<g transform="translate(96,816)"><g transform="scale(12)"><rect width="6" height="6"/></g></g>
</g></svg>
