<?xml version="1.0" encoding="UTF-8" standalone="no"?><svg xmlns="http://www.w3.org/2000/svg" xmlns:xlink="http://www.w3.org/1999/xlink" contentScriptType="text/ecmascript" fill="#00bf63" zoomAndPan="magnify" contentStyleType="text/css" viewBox="-2.1 -18.1 517.7 493.6" preserveAspectRatio="xMidYMid meet" version="1"><g id="change1_1"><path fill="inherit" d="M 0.0976562 181.277344 C 66.175781 122.191406 65.75 122.519531 115.757812 186.941406 C 143.195312 222.285156 172.34375 256.300781 204.8125 295.90625 C 221.601562 265.972656 233.917969 241.0625 248.898438 217.867188 C 292.199219 150.828125 334.28125 82.800781 381.410156 18.507812 C 408.265625 -18.132812 438.601562 7.808594 464.785156 26.535156 C 493.0625 46.757812 515.636719 69.796875 486.476562 105.488281 C 455.414062 143.507812 418.519531 177.660156 392.648438 218.828125 C 347.820312 290.171875 310.578125 366.246094 267.59375 438.820312 C 259.023438 453.296875 240.242188 467.007812 223.941406 470.410156 C 210.164062 473.285156 196.039062 473.542969 182.023438 473.15625 C 175.128906 472.964844 152.113281 475.496094 146.824219 470.566406 C 146.035156 469.832031 145.539062 468.84375 145.058594 467.878906 C 121.425781 420.429688 97.179688 373.292969 73.316406 325.960938 C 61.023438 301.667969 48.730469 277.375 36.433594 253.082031 C 33.164062 246.617188 -2.09375 183.160156 0.0976562 181.277344"/></g></svg>